<svg width="390" height="550" viewBox="0 0 390 550" fill="EEEEEE" xmlns="http://www.w3.org/2000/svg">
<path d="M340.557 13.326C390.458 45.598 400.799 147.405 441.273 224.126C481.748 300.846 552.409 353.579 552.226 407.488C552.069 461.945 481.068 517.577 431.453 572.191C381.264 626.282 352.984 678.779 310.367 741.859C267.725 804.391 211.295 877.479 140.973 901.18C70.1027 924.906 -14.111 899.219 -72.6296 847.558C-131.174 795.348 -163.476 717.137 -172.38 645.512C-181.31 573.338 -166.817 508.298 -163.71 446.551C-160.576 385.352 -169.376 327.471 -150.078 282.552C-130.232 237.607 -82.2888 205.623 -34.0061 169.222C14.3028 133.371 63.4995 93.0768 132.594 55.1348C201.689 17.1928 290.629 -19.4948 340.557 13.326Z" fill="#EEEEEE"/>
</svg>
