<svg width="936" height="257" viewBox="0 0 936 257" fill="none" xmlns="http://www.w3.org/2000/svg">
<path d="M870.308 7.3501C872.957 11.4401 877.925 17.1661 881.568 20.4381C895.808 33.1172 909.717 54.7942 909.717 63.7923C909.717 77.6983 887.197 99.7844 857.392 115.326C843.814 122.279 810.035 134.958 782.547 143.547C729.229 160.317 728.898 163.18 782.216 153.773C832.885 144.774 895.808 120.234 910.711 103.874C916.009 97.7394 916.341 98.5574 916.341 114.099C916.341 148.456 886.535 173.814 814.34 202.444C793.807 210.215 771.619 217.986 765.327 219.622C755.06 222.076 748.106 227.802 751.417 231.483C753.404 234.346 818.645 222.076 840.834 215.123C885.873 200.399 925.945 165.634 932.899 135.776C937.535 114.917 936.873 71.9723 931.574 56.4302C924.289 34.7532 887.529 0.397079 871.301 0.397079C866.665 0.397079 866.334 1.21507 870.308 7.3501Z" fill="#223D4D"/>
<path d="M36.7549 16.7561C29.4691 21.2552 18.2093 31.4802 11.917 39.6602L0.657227 53.9753V96.5114C0.657227 145.592 3.63777 152.954 30.7938 175.04C99.015 231.073 331.497 266.656 552.719 254.386C662.999 248.66 713.337 241.707 709.032 233.118C708.039 230.664 650.084 230.255 557.687 231.891C454.362 233.936 388.127 233.118 343.419 229.846C182.801 217.576 61.9239 184.856 28.1444 144.774C20.1963 135.366 18.8716 130.458 18.8716 111.644V89.9673L28.1444 97.7384C77.1577 140.684 191.743 168.905 362.627 180.766C433.829 185.674 533.18 184.038 626.57 175.858C716.98 168.087 697.441 164.815 575.239 166.86C460.985 169.314 344.744 164.406 278.841 155.408C239.432 150.091 140.743 125.959 103.32 112.462C58.9433 96.5114 25.1639 73.1983 25.8262 58.4743C25.8262 54.7932 33.4432 44.1592 42.7159 35.1612C51.9887 26.1632 60.268 16.3471 61.2615 13.4841C63.2485 6.1221 51.9887 7.34911 36.7549 16.7561Z" fill="#223D4D"/>
<path d="M578.307 172.049L647.5 169L696 163.5L753.5 154L821.307 138.049" stroke="#223D4D" stroke-width="10"/>
<path d="M599.539 239.588L668 237.5L713 233L765.5 223.5L838.5 204.001" stroke="#223D4D" stroke-width="15"/>
</svg>
