<svg width="167.000000pt" height="167.000000pt" viewBox="0 0 167.000000 167.000000" fill="#3e5c6d" xmlns="http://www.w3.org/2000/svg">
<path d="M45.1644 1.87363C46.6207 2.76012 46.8027 4.43459 46.8027 13.8905C46.8027 26.0058 46.3476 27.3848 42.0698 27.3848C38.6111 27.3848 37.7009 24.5283 37.7009 13.4965C37.7009 6.01057 37.974 4.43459 39.5213 2.76012C41.5237 0.593147 42.889 0.396151 45.1644 1.87363Z" fill="#3e5c6d"/>
<path d="M72.105 14.1862C75.3816 16.6486 74.5624 19.2096 67.5541 26.991C60.9097 34.3784 57.8151 35.9544 55.1756 33.0979C52.8091 30.5369 54.0834 27.6805 61.2738 20.1946C65.1876 16.0576 68.8283 12.6102 69.2834 12.6102C69.7385 12.6102 71.0127 13.2997 72.105 14.1862Z" fill="#3e5c6d"/>
<path d="M24.4121 20.3918C31.3295 27.7792 31.6936 28.3702 30.8744 31.0297C30.1462 32.9996 29.2361 33.8861 27.3247 34.0831C25.1403 34.3786 23.684 33.2951 18.0409 27.2867C10.8504 19.5053 9.84924 16.7474 13.3079 14.1864C14.4001 13.2999 15.7654 12.6104 16.2205 12.6104C16.6756 12.6104 20.3163 16.1564 24.4121 20.3918Z" fill="#3e5c6d"/>
<path d="M23.5015 43.7359C25.4128 45.8044 25.3218 48.3653 23.3194 50.3353C21.9541 51.6158 19.7697 52.0098 12.7613 52.0098C2.65833 52.0098 0.382885 51.1233 0.382885 47.2818C0.382885 42.7509 1.74816 42.1599 12.3062 42.1599C19.9517 42.1599 22.4092 42.4554 23.5015 43.7359Z" fill="#3e5c6d"/>
<path d="M50.443 44.8191C53.8107 47.3801 103.415 93.1819 105.691 96.0384C108.239 98.9934 108.421 104.115 106.146 107.169C104.053 110.025 98.8646 111.01 86.1221 111.109C79.6598 111.109 74.8358 111.601 72.9245 112.488C71.2861 113.177 66.5532 117.905 62.3664 123.027C58.1796 128.149 53.5376 133.468 52.0814 134.945C48.7137 138.491 44.2538 138.59 40.7041 135.339L38.1556 132.975L37.8826 92.4925C37.7005 58.6089 37.8826 51.517 38.9748 48.5621C40.9772 43.3417 46.2562 41.6672 50.443 44.8191ZM46.8023 90.424C46.8023 109.927 47.0754 125.883 47.4394 125.785C47.8945 125.686 51.8993 121.156 56.3592 115.64C61.0011 110.025 66.0981 104.903 68.1005 103.82C70.74 102.441 74.4718 101.85 84.3927 101.357L97.3173 100.766L72.7424 77.9147C59.1808 65.3068 47.8945 55.063 47.4394 54.9645C47.0754 54.9645 46.8023 70.9213 46.8023 90.424Z" fill="#3e5c6d"/>
</svg>
