<?xml version="1.0" standalone="no"?>
<!DOCTYPE svg PUBLIC "-//W3C//DTD SVG 20010904//EN"
 "http://www.w3.org/TR/2001/REC-SVG-20010904/DTD/svg10.dtd">
<svg version="1.0" xmlns="http://www.w3.org/2000/svg"
 width="167.000000pt" height="167.000000pt" viewBox="0 0 167.000000 167.000000"
 preserveAspectRatio="xMidYMid meet">

<g transform="translate(0.000000,167.000000) scale(0.100000,-0.100000)"
fill="#3e5c6d" stroke="none">
<path d="M998 1519 c-16 -9 -18 -26 -18 -122 0 -123 5 -137 52 -137 38 0 48
29 48 141 0 76 -3 92 -20 109 -22 22 -37 24 -62 9z"/>
<path d="M702 1394 c-36 -25 -27 -51 50 -130 73 -75 107 -91 136 -62 26 26 12
55 -67 131 -43 42 -83 77 -88 77 -5 0 -19 -7 -31 -16z"/>
<path d="M1226 1331 c-76 -75 -80 -81 -71 -108 8 -20 18 -29 39 -31 24 -3 40
8 102 69 79 79 90 107 52 133 -12 9 -27 16 -32 16 -5 0 -45 -36 -90 -79z"/>
<path d="M1236 1094 c-21 -21 -20 -47 2 -67 15 -13 39 -17 116 -17 111 0 136
9 136 48 0 46 -15 52 -131 52 -84 0 -111 -3 -123 -16z"/>
<path d="M940 1083 c-37 -26 -582 -491 -607 -520 -28 -30 -30 -82 -5 -113 23
-29 80 -39 220 -40 71 0 124 -5 145 -14 18 -7 70 -55 116 -107 46 -52 97 -106
113 -121 37 -36 86 -37 125 -4 l28 24 3 411 c2 344 0 416 -12 446 -22 53 -80
70 -126 38z m40 -463 c0 -198 -3 -360 -7 -359 -5 1 -49 47 -98 103 -51 57
-107 109 -129 120 -29 14 -70 20 -179 25 l-142 6 270 232 c149 128 273 232
278 233 4 0 7 -162 7 -360z"/>
</g>
</svg>
