<?xml version="1.0" encoding="UTF-8"?><svg xmlns="http://www.w3.org/2000/svg" viewBox="0 0 76 76"><defs><style>.cls-1{fill:#010101;}.cls-1,.cls-2{stroke-width:0px;}.cls-2{fill:#fff;}</style></defs><g id="Layer_1"><circle class="cls-1" cx="38" cy="38" r="38"/></g><g id="Layer_2"><path class="cls-2" d="M25.55,20.81c0,1.5-5.8,4.1-6.5,3-.9-1.4.3-3,2.9-4,2.2-.8,3.6-.5,3.6,1Z"/><path class="cls-2" d="M33.05,20.11c1,.8,1.5,1.9,1.1,2.5-.9,1.5-5.6-.6-5.6-2.5,0-1.7,2.1-1.7,4.5,0Z"/><path class="cls-2" d="M48.24,20.41c.4,1.3-4.5,3.7-5.8,2.9-1.5-1-1-2.1,1.4-3.3,2.5-1.2,3.9-1.1,4.4.4Z"/><path class="cls-2" d="M55.64,20.41c2.4,1.2,2.8,1.8,1.9,2.9s-1.6,1.1-4-.1c-1.8-1-2.7-2-2.3-2.9.6-1.9.7-1.8,4.4.1Z"/><path class="cls-2" d="M16.95,26.71c1,1.6-.6,7.1-2,7.1-1.5,0-1.8-2.1-.8-5.8.7-2.3,1.9-2.9,2.8-1.3Z"/><path class="cls-2" d="M62.54,31.01c0,4-2.7,3.6-3.3-.5-.5-3.3,1.1-5.5,2.5-3.4.4.7.8,2.4.8,3.9Z"/><path class="cls-2" d="M19.45,40.51c.9,2.1.9,2.8-.1,3.4-1.2.8-2.9-1-4.1-4.4-1.1-2.9,2.8-2,4.2,1Z"/><path class="cls-2" d="M61.54,38.31c0,.4-.7,2-1.6,3.7-1.1,2.2-1.9,2.7-2.7,1.9-1.4-1.4.7-6.1,2.8-6.1.8,0,1.5.2,1.5.5Z"/><path class="cls-2" d="M25.05,47.81c1.5,1.6,1.6,2.3.6,3.3-1,.9-1.6.7-3.2-1.2-3.1-3.8-.7-5.7,2.6-2.1Z"/><path class="cls-2" d="M55.54,47.11c0,.8-.9,2.2-2.1,3.3-1.6,1.4-2.2,1.6-2.8.5-.5-.8-.2-2,.8-3.1,1.9-2.2,4.1-2.5,4.1-.7Z"/><path class="cls-2" d="M33.15,54.91c.3.6.2,1.5-.3,2-1.3,1.3-5.9-2.4-4.9-3.9.8-1.3,3.9-.1,5.2,1.9Z"/><path class="cls-2" d="M46.74,56.01c-1.7,1.7-2.5,1.9-3.3,1.1-.9-.9-.7-1.7,1.2-3.2,3.3-2.7,5.1-.9,2.1,2.1Z"/><path class="cls-2" d="M41.25,59.51c.2.5-.3,1.5-1.1,2.2-1.9,1.6-6-.7-4.6-2.4,1.2-1.4,5.3-1.2,5.7.2Z"/><path class="cls-2" d="M40.21,24.67c.8,1.3-.3,5-1.5,5-1.3,0-3.2-3.9-2.5-5,.8-1.3,3.2-1.3,4,0Z"/></g></svg>