<svg width="216" height="1157" viewBox="0 0 216 1157" fill="none" xmlns="http://www.w3.org/2000/svg">
<path d="M21.1684 1033.17L26.6466 1038.65M100.602 1112.61C104.256 1108.95 82.7324 1078.44 36.0417 1021.07C34.3775 1019.02 32.3098 1017.34 29.9677 1016.14C27.6257 1014.93 25.0595 1014.21 22.4295 1014.04C19.7995 1013.87 17.1622 1014.24 14.6822 1015.13C12.2022 1016.02 9.93276 1017.42 8.01569 1019.23C6.09861 1021.04 4.57503 1023.22 3.54008 1025.65C2.50513 1028.07 1.98104 1030.68 2.00054 1033.32C2.02003 1035.95 2.58269 1038.56 3.65339 1040.96C4.72409 1043.37 6.27983 1045.53 8.22345 1047.31C66.1554 1094.49 96.9483 1116.26 100.602 1112.61Z" stroke="#789DB2" stroke-width="3" stroke-linecap="round" stroke-linejoin="round"/>
<path d="M36.5179 2C-5.51241 99.9156 3.97135 224.37 67.9898 313.305C141.991 416.108 264.334 686.935 191.847 814.747C119.36 942.559 -33.6699 1010.89 26.2284 1155" stroke="#F24822" stroke-width="3" stroke-linecap="round" stroke-dasharray="4.64 4.64"/>
</svg>
