<svg width="1512" height="3561" viewBox="0 0 1512 3561" fill="none" xmlns="http://www.w3.org/2000/svg">
<g clip-path="url(#clip0_246_196)">
<path d="M470 5C-28.5 68.5 285.383 637.887 600.675 919C965.131 1243.95 1567.67 2100 1210.67 2504C853.675 2908 99.9988 3124 394.999 3579.5" stroke="#F24822" stroke-width="9" stroke-linecap="round" stroke-dasharray="18 18"/>
<path d="M581.544 2993.67L602.848 3016.73M890.453 3327.98C904.663 3312.61 820.959 3184.21 639.385 2942.74C632.913 2934.14 624.872 2927.08 615.763 2921.99C606.655 2916.9 596.676 2913.9 586.448 2913.17C576.22 2912.45 565.964 2914.01 556.319 2917.77C546.675 2921.52 537.85 2927.39 530.394 2935C522.939 2942.61 517.014 2951.81 512.989 2962.01C508.964 2972.21 506.926 2983.2 507.002 2994.29C507.078 3005.39 509.266 3016.34 513.43 3026.48C517.594 3036.61 523.644 3045.71 531.202 3053.2C756.493 3251.76 876.243 3343.36 890.453 3327.98Z" stroke="#789DB2" stroke-width="15" stroke-linecap="round" stroke-linejoin="round"/>
</g>
<defs>
<clipPath id="clip0_246_196">
<rect width="1512" height="3561" fill="white"/>
</clipPath>
</defs>
</svg>
