<svg width="390" height="1153" viewBox="0 0 390 1153" fill="none" xmlns="http://www.w3.org/2000/svg">
<g clip-path="url(#clip0_246_195)">
<path d="M142.168 1031.17L147.647 1036.65M221.602 1110.61C225.256 1106.95 203.732 1076.44 157.042 1019.07C155.378 1017.02 153.31 1015.34 150.968 1014.14C148.626 1012.93 146.059 1012.21 143.429 1012.04C140.799 1011.87 138.162 1012.24 135.682 1013.13C133.202 1014.02 130.933 1015.42 129.016 1017.23C127.099 1019.04 125.575 1021.22 124.54 1023.65C123.505 1026.07 122.981 1028.68 123.001 1031.32C123.02 1033.95 123.583 1036.56 124.653 1038.96C125.724 1041.37 127.28 1043.53 129.223 1045.31C187.155 1092.49 217.948 1114.26 221.602 1110.61Z" stroke="#789DB2" stroke-width="3" stroke-linecap="round" stroke-linejoin="round"/>
<path d="M158.518 0C116.488 97.9156 125.971 222.37 189.99 311.305C263.991 414.108 386.334 684.935 313.847 812.747C241.36 940.559 88.3301 1008.89 148.228 1153" stroke="#F24822" stroke-width="3" stroke-linecap="round" stroke-dasharray="4.64 4.64"/>
</g>
<defs>
<clipPath id="clip0_246_195">
<rect width="390" height="1153" fill="white"/>
</clipPath>
</defs>
</svg>
