<svg width="934" height="320" viewBox="0 0 934 320" fill="none" xmlns="http://www.w3.org/2000/svg">
<path d="M349.717 3.83856C197.709 14.0636 67.5589 47.1927 25.5002 86.8658C6.29225 104.862 0 122.04 0 156.805C0 202.204 3.97405 212.838 34.1106 251.693C62.5913 288.503 77.494 303.637 82.7927 301.183C84.4486 300.365 81.7992 291.775 76.1693 281.55C70.8706 271.734 66.8965 263.145 67.5589 262.327C67.8901 261.509 80.1434 265.599 94.7149 270.916C241.092 324.905 557.361 335.948 757.719 293.82C789.843 286.867 827.265 275.824 865.681 261.918C870.648 260.282 869.324 263.963 860.051 279.505C853.428 290.139 848.791 300.365 849.785 302.41C853.428 309.772 892.837 268.462 917.675 231.652L933.902 207.521V160.895C933.902 116.723 933.571 113.86 925.292 101.999C876.941 30.8326 614.322 -13.7485 349.717 3.83856ZM652.407 32.0596C787.525 49.6467 882.902 79.9128 909.396 114.269C917.344 124.494 918.006 127.766 915.357 137.582C907.74 164.985 851.441 191.979 748.778 218.564C716.985 226.335 686.186 235.742 680.888 239.014C671.284 244.331 672.277 244.74 697.115 242.286C737.849 239.014 833.557 217.746 860.713 206.294C873.96 200.568 891.843 191.161 899.792 185.435C908.071 179.709 915.357 175.21 916.019 175.21C916.681 175.21 917.344 180.527 917.344 187.071C917.344 229.198 815.343 267.644 649.095 288.503C578.225 297.093 374.554 298.32 304.677 290.548C130.15 270.507 19.8703 230.016 19.8703 185.844V172.756L45.7016 188.298C95.3772 218.155 203.67 243.513 321.236 253.329C386.145 258.646 575.575 256.192 584.848 249.648C588.822 246.785 570.939 244.74 527.887 243.104C334.814 235.742 221.885 223.063 133.131 199.341C68.8836 182.163 19.8703 153.533 19.8703 133.083C20.2014 107.725 57.2926 83.1848 127.501 62.3257C180.157 46.7837 236.125 37.7857 347.73 26.3336C378.86 23.0616 619.29 27.5606 652.407 32.0596Z" fill="#223D4D"/>
<path d="M163.928 66.8251C110.941 79.0951 79.8108 92.5921 63.9146 110.997C49.6742 126.948 55.6353 145.762 79.1484 160.895C107.629 178.482 181.811 198.114 208.636 194.842C217.578 194.024 209.63 190.343 174.857 179.709C123.857 164.167 80.1419 144.126 74.8432 133.083C71.8627 127.357 72.525 124.494 78.8173 118.768C90.7394 107.316 121.207 94.6371 175.519 77.4591C223.87 61.917 225.857 61.099 206.98 61.508C196.052 61.508 176.844 63.9621 163.928 66.8251Z" fill="#223D4D"/>
<path d="M720.299 69.2784C721.293 70.5054 728.247 72.9594 735.864 74.5955C785.209 84.0025 863.365 114.269 869.326 126.13C875.95 139.218 848.794 155.578 788.52 174.801C767.988 181.754 750.105 188.298 748.78 189.525C745.137 194.433 789.845 186.662 820.644 176.846C852.436 167.03 876.281 153.533 881.911 142.081C887.209 131.447 881.58 114.269 869.989 105.68C854.755 93.8185 821.638 81.9575 786.533 75.0045C750.436 68.0514 718.643 65.1884 720.299 69.2784Z" fill="#223D4D"/>
<path d="M395.751 89.7278C328.523 100.771 300.373 126.947 331.172 150.26C336.802 154.35 353.692 161.303 368.595 165.393C405.355 176.027 522.258 176.027 559.349 165.802C626.246 147.397 625.583 113.859 557.693 95.0448C529.875 87.6828 428.868 84.0018 395.751 89.7278ZM547.758 111.814C570.278 117.54 586.174 126.947 586.174 134.309C586.174 136.354 581.206 135.536 575.245 132.264C561.998 125.311 489.472 117.949 434.166 117.949C406.679 117.54 394.095 116.313 397.738 113.859C415.29 101.18 503.381 99.9528 547.758 111.814Z" fill="#223D4D"/>
</svg>
