<?xml version="1.0" standalone="no"?>
<!DOCTYPE svg PUBLIC "-//W3C//DTD SVG 20010904//EN"
 "http://www.w3.org/TR/2001/REC-SVG-20010904/DTD/svg10.dtd">
<svg version="1.0" xmlns="http://www.w3.org/2000/svg"
 width="1600.000000pt" height="1600.000000pt" viewBox="0 0 1600.000000 1600.000000"
 preserveAspectRatio="xMidYMid meet">

<g transform="translate(0.000000,1600.000000) scale(0.100000,-0.100000)"
fill="#f24822" stroke="none">
<path d="M7865 9904 c-70 -17 -155 -67 -200 -117 -77 -85 -94 -204 -44 -316
51 -116 163 -182 371 -216 119 -20 152 -31 188 -62 26 -21 30 -32 30 -73 0
-42 -4 -51 -28 -69 -43 -30 -115 -45 -187 -38 -114 11 -209 79 -258 184 l-24
53 -99 -62 c-54 -34 -101 -63 -104 -65 -10 -9 66 -135 105 -174 89 -91 174
-131 319 -150 184 -24 365 27 455 127 54 60 86 160 77 237 -14 113 -73 190
-181 237 -38 16 -171 52 -245 65 -143 27 -219 93 -191 168 17 44 66 67 143 67
37 0 79 -5 95 -11 40 -15 88 -64 109 -112 10 -23 19 -44 20 -46 2 -3 151 80
192 107 10 7 7 20 -15 61 -38 75 -97 130 -178 171 -68 33 -74 34 -200 36 -71
2 -139 1 -150 -2z"/>
<path d="M4210 9355 l0 -545 120 0 120 0 0 145 0 145 39 43 c120 132 110 124
127 102 23 -30 175 -264 230 -355 l49 -80 142 0 c79 0 143 2 143 6 0 5 -26 45
-178 279 -182 279 -209 321 -221 342 -10 21 4 39 184 240 l195 218 -153 3
-152 3 -54 -58 c-29 -32 -117 -129 -194 -215 -77 -87 -144 -158 -149 -158 -4
0 -8 97 -8 215 l0 215 -120 0 -120 0 0 -545z"/>
<path d="M5250 9573 c0 -453 15 -531 121 -647 97 -107 269 -155 440 -124 159
30 250 94 315 225 l39 78 3 398 3 397 -120 0 -121 0 0 -337 c0 -276 -3 -347
-16 -392 -28 -100 -95 -151 -198 -151 -108 0 -182 58 -205 160 -6 26 -11 188
-11 383 l0 337 -125 0 -125 0 0 -327z"/>
<path d="M6330 9355 l0 -545 125 0 125 0 0 457 c0 251 4 453 8 448 5 -6 33
-66 62 -135 46 -108 174 -407 200 -465 5 -11 37 -84 71 -162 l61 -143 214 0
214 0 0 545 0 545 -125 0 -125 0 -1 -457 c0 -400 -2 -454 -14 -428 -39 84 -81
179 -160 365 -86 202 -118 276 -135 315 -5 11 -18 40 -28 65 -11 25 -29 66
-40 93 l-21 47 -215 0 -216 0 0 -545z"/>
<path d="M8490 9785 l0 -115 190 0 190 0 0 -430 0 -430 120 0 120 0 0 430 0
430 190 0 190 0 0 115 0 115 -500 0 -500 0 0 -115z"/>
<path d="M7085 8545 c-99 -27 -177 -85 -226 -170 -32 -55 -33 -188 -2 -255 48
-106 176 -187 334 -211 169 -25 233 -52 256 -107 13 -32 13 -39 -1 -69 -23
-48 -81 -73 -173 -73 -136 0 -245 66 -295 180 -12 27 -25 50 -30 50 -5 0 -27
-12 -51 -27 -54 -35 -96 -60 -125 -75 -18 -9 -22 -17 -17 -37 11 -43 56 -113
105 -161 91 -92 200 -138 350 -147 119 -7 214 7 294 45 155 73 218 189 191
353 -23 144 -113 207 -378 263 -129 28 -184 52 -216 92 -38 48 -25 97 34 134
30 19 47 22 110 18 95 -4 148 -38 184 -116 14 -29 30 -51 35 -50 32 9 186 105
186 116 0 24 -30 79 -68 122 -48 56 -128 106 -199 125 -71 19 -230 19 -298 0z"/>
<path d="M4210 8000 l0 -550 120 0 120 0 0 473 c0 269 4 466 9 457 5 -8 16
-44 26 -80 9 -36 25 -96 35 -135 73 -278 104 -397 115 -445 21 -90 65 -252 71
-262 3 -4 88 -8 188 -8 182 0 184 0 189 23 3 12 16 65 30 117 84 322 138 531
167 645 18 72 36 137 39 145 3 8 8 -196 11 -455 l5 -470 120 0 120 0 0 545 0
545 -225 0 -225 0 -33 -125 c-18 -69 -39 -152 -46 -185 -8 -33 -26 -105 -41
-160 -15 -55 -31 -116 -35 -135 -46 -192 -74 -290 -80 -283 -5 4 -18 49 -30
98 -12 50 -26 104 -31 120 -5 17 -20 75 -33 130 -14 55 -43 170 -65 255 -22
85 -43 166 -46 180 -4 14 -11 44 -17 68 l-11 42 -223 0 -224 0 0 -550z"/>
<path d="M5740 8182 c0 -298 3 -379 15 -427 52 -198 215 -315 440 -315 186 0
336 82 409 222 49 95 57 170 54 543 l-3 340 -122 3 -123 3 0 -350 c0 -329 -1
-354 -21 -405 -24 -66 -74 -112 -133 -122 -123 -21 -210 18 -252 111 -5 11
-11 187 -14 390 l-5 370 -122 3 -123 3 0 -369z"/>
<path d="M7825 8538 c-3 -7 -4 -254 -3 -548 l3 -535 425 0 425 0 3 113 3 112
-306 0 -305 0 0 110 0 110 270 0 270 0 0 113 0 112 -270 -3 -270 -2 0 100 0
100 295 0 295 0 0 115 0 115 -415 0 c-323 0 -417 -3 -420 -12z"/>
<path d="M8802 8153 c4 -369 6 -401 24 -443 78 -180 221 -270 429 -270 188 0
338 81 408 221 50 99 57 161 57 542 l0 347 -125 0 -124 0 -3 -367 c-3 -359 -4
-369 -25 -410 -29 -54 -76 -88 -135 -101 -96 -20 -198 21 -234 95 -17 35 -19
70 -24 408 l-5 370 -123 3 -123 3 3 -398z"/>
<path d="M9880 8000 l0 -551 123 3 122 3 5 465 c3 256 8 454 11 440 4 -14 35
-133 69 -265 78 -298 101 -391 137 -530 l28 -110 179 -3 c116 -2 183 1 190 8
6 6 18 41 27 78 10 37 29 112 44 167 14 55 44 170 66 255 22 85 54 207 71 270
17 63 33 126 37 140 3 14 8 -186 11 -445 l5 -470 120 0 120 0 3 548 2 547
-227 -2 -226 -3 -44 -165 c-23 -91 -49 -194 -57 -230 -8 -36 -31 -126 -51
-200 -20 -74 -43 -162 -50 -195 -19 -82 -32 -114 -38 -95 -8 23 -68 255 -88
340 -10 41 -27 109 -37 150 -11 41 -32 122 -46 180 -15 58 -35 130 -44 160
l-17 55 -223 3 -222 2 0 -550z"/>
<path d="M11185 7196 c-116 -29 -199 -88 -238 -168 -60 -124 -38 -257 57 -352
65 -65 151 -100 326 -131 105 -19 175 -47 191 -77 6 -11 11 -36 11 -55 0 -68
-64 -105 -183 -105 -65 -1 -85 4 -142 31 -73 35 -124 88 -152 159 -10 23 -20
42 -23 42 -11 0 -202 -123 -202 -131 0 -24 70 -131 114 -174 101 -99 227 -145
395 -145 209 0 357 73 422 208 32 65 32 189 0 255 -48 100 -181 170 -381 202
-111 18 -201 69 -214 121 -10 40 20 90 65 108 114 46 258 -16 291 -125 12 -40
17 -45 34 -30 5 5 26 19 47 30 152 85 142 72 108 140 -52 101 -151 172 -279
200 -68 14 -183 13 -247 -3z"/>
<path d="M4210 6648 l0 -548 299 0 c313 0 432 12 490 48 114 71 153 136 154
252 0 57 -5 85 -20 115 -28 54 -78 100 -135 125 -27 11 -48 22 -48 24 0 2 22
17 50 34 30 18 61 50 79 79 28 43 31 56 31 131 0 104 -27 165 -97 216 -82 60
-121 65 -480 69 l-323 3 0 -548z m613 306 c41 -21 47 -31 47 -77 0 -92 -35
-107 -255 -107 l-165 0 0 100 0 100 170 0 c139 0 177 -3 203 -16z m37 -423
c38 -21 49 -42 50 -89 0 -101 -26 -112 -270 -112 l-190 0 0 103 c0 57 3 107 8
111 13 14 374 2 402 -13z"/>
<path d="M5285 7192 c-3 -3 -5 -250 -5 -549 l0 -543 125 0 125 0 0 211 0 211
128 -4 c202 -7 219 -24 234 -233 14 -189 5 -179 171 -183 155 -3 150 -6 118
75 -10 26 -24 93 -30 147 -17 142 -51 206 -134 248 l-28 14 50 33 c178 114
205 344 57 479 -93 85 -118 89 -488 95 -175 2 -320 2 -323 -1z m615 -244 c80
-55 58 -171 -37 -197 -21 -6 -104 -11 -185 -11 l-148 0 0 115 0 115 169 0
c158 0 170 -1 201 -22z"/>
<path d="M7703 7193 l-143 -4 0 -544 0 -545 120 0 120 0 0 455 c0 297 3 455
10 455 6 0 10 -5 10 -11 0 -9 103 -250 156 -366 8 -17 14 -33 14 -36 0 -3 16
-40 36 -84 40 -88 41 -90 114 -263 29 -69 57 -131 63 -137 7 -10 63 -13 218
-13 l209 0 -2 548 -3 547 -120 -1 -120 -2 -5 -453 -5 -453 -104 240 c-57 131
-130 302 -163 379 -33 77 -71 163 -84 192 -13 29 -28 63 -33 76 -10 27 -3 26
-288 20z"/>
<path d="M8963 7193 l-163 -3 0 -545 0 -545 239 0 c309 0 393 13 526 82 105
54 211 203 235 327 20 105 9 283 -21 351 -40 89 -61 122 -114 176 -136 138
-265 167 -702 157z m372 -237 c101 -27 155 -68 196 -152 32 -65 39 -209 14
-283 -22 -67 -82 -133 -147 -162 -46 -20 -72 -24 -200 -27 l-148 -4 0 321 0
321 118 0 c65 0 139 -6 167 -14z"/>
<path d="M9820 7084 l0 -114 190 0 190 0 0 -435 0 -435 120 0 120 0 0 435 0
435 190 0 190 0 0 110 0 110 -442 2 c-244 0 -469 2 -500 4 l-58 2 0 -114z"/>
<path d="M6662 7143 c-11 -27 -38 -95 -60 -153 -22 -58 -47 -121 -55 -140 -9
-19 -26 -62 -38 -95 -12 -33 -28 -73 -34 -90 -7 -16 -24 -59 -38 -95 -14 -36
-59 -152 -101 -257 -42 -106 -76 -197 -76 -203 0 -6 51 -10 133 -10 l132 0 28
78 c16 42 36 94 45 115 l16 37 250 0 251 0 41 -113 40 -112 137 -3 c75 -1 137
0 137 4 0 4 -11 32 -24 63 -14 31 -36 85 -49 121 -14 36 -73 186 -131 333 -58
147 -106 271 -106 275 0 4 -6 18 -13 32 -7 14 -33 78 -57 142 l-45 118 -181 0
-182 0 -20 -47z m267 -323 c34 -91 69 -180 77 -198 27 -63 30 -62 -147 -62
-149 0 -161 1 -155 18 4 9 18 49 32 87 14 39 32 85 40 103 8 18 14 38 14 45 1
7 9 30 20 52 11 22 19 43 20 46 0 12 31 81 34 78 2 -2 31 -78 65 -169z"/>
</g>
</svg>
