<?xml version="1.0" encoding="UTF-8"?><svg id="Layer_1" xmlns="http://www.w3.org/2000/svg" viewBox="0 0 758 382"><defs><style>.cls-1{fill:#f24822;stroke-width:0px;}</style></defs><path class="cls-1" d="M365.75.45c-7,1.7-15.5,6.7-20,11.7-7.7,8.5-9.4,20.4-4.4,31.6,5.1,11.6,16.3,18.2,37.1,21.6,11.9,2,15.2,3.1,18.8,6.2,2.6,2.1,3,3.2,3,7.3s-.4,5.1-2.8,6.9c-4.3,3-11.5,4.5-18.7,3.8-11.4-1.1-20.9-7.9-25.8-18.4l-2.4-5.3-9.9,6.2c-5.4,3.4-10.1,6.3-10.4,6.5-1,.9,6.6,13.5,10.5,17.4,8.9,9.1,17.4,13.1,31.9,15,18.4,2.4,36.5-2.7,45.5-12.7s8.6-16,7.7-23.7c-1.4-11.3-7.3-19-18.1-23.7-3.8-1.6-17.1-5.2-24.5-6.5-14.3-2.7-21.9-9.3-19.1-16.8,1.7-4.4,6.6-6.7,14.3-6.7s7.9.5,9.5,1.1c4,1.5,8.8,6.4,10.9,11.2,1,2.3,1.9,4.4,2,4.6.2.3,15.1-8,19.2-10.7,1-.7.7-2-1.5-6.1-3.8-7.5-9.7-13-17.8-17.1-6.8-3.3-7.4-3.4-20-3.6-7.1-.2-13.9-.1-15,.2h0Z"/><path class="cls-1" d="M.25,55.35v54.5h24v-29l3.9-4.3c12-13.2,11-12.4,12.7-10.2,2.3,3,17.5,26.4,23,35.5l4.9,8h14.2c7.9,0,14.3-.2,14.3-.6s-2.6-4.5-17.8-27.9c-18.2-27.9-20.9-32.1-22.1-34.2-1-2.1.4-3.9,18.4-24L95.25,1.35l-15.3-.3-15.2-.3-5.4,5.8c-2.9,3.2-11.7,12.9-19.4,21.5-7.7,8.7-14.4,15.8-14.9,15.8s-.8-9.7-.8-21.5V.85H.25v54.5Z"/><path class="cls-1" d="M104.25,33.55c0,45.3,1.5,53.1,12.1,64.7,9.7,10.7,26.9,15.5,44,12.4,15.9-3,25-9.4,31.5-22.5l3.9-7.8.3-39.8.3-39.7h-24.1v33.7c0,27.6-.3,34.7-1.6,39.2-2.8,10-9.5,15.1-19.8,15.1s-18.2-5.8-20.5-16c-.6-2.6-1.1-18.8-1.1-38.3V.85h-25v32.7h0Z"/><path class="cls-1" d="M212.25,55.35v54.5h25v-45.7c0-25.1.4-45.3.8-44.8.5.6,3.3,6.6,6.2,13.5,4.6,10.8,17.4,40.7,20,46.5.5,1.1,3.7,8.4,7.1,16.2l6.1,14.3h42.8V.85h-25v45.7c-.1,40-.3,45.4-1.5,42.8-3.9-8.4-8.1-17.9-16-36.5-8.6-20.2-11.8-27.6-13.5-31.5-.5-1.1-1.8-4-2.8-6.5-1.1-2.5-2.9-6.6-4-9.3l-2.1-4.7h-43.1v54.5Z"/><path class="cls-1" d="M428.25,12.35v11.5h38v86h24V23.85h38V.85h-100v11.5Z"/><path class="cls-1" d="M287.75,136.35c-9.9,2.7-17.7,8.5-22.6,17-3.2,5.5-3.3,18.8-.2,25.5,4.8,10.6,17.6,18.7,33.4,21.1,16.9,2.5,23.3,5.2,25.6,10.7,1.3,3.2,1.3,3.9-.1,6.9-2.3,4.8-8.1,7.3-17.3,7.3-13.6,0-24.5-6.6-29.5-18-1.2-2.7-2.5-5-3-5s-2.7,1.2-5.1,2.7c-5.4,3.5-9.6,6-12.5,7.5-1.8.9-2.2,1.7-1.7,3.7,1.1,4.3,5.6,11.3,10.5,16.1,9.1,9.2,20,13.8,35,14.7,11.9.7,21.4-.7,29.4-4.5,15.5-7.3,21.8-18.9,19.1-35.3-2.3-14.4-11.3-20.7-37.8-26.3-12.9-2.8-18.4-5.2-21.6-9.2-3.8-4.8-2.5-9.7,3.4-13.4,3-1.9,4.7-2.2,11-1.8,9.5.4,14.8,3.8,18.4,11.6,1.4,2.9,3,5.1,3.5,5,3.2-.9,18.6-10.5,18.6-11.6,0-2.4-3-7.9-6.8-12.2-4.8-5.6-12.8-10.6-19.9-12.5s-23-1.9-29.8,0h0Z"/><path class="cls-1" d="M.25,190.85v55h24v-47.3c0-26.9.4-46.6.9-45.7.5.8,1.6,4.4,2.6,8,.9,3.6,2.5,9.6,3.5,13.5,7.3,27.8,10.4,39.7,11.5,44.5,2.1,9,6.5,25.2,7.1,26.2.3.4,8.8.8,18.8.8,18.2,0,18.4,0,18.9-2.3.3-1.2,1.6-6.5,3-11.7,8.4-32.2,13.8-53.1,16.7-64.5,1.8-7.2,3.6-13.7,3.9-14.5s.8,19.6,1.1,45.5l.5,47h24v-109h-45l-3.3,12.5c-1.8,6.9-3.9,15.2-4.6,18.5-.8,3.3-2.6,10.5-4.1,16s-3.1,11.6-3.5,13.5c-4.6,19.2-7.4,29-8,28.3-.5-.4-1.8-4.9-3-9.8-1.2-5-2.6-10.4-3.1-12-.5-1.7-2-7.5-3.3-13-1.4-5.5-4.3-17-6.5-25.5s-4.3-16.6-4.6-18c-.4-1.4-1.1-4.4-1.7-6.8l-1.1-4.2H.25v55Z"/><path class="cls-1" d="M153.25,172.65c0,29.8.3,37.9,1.5,42.7,5.2,19.8,21.5,31.5,44,31.5s33.6-8.2,40.9-22.2c4.9-9.5,5.7-17,5.4-54.3l-.3-34-12.2-.3-12.3-.3v35c0,32.9-.1,35.4-2.1,40.5-2.4,6.6-7.4,11.2-13.3,12.2-12.3,2.1-21-1.8-25.2-11.1-.5-1.1-1.1-18.7-1.4-39l-.5-37-12.2-.3-12.3-.3v36.9h0Z"/><path class="cls-1" d="M361.75,137.05c-.3.7-.4,25.4-.3,54.8l.3,53.5h85l.3-11.3.3-11.2h-61.1v-22h54v-22.5l-27,.3-27,.2v-20h59v-23h-41.5c-32.3,0-41.7.3-42,1.2h0Z"/><path class="cls-1" d="M459.45,175.55c.4,36.9.6,40.1,2.4,44.3,7.8,18,22.1,27,42.9,27s33.8-8.1,40.8-22.1c5-9.9,5.7-16.1,5.7-54.2v-34.7h-24.9l-.3,36.7c-.3,35.9-.4,36.9-2.5,41-2.9,5.4-7.6,8.8-13.5,10.1-9.6,2-19.8-2.1-23.4-9.5-1.7-3.5-1.9-7-2.4-40.8l-.5-37-12.3-.3-12.3-.3.3,39.8Z"/><path class="cls-1" d="M567.25,190.85v55.1l12.3-.3,12.2-.3.5-46.5c.3-25.6.8-45.4,1.1-44,.4,1.4,3.5,13.3,6.9,26.5,7.8,29.8,10.1,39.1,13.7,53l2.8,11,17.9.3c11.6.2,18.3-.1,19-.8s1.8-4.1,2.7-7.8c1-3.7,2.9-11.2,4.4-16.7,1.4-5.5,4.4-17,6.6-25.5s5.4-20.7,7.1-27,3.3-12.6,3.7-14c.3-1.4.8,18.6,1.1,44.5l.5,47h24l.3-54.8.2-54.7-22.7.2-22.6.3-4.4,16.5c-2.3,9.1-4.9,19.4-5.7,23s-3.1,12.6-5.1,20-4.3,16.2-5,19.5c-1.9,8.2-3.2,11.4-3.8,9.5-.8-2.3-6.8-25.5-8.8-34-1-4.1-2.7-10.9-3.7-15-1.1-4.1-3.2-12.2-4.6-18-1.5-5.8-3.5-13-4.4-16l-1.7-5.5-22.3-.3-22.2-.2v55h0Z"/><path class="cls-1" d="M697.75,271.25c-11.6,2.9-19.9,8.8-23.8,16.8-6,12.4-3.8,25.7,5.7,35.2s15.1,10,32.6,13.1c10.5,1.9,17.5,4.7,19.1,7.7.6,1.1,1.1,3.6,1.1,5.5,0,6.8-6.4,10.5-18.3,10.5-6.5.1-8.5-.4-14.2-3.1-7.3-3.5-12.4-8.8-15.2-15.9-1-2.3-2-4.2-2.3-4.2-1.1,0-20.2,12.3-20.2,13.1,0,2.4,7,13.1,11.4,17.4,10.1,9.9,22.7,14.5,39.5,14.5s35.7-7.3,42.2-20.8c3.2-6.5,3.2-18.9,0-25.5-4.8-10-18.1-17-38.1-20.2-11.1-1.8-20.1-6.9-21.4-12.1s2-9,6.5-10.8c11.4-4.6,25.8,1.6,29.1,12.5,1.2,4,1.7,4.5,3.4,3,.5-.5,2.6-1.9,4.7-3,15.2-8.5,14.2-7.2,10.8-14-5.2-10.1-15.1-17.2-27.9-20-6.8-1.4-18.3-1.3-24.7.3h0Z"/><path class="cls-1" d="M.25,326.05v54.8h29.9c31.3,0,43.2-1.2,49-4.8,11.4-7.1,15.3-13.6,15.4-25.2,0-5.7-.5-8.5-2-11.5-2.8-5.4-7.8-10-13.5-12.5-2.7-1.1-4.8-2.2-4.8-2.4s2.2-1.7,5-3.4c3-1.8,6.1-5,7.9-7.9,2.8-4.3,3.1-5.6,3.1-13.1s-2.7-16.5-9.7-21.6c-8.2-6-12.1-6.5-48-6.9l-32.3-.3s0,54.8,0,54.8ZM61.55,295.45c4.1,2.1,4.7,3.1,4.7,7.7,0,9.2-3.5,10.7-25.5,10.7h-16.5v-20h17c13.9,0,17.7.3,20.3,1.6h0ZM65.25,337.75c3.8,2.1,4.9,4.2,5,8.9,0,10.1-2.6,11.2-27,11.2h-19v-10.3c0-5.7.3-10.7.8-11.1,1.3-1.4,37.4-.2,40.2,1.3Z"/><path class="cls-1" d="M107.75,271.65c-.3.3-.5,25-.5,54.9v54.3h25v-42.2l12.8.4c20.2.7,21.9,2.4,23.4,23.3,1.4,18.9.5,17.9,17.1,18.3,15.5.3,15,.6,11.8-7.5-1-2.6-2.4-9.3-3-14.7-1.7-14.2-5.1-20.6-13.4-24.8l-2.8-1.4,5-3.3c17.8-11.4,20.5-34.4,5.7-47.9-9.3-8.5-11.8-8.9-48.8-9.5-17.5-.2-32-.2-32.3.1h0ZM169.25,296.05c8,5.5,5.8,17.1-3.7,19.7-2.1.6-10.4,1.1-18.5,1.1h-14.8v-23h16.9c15.8,0,17,.1,20.1,2.2h0Z"/><path class="cls-1" d="M349.55,271.55l-14.3.4v108.9h24v-45.5c0-29.7.3-45.5,1-45.5s1,.5,1,1.1c0,.9,10.3,25,15.6,36.6.8,1.7,1.4,3.3,1.4,3.6s1.6,4,3.6,8.4c4,8.8,4.1,9,11.4,26.3,2.9,6.9,5.7,13.1,6.3,13.7.7,1,6.3,1.3,21.8,1.3h20.9l-.2-54.8-.3-54.7h-12c0,.1-12,.3-12,.3l-.5,45.3-.5,45.3-10.4-24c-5.7-13.1-13-30.2-16.3-37.9s-7.1-16.3-8.4-19.2-2.8-6.3-3.3-7.6c-1-2.7-.3-2.6-28.8-2h0Z"/><path class="cls-1" d="M475.55,271.55l-16.3.3v109h23.9c30.9,0,39.3-1.3,52.6-8.2,10.5-5.4,21.1-20.3,23.5-32.7,2-10.5.9-28.3-2.1-35.1-4-8.9-6.1-12.2-11.4-17.6-13.6-13.8-26.5-16.7-70.2-15.7h0ZM512.75,295.25c10.1,2.7,15.5,6.8,19.6,15.2,3.2,6.5,3.9,20.9,1.4,28.3-2.2,6.7-8.2,13.3-14.7,16.2-4.6,2-7.2,2.4-20,2.7l-14.8.4v-64.2h11.8c6.5,0,13.9.6,16.7,1.4Z"/><path class="cls-1" d="M561.25,282.45v11.4h38v87h24v-87h38v-22l-44.2-.2c-24.4,0-46.9-.2-50-.4l-5.8-.2v11.4h0Z"/><path class="cls-1" d="M245.45,276.55c-1.1,2.7-3.8,9.5-6,15.3s-4.7,12.1-5.5,14c-.9,1.9-2.6,6.2-3.8,9.5s-2.8,7.3-3.4,9c-.7,1.6-2.4,5.9-3.8,9.5s-5.9,15.2-10.1,25.7c-4.2,10.6-7.6,19.7-7.6,20.3s5.1,1,13.3,1h13.2l2.8-7.8c1.6-4.2,3.6-9.4,4.5-11.5l1.6-3.7h50.1l4.1,11.3,4,11.2,13.7.3c7.5.1,13.7,0,13.7-.4s-1.1-3.2-2.4-6.3c-1.4-3.1-3.6-8.5-4.9-12.1-1.4-3.6-7.3-18.6-13.1-33.3s-10.6-27.1-10.6-27.5-.6-1.8-1.3-3.2-3.3-7.8-5.7-14.2l-4.5-11.8h-36.3l-2,4.7h0ZM272.15,308.85c3.4,9.1,6.9,18,7.7,19.8,2.7,6.3,3,6.2-14.7,6.2s-16.1-.1-15.5-1.8c.4-.9,1.8-4.9,3.2-8.7,1.4-3.9,3.2-8.5,4-10.3s1.4-3.8,1.4-4.5c.1-.7.9-3,2-5.2s1.9-4.3,2-4.6c0-1.2,3.1-8.1,3.4-7.8s3.1,7.8,6.5,16.9h0Z"/></svg>