<?xml version="1.0" standalone="no"?>
<!DOCTYPE svg PUBLIC "-//W3C//DTD SVG 20010904//EN"
 "http://www.w3.org/TR/2001/REC-SVG-20010904/DTD/svg10.dtd">
<svg version="1.0" xmlns="http://www.w3.org/2000/svg"
 width="427.000000pt" height="292.000000pt" viewBox="0 0 427.000000 292.000000"
 preserveAspectRatio="xMidYMid meet">

<g transform="translate(0.000000,292.000000) scale(0.100000,-0.100000)"
fill="#f24822" stroke="none">
<path d="M1960 2456 c-147 -28 -264 -75 -383 -152 -64 -42 -70 -48 -53 -58 30
-17 76 -57 76 -65 0 -4 -16 -15 -36 -24 -34 -17 -36 -17 -52 2 -32 38 -79 31
-98 -14 -35 -85 38 -163 97 -104 21 21 23 21 55 5 19 -8 34 -19 34 -24 0 -5
-14 -21 -30 -37 -26 -25 -40 -30 -98 -33 -58 -3 -71 -1 -96 19 -15 12 -36 36
-46 52 l-18 30 -36 -56 c-20 -31 -36 -59 -36 -62 0 -3 11 -5 25 -5 24 0 25 -3
25 -55 l0 -55 44 0 45 0 3 53 3 52 43 3 42 3 0 -151 0 -151 -42 3 -43 3 -3 58
-3 58 -42 -3 -42 -3 -3 -58 -3 -58 -42 3 -42 3 -5 105 -5 105 -22 -65 c-18
-56 -43 -149 -43 -163 0 -3 43 -7 96 -9 91 -3 97 -5 120 -31 32 -38 33 -96 0
-133 -20 -24 -32 -28 -90 -32 l-66 -4 0 -44 c0 -42 -1 -44 -30 -44 -17 0 -30
-5 -30 -12 0 -23 38 -165 54 -202 16 -38 28 -47 25 -19 -1 10 -1 60 0 111 l1
92 110 0 110 0 0 -35 0 -35 -65 0 c-63 0 -65 -1 -65 -25 0 -24 2 -25 65 -25
l65 0 0 -30 0 -30 -65 0 -65 0 0 -55 c0 -54 0 -55 -30 -55 -16 0 -30 -5 -30
-11 0 -17 113 -184 117 -173 2 5 -8 42 -21 82 l-25 73 47 -3 46 -3 26 -85 27
-85 22 75 c12 41 24 81 26 88 4 10 95 19 95 9 0 -1 -22 -69 -49 -150 l-50
-148 42 -30 c214 -156 497 -220 762 -174 370 65 688 350 793 710 100 343 12
718 -226 968 l-57 59 -5 -123 -5 -124 -50 0 -50 0 -45 80 -45 80 -3 -83 -3
-83 -42 3 -42 3 -3 143 -3 142 53 0 53 0 47 -83 48 -82 0 82 c0 77 1 82 23 85
19 3 16 8 -28 40 -79 59 -221 126 -330 154 -120 31 -320 41 -425 20z m-97
-222 c91 -48 90 -214 -3 -268 -42 -25 -126 -25 -169 0 -17 10 -40 37 -51 59
-72 148 75 285 223 209z m347 -14 c38 -38 38 -95 1 -141 -16 -20 -31 -25 -87
-29 l-68 -5 0 -45 -1 -45 -45 0 -45 0 -3 143 -3 142 116 0 c101 0 117 -2 135
-20z m280 -10 l0 -30 -70 0 c-63 0 -70 -2 -70 -20 0 -18 7 -20 65 -20 l65 0 0
-30 0 -30 -65 0 -65 0 0 -30 0 -30 76 0 75 0 -3 -32 -3 -33 -117 -3 -118 -3 0
146 0 145 115 0 115 0 0 -30z m-444 -289 c42 -19 80 -60 66 -72 -4 -4 -21 -10
-38 -13 -23 -5 -35 -2 -49 14 -36 40 -99 15 -111 -44 -11 -63 17 -106 70 -106
30 0 56 15 56 32 0 4 -14 8 -31 8 -27 0 -30 3 -27 28 3 26 5 27 71 30 l68 3
-3 -83 -3 -83 -29 -3 c-16 -2 -32 2 -36 8 -6 9 -13 9 -28 1 -31 -16 -100 -13
-132 6 -98 57 -89 227 13 274 53 24 91 24 143 0z m-320 -38 c10 -27 34 -92 54
-145 21 -53 35 -100 32 -103 -3 -3 -24 -5 -47 -5 -35 0 -44 4 -53 25 -10 21
-18 25 -57 25 -39 0 -47 -3 -55 -25 -8 -22 -16 -25 -55 -25 -25 0 -45 5 -45
10 0 10 96 265 106 281 3 5 27 9 54 9 l48 0 18 -47z m654 12 l0 -35 -65 0
c-58 0 -65 -2 -65 -20 0 -18 7 -20 60 -20 60 0 60 0 60 -30 0 -29 -1 -29 -62
-32 -60 -3 -63 -4 -66 -30 l-3 -28 81 0 81 0 -3 -32 -3 -33 -120 0 -120 0 -3
134 c-1 74 0 141 2 148 4 10 34 13 116 13 l110 0 0 -35z m179 -40 c23 -41 47
-77 53 -81 7 -5 9 18 7 72 l-4 79 43 3 42 3 0 -150 0 -151 -43 0 c-51 0 -59 7
-113 105 l-39 70 -3 -87 -3 -88 -39 0 -40 0 0 150 0 150 48 0 48 0 43 -75z
m-646 -249 c114 -48 125 -216 19 -278 -37 -22 -122 -24 -162 -3 -62 32 -91
106 -71 182 24 88 128 136 214 99z m607 -14 c83 -61 78 -201 -9 -259 -41 -28
-117 -31 -167 -7 -40 19 -74 83 -74 140 0 93 79 160 175 150 27 -3 61 -14 75
-24z m-1040 -37 l0 -55 45 0 45 0 0 55 0 55 45 0 45 0 0 -145 0 -145 -45 0
-45 0 0 55 0 55 -45 0 -45 0 0 -55 0 -55 -45 0 -45 0 0 145 0 145 45 0 45 0 0
-55z m780 21 c0 -33 -2 -35 -37 -38 l-38 -3 -3 -107 -3 -108 -44 0 -45 0 0
110 0 110 -35 0 c-33 0 -35 2 -35 35 l0 35 120 0 120 0 0 -34z m-341 -286 c18
-5 44 -16 57 -25 l24 -16 -27 -23 c-25 -22 -29 -22 -61 -9 -41 17 -77 14 -77
-7 0 -10 20 -19 60 -27 95 -21 133 -85 85 -145 -28 -37 -71 -51 -138 -46 -55
4 -122 35 -122 58 0 4 16 17 35 29 19 11 35 17 35 12 0 -14 56 -33 86 -29 53
6 34 31 -36 49 -71 19 -100 45 -100 88 0 73 87 118 179 91z m-229 -35 l0 -35
-65 0 c-58 0 -65 -2 -65 -20 0 -18 7 -20 60 -20 60 0 60 0 60 -30 0 -29 -1
-29 -62 -32 -60 -3 -63 -4 -66 -30 l-3 -28 80 0 81 0 0 -30 0 -30 -125 0 -125
0 0 145 0 145 115 0 115 0 0 -35z m560 0 c0 -33 -2 -35 -35 -35 l-35 0 0 -110
0 -110 -45 0 -44 0 -3 108 -3 107 -37 3 c-36 3 -38 5 -38 38 l0 34 120 0 120
0 0 -35z m110 -110 l0 -145 -45 0 -45 0 0 145 0 145 45 0 45 0 0 -145z m-512
-313 c29 -77 52 -142 52 -145 0 -4 -22 -7 -50 -7 -43 0 -50 3 -50 20 0 18 -7
20 -54 20 -46 0 -56 -3 -61 -20 -5 -16 -15 -20 -56 -20 l-49 0 21 53 c11 28
37 94 56 145 l36 92 52 0 52 0 51 -138z m172 28 l0 -110 55 0 55 0 0 -35 0
-35 -100 0 -100 0 0 145 0 145 45 0 45 0 0 -110z"/>
<path d="M1736 2164 c-50 -50 -21 -144 44 -144 36 0 60 32 60 80 0 48 -24 80
-60 80 -16 0 -36 -7 -44 -16z"/>
<path d="M2052 2148 c3 -30 6 -33 40 -36 28 -2 39 1 47 17 19 34 4 51 -46 51
-44 0 -44 0 -41 -32z"/>
<path d="M1642 1792 c-16 -53 -16 -52 17 -52 29 0 29 0 19 38 -14 54 -23 58
-36 14z"/>
<path d="M1823 1539 c-25 -9 -44 -65 -36 -101 22 -91 123 -70 123 25 0 59 -39
94 -87 76z"/>
<path d="M2398 1536 c-31 -16 -46 -74 -28 -115 21 -51 86 -54 108 -5 35 75
-16 152 -80 120z"/>
<path d="M1731 845 c-16 -57 -14 -65 14 -65 29 0 31 15 11 70 l-13 35 -12 -40z"/>
<path d="M1190 1510 l0 -41 36 3 c22 2 42 10 48 21 17 26 -5 51 -48 55 l-36 3
0 -41z"/>
</g>
</svg>
