<?xml version="1.0" encoding="UTF-8"?><svg id="Layer_1" xmlns="http://www.w3.org/2000/svg" viewBox="0 0 390 382"><defs><style>.cls-1{fill:#f24822;stroke-width:0px;}</style></defs><path class="cls-1" d="M163.41,2.1c-27.84,5.3-50.01,14.21-72.55,28.79-12.12,7.96-13.26,9.09-10.04,10.99,5.68,3.22,14.4,10.8,14.4,12.31,0,.76-3.03,2.84-6.82,4.55-6.44,3.22-6.82,3.22-9.85-.38-6.06-7.2-14.96-5.87-18.56,2.65-6.63,16.1,7.2,30.88,18.37,19.7,3.98-3.98,4.36-3.98,10.42-.95,3.6,1.52,6.44,3.6,6.44,4.55s-2.65,3.98-5.68,7.01c-4.92,4.74-7.58,5.68-18.56,6.25-10.99.57-13.45.19-18.18-3.6-2.84-2.27-6.82-6.82-8.71-9.85l-3.41-5.68-6.82,10.61c-3.79,5.87-6.82,11.18-6.82,11.74s2.08.95,4.74.95c4.55,0,4.74.57,4.74,10.42v10.42h16.86l.57-10.04.57-9.85,8.15-.57,7.96-.57v57.2l-7.96-.57-8.15-.57-.57-10.99-.57-10.99-7.96.57-7.96.57-.57,10.99-.57,10.99-7.96-.57-7.96-.57-.95-19.89-.95-19.89-4.17,12.31c-3.41,10.61-8.15,28.22-8.15,30.88,0,.57,8.15,1.33,18.18,1.7,17.24.57,18.37.95,22.73,5.87,6.06,7.2,6.25,18.18,0,25.19-3.79,4.55-6.06,5.3-17.05,6.06l-12.5.76v8.33c0,7.96-.19,8.33-5.68,8.33-3.22,0-5.68.95-5.68,2.27,0,4.36,7.2,31.25,10.23,38.26,3.03,7.2,5.3,8.9,4.74,3.6-.19-1.89-.19-11.37,0-21.03l.19-17.43h41.67v13.26h-12.31c-11.93,0-12.31.19-12.31,4.74s.38,4.74,12.31,4.74h12.31v11.37h-24.62v10.42c0,10.23,0,10.42-5.68,10.42-3.03,0-5.68.95-5.68,2.08,0,3.22,21.4,34.85,22.16,32.77.38-.95-1.52-7.96-3.98-15.53l-4.74-13.83,8.9.57,8.71.57,4.92,16.1,5.11,16.1,4.17-14.21c2.27-7.77,4.55-15.34,4.92-16.67.76-1.89,17.99-3.6,17.99-1.7,0,.19-4.17,13.07-9.28,28.41l-9.47,28.03,7.96,5.68c40.54,29.55,94.14,41.67,144.34,32.96,70.09-12.31,130.32-66.3,150.21-134.49,18.94-64.97,2.27-136-42.81-183.36l-10.8-11.18-.95,23.3-.95,23.49h-18.94l-8.52-15.15-8.52-15.15-.57,15.72-.57,15.72-7.96-.57-7.96-.57-.57-27.09-.57-26.9h20.08l8.9,15.72,9.09,15.53v-15.53c0-14.59.19-15.53,4.36-16.1,3.6-.57,3.03-1.52-5.3-7.58-14.96-11.18-41.86-23.87-62.51-29.17C221.19.02,183.3-1.88,163.41,2.1ZM145.04,44.15c17.24,9.09,17.05,40.54-.57,50.76-7.96,4.74-23.87,4.74-32.01,0-3.22-1.89-7.58-7.01-9.66-11.18-13.64-28.03,14.21-53.98,42.24-39.59ZM210.77,46.8c7.2,7.2,7.2,17.99.19,26.71-3.03,3.79-5.87,4.74-16.48,5.49l-12.88.95v8.52l-.19,8.52h-17.05l-.57-27.09-.57-26.9h21.97c19.13,0,22.16.38,25.57,3.79ZM263.8,48.7v5.68h-13.26c-11.93,0-13.26.38-13.26,3.79s1.33,3.79,12.31,3.79h12.31v11.37h-24.62v11.37h28.6l-.57,6.06-.57,6.25-22.16.57-22.35.57v-55.12h43.57v5.68ZM179.7,103.44c7.96,3.6,15.15,11.37,12.5,13.64-.76.76-3.98,1.89-7.2,2.46-4.36.95-6.63.38-9.28-2.65-6.82-7.58-18.75-2.84-21.03,8.33-2.08,11.93,3.22,20.08,13.26,20.08,5.68,0,10.61-2.84,10.61-6.06,0-.76-2.65-1.52-5.87-1.52-5.11,0-5.68-.57-5.11-5.3.57-4.92.95-5.11,13.45-5.68l12.88-.57-.57,15.72-.57,15.72-5.49.57c-3.03.38-6.06-.38-6.82-1.52-1.14-1.7-2.46-1.7-5.3-.19-5.87,3.03-18.94,2.46-25-1.14-18.56-10.8-16.86-43,2.46-51.9,10.04-4.55,17.24-4.55,27.09,0ZM119.09,110.64c1.89,5.11,6.44,17.43,10.23,27.47,3.98,10.04,6.63,18.94,6.06,19.51s-4.55.95-8.9.95c-6.63,0-8.33-.76-10.04-4.74-1.89-3.98-3.41-4.74-10.8-4.74s-8.9.57-10.42,4.74-3.03,4.74-10.42,4.74c-4.74,0-8.52-.95-8.52-1.89,0-1.89,18.18-50.2,20.08-53.23.57-.95,5.11-1.7,10.23-1.7h9.09l3.41,8.9ZM242.97,108.37v6.63h-12.31c-10.99,0-12.31.38-12.31,3.79s1.33,3.79,11.37,3.79q11.37,0,11.37,5.68c0,5.49-.19,5.49-11.74,6.06-11.37.57-11.93.76-12.5,5.68l-.57,5.3h30.69l-.57,6.06-.57,6.25h-45.46l-.57-25.38c-.19-14.02,0-26.71.38-28.03.76-1.89,6.44-2.46,21.97-2.46h20.84v6.63ZM276.87,115.94c4.36,7.77,8.9,14.59,10.04,15.34,1.33.95,1.7-3.41,1.33-13.64l-.76-14.96,8.15-.57,7.96-.57v57.02h-8.15c-9.66,0-11.18-1.33-21.4-19.89l-7.39-13.26-.57,16.48-.57,16.67h-14.96v-56.83h18.18l8.15,14.21ZM154.51,163.11c21.59,9.09,23.68,40.91,3.6,52.66-7.01,4.17-23.11,4.55-30.69.57-11.74-6.06-17.24-20.08-13.45-34.47,4.55-16.67,24.25-25.76,40.54-18.75ZM269.49,165.76c15.72,11.55,14.77,38.07-1.7,49.06-7.77,5.3-22.16,5.87-31.63,1.33-7.58-3.6-14.02-15.72-14.02-26.52,0-17.62,14.96-30.31,33.15-28.41,5.11.57,11.55,2.65,14.21,4.55ZM72.49,172.77v10.42h17.05v-20.84h17.05v54.93h-17.05v-20.84h-17.05v20.84h-17.05v-54.93h17.05v10.42ZM220.24,168.79c0,6.25-.38,6.63-7.01,7.2l-7.2.57-.57,20.27-.57,20.46h-16.86v-41.67h-6.63c-6.25,0-6.63-.38-6.63-6.63v-6.63h45.46v6.44ZM155.65,222.96c3.41.95,8.33,3.03,10.8,4.74l4.55,3.03-5.11,4.36c-4.74,4.17-5.49,4.17-11.55,1.7-7.77-3.22-14.59-2.65-14.59,1.33,0,1.89,3.79,3.6,11.37,5.11,17.99,3.98,25.19,16.1,16.1,27.47-5.3,7.01-13.45,9.66-26.14,8.71-10.42-.76-23.11-6.63-23.11-10.99,0-.76,3.03-3.22,6.63-5.49,3.6-2.08,6.63-3.22,6.63-2.27,0,2.65,10.61,6.25,16.29,5.49,10.04-1.14,6.44-5.87-6.82-9.28-13.45-3.6-18.94-8.52-18.94-16.67,0-13.83,16.48-22.35,33.91-17.24ZM112.27,229.59v6.63h-12.31c-10.99,0-12.31.38-12.31,3.79s1.33,3.79,11.37,3.79q11.37,0,11.37,5.68c0,5.49-.19,5.49-11.74,6.06-11.37.57-11.93.76-12.5,5.68l-.57,5.3h30.5v11.37h-47.35v-54.93h43.57v6.63ZM218.34,229.59c0,6.25-.38,6.63-6.63,6.63h-6.63v41.67h-16.86l-.57-20.46-.57-20.27-7.01-.57c-6.82-.57-7.2-.95-7.2-7.2v-6.44h45.46v6.63ZM239.18,250.43v27.47h-17.05v-54.93h17.05v27.47ZM142.2,309.72c5.49,14.59,9.85,26.9,9.85,27.47,0,.76-4.17,1.33-9.47,1.33-8.15,0-9.47-.57-9.47-3.79,0-3.41-1.33-3.79-10.23-3.79s-10.61.57-11.55,3.79c-.95,3.03-2.84,3.79-10.61,3.79h-9.28l3.98-10.04c2.08-5.3,7.01-17.81,10.61-27.47l6.82-17.43h19.7l9.66,26.14ZM174.78,304.41v20.84h20.84v13.26h-37.88v-54.93h17.05v20.84Z"/><path class="cls-1" d="M120.98,57.41c-9.47,9.47-3.98,27.28,8.33,27.28,6.82,0,11.37-6.06,11.37-15.15s-4.55-15.15-11.37-15.15c-3.03,0-6.82,1.33-8.33,3.03Z"/><path class="cls-1" d="M180.84,60.44c.57,5.68,1.14,6.25,7.58,6.82,5.3.38,7.39-.19,8.9-3.22,3.6-6.44.76-9.66-8.71-9.66q-8.33,0-7.77,6.06Z"/><path class="cls-1" d="M103.18,127.88c-3.03,10.04-3.03,9.85,3.22,9.85q5.49,0,3.6-7.2c-2.65-10.23-4.36-10.99-6.82-2.65Z"/><path class="cls-1" d="M137.46,175.8c-4.74,1.7-8.33,12.31-6.82,19.13,4.17,17.24,23.3,13.26,23.3-4.74,0-11.18-7.39-17.81-16.48-14.4Z"/><path class="cls-1" d="M246.38,176.37c-5.87,3.03-8.71,14.02-5.3,21.78,3.98,9.66,16.29,10.23,20.46.95,6.63-14.21-3.03-28.79-15.15-22.73Z"/><path class="cls-1" d="M120.04,307.26c-3.03,10.8-2.65,12.31,2.65,12.31s5.87-2.84,2.08-13.26l-2.46-6.63-2.27,7.58Z"/><path class="cls-1" d="M17.56,181.29v7.77l6.82-.57c4.17-.38,7.96-1.89,9.09-3.98,3.22-4.92-.95-9.66-9.09-10.42l-6.82-.57v7.77Z"/></svg>