<?xml version="1.0" standalone="no"?>
<!DOCTYPE svg PUBLIC "-//W3C//DTD SVG 20010904//EN"
 "http://www.w3.org/TR/2001/REC-SVG-20010904/DTD/svg10.dtd">
<svg version="1.0" xmlns="http://www.w3.org/2000/svg"
 width="1600.000000pt" height="1600.000000pt" viewBox="0 0 1600.000000 1600.000000"
 preserveAspectRatio="xMidYMid meet">

<g transform="translate(0.000000,1600.000000) scale(0.100000,-0.100000)"
fill="#f24822" stroke="none">
<path d="M5050 8075 l0 -545 100 0 100 0 0 545 0 545 -100 0 -100 0 0 -545z"/>
<path d="M10020 8070 l0 -551 98 3 97 3 3 112 3 113 42 39 c29 28 45 36 54 30
6 -6 58 -72 114 -147 57 -75 108 -140 114 -145 5 -4 57 -6 115 -5 91 3 105 5
105 20 0 9 -65 97 -145 194 -80 98 -151 185 -158 195 -11 16 3 31 128 139 77
67 140 128 140 136 0 11 -23 14 -112 14 l-113 -1 -90 -85 c-49 -47 -114 -108
-142 -136 l-53 -51 0 337 0 336 -100 0 -100 0 0 -550z"/>
<path d="M4225 8573 c-22 -2 -44 -9 -49 -14 -6 -5 -18 -9 -28 -9 -26 0 -95
-38 -161 -88 -121 -91 -187 -242 -187 -423 0 -45 5 -100 11 -123 18 -70 43
-151 49 -156 3 -3 11 -16 18 -30 28 -53 157 -170 189 -170 4 0 20 -6 35 -14
115 -60 366 -43 445 31 7 6 23 20 36 30 13 10 35 36 50 58 l27 40 0 -46 c0
-26 3 -67 6 -93 l7 -47 81 3 81 3 3 263 2 262 -280 0 -280 0 0 -70 0 -70 175
0 175 0 -6 -27 c-8 -35 -41 -102 -62 -127 -10 -10 -44 -32 -77 -47 -52 -25
-72 -29 -150 -29 -73 0 -99 5 -140 24 -46 21 -115 76 -115 90 0 4 -9 19 -20
34 -11 15 -27 59 -35 97 -53 253 47 446 253 486 84 16 182 -1 246 -42 53 -33
104 -106 113 -162 5 -33 9 -38 27 -34 12 3 56 13 99 22 91 20 92 21 43 128
-52 115 -131 183 -268 232 -44 16 -238 27 -313 18z"/>
<path d="M7198 8388 l-3 -163 -67 -3 -68 -3 0 -59 0 -60 70 0 70 0 0 -207 c0
-116 5 -225 11 -246 6 -21 28 -56 49 -77 32 -32 47 -39 94 -45 88 -11 138 0
186 43 45 41 75 108 58 130 -12 14 -48 16 -48 2 0 -15 -61 -50 -87 -50 -13 0
-30 12 -42 29 -20 27 -21 43 -21 225 l0 196 95 0 95 0 0 60 0 60 -95 0 -95 0
0 165 0 165 -100 0 -100 0 -2 -162z"/>
<path d="M8657 8543 c-4 -3 -7 -78 -7 -165 l0 -158 -68 0 -69 0 -2 -60 -2 -60
70 0 70 0 4 -212 c2 -129 8 -228 16 -250 15 -49 65 -95 116 -109 59 -16 157
-6 194 20 35 26 81 98 81 129 0 34 -38 39 -67 8 -44 -48 -107 -43 -132 11 -7
15 -11 96 -11 213 l0 190 100 0 100 0 0 60 0 60 -100 0 -100 0 0 165 0 165
-93 0 c-52 0 -97 -3 -100 -7z"/>
<path d="M11718 8388 l-3 -163 -67 -3 -68 -3 0 -59 0 -59 68 -3 67 -3 5 -230
c5 -220 6 -231 28 -262 49 -68 123 -94 226 -79 57 9 119 63 140 124 15 42 15
43 -9 54 -21 9 -28 7 -55 -21 -39 -39 -77 -41 -111 -5 -24 25 -24 28 -24 222
l0 197 98 3 97 3 0 59 0 59 -97 3 -98 3 -3 163 -2 162 -95 0 -95 0 -2 -162z"/>
<path d="M6557 8227 c-21 -6 -58 -29 -83 -52 l-44 -41 0 43 0 43 -100 0 -100
0 2 -542 3 -543 98 -3 97 -3 0 246 c0 135 2 245 4 245 2 0 18 -14 36 -30 55
-51 96 -65 191 -65 74 0 93 4 142 29 56 28 120 94 144 146 29 67 33 88 33 177
0 142 -24 206 -109 289 -67 65 -203 92 -314 61z m131 -155 c102 -53 126 -262
42 -365 -23 -28 -85 -57 -123 -57 -66 0 -134 44 -167 109 -7 14 -13 62 -13
111 0 77 3 93 26 132 31 53 45 66 94 84 45 17 91 12 141 -14z"/>
<path d="M7980 8226 c-175 -35 -278 -167 -280 -355 0 -134 67 -254 176 -313
71 -38 182 -54 273 -38 39 6 88 20 110 31 56 27 124 99 155 165 25 52 28 70
28 161 0 93 -2 109 -28 160 -51 105 -141 172 -258 193 -70 12 -102 11 -176 -4z
m190 -146 c67 -48 98 -190 66 -301 -18 -62 -43 -90 -98 -114 -89 -37 -173 -3
-219 87 -39 76 -20 245 34 305 52 58 153 69 217 23z"/>
<path d="M9392 8224 c-187 -58 -280 -273 -211 -486 25 -79 85 -151 156 -187
139 -70 358 -40 451 63 26 29 72 115 72 135 0 11 -30 17 -122 26 -66 6 -67 6
-74 -19 -17 -69 -112 -106 -210 -82 -53 13 -94 75 -94 142 l0 34 250 0 250 0
0 47 c0 26 -10 79 -22 118 -19 59 -32 80 -83 132 -48 49 -71 64 -114 77 -65
19 -189 19 -249 0z m170 -134 c50 -14 98 -63 98 -101 l0 -29 -150 0 c-139 0
-150 1 -150 19 0 29 43 85 80 103 40 20 69 22 122 8z"/>
<path d="M11040 8227 c-59 -18 -136 -73 -167 -119 -57 -85 -68 -123 -68 -238
1 -94 4 -111 29 -163 55 -111 132 -168 256 -188 136 -23 285 23 348 107 12 16
26 34 30 40 13 15 35 84 29 91 -6 5 -126 22 -164 23 -14 0 -24 -9 -31 -27 -24
-68 -73 -91 -179 -85 -60 4 -123 82 -123 153 l0 29 251 0 252 0 -6 75 c-13
151 -98 267 -223 303 -50 15 -186 14 -234 -1z m172 -139 c48 -14 88 -59 88
-99 l0 -29 -150 0 c-97 0 -150 4 -150 10 0 30 44 91 78 109 43 23 79 26 134 9z"/>
<path d="M5370 8210 c0 -10 49 -144 75 -205 7 -16 46 -115 85 -220 40 -104 78
-203 85 -220 43 -97 56 -145 49 -182 -17 -93 -54 -143 -106 -143 -41 0 -68 35
-68 88 0 37 -5 42 -38 32 -15 -5 -49 -13 -77 -20 -27 -6 -51 -13 -53 -14 -1
-2 3 -31 11 -65 25 -108 93 -156 222 -156 89 0 138 19 186 72 48 52 72 108
156 368 19 61 43 133 53 160 10 28 30 86 44 130 25 78 50 153 82 245 9 25 22
66 29 93 l13 47 -97 0 -98 0 -22 -77 c-13 -43 -33 -112 -45 -153 -13 -41 -31
-102 -40 -135 -10 -33 -21 -67 -25 -75 -5 -9 -12 -35 -16 -59 -4 -24 -10 -39
-15 -34 -4 4 -24 62 -45 128 -21 66 -54 172 -75 235 -20 63 -40 127 -44 143
l-6 27 -110 0 c-69 0 -110 -4 -110 -10z"/>
</g>
</svg>
