<?xml version="1.0" encoding="UTF-8"?><svg id="Layer_1" xmlns="http://www.w3.org/2000/svg" viewBox="0 0 2115 382"><defs><style>.cls-1{fill:#f24822;stroke-width:0px;}</style></defs><path class="cls-1" d="M323.21,137.42v137.42h50.43V0h-50.43v137.42Z"/><path class="cls-1" d="M1576.37,138.68v138.93l24.71-.76,24.46-.76.76-28.24.76-28.49,10.59-9.83c7.31-7.06,11.35-9.08,13.62-7.56,1.51,1.51,14.62,18.15,28.74,37.07,14.37,18.91,27.23,35.3,28.74,36.56,1.26,1.01,14.37,1.51,29,1.26,22.95-.76,26.48-1.26,26.48-5.04,0-2.27-16.39-24.46-36.56-48.92-20.17-24.71-38.07-46.65-39.84-49.17-2.77-4.03.76-7.82,32.27-35.05,19.42-16.89,35.3-32.27,35.3-34.29,0-2.77-5.8-3.53-28.24-3.53l-28.49.25-22.69,21.43c-12.36,11.85-28.74,27.23-35.8,34.29l-13.36,12.86V0h-50.43v138.68Z"/><path class="cls-1" d="M115.19,11.85c-5.55.5-11.09,2.27-12.36,3.53-1.51,1.26-4.54,2.27-7.06,2.27-6.56,0-23.95,9.58-40.6,22.19C24.67,62.78,8.03,100.86,8.03,146.5c0,11.35,1.26,25.21,2.77,31.01,4.54,17.65,10.84,38.07,12.36,39.33.76.76,2.77,4.03,4.54,7.56,7.06,13.36,39.59,42.86,47.66,42.86,1.01,0,5.04,1.51,8.83,3.53,29,15.13,92.29,10.84,112.2-7.82,1.77-1.51,5.8-5.04,9.08-7.56,3.28-2.52,8.83-9.08,12.61-14.62l6.81-10.09v11.6c0,6.56.76,16.89,1.51,23.45l1.77,11.85,20.42-.76,20.42-.76.76-66.31.5-66.06h-141.2v35.3h88.25l-1.51,6.81c-2.02,8.83-10.34,25.72-15.63,32.02-2.52,2.52-11.09,8.07-19.42,11.85-13.11,6.3-18.15,7.31-37.82,7.31-18.41,0-24.96-1.26-35.3-6.05-11.6-5.3-29-19.16-29-22.69,0-1.01-2.27-4.79-5.04-8.57s-6.81-14.88-8.83-24.46c-13.36-63.79,11.85-112.46,63.79-122.54,21.18-4.03,45.89.25,62.03,10.59,13.36,8.32,26.22,26.73,28.49,40.85,1.26,8.32,2.27,9.58,6.81,8.57,3.03-.76,14.12-3.28,24.96-5.55,22.95-5.04,23.2-5.3,10.84-32.27-13.11-29-33.03-46.14-67.57-58.5-11.09-4.03-60.01-6.81-78.92-4.54Z"/><path class="cls-1" d="M864.82,58.5l-.76,41.1-16.89.76-17.15.76v30.01h35.3v52.19c0,29.25,1.26,56.73,2.77,62.03s7.06,14.12,12.36,19.42c8.07,8.07,11.85,9.83,23.7,11.35,22.19,2.77,34.8,0,46.9-10.84,11.35-10.34,18.91-27.23,14.62-32.78-3.03-3.53-12.1-4.03-12.1-.5,0,3.78-15.38,12.61-21.94,12.61-3.28,0-7.56-3.03-10.59-7.31-5.04-6.81-5.3-10.84-5.3-56.73v-49.42h47.91v-30.26h-47.91V17.65h-50.43l-.5,40.85Z"/><path class="cls-1" d="M1232.7,19.42c-1.01.76-1.77,19.67-1.77,41.6v39.84h-34.54l-.5,15.13-.5,15.13h35.3l1.01,53.45c.5,32.53,2.02,57.49,4.03,63.04,3.78,12.36,16.39,23.95,29.25,27.48,14.88,4.03,39.59,1.51,48.92-5.04,8.83-6.56,20.42-24.71,20.42-32.53,0-8.57-9.58-9.83-16.89-2.02-11.09,12.1-26.98,10.84-33.28-2.77-1.77-3.78-2.77-24.21-2.77-53.71v-47.91h50.43v-30.26h-50.43V17.65h-23.45c-13.11,0-24.46.76-25.21,1.77Z"/><path class="cls-1" d="M2004.52,58.5l-.76,41.1-16.89.76-17.15.76v29.75l17.15.76,16.89.76,1.26,57.99c1.26,55.47,1.51,58.25,7.06,66.06,12.36,17.15,31.01,23.7,56.98,19.92,14.37-2.27,30.01-15.89,35.3-31.27,3.78-10.59,3.78-10.84-2.27-13.62-5.3-2.27-7.06-1.77-13.87,5.3-9.83,9.83-19.42,10.34-27.99,1.26-6.05-6.3-6.05-7.06-6.05-55.98v-49.67l24.71-.76,24.46-.76v-29.75l-24.46-.76-24.71-.76-.76-41.1-.5-40.85h-47.91l-.5,40.85Z"/><path class="cls-1" d="M703.2,99.09c-5.3,1.51-14.62,7.31-20.93,13.11l-11.09,10.34v-21.68h-50.43l.5,136.66.76,136.91,24.71.76,24.46.76v-62.03c0-34.04.5-61.78,1.01-61.78s4.54,3.53,9.08,7.56c13.87,12.86,24.21,16.39,48.16,16.39,18.66,0,23.45-1.01,35.8-7.31,14.12-7.06,30.26-23.7,36.31-36.81,7.31-16.89,8.32-22.19,8.32-44.63,0-35.8-6.05-51.94-27.48-72.87-16.89-16.39-51.19-23.2-79.17-15.38ZM736.23,138.18c25.72,13.36,31.77,66.06,10.59,92.03-5.8,7.06-21.43,14.37-31.01,14.37-16.64,0-33.79-11.09-42.11-27.48-1.77-3.53-3.28-15.63-3.28-27.99,0-19.42.76-23.45,6.56-33.28,7.82-13.36,11.35-16.64,23.7-21.18,11.35-4.29,22.95-3.03,35.55,3.53Z"/><path class="cls-1" d="M1062,99.35c-44.13,8.83-70.1,42.11-70.6,89.51,0,33.79,16.89,64.04,44.38,78.92,17.9,9.58,45.89,13.62,68.84,9.58,9.83-1.51,22.19-5.04,27.74-7.82,14.12-6.81,31.27-24.96,39.08-41.6,6.3-13.11,7.06-17.65,7.06-40.6s-.5-27.48-7.06-40.34c-12.86-26.48-35.55-43.37-65.05-48.66-17.65-3.03-25.72-2.77-44.38,1.01ZM1109.91,136.16c16.89,12.1,24.71,47.91,16.64,75.9-4.54,15.63-10.84,22.69-24.71,28.74-22.44,9.33-43.62.76-55.22-21.94-9.83-19.16-5.04-61.78,8.57-76.9,13.11-14.62,38.58-17.4,54.72-5.8Z"/><path class="cls-1" d="M1418.03,99.85c-47.15,14.62-70.6,68.84-53.2,122.54,6.3,19.92,21.43,38.07,39.33,47.15,35.05,17.65,90.27,10.09,113.72-15.89,6.56-7.31,18.15-29,18.15-34.04,0-2.77-7.56-4.29-30.76-6.56-16.64-1.51-16.89-1.51-18.66,4.79-4.29,17.4-28.24,26.73-52.95,20.68-13.36-3.28-23.7-18.91-23.7-35.8v-8.57h126.07v-11.85c0-6.56-2.52-19.92-5.55-29.75-4.79-14.88-8.07-20.17-20.93-33.28-12.1-12.36-17.9-16.14-28.74-19.42-16.39-4.79-47.66-4.79-62.78,0ZM1460.89,133.64c12.61,3.53,24.71,15.89,24.71,25.47v7.31h-37.82c-35.05,0-37.82-.25-37.82-4.79,0-7.31,10.84-21.43,20.17-25.97,10.09-5.04,17.4-5.55,30.76-2.02Z"/><path class="cls-1" d="M1833.56,99.09c-14.88,4.54-34.29,18.41-42.11,30.01-14.37,21.43-17.15,31.01-17.15,60.01.25,23.7,1.01,27.99,7.31,41.1,13.87,27.99,33.28,42.36,64.55,47.4,34.29,5.8,71.86-5.8,87.75-26.98,3.03-4.03,6.56-8.57,7.56-10.09,3.28-3.78,8.83-21.18,7.31-22.95-1.51-1.26-31.77-5.55-41.35-5.8-3.53,0-6.05,2.27-7.82,6.81-6.05,17.15-18.41,22.95-45.13,21.43-15.13-1.01-31.01-20.68-31.01-38.58v-7.31h126.83l-1.51-18.91c-3.28-38.07-24.71-67.32-56.23-76.4-12.61-3.78-46.9-3.53-59,.25ZM1876.93,134.14c12.1,3.53,22.19,14.88,22.19,24.96v7.31h-37.82c-24.46,0-37.82-1.01-37.82-2.52,0-7.56,11.09-22.95,19.67-27.48,10.84-5.8,19.92-6.56,33.79-2.27Z"/><path class="cls-1" d="M403.9,103.38c0,2.52,12.36,36.31,18.91,51.69,1.77,4.03,11.6,29,21.43,55.47,10.09,26.22,19.67,51.19,21.43,55.47,10.84,24.46,14.12,36.56,12.36,45.89-4.29,23.45-13.62,36.06-26.73,36.06-10.34,0-17.15-8.83-17.15-22.19,0-9.33-1.26-10.59-9.58-8.07-3.78,1.26-12.36,3.28-19.42,5.04-6.81,1.51-12.86,3.28-13.36,3.53-.25.5.76,7.82,2.77,16.39,6.3,27.23,23.45,39.33,55.98,39.33,22.44,0,34.8-4.79,46.9-18.15,12.1-13.11,18.15-27.23,39.33-92.79,4.79-15.38,10.84-33.54,13.36-40.34,2.52-7.06,7.56-21.68,11.09-32.78,6.3-19.67,12.61-38.58,20.68-61.78,2.27-6.3,5.55-16.64,7.31-23.45l3.28-11.85h-49.17l-5.55,19.42c-3.28,10.84-8.32,28.24-11.35,38.58-3.28,10.34-7.82,25.72-10.09,34.04-2.52,8.32-5.3,16.89-6.3,18.91-1.26,2.27-3.03,8.83-4.03,14.88s-2.52,9.83-3.78,8.57c-1.01-1.01-6.05-15.63-11.35-32.27-5.3-16.64-13.62-43.37-18.91-59.25-5.04-15.89-10.09-32.02-11.09-36.06l-1.51-6.81h-27.74c-17.4,0-27.74,1.01-27.74,2.52Z"/></svg>