<?xml version="1.0" encoding="UTF-8"?><svg id="Layer_1" xmlns="http://www.w3.org/2000/svg" viewBox="0 0 365 382"><defs><style>.cls-1{fill:#f24822;stroke-width:0px;}</style></defs><path class="cls-1" d="M6.84,158.72v158.72h92.74v-77.76l.36-77.4,6.78,8.56c6.78,7.85,7.13,13.91,7.13,86.32v78.11h-37.45c-34.95,0-37.45.36-37.45,7.13s2.5,7.13,46.37,7.13h46.37v-143.74l7.13,9.27c6.42,8.2,7.13,14.27,7.13,78.83v69.55l-38.16,1.07c-35.67,1.07-38.52,1.43-38.52,8.2s2.85,7.13,45.3,8.2l45.65,1.07.71-67.06,1.07-67.06,24.97,34.6,24.61,34.95h84.18V0h-89.17l-.71,75.26-1.07,74.9-55.28-74.9L94.22.36h-43.51L6.84,0v158.72ZM151.65,104.15l67.41,89.88,1.07-89.88.71-89.88h60.63v289.26l-31.03-1.07-31.03-1.07-66.34-92.74-65.99-92.38-1.07,93.45-.71,93.45H24.67V14.27h59.92l67.06,89.88Z"/><path class="cls-1" d="M312.87,180.83l-1.07,152.66-38.16,1.07c-35.67.71-38.52,1.43-38.52,7.85,0,6.78,2.5,7.13,46.37,7.13h46.37v-160.5c0-158.01,0-160.5-7.13-160.5s-7.13,2.85-7.85,152.3Z"/><path class="cls-1" d="M342.11,211.87v151.94h-74.9v18.19l45.65-1.07,45.3-1.07V62.42l-7.85-1.07-8.2-1.07v151.59Z"/></svg>