<?xml version="1.0" standalone="no"?>
<!DOCTYPE svg PUBLIC "-//W3C//DTD SVG 20010904//EN"
 "http://www.w3.org/TR/2001/REC-SVG-20010904/DTD/svg10.dtd">
<svg version="1.0" xmlns="http://www.w3.org/2000/svg"
 width="336.000000pt" height="320.000000pt" viewBox="0 0 336.000000 320.000000"
 preserveAspectRatio="xMidYMid meet">

<g transform="translate(0.000000,320.000000) scale(0.100000,-0.100000)"
fill="#f24822" stroke="none">
<path d="M1500 1685 l0 -445 130 0 130 0 0 218 1 217 19 -24 c19 -22 20 -39
20 -242 l0 -219 -105 0 c-98 0 -105 -1 -105 -20 0 -19 7 -20 130 -20 l130 0 0
201 0 202 20 -26 c18 -23 20 -40 20 -221 l0 -195 -107 -3 c-100 -3 -108 -4
-108 -23 0 -19 8 -20 127 -23 l128 -3 2 188 3 188 70 -97 69 -98 118 0 118 0
0 445 0 445 -125 0 -125 0 -2 -211 -3 -210 -155 210 -155 210 -122 0 -123 1 0
-445z m406 153 l189 -252 3 252 2 252 85 0 85 0 0 -405 0 -406 -87 3 -87 3
-186 260 -185 259 -3 -262 -2 -262 -85 0 -85 0 0 405 0 405 84 0 84 0 188
-252z"/>
<path d="M2358 1623 l-3 -428 -107 -3 c-100 -2 -108 -4 -108 -22 0 -19 7 -20
130 -20 l130 0 0 450 c0 443 0 450 -20 450 -19 0 -20 -8 -22 -427z"/>
<path d="M2440 1536 l0 -426 -105 0 -105 0 0 -25 0 -26 128 3 127 3 0 445 0
445 -22 3 -23 3 0 -425z"/>
</g>
</svg>
