<?xml version="1.0" encoding="UTF-8"?>
<svg id="Layer_1" data-name="Layer 1" xmlns="http://www.w3.org/2000/svg" version="1.1" viewBox="0 0 1353 382">
  <defs>
    <style>
      .cls-1 {
        fill: #f24822;
        stroke-width: 0px;
      }
    </style>
  </defs>
  <path class="cls-1" d="M56.1,9.6C27.9,22.7,14.9,42.2,14.3,72.5c-.5,33.6,18.4,51.5,75.9,69.9,52.1,17.4,64.5,28.2,64.5,58.6,0,64-103.6,74.3-132.3,13.6-5.4-12.5-11.4-26.6-13-30.9s-3.3,8.7-3.3,29.8l-.5,38,17.9,1.1c9.2.5,33.6,2.7,53.1,4.3,30.4,3.3,39,2.2,58.6-7.6,28.7-15.2,43.9-39,43.9-71.6s-17.4-49.3-78.6-69.9c-58-19.5-67.8-27.7-67.8-54.8s3.3-22.8,13.6-31.4c35.2-27.1,78.1-15.7,98.7,26.6l11.9,24.4.5-31.4c0-28.2-1.1-31.4-9.8-28.7-6,2.2-19,0-29.8-4.9-25.5-10.3-34.2-10.3-61.8,2.2Z"/>
  <path class="cls-1" d="M415,12.4c-11.9,8.7-6.5,30.4,7.6,30.4s22.2-10.3,22.2-20.1-19-18.4-29.8-10.3Z"/>
  <path class="cls-1" d="M533.2,8.6l14.6,2.2v237.5l-14.6,2.2c-8.7,1.1,4.3,2.2,28.2,2.2s38-1.1,31.4-2.2l-12.5-2.2V4.8l-30.9.5c-17.4.5-24.9,2.2-16.3,3.3Z"/>
  <path class="cls-1" d="M671.5,8.6l11.9,2.2v237.5l-11.9,2.2c-7,1.1,7,2.2,30.9,2.2s36.9-1.1,28.7-2.2l-15.2-2.2V4.8l-28.2.5c-15.7.5-23.3,2.2-16.3,3.3Z"/>
  <path class="cls-1" d="M827.1,12.4c-11.9,8.7-8.1,27.1,6,29.3,13.6,2.2,25.5-10.3,20.6-22.2-4.3-11.9-15.7-15.2-26.6-7Z"/>
  <path class="cls-1" d="M270.3,63.3c-13.6,1.6-15.2,3.8-15.2,22.8s-2.2,21.1-11.9,23.3l-12.5,2.2,12.5,1.1c11.4.5,11.9,2.2,11.9,60.2s.5,60.7,13.6,73.2c16.8,17.4,46.6,18.4,62.4,2.7,6-6,10.8-13.6,10.8-16.8s-4.9,0-11.4,8.1c-6,7.6-15.2,14.1-20.6,14.1-19,0-22.2-11.4-22.2-77v-64h24.4c13.6,0,24.4-2.7,24.4-5.4s-10.8-5.4-23.9-5.4q-24.4,0-26-20.6c-1.6-18.4-2.7-20.1-16.3-18.4Z"/>
  <path class="cls-1" d="M1009.3,116.5c-9.2,7.6-16.8,16.3-16.8,19.5s7-2.2,15.7-11.4c16.8-17.9,41.2-22.8,53.7-10.3,4.3,4.3,6.5,27.7,6.5,69.9,0,61.8-.5,64-11.9,66.1-7,1.1,7,2.2,30.9,2.2s36.9-1.1,28.7-2.2l-15.2-2.2v-59.6c0-55.8-.5-60.2-13.6-72.7-18.4-19-55.3-19-78.1.5Z"/>
  <path class="cls-1" d="M1225.6,107.8c-39,9.2-61.3,55.8-40.7,85.1,7.6,10.8,7,13-8.1,27.7-18.4,19-20.6,37.4-6.5,55.3,8.7,10.8,16.8,13,65.6,15.7,46.6,2.7,56.9,4.9,63.4,13.6,12.5,17.9,9.2,40.1-8.7,58.6-24.9,24.4-15.7,24.4,10.3,0,20.6-19.5,22.2-23.3,22.2-49.3s-2.2-30.4-14.1-41.2c-13-12.5-19-13.6-62.9-13.6s-53.1-2.7-59.1-5.4c-22.8-12.5-1.6-47.7,24.9-41.2l14.1,3.8-11.4-11.4c-8.1-8.1-10.8-17.9-10.8-40.7,0-35.2,11.9-51.5,38-51.5s38,16.3,38,51.5-2.7,32.5-10.8,40.7c-13,13-4.3,14.1,16.3,1.6,26.6-15.2,33.1-40.7,19-73.2-5.4-14.1,11.9-19.5,21.1-7,8.1,11.4,24.9,7.6,24.9-4.9,0-19.5-40.1-21.7-51.5-3.3-2.7,4.3-7,3.8-15.2-1.6-17.4-10.8-36.3-14.1-58-9.2Z"/>
  <path class="cls-1" d="M397.7,111.6l14.6,2.2v134.5l-14.6,2.2c-8.7,1.1,4.3,2.2,28.2,2.2s36.9-1.1,28.7-2.2l-15.2-2.2V107.8l-28.2.5c-15.7.5-22.2,2.2-13.6,3.3Z"/>
  <path class="cls-1" d="M809.8,111.6l14.6,2.2v134.5l-14.6,2.2c-8.7,1.1,4.3,2.2,28.2,2.2s36.9-1.1,28.7-2.2l-15.2-2.2V107.8l-28.2.5c-15.7.5-22.2,2.2-13.6,3.3Z"/>
  <path class="cls-1" d="M945.3,111.6l14.6,2.2v134.5l-14.6,2.2c-8.7,1.1,4.3,2.2,28.2,2.2s36.3-1.1,27.7-2.2l-15.2-2.7,1.1-52.1c1.1-28.7,1.1-60.7.5-70.5l-.5-17.4-28.2.5c-15.7.5-22.2,2.2-13.6,3.3Z"/>
</svg>