<?xml version="1.0" standalone="no"?>
<!DOCTYPE svg PUBLIC "-//W3C//DTD SVG 20010904//EN"
 "http://www.w3.org/TR/2001/REC-SVG-20010904/DTD/svg10.dtd">
<svg version="1.0" xmlns="http://www.w3.org/2000/svg"
 width="504.000000pt" height="177.000000pt" viewBox="0 0 504.000000 177.000000"
 preserveAspectRatio="xMidYMid meet">

<g transform="translate(0.000000,177.000000) scale(0.100000,-0.100000)"
fill="#f24822" stroke="none">
<path d="M1373 1221 c-52 -24 -76 -60 -77 -116 -1 -62 34 -95 140 -129 96 -32
119 -52 119 -108 0 -118 -191 -137 -244 -25 -10 23 -21 49 -24 57 -3 8 -6 -16
-6 -55 l-1 -70 33 -2 c17 -1 62 -5 98 -8 56 -6 72 -4 108 14 53 28 81 72 81
132 0 62 -32 91 -145 129 -107 36 -125 51 -125 101 0 28 6 42 25 58 65 50 144
29 182 -49 l22 -45 1 58 c0 52 -2 58 -18 53 -11 -4 -35 0 -55 9 -47 19 -63 19
-114 -4z"/>
<path d="M2035 1216 c-22 -16 -12 -56 14 -56 20 0 41 19 41 37 0 21 -35 34
-55 19z"/>
<path d="M2253 1223 l27 -4 0 -219 0 -219 -27 -4 c-16 -2 8 -4 52 -4 44 0 70
2 58 4 l-23 4 0 225 0 224 -57 -1 c-32 -1 -46 -4 -30 -6z"/>
<path d="M2508 1223 l22 -4 0 -219 0 -219 -22 -4 c-13 -2 13 -4 57 -4 44 0 68
2 53 4 l-28 4 0 225 0 224 -52 -1 c-29 -1 -43 -4 -30 -6z"/>
<path d="M2795 1216 c-22 -16 -15 -50 11 -54 25 -4 47 19 38 41 -8 22 -29 28
-49 13z"/>
<path d="M1768 1122 c-25 -3 -28 -7 -28 -42 0 -32 -4 -39 -22 -43 l-23 -4 23
-2 c21 -1 22 -4 22 -111 0 -104 1 -112 25 -135 31 -32 86 -34 115 -5 11 11 20
25 20 31 0 7 -9 0 -21 -15 -11 -14 -28 -26 -38 -26 -35 0 -41 21 -41 142 l0
118 45 0 c25 0 45 5 45 10 0 6 -20 10 -44 10 -45 0 -45 0 -48 38 -3 34 -5 37
-30 34z"/>
<path d="M3131 1024 c-17 -14 -31 -30 -31 -36 0 -6 13 4 29 21 31 33 76 42 99
19 8 -8 12 -51 12 -129 0 -114 -1 -118 -22 -122 -13 -2 13 -4 57 -4 44 0 68 2
53 4 l-28 4 0 110 c0 103 -1 111 -25 134 -34 35 -102 35 -144 -1z"/>
<path d="M3530 1040 c-72 -17 -113 -103 -75 -157 14 -20 13 -24 -15 -51 -34
-35 -38 -69 -12 -102 16 -20 31 -24 121 -29 86 -5 105 -9 117 -25 23 -33 17
-74 -16 -108 -46 -45 -29 -45 19 0 38 36 41 43 41 91 0 43 -4 56 -26 76 -24
23 -35 25 -116 25 -49 0 -98 5 -109 10 -42 23 -3 88 46 76 l26 -7 -21 21 c-15
15 -20 33 -20 75 0 65 22 95 70 95 48 0 70 -30 70 -95 0 -42 -5 -60 -20 -75
-24 -24 -8 -26 30 -3 49 28 61 75 35 135 -10 26 22 36 39 13 15 -21 46 -14 46
9 0 36 -74 40 -95 6 -5 -8 -13 -7 -28 3 -32 20 -67 26 -107 17z"/>
<path d="M2003 1033 l27 -4 0 -124 0 -124 -27 -4 c-16 -2 8 -4 52 -4 44 0 68
2 53 4 l-28 4 0 130 0 129 -52 -1 c-29 -1 -41 -4 -25 -6z"/>
<path d="M2763 1033 l27 -4 0 -124 0 -124 -27 -4 c-16 -2 8 -4 52 -4 44 0 68
2 53 4 l-28 4 0 130 0 129 -52 -1 c-29 -1 -41 -4 -25 -6z"/>
<path d="M3013 1033 l27 -4 0 -124 0 -124 -27 -4 c-16 -2 8 -4 52 -4 44 0 67
2 51 4 l-28 5 2 96 c2 53 2 112 1 130 l-1 32 -52 -1 c-29 -1 -41 -4 -25 -6z"/>
</g>
</svg>
