<svg width="1512" height="1371" viewBox="0 0 1512 1371" fill="none" xmlns="http://www.w3.org/2000/svg">
<g clip-path="url(#clip0_241_549)">
<path d="M799.518 1184.36C559.055 1069.74 166.313 1060.56 0 1070.3V650.045H1512V1425.31C1258.18 1438.12 931.253 1270.02 799.518 1184.36Z" fill="#EEEEEE"/>
<rect y="-9" width="1512" height="664.218" fill="#EEEEEE" fill-opacity="0.933333"/>
<path d="M813.5 1180.5C833 1183 877.1 1195.5 897.5 1225.5" stroke="#F24822" stroke-width="8" stroke-linecap="round"/>
<path d="M787.98 1170.02L780.438 1177.56M678.626 1279.37C673.595 1274.34 703.227 1232.35 767.504 1153.36C769.795 1150.55 772.642 1148.24 775.866 1146.57C779.09 1144.91 782.623 1143.93 786.244 1143.69C789.864 1143.45 793.495 1143.96 796.909 1145.19C800.323 1146.42 803.448 1148.34 806.087 1150.83C808.726 1153.32 810.823 1156.33 812.248 1159.66C813.673 1163 814.395 1166.6 814.368 1170.22C814.341 1173.85 813.566 1177.44 812.092 1180.75C810.618 1184.07 808.477 1187.04 805.801 1189.49C726.048 1254.44 683.656 1284.41 678.626 1279.37Z" stroke="#789DB2" stroke-width="7" stroke-linecap="round" stroke-linejoin="round"/>
<path d="M634 1142C654.333 1167.33 710.6 1210.8 779 1178" stroke="#F24822" stroke-width="8" stroke-linecap="round"/>
<path d="M250.999 3.5C39.4994 525 549.899 659.6 1125.5 872C1313 948.5 1566 1161.7 1078 1402.5" stroke="#F24822" stroke-width="9" stroke-linecap="round" stroke-dasharray="18 18"/>
</g>
<defs>
<clipPath id="clip0_241_549">
<rect width="1512" height="1371" fill="white"/>
</clipPath>
</defs>
</svg>
