<svg width="390" height="982" viewBox="0 0 390 982" fill="none" xmlns="http://www.w3.org/2000/svg">
<g clip-path="url(#clip0_241_550)">
<path d="M206.225 536.106C144.201 506.539 42.8983 504.172 0 506.684V398.285H390V598.254C324.53 601.558 240.204 558.198 206.225 536.106Z" fill="#EEEEEE"/>
<rect width="390" height="400" fill="#EEEEEE" fill-opacity="0.933333"/>
<path d="M226.154 857.53C237.143 858.939 261.995 865.983 273.491 882.89" stroke="#F24822" stroke-width="3" stroke-linecap="round"/>
<path d="M211.771 851.625L207.521 855.875M150.146 913.25C147.312 910.415 164.01 886.747 200.233 842.237C201.524 840.651 203.128 839.349 204.945 838.411C206.762 837.473 208.753 836.92 210.793 836.786C212.833 836.652 214.88 836.94 216.804 837.632C218.727 838.325 220.488 839.406 221.975 840.809C223.463 842.213 224.645 843.907 225.448 845.788C226.25 847.668 226.657 849.694 226.642 851.739C226.627 853.784 226.19 855.803 225.36 857.672C224.529 859.54 223.322 861.217 221.814 862.598C176.87 899.199 152.981 916.085 150.146 913.25Z" stroke="#789DB2" stroke-width="3" stroke-linecap="round" stroke-linejoin="round"/>
<path d="M125 835.834C136.459 850.111 168.167 874.606 206.713 856.122" stroke="#F24822" stroke-width="3" stroke-linecap="round"/>
<path d="M64.5902 0C9.99828 366.056 147.5 536 290.314 609.626C383.5 667.5 404.015 812.975 278.053 982" stroke="#F24822" stroke-width="3" stroke-linecap="round" stroke-dasharray="4.64 4.64"/>
</g>
<defs>
<clipPath id="clip0_241_550">
<rect width="390" height="982" fill="white"/>
</clipPath>
</defs>
</svg>
