<svg width="79" height="85" viewBox="0 0 79 85" fill="none" xmlns="http://www.w3.org/2000/svg">
<path d="M4 75.1807V10.1662C4 8.59861 4.57541 7.09528 5.59965 5.98686C6.62388 4.87844 8.01305 4.25574 9.46154 4.25574H69.5385C70.9869 4.25574 72.3761 4.87844 73.4003 5.98686C74.4246 7.09528 75 8.59861 75 10.1662V75.1807C75 76.7482 74.4246 78.2516 73.4003 79.36C72.3761 80.4684 70.9869 81.0911 69.5385 81.0911H53.1538V53.0758H57.0315C57.9151 53.0758 58.7625 52.6959 59.3873 52.0198C60.0121 51.3436 60.3631 50.4266 60.3631 49.4704V44.9194C60.3616 43.9637 60.0102 43.0475 59.3857 42.3717C58.7612 41.6959 57.9147 41.3156 57.0315 41.314H53.3723V35.7582C53.3723 30.7935 55.4477 30.7935 57.5231 30.7935H60.1992C60.6388 30.8131 61.077 30.728 61.4828 30.5441C61.8886 30.3603 62.2521 30.0822 62.5477 29.7296C62.8651 29.4026 63.1163 29.0079 63.2855 28.5705C63.4548 28.133 63.5383 27.6623 63.5308 27.1881V22.8144C63.5468 22.3328 63.4746 21.8524 63.3183 21.4011C63.162 20.9498 62.9247 20.5364 62.6201 20.1847C62.3155 19.8331 61.9496 19.5502 61.5434 19.3523C61.1373 19.1544 60.699 19.0455 60.2538 19.0318H53.9731C52.1404 18.9572 50.3147 19.3141 48.6219 20.0777C46.9292 20.8413 45.4098 21.9934 44.1687 23.4546C42.9276 24.9157 41.9943 26.651 41.4334 28.5405C40.8725 30.4301 40.6974 32.4289 40.92 34.3988V41.314H37.4246C36.9825 41.3062 36.5434 41.3936 36.1329 41.5713C35.7224 41.749 35.3486 42.0133 35.0335 42.3489C34.7183 42.6845 34.468 43.0846 34.2972 43.5259C34.1264 43.9672 34.0384 44.4409 34.0385 44.9194V49.4704C34.0384 49.9489 34.1264 50.4226 34.2972 50.8639C34.468 51.3052 34.7183 51.7053 35.0335 52.0409C35.3486 52.3765 35.7224 52.6408 36.1329 52.8185C36.5434 52.9961 36.9825 53.0836 37.4246 53.0758H40.92V81.0911H9.46154C8.01305 81.0911 6.62388 80.4684 5.59965 79.36C4.57541 78.2516 4 76.7482 4 75.1807Z" stroke="#326680" stroke-width="7" stroke-linecap="round" stroke-linejoin="round"/>
</svg>
