<svg width="1512" height="950" viewBox="0 0 1512 950" fill="none" xmlns="http://www.w3.org/2000/svg">
<g clip-path="url(#clip0_241_809)">
<path d="M1407.11 -999.069C1566.68 -895.945 1599.75 -570.627 1729.17 -325.469C1858.6 -80.3102 2084.55 88.1949 2083.96 260.457C2083.46 434.472 1856.42 612.244 1697.77 786.76C1537.28 959.605 1446.85 1127.36 1310.58 1328.93C1174.22 1528.74 993.772 1762.29 768.905 1838.03C542.283 1913.85 272.994 1831.76 85.8701 1666.68C-101.338 1499.85 -204.627 1249.93 -233.1 1021.05C-261.656 790.426 -215.312 582.593 -205.375 385.281C-195.354 189.723 -223.493 4.76849 -161.786 -138.769C-98.3244 -282.39 54.9831 -384.594 209.376 -500.909C363.853 -615.472 521.169 -744.229 742.112 -865.471C963.055 -986.713 1247.46 -1103.95 1407.11 -999.069Z" fill="#EEEEEE"/>
<path d="M280 868H224C245.965 856.285 262.888 836.942 271.58 813.616C280.272 790.289 280.134 764.588 271.191 741.356C262.248 718.124 245.117 698.965 223.027 687.488C200.937 676.011 175.412 673.008 151.262 679.046C127.111 685.083 106.002 699.744 91.912 720.267C77.8217 740.789 71.7229 765.756 74.7645 790.463C77.8061 815.17 89.7781 837.912 108.425 854.404C127.072 870.896 151.106 880 176 880H280C281.592 880 283.118 879.368 284.243 878.243C285.368 877.118 286 875.591 286 874C286 872.409 285.368 870.883 284.243 869.758C283.118 868.632 281.592 868 280 868ZM176 688C193.087 687.968 209.826 692.826 224.24 702C213.053 706.829 202.286 712.579 192.05 719.19C176.204 708.986 159.115 700.856 141.2 695C152.218 690.371 164.05 687.991 176 688ZM126.2 703.07C145.602 708.235 164.157 716.173 181.29 726.64C173.26 732.512 165.629 738.913 158.45 745.8C140.909 736.296 121.91 729.773 102.23 726.5C108.698 717.271 116.826 709.326 126.2 703.07ZM95.5802 737.62C114.442 740.221 132.726 746.006 149.65 754.73C143.101 761.754 137.012 769.193 131.42 777C117.387 770.513 102.378 766.387 87.0002 764.79C88.3915 755.334 91.2882 746.161 95.5802 737.62ZM103.11 830.73C91.9693 815.408 85.9784 796.945 86.0002 778V776.75C99.3268 778.16 112.351 781.645 124.6 787.08C115.848 800.793 108.641 815.432 103.11 830.73ZM112.11 841.37C121.761 811.821 137.814 784.765 159.124 762.133C180.433 739.501 206.475 721.851 235.39 710.44C242.865 717.024 249.203 724.795 254.15 733.44C225.681 742.965 200.012 759.389 179.435 781.247C158.857 803.106 144.011 829.718 136.22 858.71C127.297 854.295 119.164 848.436 112.15 841.37H112.11ZM175.11 867.99C165.673 867.909 156.308 866.34 147.36 863.34C154.518 835.688 168.533 810.286 188.109 789.486C207.686 768.686 232.192 753.159 259.36 744.34C262.911 753.084 265.051 762.335 265.7 771.75C243.96 779.294 224.368 791.989 208.6 808.75C192.832 825.511 181.355 845.84 175.15 868L175.11 867.99ZM265.73 784.46C264.217 805.096 255.651 824.583 241.47 839.651C227.289 854.718 208.357 864.449 187.85 867.21C193.765 848.438 203.845 831.245 217.338 816.915C230.83 802.586 247.387 791.491 265.77 784.46H265.73Z" fill="#F24822"/>
<path d="M417.075 -262.285C415.261 -263.984 412.413 -263.89 410.715 -262.075C409.016 -260.261 409.11 -257.413 410.925 -255.715L417.075 -262.285ZM298.496 880.602C300.977 880.758 303.114 878.875 303.271 876.394C303.428 873.914 301.544 871.776 299.064 871.619L298.496 880.602ZM317.416 872.689C314.934 872.557 312.815 874.461 312.682 876.943C312.55 879.425 314.455 881.544 316.936 881.676L317.416 872.689ZM335.159 882.557C337.642 882.665 339.742 880.739 339.849 878.256C339.957 875.773 338.031 873.673 335.548 873.565L335.159 882.557ZM353.463 874.251C350.979 874.169 348.898 876.115 348.816 878.599C348.733 881.083 350.68 883.164 353.164 883.246L353.463 874.251ZM370.954 883.746C373.439 883.803 375.499 881.835 375.556 879.35C375.613 876.865 373.645 874.805 371.16 874.748L370.954 883.746ZM388.711 875.059C386.225 875.028 384.186 877.018 384.155 879.503C384.124 881.988 386.113 884.028 388.598 884.059L388.711 875.059ZM407.167 884.186C409.652 884.189 411.669 882.177 411.672 879.692C411.675 877.206 409.663 875.189 407.178 875.186L407.167 884.186ZM425.4 875.104C422.914 875.13 420.92 877.165 420.946 879.65C420.971 882.135 423.007 884.129 425.492 884.104L425.4 875.104ZM443.574 883.814C446.059 883.759 448.029 881.701 447.975 879.216C447.92 876.732 445.862 874.762 443.378 874.816L443.574 883.814ZM461.113 874.324C458.629 874.408 456.683 876.489 456.767 878.973C456.85 881.457 458.932 883.403 461.416 883.319L461.113 874.324ZM479.017 882.622C481.499 882.508 483.42 880.404 483.307 877.921C483.194 875.438 481.089 873.518 478.606 873.631L479.017 882.622ZM497.013 872.672C494.532 872.818 492.638 874.947 492.784 877.428C492.929 879.909 495.058 881.802 497.539 881.657L497.013 872.672ZM515.827 880.464C518.306 880.286 520.171 878.132 519.993 875.654C519.815 873.175 517.661 871.31 515.182 871.488L515.827 880.464ZM533.08 870.082C530.604 870.293 528.767 872.472 528.978 874.948C529.19 877.425 531.368 879.261 533.845 879.05L533.08 870.082ZM551.593 877.415C554.066 877.17 555.873 874.967 555.628 872.494C555.383 870.021 553.18 868.214 550.707 868.459L551.593 877.415ZM568.315 866.593C565.846 866.872 564.07 869.1 564.349 871.57C564.629 874.039 566.857 875.815 569.327 875.536L568.315 866.593ZM587.703 873.319C590.168 873.003 591.91 870.749 591.594 868.284C591.278 865.819 589.023 864.076 586.558 864.393L587.703 873.319ZM604.497 861.955C602.037 862.308 600.329 864.589 600.683 867.049C601.036 869.509 603.317 871.217 605.777 870.863L604.497 861.955ZM623.551 868.171C626.006 867.78 627.678 865.473 627.287 863.019C626.896 860.565 624.589 858.892 622.135 859.283L623.551 868.171ZM639.473 856.382C637.025 856.811 635.388 859.144 635.818 861.592C636.247 864.04 638.58 865.676 641.028 865.246L639.473 856.382ZM659.067 861.928C661.507 861.458 663.105 859.098 662.635 856.658C662.165 854.218 659.805 852.62 657.365 853.09L659.067 861.928ZM675.194 849.498C672.762 850.01 671.205 852.397 671.717 854.829C672.229 857.261 674.615 858.817 677.047 858.305L675.194 849.498ZM694.694 854.432C697.117 853.878 698.632 851.465 698.078 849.042C697.524 846.619 695.111 845.104 692.688 845.658L694.694 854.432ZM709.85 841.575C707.438 842.171 705.965 844.611 706.562 847.024C707.159 849.436 709.598 850.908 712.011 850.312L709.85 841.575ZM729.627 845.782C732.028 845.14 733.455 842.674 732.813 840.273C732.172 837.872 729.705 836.445 727.304 837.087L729.627 845.782ZM744.839 832.222C742.45 832.909 741.072 835.403 741.759 837.791C742.447 840.179 744.941 841.558 747.329 840.871L744.839 832.222ZM764.664 835.696C767.038 834.962 768.367 832.442 767.633 830.067C766.899 827.693 764.379 826.364 762.005 827.098L764.664 835.696ZM778.805 821.72C776.445 822.501 775.166 825.047 775.947 827.407C776.729 829.766 779.274 831.045 781.634 830.264L778.805 821.72ZM798.9 824.346C801.242 823.516 802.468 820.944 801.637 818.601C800.807 816.259 798.235 815.033 795.892 815.864L798.9 824.346ZM812.918 809.621C810.594 810.502 809.424 813.1 810.305 815.424C811.186 817.748 813.784 818.917 816.108 818.037L812.918 809.621ZM832.915 811.456C835.219 810.524 836.331 807.901 835.4 805.597C834.468 803.293 831.845 802.18 829.541 803.112L832.915 811.456ZM845.765 796.343C843.483 797.326 842.428 799.973 843.411 802.255C844.393 804.538 847.04 805.593 849.323 804.61L845.765 796.343ZM866.198 797.112C868.457 796.076 869.448 793.405 868.412 791.146C867.376 788.887 864.705 787.895 862.446 788.931L866.198 797.112ZM878.725 781.229C876.492 782.319 875.564 785.013 876.654 787.247C877.744 789.48 880.438 790.407 882.672 789.317L878.725 781.229ZM898.711 781.25C900.918 780.106 901.78 777.39 900.636 775.184C899.492 772.977 896.776 772.116 894.57 773.259L898.711 781.25ZM910.349 764.83C908.172 766.028 907.379 768.765 908.577 770.942C909.776 773.119 912.512 773.913 914.689 772.714L910.349 764.83ZM930.643 763.661C932.789 762.406 933.511 759.65 932.256 757.504C931.001 755.359 928.245 754.637 926.1 755.892L930.643 763.661ZM941.382 746.684C939.27 747.995 938.621 750.769 939.931 752.881C941.242 754.992 944.016 755.642 946.128 754.332L941.382 746.684ZM961.239 744.675C963.315 743.309 963.891 740.518 962.525 738.442C961.159 736.366 958.369 735.79 956.292 737.156L961.239 744.675ZM971.321 726.966C969.284 728.39 968.786 731.195 970.209 733.233C971.633 735.27 974.438 735.768 976.475 734.344L971.321 726.966ZM991.21 723.742C993.207 722.262 993.626 719.444 992.146 717.447C990.666 715.45 987.848 715.031 985.851 716.511L991.21 723.742ZM999.888 705.8C997.933 707.336 997.594 710.164 999.129 712.119C1000.66 714.073 1003.49 714.413 1005.45 712.877L999.888 705.8ZM1019.74 701.304C1021.65 699.712 1021.91 696.874 1020.31 694.966C1018.72 693.058 1015.89 692.801 1013.98 694.393L1019.74 701.304ZM1027.57 682.711C1025.71 684.359 1025.53 687.203 1027.18 689.063C1028.83 690.924 1031.67 691.096 1033.53 689.449L1027.57 682.711ZM1046.8 677.344C1048.61 675.641 1048.7 672.794 1047 670.983C1045.3 669.172 1042.45 669.084 1040.64 670.786L1046.8 677.344ZM1053.61 658.208C1051.86 659.965 1051.86 662.815 1053.61 664.572C1055.37 666.33 1058.22 666.331 1059.98 664.575L1053.61 658.208ZM1072.64 651.521C1074.35 649.711 1074.26 646.863 1072.45 645.16C1070.64 643.457 1067.79 643.544 1066.09 645.354L1072.64 651.521ZM1078.02 632.275C1076.38 634.136 1076.55 636.98 1078.41 638.627C1080.27 640.274 1083.12 640.1 1084.76 638.239L1078.02 632.275ZM1096.71 624.303C1098.3 622.391 1098.03 619.554 1096.12 617.967C1094.21 616.379 1091.37 616.643 1089.78 618.555L1096.71 624.303ZM1100.99 604.613C1099.46 606.575 1099.82 609.402 1101.78 610.928C1103.74 612.455 1106.57 612.102 1108.09 610.14L1100.99 604.613ZM1118.95 595.721C1120.42 593.713 1119.97 590.898 1117.97 589.434C1115.96 587.971 1113.14 588.412 1111.68 590.421L1118.95 595.721ZM1122.06 575.683C1120.66 577.737 1121.19 580.536 1123.25 581.935C1125.3 583.333 1128.1 582.802 1129.5 580.747L1122.06 575.683ZM1139.47 565.592C1140.8 563.494 1140.18 560.713 1138.08 559.381C1135.98 558.048 1133.2 558.669 1131.87 560.767L1139.47 565.592ZM1141.2 545.546C1139.94 547.686 1140.64 550.445 1142.78 551.71C1144.92 552.975 1147.68 552.265 1148.95 550.126L1141.2 545.546ZM1157.99 534.258C1159.18 532.079 1158.38 529.344 1156.21 528.148C1154.03 526.953 1151.29 527.751 1150.1 529.93L1157.99 534.258ZM1158.41 514.177C1157.29 516.393 1158.17 519.101 1160.39 520.226C1162.6 521.351 1165.31 520.467 1166.44 518.251L1158.41 514.177ZM1174.42 501.868C1175.48 499.617 1174.51 496.939 1172.26 495.886C1170 494.832 1167.33 495.803 1166.27 498.054L1174.42 501.868ZM1173.6 481.706C1172.62 483.99 1173.68 486.636 1175.96 487.617C1178.25 488.597 1180.89 487.541 1181.87 485.257L1173.6 481.706ZM1188.74 468.539C1189.65 466.225 1188.51 463.614 1186.19 462.706C1183.88 461.799 1181.27 462.939 1180.36 465.253L1188.74 468.539ZM1186.67 448.388C1185.83 450.729 1187.06 453.303 1189.4 454.135C1191.74 454.968 1194.31 453.745 1195.15 451.404L1186.67 448.388ZM1200.95 434.212C1201.71 431.845 1200.41 429.312 1198.04 428.554C1195.67 427.796 1193.14 429.1 1192.38 431.467L1200.95 434.212ZM1197.57 414.345C1196.88 416.734 1198.27 419.225 1200.66 419.907C1203.05 420.59 1205.54 419.206 1206.22 416.816L1197.57 414.345ZM1210.95 399.212C1211.55 396.802 1210.09 394.357 1207.68 393.75C1205.27 393.144 1202.82 394.607 1202.22 397.017L1210.95 399.212ZM1206.29 379.692C1205.76 382.121 1207.3 384.518 1209.72 385.048C1212.15 385.578 1214.55 384.039 1215.08 381.611L1206.29 379.692ZM1218.69 363.687C1219.14 361.243 1217.53 358.895 1215.09 358.443C1212.64 357.991 1210.29 359.605 1209.84 362.049L1218.69 363.687ZM1212.82 344.431C1212.44 346.888 1214.13 349.184 1216.59 349.558C1219.04 349.933 1221.34 348.245 1221.71 345.788L1212.82 344.431ZM1224.17 327.774C1224.46 325.307 1222.7 323.066 1220.24 322.77C1217.77 322.473 1215.53 324.233 1215.23 326.701L1224.17 327.774ZM1217.09 308.859C1216.87 311.335 1218.7 313.518 1221.18 313.736C1223.65 313.953 1225.83 312.122 1226.05 309.647L1217.09 308.859ZM1227.35 291.616C1227.49 289.134 1225.59 287.01 1223.1 286.872C1220.62 286.733 1218.5 288.633 1218.36 291.114L1227.35 291.616ZM1219.07 273.115C1219.02 275.6 1220.98 277.661 1223.47 277.719C1225.95 277.777 1228.01 275.809 1228.07 273.325L1219.07 273.115ZM1228.2 255.207C1228.17 252.722 1226.14 250.726 1223.66 250.749C1221.17 250.772 1219.17 252.805 1219.2 255.29L1228.2 255.207ZM1218.74 237.347C1218.84 239.83 1220.94 241.758 1223.42 241.653C1225.9 241.547 1227.83 239.449 1227.73 236.966L1218.74 237.347ZM1226.65 218.813C1226.46 216.335 1224.3 214.478 1221.82 214.667C1219.35 214.855 1217.49 217.017 1217.68 219.495L1226.65 218.813ZM1216.02 201.71C1216.29 204.181 1218.52 205.962 1220.99 205.689C1223.46 205.416 1225.24 203.192 1224.97 200.722L1216.02 201.71ZM1222.65 182.613C1222.29 180.154 1220 178.451 1217.54 178.811C1215.08 179.17 1213.38 181.455 1213.74 183.914L1222.65 182.613ZM1210.86 166.373C1211.3 168.818 1213.65 170.438 1216.09 169.991C1218.54 169.544 1220.16 167.2 1219.71 164.755L1210.86 166.373ZM1216.08 146.785C1215.54 144.359 1213.14 142.828 1210.71 143.365C1208.29 143.903 1206.76 146.306 1207.29 148.732L1216.08 146.785ZM1203.14 131.518C1203.77 133.922 1206.23 135.361 1208.63 134.731C1211.03 134.102 1212.47 131.643 1211.84 129.238L1203.14 131.518ZM1206.83 111.54C1206.1 109.164 1203.59 107.825 1201.21 108.551C1198.83 109.277 1197.5 111.792 1198.22 114.169L1206.83 111.54ZM1192.7 97.3399C1193.52 99.6846 1196.09 100.917 1198.44 100.093C1200.78 99.2695 1202.02 96.7007 1201.19 94.356L1192.7 97.3399ZM1194.71 77.1431C1193.79 74.8373 1191.17 73.7199 1188.86 74.6472C1186.55 75.5746 1185.44 78.1956 1186.36 80.5013L1194.71 77.1431ZM1179.39 64.2459C1180.42 66.5062 1183.09 67.501 1185.35 66.4677C1187.61 65.4345 1188.61 62.7646 1187.57 60.5042L1179.39 64.2459ZM1179.5 43.9477C1178.36 41.7422 1175.64 40.8829 1173.43 42.0284C1171.23 43.1739 1170.37 45.8905 1171.52 48.0961L1179.5 43.9477ZM1162.98 32.6709C1164.24 34.8127 1167 35.5268 1169.14 34.266C1171.29 33.0052 1172 30.2469 1170.74 28.1051L1162.98 32.6709ZM1160.91 12.4545C1159.52 10.3901 1156.73 9.83832 1154.66 11.2221C1152.6 12.6058 1152.05 15.4011 1153.43 17.4656L1160.91 12.4545ZM1143.18 3.13918C1144.69 5.11321 1147.51 5.48947 1149.48 3.97956C1151.46 2.46966 1151.83 -0.354629 1150.33 -2.32867L1143.18 3.13918ZM1138.61 -16.612C1136.96 -18.4767 1134.12 -18.6565 1132.26 -17.0136C1130.39 -15.3706 1130.21 -12.5271 1131.85 -10.6623L1138.61 -16.612ZM1119.7 -23.4641C1121.48 -21.7283 1124.33 -21.7631 1126.07 -23.5417C1127.8 -25.3204 1127.77 -28.1694 1125.99 -29.9052L1119.7 -23.4641ZM1112.3 -42.2092C1110.39 -43.7916 1107.55 -43.5207 1105.97 -41.6042C1104.39 -39.6878 1104.66 -36.8514 1106.57 -35.2691L1112.3 -42.2092ZM1092.46 -45.8898C1094.52 -44.489 1097.32 -45.0175 1098.72 -47.0703C1100.12 -49.1232 1099.59 -51.923 1097.54 -53.3239L1092.46 -45.8898ZM1081.86 -62.935C1079.68 -64.1262 1076.95 -63.3236 1075.75 -61.1424C1074.56 -58.9611 1075.37 -56.2273 1077.55 -55.0361L1081.86 -62.935ZM1061.67 -62.6399C1063.97 -61.6897 1066.6 -62.7811 1067.55 -65.0776C1068.5 -67.3741 1067.41 -70.006 1065.11 -70.9562L1061.67 -62.6399ZM1048.02 -77.1768C1045.67 -77.9817 1043.11 -76.728 1042.31 -74.3767C1041.5 -72.0253 1042.75 -69.4667 1045.11 -68.6618L1048.02 -77.1768ZM1028.38 -74.266C1030.74 -73.4916 1033.28 -74.7784 1034.06 -77.1399C1034.83 -79.5015 1033.55 -82.0437 1031.18 -82.818L1028.38 -74.266ZM1014.19 -88.2702C1011.82 -89.0144 1009.29 -87.6953 1008.55 -85.3241C1007.8 -82.9528 1009.12 -80.4273 1011.49 -79.6831L1014.19 -88.2702ZM994.6 -84.8693C996.981 -84.1546 999.49 -85.5048 1000.2 -87.8851C1000.92 -90.2654 999.569 -92.7744 997.188 -93.4891L994.6 -84.8693ZM980.136 -98.4969C977.747 -99.1829 975.255 -97.8026 974.569 -95.4138C973.883 -93.0251 975.263 -90.5326 977.652 -89.8466L980.136 -98.4969ZM960.585 -94.6394C962.982 -93.9814 965.458 -95.3908 966.116 -97.7873C966.774 -100.184 965.365 -102.66 962.968 -103.318L960.585 -94.6394ZM945.798 -107.929C943.395 -108.56 940.934 -107.123 940.303 -104.719C939.672 -102.315 941.109 -99.8547 943.513 -99.2235L945.798 -107.929ZM926.401 -103.618C928.812 -103.012 931.257 -104.476 931.862 -106.886C932.467 -109.296 931.004 -111.741 928.593 -112.347L926.401 -103.618ZM911.281 -116.599C908.865 -117.18 906.435 -115.691 905.854 -113.275C905.274 -110.858 906.762 -108.429 909.179 -107.848L911.281 -116.599ZM891.954 -111.898C894.376 -111.341 896.791 -112.852 897.349 -115.274C897.906 -117.696 896.394 -120.112 893.972 -120.669L891.954 -111.898ZM876.667 -124.568C874.24 -125.104 871.839 -123.57 871.303 -121.143C870.768 -118.717 872.301 -116.315 874.728 -115.779L876.667 -124.568ZM857.387 -119.529C859.818 -119.014 862.207 -120.567 862.722 -122.998C863.237 -125.43 861.684 -127.818 859.253 -128.334L857.387 -119.529ZM841.836 -131.955C839.4 -132.452 837.024 -130.881 836.527 -128.446C836.03 -126.01 837.601 -123.634 840.036 -123.137L841.836 -131.955ZM822.688 -126.615C825.126 -126.134 827.492 -127.721 827.973 -130.16C828.453 -132.598 826.866 -134.964 824.428 -135.445L822.688 -126.615ZM807.012 -138.822C804.571 -139.289 802.214 -137.688 801.748 -135.247C801.281 -132.805 802.882 -130.448 805.324 -129.982L807.012 -138.822ZM787.874 -133.269C790.317 -132.815 792.666 -134.427 793.121 -136.871C793.575 -139.314 791.963 -141.663 789.519 -142.118L787.874 -133.269ZM772.042 -145.332C769.597 -145.777 767.254 -144.155 766.809 -141.71C766.364 -139.265 767.985 -136.922 770.43 -136.477L772.042 -145.332ZM752.993 -139.626C755.44 -139.187 757.778 -140.815 758.217 -143.261C758.656 -145.707 757.028 -148.046 754.582 -148.485L752.993 -139.626ZM737.14 -151.599C734.694 -152.034 732.357 -150.403 731.922 -147.957C731.486 -145.51 733.117 -143.173 735.564 -142.738L737.14 -151.599ZM718.083 -145.847C720.53 -145.412 722.867 -147.042 723.302 -149.489C723.738 -151.936 722.108 -154.272 719.661 -154.708L718.083 -145.847ZM702.181 -157.833C699.735 -158.273 697.395 -156.647 696.955 -154.201C696.516 -151.755 698.142 -149.415 700.588 -148.975L702.181 -157.833ZM683.107 -152.147C685.552 -151.698 687.897 -153.317 688.345 -155.761C688.793 -158.206 687.175 -160.551 684.73 -160.999L683.107 -152.147ZM667.313 -164.237C664.871 -164.698 662.518 -163.093 662.056 -160.65C661.595 -158.208 663.201 -155.855 665.643 -155.394L667.313 -164.237ZM648.199 -158.752C650.637 -158.273 653.003 -159.861 653.482 -162.3C653.962 -164.738 652.374 -167.104 649.935 -167.583L648.199 -158.752ZM632.603 -171.077C630.169 -171.581 627.788 -170.016 627.284 -167.582C626.78 -165.149 628.345 -162.767 630.779 -162.264L632.603 -171.077ZM613.389 -165.972C615.817 -165.438 618.217 -166.973 618.752 -169.4C619.286 -171.827 617.751 -174.228 615.324 -174.762L613.389 -165.972ZM598.092 -178.692C595.673 -179.264 593.249 -177.767 592.677 -175.349C592.104 -172.93 593.601 -170.506 596.02 -169.934L598.092 -178.692ZM578.699 -174.201C581.106 -173.583 583.559 -175.033 584.177 -177.44C584.795 -179.847 583.345 -182.3 580.938 -182.918L578.699 -174.201ZM563.897 -187.497C561.505 -188.17 559.02 -186.776 558.347 -184.384C557.674 -181.992 559.067 -179.506 561.46 -178.833L563.897 -187.497ZM544.327 -183.9C546.7 -183.162 549.222 -184.487 549.96 -186.86C550.698 -189.234 549.373 -191.756 547 -192.494L544.327 -183.9ZM530.281 -197.98C527.932 -198.793 525.369 -197.549 524.556 -195.201C523.742 -192.852 524.986 -190.289 527.335 -189.476L530.281 -197.98ZM510.526 -195.642C512.843 -194.742 515.45 -195.89 516.351 -198.206C517.251 -200.523 516.103 -203.131 513.787 -204.031L510.526 -195.642ZM497.575 -210.727C495.299 -211.726 492.645 -210.691 491.646 -208.415C490.647 -206.14 491.682 -203.485 493.957 -202.486L497.575 -210.727ZM477.696 -210.095C479.92 -208.985 482.622 -209.889 483.731 -212.113C484.841 -214.337 483.937 -217.039 481.713 -218.149L477.696 -210.095ZM466.269 -226.38C464.109 -227.611 461.361 -226.857 460.131 -224.698C458.901 -222.538 459.654 -219.79 461.814 -218.56L466.269 -226.38ZM446.433 -227.946C448.514 -226.586 451.302 -227.17 452.662 -229.25C454.022 -231.331 453.438 -234.119 451.357 -235.479L446.433 -227.946ZM437.082 -245.493C435.097 -246.988 432.275 -246.59 430.78 -244.605C429.286 -242.619 429.683 -239.798 431.669 -238.303L437.082 -245.493ZM417.639 -249.657C419.514 -248.025 422.356 -248.223 423.987 -250.098C425.618 -251.973 425.421 -254.816 423.546 -256.447L417.639 -249.657ZM289.194 879.991C292.304 880.203 295.405 880.406 298.496 880.602L299.064 871.619C295.987 871.425 292.901 871.222 289.806 871.012L289.194 879.991ZM316.936 881.676C323.047 882.002 329.121 882.295 335.159 882.557L335.548 873.565C329.54 873.305 323.496 873.013 317.416 872.689L316.936 881.676ZM353.164 883.246C359.13 883.444 365.06 883.611 370.954 883.746L371.16 874.748C365.297 874.614 359.398 874.448 353.463 874.251L353.164 883.246ZM388.598 884.059C394.828 884.136 401.018 884.179 407.167 884.186L407.178 875.186C401.063 875.179 394.907 875.137 388.711 875.059L388.598 884.059ZM425.492 884.104C431.56 884.041 437.587 883.945 443.574 883.814L443.378 874.816C437.425 874.946 431.433 875.042 425.4 875.104L425.492 884.104ZM461.416 883.319C467.323 883.12 473.19 882.887 479.017 882.622L478.606 873.631C472.815 873.895 466.984 874.126 461.113 874.324L461.416 883.319ZM497.539 881.657C503.681 881.297 509.776 880.899 515.827 880.464L515.182 871.488C509.171 871.919 503.115 872.314 497.013 872.672L497.539 881.657ZM533.845 879.05C539.806 878.541 545.722 877.996 551.593 877.415L550.707 868.459C544.876 869.036 539 869.577 533.08 870.082L533.845 879.05ZM569.327 875.536C575.502 874.837 581.628 874.098 587.703 873.319L586.558 864.393C580.528 865.166 574.447 865.899 568.315 866.593L569.327 875.536ZM605.777 870.863C611.752 870.005 617.676 869.107 623.551 868.171L622.135 859.283C616.306 860.212 610.427 861.103 604.497 861.955L605.777 870.863ZM641.028 865.246C647.095 864.182 653.108 863.076 659.067 861.928L657.365 853.09C651.455 854.229 645.491 855.326 639.473 856.382L641.028 865.246ZM677.047 858.305C682.985 857.056 688.867 855.764 694.694 854.432L692.688 845.658C686.912 846.979 681.081 848.259 675.194 849.498L677.047 858.305ZM712.011 850.312C717.942 848.845 723.814 847.334 729.627 845.782L727.304 837.087C721.545 838.625 715.727 840.121 709.85 841.575L712.011 850.312ZM747.329 840.871C753.168 839.189 758.946 837.464 764.664 835.696L762.005 827.098C756.344 828.848 750.622 830.557 744.839 832.222L747.329 840.871ZM781.634 830.264C787.454 828.337 793.209 826.364 798.9 824.346L795.892 815.864C790.262 817.86 784.566 819.812 778.805 821.72L781.634 830.264ZM816.108 818.037C821.777 815.888 827.379 813.694 832.915 811.456L829.541 803.112C824.067 805.325 818.526 807.495 812.918 809.621L816.108 818.037ZM849.323 804.61C855.021 802.158 860.646 799.658 866.198 797.112L862.446 788.931C856.959 791.448 851.399 793.919 845.765 796.343L849.323 804.61ZM882.672 789.317C888.091 786.673 893.437 783.984 898.711 781.25L894.57 773.259C889.36 775.96 884.079 778.617 878.725 781.229L882.672 789.317ZM914.689 772.714C920.086 769.743 925.404 766.725 930.643 763.661L926.1 755.892C920.928 758.917 915.678 761.896 910.349 764.83L914.689 772.714ZM946.128 754.332C951.243 751.157 956.28 747.938 961.239 744.675L956.292 737.156C951.4 740.375 946.43 743.552 941.382 746.684L946.128 754.332ZM976.475 734.344C981.47 730.855 986.382 727.32 991.21 723.742L985.851 716.511C981.09 720.039 976.247 723.525 971.321 726.966L976.475 734.344ZM1005.45 712.877C1010.3 709.064 1015.07 705.206 1019.74 701.304L1013.98 694.393C1009.37 698.239 1004.67 702.042 999.888 705.8L1005.45 712.877ZM1033.53 689.449C1038.04 685.454 1042.47 681.419 1046.8 677.344L1040.64 670.786C1036.37 674.8 1032.01 678.776 1027.57 682.711L1033.53 689.449ZM1059.98 664.575C1064.29 660.263 1068.51 655.911 1072.64 651.521L1066.09 645.354C1062.02 649.677 1057.86 653.962 1053.61 658.208L1059.98 664.575ZM1084.76 638.239C1088.84 633.631 1092.82 628.985 1096.71 624.303L1089.78 618.555C1085.96 623.164 1082.04 627.739 1078.02 632.275L1084.76 638.239ZM1108.09 610.14C1111.81 605.367 1115.43 600.56 1118.95 595.721L1111.68 590.421C1108.21 595.183 1104.64 599.915 1100.99 604.613L1108.09 610.14ZM1129.5 580.747C1132.92 575.725 1136.24 570.672 1139.47 565.592L1131.87 560.767C1128.7 565.767 1125.43 570.739 1122.06 575.683L1129.5 580.747ZM1148.95 550.126C1152.06 544.862 1155.07 539.571 1157.99 534.258L1150.1 529.93C1147.23 535.159 1144.26 540.365 1141.2 545.546L1148.95 550.126ZM1166.44 518.251C1169.2 512.81 1171.86 507.348 1174.42 501.868L1166.27 498.054C1163.75 503.447 1161.13 508.822 1158.41 514.177L1166.44 518.251ZM1181.87 485.257C1184.26 479.699 1186.55 474.125 1188.74 468.539L1180.36 465.253C1178.21 470.75 1175.95 476.236 1173.6 481.706L1181.87 485.257ZM1195.15 451.404C1197.18 445.681 1199.12 439.95 1200.95 434.212L1192.38 431.467C1190.57 437.114 1188.67 442.756 1186.67 448.388L1195.15 451.404ZM1206.22 416.816C1207.9 410.95 1209.47 405.081 1210.95 399.212L1202.22 397.017C1200.77 402.794 1199.22 408.571 1197.57 414.345L1206.22 416.816ZM1215.08 381.611C1216.38 375.631 1217.59 369.655 1218.69 363.687L1209.84 362.049C1208.76 367.924 1207.57 373.806 1206.29 379.692L1215.08 381.611ZM1221.71 345.788C1222.63 339.771 1223.45 333.765 1224.17 327.774L1215.23 326.701C1214.52 332.597 1213.72 338.508 1212.82 344.431L1221.71 345.788ZM1226.05 309.647C1226.58 303.615 1227.01 297.604 1227.35 291.616L1218.36 291.114C1218.03 297.007 1217.61 302.923 1217.09 308.859L1226.05 309.647ZM1228.07 273.325C1228.21 267.255 1228.25 261.214 1228.2 255.207L1219.2 255.29C1219.25 261.2 1219.21 267.143 1219.07 273.115L1228.07 273.325ZM1227.73 236.966C1227.47 230.874 1227.11 224.822 1226.65 218.813L1217.68 219.495C1218.13 225.403 1218.48 231.356 1218.74 237.347L1227.73 236.966ZM1224.97 200.722C1224.29 194.633 1223.52 188.595 1222.65 182.613L1213.74 183.914C1214.6 189.791 1215.36 195.725 1216.02 201.71L1224.97 200.722ZM1219.71 164.755C1218.6 158.698 1217.39 152.707 1216.08 146.785L1207.29 148.732C1208.58 154.543 1209.77 160.426 1210.86 166.373L1219.71 164.755ZM1211.84 129.238C1210.28 123.256 1208.6 117.354 1206.83 111.54L1198.22 114.169C1199.96 119.866 1201.6 125.651 1203.14 131.518L1211.84 129.238ZM1201.19 94.356C1199.14 88.5158 1196.98 82.7758 1194.71 77.1431L1186.36 80.5013C1188.58 86.0081 1190.69 91.6232 1192.7 97.3399L1201.19 94.356ZM1187.57 60.5042C1184.99 54.859 1182.3 49.3375 1179.5 43.9477L1171.52 48.0961C1174.24 53.3489 1176.87 58.7347 1179.39 64.2459L1187.57 60.5042ZM1170.74 28.1051C1167.58 22.7318 1164.3 17.5118 1160.91 12.4545L1153.43 17.4656C1156.72 22.3731 1159.91 27.4444 1162.98 32.6709L1170.74 28.1051ZM1150.33 -2.32867C1146.54 -7.2823 1142.63 -12.0471 1138.61 -16.612L1131.85 -10.6623C1135.73 -6.25849 1139.51 -1.65482 1143.18 3.13918L1150.33 -2.32867ZM1125.99 -29.9052C1121.55 -34.241 1116.98 -38.3466 1112.3 -42.2092L1106.57 -35.2691C1111.05 -31.5706 1115.43 -27.6321 1119.7 -23.4641L1125.99 -29.9052ZM1097.54 -53.3239C1092.43 -56.81 1087.2 -60.0187 1081.86 -62.935L1077.55 -55.0361C1082.62 -52.2666 1087.59 -49.214 1092.46 -45.8898L1097.54 -53.3239ZM1065.11 -70.9562C1062.26 -72.1347 1059.39 -73.2326 1056.49 -74.2477L1053.51 -65.7523C1056.26 -64.7931 1058.98 -63.7551 1061.67 -62.6399L1065.11 -70.9562ZM1056.49 -74.2477C1053.66 -75.2364 1050.84 -76.2127 1048.02 -77.1768L1045.11 -68.6618C1047.9 -67.7041 1050.71 -66.7343 1053.51 -65.7523L1056.49 -74.2477ZM1031.18 -82.818C1025.5 -84.6827 1019.83 -86.4994 1014.19 -88.2702L1011.49 -79.6831C1017.1 -77.9236 1022.73 -76.1186 1028.38 -74.266L1031.18 -82.818ZM997.188 -93.4891C991.48 -95.203 985.796 -96.8715 980.136 -98.4969L977.652 -89.8466C983.278 -88.2309 988.927 -86.5726 994.6 -84.8693L997.188 -93.4891ZM962.968 -103.318C957.218 -104.897 951.495 -106.433 945.798 -107.929L943.513 -99.2235C949.178 -97.7362 954.869 -96.209 960.585 -94.6394L962.968 -103.318ZM928.593 -112.347C922.794 -113.803 917.023 -115.22 911.281 -116.599L909.179 -107.848C914.891 -106.476 920.632 -105.066 926.401 -103.618L928.593 -112.347ZM893.972 -120.669C888.172 -122.003 882.404 -123.302 876.667 -124.568L874.728 -115.779C880.439 -114.519 886.182 -113.226 891.954 -111.898L893.972 -120.669ZM859.253 -128.334C853.412 -129.571 847.606 -130.778 841.836 -131.955L840.036 -123.137C845.786 -121.964 851.57 -120.762 857.387 -119.529L859.253 -128.334ZM824.428 -135.445C818.584 -136.596 812.779 -137.721 807.012 -138.822L805.324 -129.982C811.075 -128.884 816.863 -127.762 822.688 -126.615L824.428 -135.445ZM789.519 -142.118C783.651 -143.209 777.825 -144.279 772.042 -145.332L770.43 -136.477C776.204 -135.426 782.019 -134.358 787.874 -133.269L789.519 -142.118ZM754.582 -148.485C748.722 -149.535 742.907 -150.572 737.14 -151.599L735.564 -142.738C741.329 -141.712 747.139 -140.676 752.993 -139.626L754.582 -148.485ZM719.661 -154.708C713.782 -155.755 707.955 -156.795 702.181 -157.833L700.588 -148.975C706.37 -147.936 712.202 -146.895 718.083 -145.847L719.661 -154.708ZM684.73 -160.999C678.866 -162.074 673.061 -163.152 667.313 -164.237L665.643 -155.394C671.409 -154.305 677.231 -153.224 683.107 -152.147L684.73 -160.999ZM649.935 -167.583C644.093 -168.732 638.315 -169.895 632.603 -171.077L630.779 -162.264C636.523 -161.075 642.33 -159.906 648.199 -158.752L649.935 -167.583ZM615.324 -174.762C609.506 -176.043 603.762 -177.35 598.092 -178.692L596.02 -169.934C601.74 -168.58 607.53 -167.262 613.389 -165.972L615.324 -174.762ZM580.938 -182.918C575.174 -184.398 569.493 -185.922 563.897 -187.497L561.46 -178.833C567.127 -177.239 572.874 -175.697 578.699 -174.201L580.938 -182.918ZM547 -192.494C541.331 -194.256 535.758 -196.082 530.281 -197.98L527.335 -189.476C532.909 -187.545 538.574 -185.689 544.327 -183.9L547 -192.494ZM513.787 -204.031C508.275 -206.173 502.871 -208.402 497.575 -210.727L493.957 -202.486C499.378 -200.107 504.902 -197.829 510.526 -195.642L513.787 -204.031ZM481.713 -218.149C476.445 -220.776 471.296 -223.516 466.269 -226.38L461.814 -218.56C466.992 -215.61 472.287 -212.792 477.696 -210.095L481.713 -218.149ZM451.357 -235.479C446.471 -238.673 441.712 -242.008 437.082 -245.493L431.669 -238.303C436.463 -234.694 441.385 -231.245 446.433 -227.946L451.357 -235.479ZM423.546 -256.447C421.356 -258.352 419.199 -260.297 417.075 -262.285L410.925 -255.715C413.129 -253.651 415.367 -251.632 417.639 -249.657L423.546 -256.447Z" fill="#F24822"/>
</g>
<defs>
<clipPath id="clip0_241_809">
<rect width="1512" height="950" fill="white"/>
</clipPath>
</defs>
</svg>
