<svg width="390" height="285" viewBox="0 0 390 285" fill="none" xmlns="http://www.w3.org/2000/svg">
<g clip-path="url(#clip0_241_808)">
<path d="M72.4434 234.765H57.9151C63.6136 231.606 68.0039 226.391 70.259 220.102C72.514 213.813 72.4781 206.884 70.1579 200.621C67.8377 194.357 63.3936 189.192 57.6626 186.097C51.9317 183.003 45.3097 182.193 39.0443 183.821C32.7788 185.449 27.3025 189.402 23.647 194.935C19.9915 200.468 18.4092 207.199 19.1983 213.86C19.9874 220.521 23.0934 226.653 27.931 231.099C32.7687 235.546 39.004 238 45.4623 238H72.4434C72.8562 238 73.2522 237.83 73.5441 237.526C73.836 237.223 74 236.811 74 236.382C74 235.953 73.836 235.542 73.5441 235.239C73.2522 234.935 72.8562 234.765 72.4434 234.765ZM45.4623 186.235C49.8951 186.227 54.2377 187.536 57.9774 190.01C55.075 191.312 52.2817 192.862 49.6262 194.644C45.5153 191.893 41.0817 189.701 36.434 188.123C39.2923 186.874 42.3619 186.233 45.4623 186.235ZM32.5425 190.298C37.576 191.691 42.3897 193.831 46.8347 196.653C44.7513 198.236 42.7717 199.962 40.9092 201.819C36.3585 199.256 31.4295 197.498 26.3239 196.615C28.0018 194.127 30.1106 191.985 32.5425 190.298ZM24.5986 199.613C29.4921 200.314 34.2354 201.874 38.6262 204.226C36.9272 206.12 35.3474 208.125 33.8967 210.23C30.256 208.481 26.3622 207.369 22.3727 206.939C22.7337 204.389 23.4851 201.916 24.5986 199.613ZM26.5522 224.716C23.6618 220.585 22.1076 215.608 22.1133 210.5V210.163C25.5706 210.543 28.9495 211.483 32.1274 212.948C29.8569 216.645 27.9871 220.592 26.5522 224.716ZM28.8871 227.585C31.3909 219.618 35.5555 212.324 41.084 206.222C46.6124 200.12 53.3684 195.362 60.8701 192.285C62.8093 194.06 64.4537 196.155 65.737 198.486C58.3511 201.054 51.6918 205.482 46.3533 211.376C41.0148 217.269 37.1631 224.444 35.142 232.26C32.827 231.07 30.7171 229.49 28.8975 227.585H28.8871ZM45.2314 234.762C42.7831 234.74 40.3535 234.317 38.0321 233.508C39.889 226.053 43.525 219.205 48.6038 213.597C53.6826 207.989 60.0403 203.803 67.0887 201.425C68.01 203.782 68.5652 206.277 68.7335 208.815C63.0933 210.849 58.0106 214.272 53.9198 218.79C49.829 223.309 46.8515 228.79 45.2418 234.765L45.2314 234.762ZM68.7413 212.242C68.3486 217.805 66.1263 223.059 62.4473 227.122C58.7683 231.184 53.8566 233.807 48.5366 234.552C50.071 229.491 52.6861 224.855 56.1866 220.992C59.6871 217.129 63.9824 214.137 68.7517 212.242H68.7413Z" fill="#F24822"/>
<path d="M104.784 -61.0816C104.186 -61.6556 103.237 -61.6366 102.663 -61.0393C102.089 -60.4419 102.108 -59.4923 102.705 -58.9184L104.784 -61.0816ZM74.3093 238.586C75.136 238.639 75.8496 238.013 75.9031 237.186C75.9566 236.359 75.3298 235.646 74.5031 235.592L74.3093 238.586ZM79.2479 235.875C78.4207 235.83 77.7137 236.464 77.6688 237.291C77.6238 238.118 78.258 238.825 79.0852 238.87L79.2479 235.875ZM83.7922 239.101C84.6199 239.137 85.3201 238.496 85.3563 237.668C85.3925 236.84 84.7509 236.14 83.9232 236.104L83.7922 239.101ZM88.5294 236.281C87.7015 236.253 87.0082 236.902 86.9809 237.73C86.9537 238.558 87.6028 239.252 88.4308 239.279L88.5294 236.281ZM93.0013 239.404C93.8296 239.422 94.5157 238.766 94.5338 237.937C94.5519 237.109 93.8952 236.423 93.067 236.405L93.0013 239.404ZM97.5932 236.479C96.7648 236.47 96.0862 237.134 96.0775 237.963C96.0688 238.791 96.7332 239.47 97.5616 239.478L97.5932 236.479ZM102.371 239.499C103.2 239.498 103.87 238.825 103.868 237.996C103.867 237.168 103.194 236.498 102.366 236.499L102.371 239.499ZM107.059 236.461C106.23 236.473 105.568 237.154 105.581 237.983C105.593 238.811 106.274 239.473 107.102 239.461L107.059 236.461ZM111.755 239.363C112.583 239.34 113.236 238.65 113.213 237.822C113.19 236.994 112.501 236.341 111.673 236.364L111.755 239.363ZM116.208 236.209C115.38 236.243 114.737 236.941 114.77 237.769C114.804 238.597 115.503 239.241 116.33 239.207L116.208 236.209ZM120.913 238.989C121.74 238.944 122.374 238.236 122.329 237.409C122.284 236.582 121.576 235.948 120.749 235.993L120.913 238.989ZM125.498 235.699C124.671 235.756 124.048 236.473 124.106 237.299C124.163 238.126 124.88 238.749 125.706 238.692L125.498 235.699ZM130.41 238.328C131.235 238.258 131.848 237.532 131.778 236.707C131.708 235.881 130.982 235.269 130.156 235.339L130.41 238.328ZM134.724 234.915C133.9 234.998 133.299 235.734 133.382 236.558C133.465 237.382 134.201 237.983 135.025 237.9L134.724 234.915ZM139.552 237.408C140.374 237.312 140.964 236.567 140.867 235.744C140.771 234.921 140.026 234.332 139.203 234.428L139.552 237.408ZM143.843 233.846C143.022 233.956 142.446 234.711 142.556 235.532C142.667 236.353 143.422 236.929 144.243 236.819L143.843 233.846ZM148.953 236.142C149.772 236.017 150.334 235.252 150.209 234.433C150.084 233.614 149.318 233.052 148.499 233.177L148.953 236.142ZM153.053 232.437C152.237 232.578 151.689 233.353 151.829 234.17C151.969 234.986 152.745 235.534 153.562 235.394L153.053 232.437ZM158.07 234.574C158.883 234.419 159.416 233.633 159.261 232.819C159.105 232.005 158.319 231.472 157.505 231.628L158.07 234.574ZM162.03 230.714C161.22 230.886 160.703 231.683 160.875 232.493C161.047 233.303 161.844 233.82 162.654 233.648L162.03 230.714ZM167.309 232.606C168.116 232.416 168.616 231.609 168.426 230.802C168.236 229.996 167.429 229.496 166.622 229.686L167.309 232.606ZM171.098 228.581C170.296 228.788 169.814 229.606 170.022 230.409C170.229 231.211 171.048 231.693 171.85 231.485L171.098 228.581ZM176.276 230.287C177.073 230.062 177.537 229.233 177.311 228.435C177.086 227.638 176.257 227.175 175.46 227.4L176.276 230.287ZM179.912 226.083C179.121 226.328 178.677 227.168 178.922 227.959C179.167 228.751 180.007 229.194 180.798 228.949L179.912 226.083ZM185.32 227.488C186.105 227.224 186.527 226.373 186.262 225.588C185.997 224.803 185.146 224.381 184.361 224.646L185.32 227.488ZM188.681 223.126C187.903 223.412 187.503 224.273 187.789 225.051C188.074 225.829 188.935 226.228 189.713 225.943L188.681 223.126ZM193.989 224.311C194.759 224.006 195.136 223.134 194.83 222.364C194.524 221.594 193.652 221.217 192.882 221.523L193.989 224.311ZM197.239 219.72C196.478 220.048 196.128 220.93 196.456 221.691C196.784 222.452 197.666 222.802 198.427 222.474L197.239 219.72ZM202.721 220.547C203.472 220.196 203.796 219.304 203.445 218.553C203.095 217.803 202.202 217.478 201.452 217.829L202.721 220.547ZM205.521 215.853C204.782 216.226 204.485 217.128 204.858 217.868C205.231 218.607 206.133 218.904 206.873 218.531L205.521 215.853ZM211.064 216.331C211.791 215.934 212.059 215.023 211.662 214.296C211.265 213.569 210.354 213.301 209.627 213.698L211.064 216.331ZM213.656 211.411C212.942 211.832 212.705 212.752 213.126 213.465C213.547 214.179 214.467 214.416 215.181 213.994L213.656 211.411ZM219.141 211.566C219.839 211.121 220.045 210.193 219.6 209.495C219.154 208.796 218.227 208.591 217.528 209.036L219.141 211.566ZM221.364 206.495C220.682 206.964 220.51 207.898 220.98 208.581C221.45 209.263 222.384 209.435 223.066 208.965L221.364 206.495ZM226.919 206.206C227.584 205.711 227.721 204.771 227.227 204.107C226.732 203.442 225.792 203.305 225.128 203.8L226.919 206.206ZM228.723 201.016C228.078 201.535 227.976 202.479 228.495 203.125C229.015 203.77 229.959 203.872 230.604 203.353L228.723 201.016ZM234.22 200.326C234.845 199.782 234.91 198.834 234.366 198.209C233.822 197.585 232.875 197.519 232.25 198.063L234.22 200.326ZM235.667 194.966C235.065 195.534 235.037 196.484 235.606 197.086C236.174 197.689 237.124 197.716 237.726 197.148L235.667 194.966ZM241.054 193.88C241.633 193.288 241.622 192.338 241.03 191.759C240.438 191.179 239.488 191.19 238.909 191.782L241.054 193.88ZM242.065 188.42C241.511 189.035 241.561 189.984 242.176 190.538C242.792 191.092 243.74 191.043 244.295 190.427L242.065 188.42ZM247.378 186.857C247.906 186.219 247.817 185.273 247.179 184.745C246.541 184.217 245.595 184.306 245.067 184.944L247.378 186.857ZM247.893 181.383C247.391 182.042 247.52 182.984 248.179 183.485C248.839 183.986 249.78 183.858 250.281 183.199L247.893 181.383ZM253.074 179.36C253.547 178.68 253.379 177.745 252.699 177.272C252.019 176.799 251.084 176.967 250.611 177.647L253.074 179.36ZM253.146 173.835C252.702 174.534 252.909 175.461 253.608 175.905C254.307 176.349 255.234 176.142 255.678 175.443L253.146 173.835ZM258.116 171.422C258.531 170.705 258.285 169.788 257.568 169.373C256.851 168.958 255.933 169.204 255.519 169.921L258.116 171.422ZM257.737 165.892C257.353 166.626 257.636 167.533 258.37 167.917C259.104 168.301 260.01 168.018 260.395 167.284L257.737 165.892ZM262.488 163.081C262.842 162.332 262.522 161.438 261.774 161.084C261.025 160.73 260.13 161.05 259.776 161.799L262.488 163.081ZM261.656 157.605C261.333 158.367 261.689 159.248 262.451 159.571C263.214 159.895 264.094 159.539 264.418 158.776L261.656 157.605ZM266.17 154.405C266.463 153.63 266.073 152.764 265.298 152.471C264.523 152.178 263.657 152.569 263.364 153.344L266.17 154.405ZM264.901 149.025C264.638 149.811 265.063 150.661 265.848 150.923C266.634 151.186 267.484 150.762 267.746 149.976L264.901 149.025ZM269.154 145.479C269.386 144.683 268.93 143.85 268.135 143.618C267.339 143.386 266.506 143.842 266.274 144.637L269.154 145.479ZM267.479 140.207C267.276 141.011 267.763 141.826 268.567 142.029C269.37 142.231 270.185 141.744 270.388 140.941L267.479 140.207ZM271.454 136.358C271.627 135.548 271.111 134.751 270.301 134.578C269.491 134.405 268.693 134.921 268.52 135.731L271.454 136.358ZM269.401 131.219C269.256 132.035 269.801 132.813 270.617 132.957C271.432 133.101 272.211 132.557 272.355 131.741L269.401 131.219ZM273.093 127.099C273.209 126.279 272.638 125.52 271.818 125.404C270.997 125.288 270.238 125.859 270.122 126.679L273.093 127.099ZM270.689 122.113C270.601 122.937 271.197 123.676 272.021 123.764C272.845 123.853 273.584 123.256 273.672 122.433L270.689 122.113ZM274.096 117.753C274.157 116.927 273.537 116.207 272.711 116.146C271.884 116.085 271.165 116.705 271.104 117.531L274.096 117.753ZM271.37 112.936C271.335 113.764 271.978 114.463 272.806 114.498C273.634 114.532 274.333 113.889 274.368 113.062L271.37 112.936ZM274.491 108.366C274.5 107.537 273.836 106.858 273.007 106.849C272.179 106.841 271.5 107.505 271.491 108.333L274.491 108.366ZM271.471 103.731C271.487 104.559 272.172 105.217 273 105.201C273.828 105.185 274.486 104.5 274.47 103.672L271.471 103.731ZM274.308 98.9752C274.267 98.1478 273.563 97.5102 272.736 97.551C271.908 97.5919 271.271 98.2958 271.311 99.1232L274.308 98.9752ZM271.017 94.5277C271.082 95.3535 271.804 95.9704 272.63 95.9055C273.456 95.8406 274.073 95.1184 274.008 94.2926L271.017 94.5277ZM273.573 89.6173C273.484 88.7936 272.745 88.1976 271.921 88.286C271.098 88.3745 270.502 89.114 270.59 89.9376L273.573 89.6173ZM270.033 85.3601C270.145 86.181 270.901 86.7561 271.722 86.6446C272.542 86.5331 273.117 85.7772 273.006 84.9563L270.033 85.3601ZM272.312 80.3255C272.178 79.508 271.406 78.9539 270.589 79.088C269.771 79.2221 269.217 79.9935 269.351 80.811L272.312 80.3255ZM268.541 76.2598C268.697 77.0734 269.483 77.6062 270.297 77.4498C271.111 77.2935 271.643 76.5073 271.487 75.6937L268.541 76.2598ZM270.541 71.1042C270.363 70.2952 269.562 69.7837 268.753 69.9619C267.944 70.1401 267.433 70.9404 267.611 71.7494L270.541 71.1042ZM266.558 67.2574C266.758 68.0614 267.572 68.5513 268.376 68.3515C269.18 68.1517 269.67 67.3381 269.47 66.5341L266.558 67.2574ZM268.277 61.9915C268.056 61.1932 267.229 60.7252 266.431 60.9463C265.632 61.1674 265.164 61.9939 265.386 62.7923L268.277 61.9915ZM264.101 58.3832C264.343 59.1755 265.182 59.6213 265.974 59.3791C266.766 59.1369 267.212 58.2983 266.97 57.5061L264.101 58.3832ZM265.531 53.0159C265.268 52.2305 264.418 51.8073 263.632 52.0707C262.847 52.334 262.424 53.1843 262.687 53.9697L265.531 53.0159ZM261.167 49.6305C261.451 50.4086 262.313 50.8088 263.091 50.5245C263.869 50.2401 264.269 49.3789 263.985 48.6008L261.167 49.6305ZM262.311 44.2064C262.005 43.4364 261.133 43.0597 260.363 43.3652C259.593 43.6706 259.217 44.5425 259.522 45.3126L262.311 44.2064ZM257.762 41.049C258.089 41.8103 258.971 42.1627 259.732 41.836C260.494 41.5094 260.846 40.6274 260.519 39.8661L257.762 41.049ZM258.615 35.5936C258.267 34.8418 257.375 34.5144 256.624 34.8623C255.872 35.2103 255.544 36.1018 255.892 36.8536L258.615 35.5936ZM253.886 32.6785C254.256 33.4198 255.156 33.7211 255.898 33.3514C256.639 32.9817 256.94 32.0811 256.571 31.3397L253.886 32.6785ZM254.431 27.2035C254.04 26.4734 253.131 26.199 252.401 26.5905C251.67 26.982 251.396 27.8913 251.788 28.6213L254.431 27.2035ZM249.528 24.5611C249.942 25.2785 250.86 25.5243 251.577 25.11C252.294 24.6957 252.54 23.7783 252.126 23.0609L249.528 24.5611ZM249.724 19.0522C249.287 18.3486 248.362 18.1327 247.659 18.5699C246.955 19.0072 246.739 19.9321 247.176 20.6357L249.724 19.0522ZM244.668 16.7491C245.129 17.4373 246.061 17.6212 246.749 17.1599C247.437 16.6987 247.621 15.7669 247.16 15.0788L244.668 16.7491ZM244.479 11.2299C243.993 10.559 243.055 10.409 242.384 10.8949C241.713 11.3809 241.563 12.3187 242.049 12.9896L244.479 11.2299ZM239.276 9.31237C239.788 9.9638 240.731 10.077 241.382 9.56518C242.033 9.05338 242.147 8.1104 241.635 7.45898L239.276 9.31237ZM238.651 3.81908C238.112 3.18976 237.165 3.11632 236.536 3.65507C235.907 4.19381 235.833 5.14071 236.372 5.77004L238.651 3.81908ZM233.308 2.35085C233.875 2.95471 234.824 2.98448 235.428 2.41735C236.032 1.85021 236.062 0.900932 235.495 0.29707L233.308 2.35085ZM232.182 -3.05896C231.585 -3.63342 230.636 -3.61524 230.061 -3.01834C229.487 -2.42145 229.505 -1.47187 230.102 -0.89741L232.182 -3.05896ZM226.712 -3.98317C227.341 -3.44338 228.288 -3.51523 228.827 -4.14366C229.367 -4.77208 229.295 -5.71911 228.667 -6.2589L226.712 -3.98317ZM225 -9.21734C224.339 -9.71652 223.398 -9.58524 222.899 -8.9241C222.4 -8.26297 222.531 -7.32234 223.192 -6.82315L225 -9.21734ZM219.441 -9.4516C220.137 -9.00173 221.065 -9.20095 221.515 -9.89658C221.965 -10.5922 221.766 -11.5208 221.07 -11.9707L219.441 -9.4516ZM217.004 -14.3756C216.274 -14.7672 215.365 -14.4928 214.973 -13.7628C214.582 -13.0328 214.856 -12.1235 215.586 -11.7319L217.004 -14.3756ZM211.487 -13.6897C212.251 -13.3698 213.13 -13.73 213.45 -14.4941C213.77 -15.2583 213.41 -16.1371 212.646 -16.457L211.487 -13.6897ZM208.287 -18.0835C207.506 -18.3609 206.649 -17.953 206.371 -17.1724C206.094 -16.3918 206.502 -15.5341 207.282 -15.2567L208.287 -18.0835ZM203.101 -16.7277C203.883 -16.4553 204.738 -16.8688 205.011 -17.6511C205.283 -18.4335 204.87 -19.2885 204.087 -19.5609L203.101 -16.7277ZM199.8 -21.0372C199.016 -21.3042 198.163 -20.8848 197.896 -20.1006C197.629 -19.3164 198.049 -18.4642 198.833 -18.1972L199.8 -21.0372ZM194.597 -19.6225C195.383 -19.3612 196.232 -19.7866 196.493 -20.5728C196.755 -21.3589 196.329 -22.208 195.543 -22.4694L194.597 -19.6225ZM191.302 -23.8614C190.514 -24.1168 189.668 -23.685 189.413 -22.8969C189.158 -22.1088 189.589 -21.2629 190.378 -21.0075L191.302 -23.8614ZM186.112 -22.3715C186.902 -22.1223 187.744 -22.5608 187.993 -23.3509C188.242 -24.141 187.804 -24.9835 187.014 -25.2326L186.112 -22.3715ZM182.705 -26.5718C181.913 -26.8144 181.074 -26.3689 180.832 -25.5768C180.589 -24.7847 181.034 -23.9459 181.827 -23.7033L182.705 -26.5718ZM177.543 -24.9953C178.337 -24.7594 179.172 -25.212 179.408 -26.0062C179.644 -26.8003 179.192 -27.6353 178.397 -27.8711L177.543 -24.9953ZM174.084 -29.1322C173.288 -29.3612 172.457 -28.9015 172.228 -28.1054C171.999 -27.3092 172.458 -26.4782 173.254 -26.2491L174.084 -29.1322ZM168.955 -27.4661C169.754 -27.2438 170.581 -27.7106 170.803 -28.5086C171.025 -29.3066 170.559 -30.1338 169.761 -30.3561L168.955 -27.4661ZM165.428 -31.5442C164.628 -31.7602 163.805 -31.287 163.589 -30.4872C163.373 -29.6874 163.846 -28.864 164.646 -28.648L165.428 -31.5442ZM160.33 -29.7976C161.131 -29.5869 161.951 -30.0657 162.162 -30.8669C162.372 -31.6681 161.894 -32.4884 161.092 -32.699L160.33 -29.7976ZM156.764 -33.8255C155.962 -34.0326 155.144 -33.5502 154.937 -32.7481C154.729 -31.946 155.212 -31.1279 156.014 -30.9208L156.764 -33.8255ZM151.666 -32.0401C152.468 -31.8334 153.286 -32.3162 153.493 -33.1184C153.7 -33.9207 153.217 -34.7386 152.415 -34.9453L151.666 -32.0401ZM148.084 -36.072C147.283 -36.2836 146.462 -35.8058 146.251 -35.0048C146.039 -34.2039 146.517 -33.3831 147.318 -33.1715L148.084 -36.072ZM142.974 -34.3521C143.771 -34.1276 144.599 -34.592 144.824 -35.3894C145.048 -36.1869 144.584 -37.0153 143.787 -37.2398L142.974 -34.3521ZM139.542 -38.4985C138.752 -38.7472 137.91 -38.3081 137.661 -37.5179C137.412 -36.7277 137.851 -35.8855 138.641 -35.6368L139.542 -38.4985ZM134.326 -37.102C135.103 -36.8158 135.966 -37.2141 136.252 -37.9916C136.538 -38.769 136.14 -39.6312 135.362 -39.9173L134.326 -37.102ZM131.298 -41.5571C130.54 -41.8923 129.654 -41.5499 129.319 -40.7923C128.984 -40.0347 129.326 -39.1488 130.084 -38.8136L131.298 -41.5571ZM125.961 -40.8185C126.692 -40.4292 127.6 -40.7065 127.989 -41.4378C128.379 -42.1691 128.101 -43.0775 127.37 -43.4667L125.961 -40.8185ZM123.587 -45.6582C122.885 -46.0982 121.959 -45.8857 121.519 -45.1838C121.079 -44.4818 121.292 -43.5561 121.994 -43.1162L123.587 -45.6582ZM118.187 -45.6728C118.861 -45.1907 119.798 -45.3461 120.28 -46.0198C120.762 -46.6935 120.607 -47.6304 119.933 -48.1125L118.187 -45.6728ZM116.431 -50.7553C115.781 -51.2696 114.838 -51.1599 114.324 -50.5104C113.809 -49.8609 113.919 -48.9175 114.569 -48.4033L116.431 -50.7553ZM111.051 -51.3026C111.681 -50.7643 112.628 -50.8384 113.166 -51.4682C113.704 -52.0979 113.63 -53.0447 113 -53.583L111.051 -51.3026ZM109.682 -56.5048C109.068 -57.0605 108.12 -57.0131 107.564 -56.3987C107.008 -55.7844 107.055 -54.8358 107.67 -54.2801L109.682 -56.5048ZM104.363 -57.339C104.966 -56.7703 105.915 -56.7976 106.484 -57.4C107.052 -58.0023 107.025 -58.9517 106.423 -59.5204L104.363 -57.339ZM71.8954 238.423C72.703 238.48 73.5076 238.534 74.3093 238.586L74.5031 235.592C73.7065 235.541 72.907 235.487 72.1046 235.431L71.8954 238.423ZM79.0852 238.87C80.6657 238.956 82.2347 239.033 83.7922 239.101L83.9232 236.104C82.3763 236.036 80.8179 235.96 79.2479 235.875L79.0852 238.87ZM88.4308 239.279C89.9656 239.329 91.4891 239.371 93.0013 239.404L93.067 236.405C91.5659 236.372 90.0534 236.331 88.5294 236.281L88.4308 239.279ZM97.5616 239.478C99.178 239.495 100.781 239.502 102.371 239.499L102.366 236.499C100.788 236.502 99.1973 236.495 97.5932 236.479L97.5616 239.478ZM107.102 239.461C108.666 239.438 110.217 239.405 111.755 239.363L111.673 236.364C110.148 236.406 108.61 236.438 107.059 236.461L107.102 239.461ZM116.33 239.207C117.871 239.144 119.398 239.071 120.913 238.989L120.749 235.993C119.249 236.075 117.735 236.147 116.208 236.209L116.33 239.207ZM125.706 238.692C127.289 238.581 128.857 238.46 130.41 238.328L130.156 235.339C128.618 235.47 127.066 235.59 125.498 235.699L125.706 238.692ZM135.025 237.9C136.549 237.747 138.057 237.583 139.552 237.408L139.203 234.428C137.725 234.601 136.232 234.764 134.724 234.915L135.025 237.9ZM144.243 236.819C145.83 236.605 147.4 236.38 148.953 236.142L148.499 233.177C146.964 233.412 145.412 233.635 143.843 233.846L144.243 236.819ZM153.562 235.394C155.081 235.132 156.584 234.859 158.07 234.574L157.505 231.628C156.038 231.909 154.554 232.179 153.053 232.437L153.562 235.394ZM162.654 233.648C164.225 233.314 165.777 232.967 167.309 232.606L166.622 229.686C165.111 230.041 163.58 230.384 162.03 230.714L162.654 233.648ZM171.85 231.485C173.344 231.099 174.82 230.699 176.276 230.287L175.46 227.4C174.025 227.806 172.571 228.2 171.098 228.581L171.85 231.485ZM180.798 228.949C182.327 228.477 183.834 227.989 185.32 227.488L184.361 224.646C182.9 225.139 181.417 225.618 179.912 226.083L180.798 228.949ZM189.713 225.943C191.16 225.413 192.585 224.869 193.989 224.311L192.882 221.523C191.503 222.071 190.103 222.605 188.681 223.126L189.713 225.943ZM198.427 222.474C199.882 221.847 201.314 221.204 202.721 220.547L201.452 217.829C200.071 218.473 198.667 219.104 197.239 219.72L198.427 222.474ZM206.873 218.531C208.295 217.813 209.692 217.08 211.064 216.331L209.627 213.698C208.284 214.431 206.915 215.15 205.521 215.853L206.873 218.531ZM215.181 213.994C216.527 213.2 217.846 212.39 219.141 211.566L217.528 209.036C216.263 209.842 214.972 210.634 213.656 211.411L215.181 213.994ZM223.066 208.965C224.379 208.061 225.663 207.141 226.919 206.206L225.128 203.8C223.901 204.713 222.647 205.611 221.364 206.495L223.066 208.965ZM230.604 203.353C231.839 202.359 233.044 201.35 234.22 200.326L232.25 198.063C231.103 199.062 229.928 200.047 228.723 201.016L230.604 203.353ZM237.726 197.148C238.865 196.073 239.974 194.984 241.054 193.88L238.909 191.782C237.857 192.857 236.777 193.919 235.667 194.966L237.726 197.148ZM244.295 190.427C245.353 189.251 246.381 188.061 247.378 186.857L245.067 184.944C244.097 186.116 243.096 187.275 242.065 188.42L244.295 190.427ZM250.281 183.199C251.244 181.933 252.174 180.653 253.074 179.36L250.611 177.647C249.735 178.905 248.83 180.151 247.893 181.383L250.281 183.199ZM255.678 175.443C256.522 174.115 257.334 172.774 258.116 171.422L255.519 169.921C254.758 171.237 253.967 172.542 253.146 173.835L255.678 175.443ZM260.395 167.284C261.123 165.894 261.821 164.493 262.488 163.081L259.776 161.799C259.126 163.173 258.447 164.538 257.737 165.892L260.395 167.284ZM264.418 158.776C265.032 157.328 265.616 155.871 266.17 154.405L263.364 153.344C262.824 154.773 262.255 156.194 261.656 157.605L264.418 158.776ZM267.746 149.976C268.245 148.484 268.714 146.985 269.154 145.479L266.274 144.637C265.845 146.107 265.387 147.57 264.901 149.025L267.746 149.976ZM270.388 140.941C270.771 139.419 271.127 137.891 271.454 136.358L268.52 135.731C268.2 137.229 267.853 138.721 267.479 140.207L270.388 140.941ZM272.355 131.741C272.628 130.198 272.874 128.65 273.093 127.099L270.122 126.679C269.908 128.196 269.668 129.71 269.401 131.219L272.355 131.741ZM273.672 122.433C273.839 120.875 273.98 119.315 274.096 117.753L271.104 117.531C270.991 119.061 270.853 120.588 270.689 122.113L273.672 122.433ZM274.368 113.062C274.433 111.496 274.474 109.931 274.491 108.366L271.491 108.333C271.475 109.868 271.435 111.402 271.37 112.936L274.368 113.062ZM274.47 103.672C274.439 102.105 274.385 100.539 274.308 98.9752L271.311 99.1232C271.387 100.657 271.44 102.193 271.471 103.731L274.47 103.672ZM274.008 94.2926C273.885 92.7306 273.74 91.1719 273.573 89.6173L270.59 89.9376C270.754 91.4641 270.897 92.9944 271.017 94.5277L274.008 94.2926ZM273.006 84.9563C272.796 83.4073 272.564 81.8634 272.312 80.3255L269.351 80.811C269.599 82.3219 269.827 83.8386 270.033 85.3601L273.006 84.9563ZM271.487 75.6937C271.192 74.1565 270.876 72.6264 270.541 71.1042L267.611 71.7494C267.94 73.2455 268.251 74.7493 268.541 76.2598L271.487 75.6937ZM269.47 66.5341C269.091 65.0104 268.693 63.4959 268.277 61.9915L265.386 62.7923C265.795 64.2711 266.186 65.7598 266.558 67.2574L269.47 66.5341ZM266.97 57.5061C266.509 55.9976 266.029 54.5005 265.531 53.0159L262.687 53.9697C263.176 55.4289 263.648 56.9004 264.101 58.3832L266.97 57.5061ZM263.985 48.6008C263.444 47.1217 262.886 45.6566 262.311 44.2064L259.522 45.3126C260.087 46.7373 260.636 48.177 261.167 49.6305L263.985 48.6008ZM260.519 39.8661C259.901 38.425 259.266 37.0005 258.615 35.5936L255.892 36.8536C256.531 38.2348 257.155 39.6336 257.762 41.049L260.519 39.8661ZM256.571 31.3397C255.873 29.9409 255.16 28.5618 254.431 27.2035L251.788 28.6213C252.502 29.9532 253.202 31.306 253.886 32.6785L256.571 31.3397ZM252.126 23.0609C251.34 21.7006 250.54 20.364 249.724 19.0522L247.176 20.6357C247.974 21.9195 248.758 23.2284 249.528 24.5611L252.126 23.0609ZM247.16 15.0788C246.281 13.7668 245.386 12.4833 244.479 11.2299L242.049 12.9896C242.935 14.213 243.808 15.4667 244.668 16.7491L247.16 15.0788ZM241.635 7.45898C240.654 6.21033 239.659 4.99642 238.651 3.81908L236.372 5.77004C237.352 6.91452 238.32 8.09586 239.276 9.31237L241.635 7.45898ZM235.495 0.29707C234.403 -0.865055 233.299 -1.98447 232.182 -3.05896L230.102 -0.89741C231.181 0.140817 232.25 1.22421 233.308 2.35085L235.495 0.29707ZM228.667 -6.2589C227.456 -7.29899 226.233 -8.28606 225 -9.21734L223.192 -6.82315C224.373 -5.93144 225.547 -4.98405 226.712 -3.98317L228.667 -6.2589ZM221.07 -11.9707C219.725 -12.8408 218.369 -13.6436 217.004 -14.3756L215.586 -11.7319C216.875 -11.0405 218.161 -10.2796 219.441 -9.4516L221.07 -11.9707ZM212.646 -16.457C211.915 -16.7628 211.183 -17.0477 210.449 -17.3112L209.436 -14.4876C210.119 -14.2421 210.803 -13.976 211.487 -13.6897L212.646 -16.457ZM210.449 -17.3112C209.721 -17.5724 209.001 -17.8298 208.287 -18.0835L207.282 -15.2567C207.993 -15.0041 208.711 -14.7478 209.436 -14.4876L210.449 -17.3112ZM204.087 -19.5609C202.628 -20.069 201.199 -20.5608 199.8 -21.0372L198.833 -18.1972C200.226 -17.7231 201.648 -17.2336 203.101 -16.7277L204.087 -19.5609ZM195.543 -22.4694C194.097 -22.9502 192.683 -23.4139 191.302 -23.8614L190.378 -21.0075C191.751 -20.5623 193.157 -20.101 194.597 -19.6225L195.543 -22.4694ZM187.014 -25.2326C185.539 -25.6976 184.104 -26.1435 182.705 -26.5718L181.827 -23.7033C183.217 -23.2774 184.645 -22.8339 186.112 -22.3715L187.014 -25.2326ZM178.397 -27.8711C176.916 -28.3112 175.479 -28.7309 174.084 -29.1322L173.254 -26.2491C174.641 -25.8501 176.07 -25.4328 177.543 -24.9953L178.397 -27.8711ZM169.761 -30.3561C168.266 -30.7725 166.823 -31.1676 165.428 -31.5442L164.646 -28.648C166.034 -28.2732 167.469 -27.8802 168.955 -27.4661L169.761 -30.3561ZM161.092 -32.699C159.592 -33.0935 158.15 -33.4676 156.764 -33.8255L156.014 -30.9208C157.398 -30.5635 158.834 -30.1906 160.33 -29.7976L161.092 -32.699ZM152.415 -34.9453C150.906 -35.3341 149.466 -35.707 148.084 -36.072L147.318 -33.1715C148.709 -32.8041 150.156 -32.4294 151.666 -32.0401L152.415 -34.9453ZM143.787 -37.2398C142.309 -37.6558 140.9 -38.0713 139.542 -38.4985L138.641 -35.6368C140.034 -35.1985 141.474 -34.7743 142.974 -34.3521L143.787 -37.2398ZM135.362 -39.9173C133.971 -40.4294 132.623 -40.9707 131.298 -41.5571L130.084 -38.8136C131.473 -38.199 132.881 -37.6339 134.326 -37.102L135.362 -39.9173ZM127.37 -43.4667C126.116 -44.1344 124.861 -44.86 123.587 -45.6582L121.994 -43.1162C123.326 -42.2812 124.642 -41.52 125.961 -40.8185L127.37 -43.4667ZM119.933 -48.1125C118.796 -48.9261 117.633 -49.8039 116.431 -50.7553L114.569 -48.4033C115.805 -47.4241 117.008 -46.5169 118.187 -45.6728L119.933 -48.1125ZM113 -53.583C111.93 -54.4978 110.826 -55.4699 109.682 -56.5048L107.67 -54.2801C108.832 -53.2282 109.957 -52.2374 111.051 -51.3026L113 -53.583ZM106.423 -59.5204C105.885 -60.0276 105.339 -60.5479 104.784 -61.0816L102.705 -58.9184C103.267 -58.3789 103.819 -57.8526 104.363 -57.339L106.423 -59.5204Z" fill="#F24822"/>
</g>
<defs>
<clipPath id="clip0_241_808">
<rect width="390" height="285" fill="white"/>
</clipPath>
</defs>
</svg>
