<svg width="87" height="87" viewBox="0 0 87 87" fill="none" xmlns="http://www.w3.org/2000/svg">
<path d="M38.4092 2.4127C36.9175 2.61865 35.6644 2.83932 35.6197 2.88345C35.5302 2.97172 36.828 12.4309 36.9473 12.5485C36.9771 12.578 38.2451 12.4309 39.7667 12.2249C41.2883 12.019 42.601 11.8424 42.6905 11.8424C42.7651 11.8424 42.8397 11.6365 42.8397 11.4011C42.8397 10.8568 42.8098 10.8568 40.0054 11.254C38.9015 11.4011 37.9766 11.5188 37.9617 11.4894C37.902 11.4452 37.4694 8.50303 37.4694 8.17939C37.4694 7.94402 37.6633 7.88517 38.8567 7.73806C41.2584 7.44385 41.2286 7.44385 41.1242 7.00252C41.0645 6.79656 41.0048 6.59061 40.975 6.56119C40.9452 6.53177 40.1247 6.62003 39.17 6.76714C37.8871 6.94367 37.3948 6.95838 37.3202 6.8407C37.2606 6.75243 37.1263 6.01688 37.0219 5.19307C36.8727 4.07504 36.8727 3.69255 37.007 3.60429C37.1114 3.56015 38.1556 3.38362 39.3341 3.23651L41.4971 2.97172V2.47154C41.4971 2.17732 41.4225 1.98608 41.3181 2.00079C41.2137 2.0155 39.901 2.19204 38.4092 2.4127Z" fill="#326680" stroke="#326680" stroke-width="2.8" stroke-miterlimit="10"/>
<path d="M45.6892 6.91423C45.2416 9.54749 44.9135 11.7247 44.9433 11.7688C44.988 11.7983 45.6742 11.9307 46.4798 12.0778C49.2693 12.5338 50.9998 12.1808 52.3423 10.8715C53.4313 9.79758 53.6551 9.20914 53.6551 7.42911C53.6551 6.09042 53.6103 5.7962 53.312 5.23718C52.8495 4.38394 51.8202 3.42773 50.9401 3.01583C50.2837 2.72161 47.5688 2.13317 46.808 2.13317C46.5096 2.13317 46.435 2.39797 45.6892 6.91423ZM48.7025 3.36889C50.0152 3.61898 50.8207 3.98675 51.492 4.66345C53.0136 6.16397 52.9838 8.76781 51.4174 10.2683C50.3732 11.2687 48.8815 11.5923 47.0168 11.2098C46.3306 11.0627 46.1964 10.9892 46.2262 10.7391C46.256 10.5773 46.5395 8.84136 46.8676 6.88481C47.1958 4.92825 47.4643 3.29533 47.4643 3.2512C47.4643 3.13351 47.4196 3.13351 48.7025 3.36889Z" fill="#326680" stroke="#326680" stroke-width="2.8" stroke-miterlimit="10"/>
<path d="M28.9819 4.45748L28.4897 4.70757L28.5792 7.06132C28.6239 8.35589 28.7134 10.1653 28.7582 11.0627C28.8178 11.9748 28.788 12.725 28.7283 12.725C28.6537 12.725 27.6841 11.9748 26.5653 11.0627C25.4614 10.1653 24.0592 9.03259 23.4625 8.54713L22.3884 7.67918L21.8067 7.94398C21.4785 8.09109 21.21 8.25291 21.21 8.31175C21.21 8.40002 25.5211 17.0206 25.6106 17.1089C25.6703 17.1677 26.5802 16.7117 26.5802 16.6234C26.5802 16.5793 25.8045 15.0199 24.8647 13.1664C23.9249 11.3128 23.1492 9.75343 23.1492 9.69458C23.1492 9.65045 23.5967 9.9888 24.1636 10.4448C29.0118 14.4462 28.9372 14.3874 29.4145 14.1961C29.8471 14.0196 29.8621 13.9755 29.8621 13.1075C29.8471 12.6221 29.7875 10.9597 29.7129 9.41508C29.6383 7.88514 29.6085 6.60528 29.6383 6.57586C29.6681 6.54644 30.4886 8.07638 31.4582 9.97409L33.2185 13.4312L33.6809 13.1958L34.1434 12.9457L31.9803 8.56184C30.7869 6.16395 29.7427 4.19269 29.6532 4.2074C29.5637 4.2074 29.2654 4.32508 28.9819 4.45748Z" fill="#326680" stroke="#326680" stroke-width="2.8" stroke-miterlimit="10"/>
<path d="M61.8591 6.28167C61.7547 6.56118 59.5469 16.0645 59.5469 16.2263C59.5469 16.4617 60.606 17.0207 60.7999 16.8736C60.8894 16.8 62.7392 15.3289 64.9022 13.6077L68.8404 10.4743L68.4078 10.1212C68.1691 9.9447 67.9454 9.78288 67.9006 9.78288C67.8559 9.78288 66.2895 11.048 64.4249 12.5927C62.5453 14.1373 60.9789 15.3583 60.9342 15.3289C60.9044 15.2848 61.337 13.3429 61.9187 11.0186C62.5005 8.69427 62.963 6.78185 62.9331 6.76713C62.9182 6.75242 62.6795 6.5906 62.411 6.41407C62.053 6.16398 61.9187 6.13456 61.8591 6.28167Z" fill="#326680" stroke="#326680" stroke-width="2.8" stroke-miterlimit="10"/>
<path d="M68.4228 16.6234C66.4537 18.4182 64.8426 19.9481 64.8575 20.007C64.8724 20.0658 65.7675 21.0662 66.8415 22.2283L68.8256 24.3467L69.1836 24.0819C69.3775 23.9495 69.5118 23.7877 69.4968 23.7288C69.4819 23.67 68.7361 22.8609 67.841 21.9194L66.2299 20.2129L67.4681 19.0508C68.1543 18.4182 68.7957 17.8886 68.9001 17.8739C68.9896 17.8739 69.6311 18.477 70.3173 19.2126L71.5554 20.5366L71.8836 20.1982L72.2118 19.8451L70.9587 18.5064C70.2576 17.7709 69.6908 17.1383 69.6908 17.0942C69.6908 17.0648 70.2576 16.5205 70.9438 15.9026L72.1969 14.7846L73.077 15.6967C73.5693 16.2115 74.3002 16.9912 74.7328 17.4325L75.4936 18.2416L75.8218 17.918L76.15 17.5944L75.5086 16.8882C73.4052 14.6228 72.1521 13.3135 72.0776 13.3282C72.0328 13.3282 70.3919 14.814 68.4228 16.6234Z" fill="#326680" stroke="#326680" stroke-width="2.8" stroke-miterlimit="10"/>
<path d="M13.5572 16.1086C12.319 16.4175 11.4538 17.0795 10.0218 18.8007C9.43998 19.4921 8.97754 20.1247 8.97754 20.1982C8.97754 20.3159 16.2871 26.2444 16.6003 26.3768C16.66 26.4063 17.2567 25.7443 17.9131 24.9057C18.8827 23.6994 19.196 23.1846 19.4496 22.3755C20.2104 19.9334 19.0766 17.3884 16.7644 16.3734C16.0186 16.0497 14.3776 15.9173 13.5572 16.1086ZM16.2125 17.4179C18.1517 18.2564 19.1065 20.3306 18.465 22.2578C18.1517 23.1698 16.7793 24.9793 16.5108 24.8175C15.9291 24.4791 10.4693 19.9923 10.4693 19.8599C10.4693 19.5509 12.14 17.8739 12.7218 17.565C13.945 16.9618 15.0191 16.9177 16.2125 17.4179Z" fill="#326680" stroke="#326680" stroke-width="2.8" stroke-miterlimit="10"/>
<path d="M74.4654 23.6112C72.1234 24.8175 70.1543 25.8326 70.0946 25.862C70.02 25.8767 70.0797 26.1415 70.2289 26.4504L70.4974 26.9947L72.3322 26.0238C73.3466 25.5089 74.2267 25.097 74.2864 25.1411C74.3461 25.1706 74.5847 25.5972 74.8234 26.0826L75.256 26.9653L73.9731 29.0543L72.6753 31.1579L73.0035 31.7169C73.3764 32.3789 73.1974 32.5555 74.7638 29.9663C75.3605 28.9807 75.8975 28.1275 75.9572 28.098C76.0168 28.0539 76.3898 28.201 76.7627 28.407C78.2097 29.2014 79.9998 28.7012 80.6114 27.3331C81.1037 26.215 80.9545 25.3765 79.8357 23.2287C79.3136 22.2284 78.8511 21.4046 78.8064 21.4046C78.7616 21.4046 76.8074 22.4049 74.4654 23.6112ZM79.1495 23.9937C80.0893 25.8326 80.0147 26.9653 78.881 27.4949C77.6876 28.0539 76.8671 27.642 75.8975 26.0091C75.5096 25.3765 75.2113 24.7881 75.2113 24.6998C75.2113 24.5674 78.2246 22.8904 78.4931 22.8757C78.5379 22.8757 78.8362 23.3758 79.1495 23.9937Z" fill="#326680" stroke="#326680" stroke-width="2.8" stroke-miterlimit="10"/>
<path d="M3.68144 26.3916C3.27867 26.5681 2.77148 27.1419 2.66706 27.5538C2.54772 28.0686 2.83115 28.863 3.26375 29.2014C3.68144 29.525 4.77041 29.6133 5.03893 29.3485C5.14335 29.2455 6.35166 30.1576 8.91745 32.2907C10.9611 33.9824 12.6766 35.38 12.7363 35.38C12.8407 35.38 13.2137 34.3502 13.1242 34.2914C12.4678 33.8353 10.7672 32.3495 10.7672 32.2318C10.7672 32.1436 11.0506 31.3639 11.3788 30.496L12.0054 28.9072H15.3319L15.511 28.4364C15.6005 28.1863 15.6601 27.951 15.6303 27.9215C15.6154 27.8921 13.4076 27.8038 10.7523 27.7156C7.70914 27.6126 5.90414 27.4949 5.85938 27.4066C5.82955 27.3184 5.63562 27.0536 5.41186 26.8182C4.99417 26.3622 4.20355 26.1709 3.68144 26.3916ZM4.94942 27.6273C5.15826 28.0245 5.15826 28.0539 4.75549 28.3923C4.26322 28.8189 3.75603 28.7159 3.54718 28.1275C3.42784 27.8186 3.45768 27.6714 3.68144 27.4361C4.06929 27.0095 4.65107 27.0977 4.94942 27.6273ZM9.54398 28.7012C10.3495 28.7601 10.9164 28.863 10.9164 28.9513C10.9164 29.2897 9.97659 31.5551 9.84233 31.5551C9.72299 31.5551 7.02294 29.4662 6.29199 28.8042C6.11298 28.6424 6.24724 28.6129 7.12736 28.6129C7.70914 28.6129 8.79811 28.6571 9.54398 28.7012Z" fill="#326680" stroke="#326680" stroke-width="2.8" stroke-miterlimit="10"/>
<path d="M35.8291 28.3628C35.8291 28.6864 35.9037 28.76 36.396 28.8336C37.3358 28.9954 37.9474 29.216 38.917 29.7162L39.827 30.2164L40.0656 29.8633C40.3043 29.5103 40.2894 29.4955 39.633 29.1131C38.6634 28.5688 37.6043 28.1863 36.6496 28.0833C35.844 27.9803 35.8291 27.995 35.8291 28.3628Z" fill="#326680" stroke="#326680" stroke-width="2.8" stroke-miterlimit="10"/>
<path d="M49.389 28.3776C48.3597 28.7306 46.7188 29.5839 46.7188 29.7604C46.7188 29.8192 46.8232 29.9811 46.9276 30.1135C47.1066 30.3635 47.1961 30.3341 48.2552 29.7898C48.8967 29.4662 49.7768 29.0984 50.2243 28.9807C50.9255 28.7748 51.0448 28.6865 51.0448 28.3776C51.0448 27.9215 50.7017 27.9215 49.389 28.3776Z" fill="#326680" stroke="#326680" stroke-width="2.8" stroke-miterlimit="10"/>
<path d="M31.3987 28.4511C30.5036 28.7747 29.0417 29.5397 28.5494 29.9369C28.2511 30.1723 28.2362 30.2605 28.4003 30.5106C28.6389 30.9078 28.7284 30.8931 29.3102 30.4665C29.9368 29.9957 31.1152 29.4367 32.0699 29.1278C32.7263 28.9071 32.8606 28.8189 32.8158 28.5541C32.7561 28.1422 32.3534 28.1127 31.3987 28.4511Z" fill="#326680" stroke="#326680" stroke-width="2.8" stroke-miterlimit="10"/>
<path d="M54.1176 28.3922C53.9536 28.8188 53.9983 28.863 55.0425 29.1866C55.5945 29.3631 56.5343 29.8192 57.131 30.187C58.0111 30.7166 58.2498 30.8195 58.4288 30.6724C58.5481 30.5694 58.6525 30.4076 58.6525 30.3194C58.6525 29.9222 55.863 28.4364 54.7591 28.2451C54.3265 28.1716 54.1922 28.201 54.1176 28.3922Z" fill="#326680" stroke="#326680" stroke-width="2.8" stroke-miterlimit="10"/>
<path d="M42.2127 31.9376C41.989 32.1583 42.0188 32.2465 42.4962 32.9821C42.7796 33.4234 43.0779 33.9824 43.1675 34.2178C43.3614 34.7915 43.4956 34.7621 43.794 34.0707C43.9432 33.7618 44.2564 33.2174 44.4951 32.8644C44.883 32.2759 44.8979 32.2171 44.6741 31.967C44.3459 31.5992 44.2564 31.6287 43.8835 32.2171C43.7045 32.4966 43.5106 32.732 43.4658 32.732C43.4061 32.732 43.2122 32.4966 43.0183 32.2171C42.6453 31.6287 42.5558 31.5992 42.2127 31.9376Z" fill="#326680" stroke="#326680" stroke-width="2.8" stroke-miterlimit="10"/>
<path d="M78.7906 33.1292C76.1204 33.5705 73.9424 33.9383 73.9275 33.953C73.8231 34.0707 74.5242 37.5425 74.748 38.0868C75.1508 38.9842 76.2845 40.161 77.2243 40.6465C77.8806 40.9996 78.1492 41.0437 79.3873 41.0437C80.6254 41.0437 80.894 40.9996 81.5503 40.6465C83.0719 39.8521 84.1012 38.3957 84.2653 36.7628C84.3548 35.9684 83.9073 32.276 83.7283 32.3054C83.6835 32.3201 81.4608 32.6879 78.7906 33.1292ZM83.236 34.821C83.6984 37.4101 82.4752 39.3961 80.1332 39.8815C77.4779 40.4111 75.5834 38.8076 75.1209 35.6448C75.0314 34.9975 75.0612 34.9534 75.3745 34.8651C76.1204 34.7033 82.7437 33.6441 82.8929 33.6735C82.9824 33.7029 83.1316 34.2178 83.236 34.821Z" fill="#326680" stroke="#326680" stroke-width="2.8" stroke-miterlimit="10"/>
<path d="M25.6256 33.4381C25.5808 33.5117 25.4167 33.9236 25.2377 34.3649C24.7902 35.4535 24.6261 36.601 24.7305 37.6896C24.82 38.5722 24.8499 38.6164 25.2377 38.6164H25.6256L25.5659 37.3954C25.5062 36.2479 25.73 35.2623 26.3416 33.8942C26.4162 33.7323 26.3267 33.6146 26.0731 33.497C25.8643 33.4087 25.6703 33.3793 25.6256 33.4381Z" fill="#326680" stroke="#326680" stroke-width="2.8" stroke-miterlimit="10"/>
<path d="M60.8156 33.497C60.6515 33.5852 60.5023 33.6735 60.4725 33.6882C60.4576 33.7029 60.6515 34.1737 60.92 34.7327C61.3675 35.6595 61.4123 35.8654 61.3974 37.1747V38.6164H62.2775L62.2029 36.954C62.1432 35.4682 62.0836 35.1887 61.6659 34.3061C61.4123 33.7618 61.1885 33.3204 61.1587 33.3204C61.1288 33.3204 60.9797 33.4087 60.8156 33.497Z" fill="#326680" stroke="#326680" stroke-width="2.8" stroke-miterlimit="10"/>
<path d="M3.77131 36.3656C3.08511 36.7039 2.4735 37.7043 2.27957 38.8076C2.02598 40.3522 1.90664 42.4412 2.08565 42.4412C2.39891 42.4412 10.7079 43.1767 11.3344 43.2503L11.961 43.3385V42.1911L11.2599 42.1028C10.8571 42.044 9.91729 41.9557 9.14158 41.9116L7.75426 41.8086L7.84377 41.0584C7.88852 40.6464 7.93327 40.161 7.93327 39.9697C7.93327 39.6755 8.24654 39.4843 10.1261 38.6016C11.3344 38.0279 12.3339 37.5571 12.3488 37.5424C12.3637 37.5277 12.4234 37.1894 12.4831 36.8069L12.5875 36.1008L10.335 37.2041C9.09683 37.8219 8.02278 38.3221 7.93327 38.3221C7.85868 38.3221 7.7841 38.2338 7.7841 38.1309C7.7841 37.7484 6.97856 36.7186 6.44153 36.4244C5.75533 36.0419 4.48735 36.0125 3.77131 36.3656ZM6.09843 37.5277C6.81447 37.9838 6.96364 38.4251 6.9338 39.9844C6.91889 40.7936 6.85922 41.4997 6.78463 41.5732C6.71004 41.6468 5.84483 41.6174 4.83045 41.5291L3.01053 41.3673V40.7494C3.01053 39.9697 3.2492 38.7046 3.48788 38.2044C3.5923 37.9985 3.92049 37.6601 4.20392 37.4689C4.77078 37.1011 5.45698 37.1158 6.09843 37.5277Z" fill="#326680" stroke="#326680" stroke-width="2.8" stroke-miterlimit="10"/>
<path d="M25.9541 42.25C25.8049 42.2794 25.6855 42.3971 25.6855 42.5001C25.6855 42.9708 27.7889 46.7221 28.0425 46.7074C28.1022 46.7074 28.2663 46.6044 28.4154 46.5014C28.669 46.3102 28.6541 46.2514 28.1618 45.5011C27.8784 45.0598 27.3563 44.1183 27.0132 43.4269C26.6552 42.7207 26.327 42.1617 26.2822 42.1617C26.2375 42.1764 26.0883 42.2058 25.9541 42.25Z" fill="#326680" stroke="#326680" stroke-width="2.8" stroke-miterlimit="10"/>
<path d="M60.1738 42.912C59.9948 43.3386 59.4876 44.2801 59.0401 45.0156C58.2495 46.3102 58.2346 46.3396 58.5478 46.5456C58.8163 46.7368 58.876 46.7221 59.1296 46.4132C59.5622 45.8836 60.5169 44.236 60.9495 43.2797L61.3225 42.4265L60.9495 42.2941C60.7407 42.2058 60.5617 42.147 60.5318 42.147C60.5169 42.147 60.3528 42.5001 60.1738 42.912Z" fill="#326680" stroke="#326680" stroke-width="2.8" stroke-miterlimit="10"/>
<path d="M75.062 44.1035C75.062 44.2065 74.9278 45.3687 74.7637 46.7073C74.3609 49.9732 74.3609 49.9438 74.8979 49.9438C75.1764 49.9438 75.3703 49.5122 75.4797 48.6492C75.5841 47.9431 75.7035 46.8839 75.7482 46.2954C75.8228 45.5599 75.9123 45.2363 76.0466 45.2363C76.6433 45.2363 79.3284 45.5893 79.4328 45.6776C79.4925 45.7364 79.4477 46.5602 79.3284 47.5312C79.209 48.4874 79.1195 49.2965 79.1345 49.3112C79.1494 49.3259 79.3731 49.3553 79.6118 49.3847L80.0593 49.4289L80.2831 47.59L80.5069 45.7511L81.029 45.7953C81.7003 45.8541 83.9379 46.1336 83.9528 46.163C83.9826 46.1925 83.6097 49.3553 83.4903 50.1791C83.4008 50.7676 83.4158 50.797 83.8633 50.8558C84.2362 50.9147 84.3257 50.8705 84.3854 50.6205C84.5047 50.1056 85.0418 45.1774 84.997 45.1333C84.9672 45.1039 82.9384 44.8538 80.492 44.5743C78.0306 44.2948 75.8079 44.0447 75.5543 44.0005C75.2261 43.9564 75.062 43.9858 75.062 44.1035Z" fill="#326680" stroke="#326680" stroke-width="2.8" stroke-miterlimit="10"/>
<path d="M2.07052 46.8104C2.04068 46.884 2.32411 48.5316 2.69705 50.4881C3.32358 53.7393 3.41308 54.0629 3.6816 54.0629C4.30813 54.0629 4.33796 53.9158 4.0247 52.4006C3.8606 51.6062 3.7711 50.9148 3.81585 50.8559C3.8606 50.8118 5.87446 50.4146 8.27616 49.9586L12.647 49.1347L12.5425 48.6493C12.4829 48.3845 12.4083 48.1344 12.3784 48.0903C12.3337 48.0608 10.3646 48.3992 7.99273 48.8405C5.62086 49.2818 3.63684 49.6496 3.57717 49.6496C3.53242 49.6496 3.36833 48.9876 3.21916 48.1785C2.96556 46.7368 2.95064 46.7074 2.54787 46.7074C2.32411 46.7074 2.10035 46.7516 2.07052 46.8104Z" fill="#326680" stroke="#326680" stroke-width="2.8" stroke-miterlimit="10"/>
<path d="M30.2341 48.914C29.9805 49.1935 29.9805 49.2229 30.3534 49.7084C30.5772 49.9732 31.2484 50.7235 31.8601 51.356C32.596 52.1308 33.0684 52.425 33.2772 52.2387L33.5905 51.9592L32.7253 51.0618C32.2628 50.5616 31.5617 49.8114 31.1888 49.3848C30.5175 48.6198 30.5026 48.6198 30.2341 48.914Z" fill="#326680" stroke="#326680" stroke-width="2.8" stroke-miterlimit="10"/>
<path d="M54.848 50.2968C53.4309 51.7385 53.3563 51.8415 53.5801 52.1063C53.8038 52.4005 53.8187 52.4005 54.4304 51.9003C54.7735 51.6208 55.5044 50.9 56.0563 50.2968C56.9961 49.2523 57.0409 49.1788 56.7724 48.9875C56.6083 48.8699 56.4591 48.7816 56.4144 48.7816C56.3696 48.7816 55.6685 49.4583 54.848 50.2968Z" fill="#326680" stroke="#326680" stroke-width="2.8" stroke-miterlimit="10"/>
<path d="M73.7347 52.1799C73.6452 52.4447 73.6153 52.6948 73.675 52.7536C73.7496 52.8125 75.301 53.4744 77.1508 54.21C79.0005 54.9603 80.5668 55.6075 80.6265 55.6811C80.7011 55.7399 78.7768 56.1666 76.375 56.6226C73.9733 57.0933 71.87 57.52 71.7059 57.5788C71.5418 57.6524 71.333 57.9024 71.2435 58.1525L71.0645 58.5939L75.6441 60.4474C78.1502 61.4625 80.2536 62.301 80.3132 62.301C80.4028 62.301 80.7608 61.4037 80.7011 61.3301C80.6713 61.3154 79.0602 60.6534 77.106 59.8737C75.1518 59.0793 73.6153 58.3879 73.675 58.3291C73.7347 58.2702 75.8231 57.8289 78.2994 57.3581L82.8194 56.5049L82.9835 56.0047C83.073 55.7399 83.1177 55.4898 83.0879 55.4604C83.073 55.4457 81.2381 54.6807 79.0154 53.7981C76.8077 52.9007 74.7491 52.0622 74.4358 51.9445L73.8988 51.7091L73.7347 52.1799Z" fill="#326680" stroke="#326680" stroke-width="2.8" stroke-miterlimit="10"/>
<path d="M35.7389 54.2247C35.4405 54.5483 35.2764 54.3718 37.7527 56.3578C38.7969 57.1963 38.9014 57.2552 39.155 57.0345C39.2892 56.9168 39.4086 56.7697 39.4086 56.7108C39.4086 56.6373 38.7522 56.0783 37.9616 55.4457C35.8731 53.7834 36.0521 53.8716 35.7389 54.2247Z" fill="#326680" stroke="#326680" stroke-width="2.8" stroke-miterlimit="10"/>
<path d="M49.2539 55.1662C48.3887 55.8723 47.6279 56.5049 47.5533 56.5785C47.4638 56.652 47.5235 56.8138 47.6875 57.0051C47.8666 57.1914 48.1599 57.1277 48.5677 56.8138C48.8959 56.5637 49.6567 55.9312 50.2533 55.431C51.3274 54.5336 51.3423 54.5336 51.0738 54.21L50.8053 53.8863L49.2539 55.1662Z" fill="#326680" stroke="#326680" stroke-width="2.8" stroke-miterlimit="10"/>
<path d="M10.5434 58.432C8.1715 59.6089 6.18748 60.5945 6.15765 60.6239C6.03831 60.7269 6.48583 61.5654 6.66484 61.5654C6.76926 61.5654 8.81295 60.6092 11.1997 59.4323L15.5407 57.314L15.2871 56.7844C15.1528 56.5049 15.0037 56.2695 14.9589 56.2842C14.9142 56.2842 12.9302 57.2551 10.5434 58.432Z" fill="#326680" stroke="#326680" stroke-width="2.8" stroke-miterlimit="10"/>
<path d="M41.6317 58.9321C41.4527 59.2852 41.4229 59.2558 42.5864 60.1531L43.4666 60.8151L44.4213 60.0649C45.4058 59.2999 45.5401 59.0793 45.1522 58.7703C44.9732 58.6232 44.8091 58.6821 44.2721 59.1234C43.9141 59.4176 43.5412 59.653 43.4666 59.653C43.392 59.653 43.034 59.4176 42.676 59.1381C41.9002 58.5349 41.8555 58.5202 41.6317 58.9321Z" fill="#326680" stroke="#326680" stroke-width="2.8" stroke-miterlimit="10"/>
<path d="M19.1817 70.3332C16.9888 73.0106 16.1385 74.1727 16.228 74.3051C16.3921 74.5405 20.6137 77.8946 20.748 77.8946C20.7928 77.8946 20.9568 77.7328 21.0911 77.5416C21.2502 77.316 20.7132 76.7177 19.48 75.7468C18.4656 74.9524 17.6303 74.2463 17.6303 74.2022C17.6303 74.1286 19.5248 71.716 19.8082 71.4365C19.838 71.4071 20.5392 71.922 21.3447 72.5693C22.3392 73.3735 22.911 73.6677 23.0602 73.4519C23.1945 73.2754 23.2989 73.0694 23.2989 73.0106C23.2989 72.9517 22.6574 72.3927 21.8817 71.7749L20.4646 70.6568L21.1359 69.833C21.4939 69.3623 21.9862 68.7591 22.2248 68.4796L22.6724 67.9647L24.537 69.4652L26.4017 70.9658L26.6404 70.6127C26.7746 70.4215 26.8791 70.2155 26.8791 70.1861C26.8791 70.0978 22.4486 66.5672 22.3442 66.5672C22.3143 66.5672 20.8823 68.2589 19.1817 70.3332Z" fill="#326680" stroke="#326680" stroke-width="2.8" stroke-miterlimit="10"/>
<path d="M63.3521 67.6852C61.7858 68.4796 61.2339 70.0978 61.9201 71.8631C62.5168 73.4078 64.4709 75.5997 65.8583 76.2617C66.7831 76.7031 68.0511 76.6883 68.8567 76.2176C69.6324 75.7763 70.0799 75.1731 70.3036 74.2905C70.6617 72.8929 69.7517 70.9364 67.887 69.1122C66.7086 67.95 65.7389 67.4499 64.635 67.4499C64.1726 67.4499 63.6057 67.5528 63.3521 67.6852ZM65.6793 68.7886C67.0666 69.48 68.8865 71.7307 69.2445 73.1724C69.3937 73.8197 69.3937 73.9815 69.1401 74.467C68.5881 75.5703 67.5141 75.8792 66.3356 75.2761C65.0975 74.6582 63.1582 72.3486 62.8151 71.0835C62.5764 70.1714 62.7405 69.5094 63.3521 68.9504C63.9787 68.3767 64.7693 68.3178 65.6793 68.7886Z" fill="#326680" stroke="#326680" stroke-width="2.8" stroke-miterlimit="10"/>
<path d="M58.5036 71.1129C58.1605 71.3189 58.1306 71.4366 58.1754 72.1868C58.2351 73.1872 58.0859 73.4961 57.3251 74.0404C56.7582 74.4376 56.7284 74.6141 57.0864 75.0702C57.1163 75.0996 57.6085 74.8789 58.2052 74.5847C58.8019 74.2905 59.3389 74.0992 59.4135 74.1728C59.4732 74.2316 60.0848 75.3202 60.7561 76.5707C61.4274 77.8211 62.1434 79.1304 62.3373 79.4834L62.6954 80.1013L63.128 79.8806C63.3816 79.7482 63.5755 79.6158 63.5755 79.5864C63.5755 79.5276 58.9511 70.9364 58.9063 70.8922C58.8914 70.8775 58.7124 70.9805 58.5036 71.1129Z" fill="#326680" stroke="#326680" stroke-width="2.8" stroke-miterlimit="10"/>
<path d="M27.0568 71.5542C26.4899 71.9073 26.0275 72.6134 25.8932 73.3048C25.7441 74.0845 26.1916 74.9671 27.3999 76.2911C29.0259 78.0711 29.2347 78.6596 28.5187 79.557C28.0712 80.1013 27.2955 80.3219 26.5496 80.116C25.8037 79.8953 24.7148 78.9097 24.491 78.2771C24.3567 77.8505 24.2971 77.8211 23.7451 77.8652C23.417 77.8946 23.1484 77.9829 23.1484 78.0564C23.1484 78.3948 23.775 79.3363 24.3717 79.91C25.2369 80.7338 26.1468 81.131 27.2209 81.131C28.5635 81.131 29.4585 80.5867 29.9359 79.4687C30.3983 78.3507 30.085 77.4239 28.7126 75.9675C27.4745 74.6435 27.1761 74.1875 27.1761 73.5696C27.1761 72.4957 28.4143 71.9367 29.548 72.5104C29.9955 72.7458 30.9055 73.6873 30.9055 73.9227C30.9055 74.0109 31.2038 74.0698 31.5768 74.0698C32.1436 74.0698 32.2182 74.0403 32.1436 73.805C31.9348 73.2312 31.1591 72.3486 30.4431 71.8631C29.7718 71.4218 29.548 71.3482 28.6082 71.3041C27.743 71.2747 27.4596 71.3188 27.0568 71.5542Z" fill="#326680" stroke="#326680" stroke-width="2.8" stroke-miterlimit="10"/>
<path d="M32.8012 73.5843C32.7565 73.805 32.7415 74.011 32.7714 74.0404C32.8012 74.0698 33.4128 74.2463 34.1438 74.4523C34.8598 74.6435 35.5311 74.8348 35.6206 74.8642C35.725 74.9083 35.3968 76.3941 34.6361 79.2186L33.4874 83.5142L33.8454 83.6466C34.4421 83.8673 34.6211 83.8085 34.7554 83.2936C34.83 83.0435 35.3372 81.1164 35.904 79.0274C36.456 76.9532 36.993 75.2467 37.0825 75.2467C37.172 75.2467 37.8433 75.4085 38.5892 75.6145C39.3201 75.8057 39.9467 75.9528 39.9616 75.9234C39.9914 75.894 40.0362 75.688 40.0511 75.4526L40.0809 75.0407L36.8737 74.1875C32.488 73.04 32.9056 73.0989 32.8012 73.5843Z" fill="#326680" stroke="#326680" stroke-width="2.8" stroke-miterlimit="10"/>
<path d="M51.5371 73.8344C50.4332 74.3493 49.9707 75.0701 49.8812 76.4971C49.747 78.6154 50.5227 80.9986 51.8205 82.3814C52.6559 83.2788 53.2824 83.5436 54.3266 83.4553C55.2962 83.3524 56.1018 82.911 56.6239 82.1902C57.7427 80.6455 56.9968 76.5412 55.2813 74.6582C54.1924 73.4813 52.9393 73.2018 51.5371 73.8344ZM53.894 74.8494C55.341 75.8056 56.5791 79.7482 55.9228 81.3075C55.6244 81.999 54.8935 82.455 54.073 82.455C52.8796 82.455 51.7907 81.028 51.179 78.6596C50.8359 77.3062 50.821 76.4676 51.1492 75.6732C51.5967 74.5699 52.8796 74.1727 53.894 74.8494Z" fill="#326680" stroke="#326680" stroke-width="2.8" stroke-miterlimit="10"/>
<path d="M43.9596 75.1584C43.0944 75.5556 42.2441 76.2176 42.2441 76.4971C42.2441 76.6 42.4232 76.7913 42.632 76.9384C43.0049 77.1738 43.0198 77.1738 43.6464 76.6001C44.4072 75.9086 45.1978 75.6144 45.9287 75.7615C47.4503 76.041 48.0619 77.468 47.2564 78.8655C47.0625 79.2039 45.9437 80.7191 44.7652 82.2343L42.632 85L43.8254 84.9117C44.4668 84.8529 46.063 84.7352 47.3608 84.6469L49.7028 84.4704V83.9997C49.7028 83.5289 49.6879 83.5289 49.0763 83.573C46.3912 83.8231 45.0188 83.9114 44.9591 83.8526C44.9293 83.8231 45.6751 82.8081 46.6299 81.5871C48.6437 79.0274 48.8675 78.6007 48.778 77.4386C48.6586 75.7615 47.51 74.8053 45.6602 74.8053C44.974 74.8053 44.4967 74.9083 43.9596 75.1584Z" fill="#326680" stroke="#326680" stroke-width="2.8" stroke-miterlimit="10"/>
<path d="M37.5737 83.1612C37.2902 83.4701 37.2455 83.8232 37.4692 84.2351C37.7079 84.6617 38.588 84.6175 38.9013 84.1615C39.4383 83.3377 38.23 82.4403 37.5737 83.1612Z" fill="#326680" stroke="#326680" stroke-width="2.8" stroke-miterlimit="10"/>
</svg>
