<svg width="78" height="86" viewBox="0 0 78 86" fill="none" xmlns="http://www.w3.org/2000/svg">
<path fill-rule="evenodd" clip-rule="evenodd" d="M38.9997 23.9896C34.2982 23.9896 29.7892 26.0108 26.4647 29.6085C23.1402 33.2062 21.2725 38.0858 21.2725 43.1738C21.2725 48.2618 23.1402 53.1414 26.4647 56.7391C29.7892 60.3369 34.2982 62.3581 38.9997 62.3581C43.7013 62.3581 48.2103 60.3369 51.5348 56.7391C54.8593 53.1414 56.727 48.2618 56.727 43.1738C56.727 38.0858 54.8593 33.2062 51.5348 29.6085C48.2103 26.0108 43.7013 23.9896 38.9997 23.9896ZM28.3634 43.1738C28.3634 46.2266 29.484 49.1544 31.4787 51.313C33.4734 53.4716 36.1788 54.6844 38.9997 54.6844C41.8207 54.6844 44.5261 53.4716 46.5208 51.313C48.5155 49.1544 49.6361 46.2266 49.6361 43.1738C49.6361 40.121 48.5155 37.1933 46.5208 35.0346C44.5261 32.876 41.8207 31.6633 38.9997 31.6633C36.1788 31.6633 33.4734 32.876 31.4787 35.0346C29.484 37.1933 28.3634 40.121 28.3634 43.1738Z" fill="#326680"/>
<path d="M60.273 16.3158C59.3327 16.3158 58.4309 16.7201 57.766 17.4396C57.1011 18.1592 56.7275 19.1351 56.7275 20.1527C56.7275 21.1703 57.1011 22.1462 57.766 22.8658C58.4309 23.5853 59.3327 23.9895 60.273 23.9895C61.2133 23.9895 62.1151 23.5853 62.78 22.8658C63.4449 22.1462 63.8184 21.1703 63.8184 20.1527C63.8184 19.1351 63.4449 18.1592 62.78 17.4396C62.1151 16.7201 61.2133 16.3158 60.273 16.3158Z" fill="#326680"/>
<path fill-rule="evenodd" clip-rule="evenodd" d="M14.1818 0.968506C10.4206 0.968506 6.81336 2.58546 4.15376 5.46366C1.49415 8.34185 0 12.2455 0 16.3159V70.0318C0 74.1022 1.49415 78.0059 4.15376 80.884C6.81336 83.7622 10.4206 85.3792 14.1818 85.3792H63.8182C67.5794 85.3792 71.1866 83.7622 73.8462 80.884C76.5058 78.0059 78 74.1022 78 70.0318V16.3159C78 12.2455 76.5058 8.34185 73.8462 5.46366C71.1866 2.58546 67.5794 0.968506 63.8182 0.968506H14.1818ZM63.8182 8.64221H14.1818C12.3012 8.64221 10.4976 9.45068 9.16779 10.8898C7.83798 12.3289 7.09091 14.2807 7.09091 16.3159V70.0318C7.09091 72.067 7.83798 74.0188 9.16779 75.4579C10.4976 76.897 12.3012 77.7055 14.1818 77.7055H63.8182C65.6988 77.7055 67.5024 76.897 68.8322 75.4579C70.162 74.0188 70.9091 72.067 70.9091 70.0318V16.3159C70.9091 14.2807 70.162 12.3289 68.8322 10.8898C67.5024 9.45068 65.6988 8.64221 63.8182 8.64221Z" fill="#326680"/>
</svg>
