<svg width="78" height="86" viewBox="0 0 78 86" fill="none" xmlns="http://www.w3.org/2000/svg">
<path d="M58.5 47.9423V63.5456H50.1423V48.9848C50.1423 45.3298 48.9333 42.8354 45.9069 42.8354C43.5981 42.8354 42.2214 44.5152 41.6169 46.1443C41.3985 46.7268 41.34 47.5371 41.34 48.3475V63.5456H32.9784C32.9784 63.5456 33.0915 38.8892 32.9784 36.3358H41.34V40.1892L41.2854 40.2778H41.34V40.1892C42.4515 38.3321 44.4327 35.6943 48.8748 35.6943C54.3738 35.6943 58.5 39.5856 58.5 47.9423ZM24.2307 23.2142C21.372 23.2142 19.5 25.2485 19.5 27.9158C19.5 30.5326 21.3174 32.6217 24.1215 32.6217H24.1761C27.0933 32.6217 28.9068 30.5284 28.9068 27.9158C28.8522 25.2485 27.0933 23.2142 24.2307 23.2142ZM19.9953 63.5456H28.3569V36.3358H19.9953V63.5456Z" fill="#326680"/>
<path d="M15.6 9.40872C13.5313 9.40872 11.5474 10.298 10.0846 11.8811C8.62178 13.4641 7.8 15.6111 7.8 17.8498V68.4962C7.8 70.7349 8.62178 72.8819 10.0846 74.4649C11.5474 76.048 13.5313 76.9373 15.6 76.9373H62.4C64.4687 76.9373 66.4527 76.048 67.9154 74.4649C69.3782 72.8819 70.2 70.7349 70.2 68.4962V17.8498C70.2 15.6111 69.3782 13.4641 67.9154 11.8811C66.4527 10.298 64.4687 9.40872 62.4 9.40872H15.6ZM15.6 0.967651H62.4C66.5374 0.967651 70.5053 2.7463 73.4309 5.91232C76.3564 9.07833 78 13.3724 78 17.8498V68.4962C78 72.9736 76.3564 77.2677 73.4309 80.4337C70.5053 83.5997 66.5374 85.3783 62.4 85.3783H15.6C11.4626 85.3783 7.4947 83.5997 4.56913 80.4337C1.64357 77.2677 0 72.9736 0 68.4962V17.8498C0 13.3724 1.64357 9.07833 4.56913 5.91232C7.4947 2.7463 11.4626 0.967651 15.6 0.967651Z" fill="#326680"/>
</svg>
