<svg width="1512" height="900" viewBox="0 0 1512 900" fill="none" xmlns="http://www.w3.org/2000/svg">
<g clip-path="url(#clip0_182_184)">
<path d="M1061.96 438.258C1064.31 437.453 1065.56 434.895 1064.76 432.543C1063.95 430.192 1061.39 428.938 1059.04 429.743L1061.96 438.258ZM433.423 1324.9C430.939 1324.84 428.878 1326.81 428.82 1329.29C428.762 1331.77 430.729 1333.84 433.214 1333.89L433.423 1324.9ZM415.192 1333.04C417.671 1333.22 419.825 1331.36 420.003 1328.88C420.181 1326.4 418.315 1324.25 415.836 1324.07L415.192 1333.04ZM398.568 1322.38C396.102 1322.07 393.854 1323.83 393.547 1326.29C393.24 1328.76 394.991 1331.01 397.457 1331.31L398.568 1322.38ZM379.505 1328.56C381.949 1329.01 384.295 1327.39 384.745 1324.94C385.194 1322.5 383.577 1320.15 381.133 1319.7L379.505 1328.56ZM364.211 1316.05C361.8 1315.45 359.358 1316.92 358.758 1319.34C358.158 1321.75 359.627 1324.19 362.039 1324.79L364.211 1316.05ZM344.566 1319.81C346.931 1320.57 349.467 1319.28 350.23 1316.91C350.993 1314.54 349.694 1312.01 347.329 1311.25L344.566 1319.81ZM331.021 1305.33C328.717 1304.4 326.094 1305.52 325.162 1307.82C324.23 1310.12 325.343 1312.75 327.647 1313.68L331.021 1305.33ZM311.137 1306.26C313.362 1307.36 316.063 1306.46 317.17 1304.23C318.276 1302 317.369 1299.3 315.144 1298.2L311.137 1306.26ZM299.891 1289.84C297.762 1288.55 294.997 1289.24 293.714 1291.37C292.432 1293.5 293.119 1296.26 295.248 1297.55L299.891 1289.84ZM280.193 1287.61C282.209 1289.07 285.022 1288.61 286.475 1286.59C287.929 1284.58 287.473 1281.77 285.457 1280.31L280.193 1287.61ZM271.763 1269.53C269.877 1267.92 267.036 1268.13 265.418 1270.02C263.8 1271.91 264.017 1274.75 265.903 1276.36L271.763 1269.53ZM252.681 1264.03C254.426 1265.8 257.275 1265.82 259.045 1264.07C260.814 1262.33 260.834 1259.48 259.089 1257.71L252.681 1264.03ZM247.395 1244.83C245.8 1242.93 242.962 1242.68 241.056 1244.27C239.15 1245.87 238.898 1248.7 240.493 1250.61L247.395 1244.83ZM229.445 1236.3C230.886 1238.32 233.696 1238.79 235.721 1237.35C237.746 1235.91 238.219 1233.1 236.778 1231.08L229.445 1236.3ZM227.199 1216.48C225.913 1214.36 223.146 1213.67 221.02 1214.96C218.893 1216.25 218.212 1219.01 219.498 1221.14L227.199 1216.48ZM210.727 1205.41C211.862 1207.62 214.574 1208.49 216.785 1207.36C218.996 1206.22 219.868 1203.51 218.733 1201.3L210.727 1205.41ZM211.266 1185.49C210.278 1183.21 207.628 1182.16 205.348 1183.15C203.068 1184.14 202.02 1186.79 203.009 1189.07L211.266 1185.49ZM196.352 1172.33C197.201 1174.66 199.782 1175.87 202.118 1175.02C204.454 1174.17 205.659 1171.59 204.81 1169.25L196.352 1172.33ZM199.303 1152.66C198.585 1150.28 196.075 1148.93 193.695 1149.65C191.316 1150.37 189.969 1152.88 190.686 1155.26L199.303 1152.66ZM185.929 1137.84C186.523 1140.26 188.96 1141.73 191.374 1141.14C193.787 1140.54 195.262 1138.11 194.669 1135.69L185.929 1137.84ZM190.906 1118.63C190.428 1116.19 188.063 1114.6 185.624 1115.08C183.185 1115.56 181.596 1117.92 182.074 1120.36L190.906 1118.63ZM179 1102.56C179.369 1105.02 181.661 1106.72 184.118 1106.35C186.576 1105.98 188.269 1103.69 187.9 1101.23L179 1102.56ZM185.661 1083.89C185.392 1081.42 183.172 1079.64 180.701 1079.9C178.23 1080.17 176.445 1082.39 176.714 1084.86L185.661 1083.89ZM175.117 1066.93C175.29 1069.41 177.441 1071.28 179.92 1071.11C182.399 1070.94 184.268 1068.79 184.095 1066.31L175.117 1066.93ZM183.188 1048.79C183.103 1046.3 181.021 1044.36 178.537 1044.44C176.053 1044.53 174.108 1046.61 174.193 1049.09L183.188 1048.79ZM173.888 1031.14C173.888 1033.62 175.904 1035.64 178.389 1035.64C180.874 1035.64 182.888 1033.62 182.888 1031.14L173.888 1031.14ZM183.164 1013.55C183.243 1011.07 181.292 1008.99 178.808 1008.91C176.324 1008.84 174.247 1010.79 174.169 1013.27L183.164 1013.55ZM175.005 995.363C174.852 997.844 176.739 999.979 179.22 1000.13C181.7 1000.29 183.835 998.398 183.988 995.918L175.005 995.363ZM185.328 978.356C185.552 975.881 183.727 973.693 181.252 973.469C178.777 973.244 176.589 975.069 176.364 977.544L185.328 978.356ZM178.227 959.734C177.935 962.202 179.699 964.44 182.167 964.732C184.635 965.024 186.873 963.26 187.165 960.792L178.227 959.734ZM189.471 943.314C189.828 940.855 188.124 938.571 185.665 938.214C183.205 937.856 180.922 939.561 180.564 942.02L189.471 943.314ZM183.365 924.346C182.945 926.795 184.59 929.122 187.04 929.542C189.489 929.962 191.816 928.317 192.236 925.867L183.365 924.346ZM195.435 908.519C195.916 906.081 194.329 903.714 191.891 903.233C189.452 902.752 187.086 904.339 186.605 906.778L195.435 908.519ZM190.279 889.274C189.739 891.7 191.268 894.104 193.694 894.644C196.12 895.184 198.524 893.655 199.064 891.229L190.279 889.274ZM203.103 874.046C203.7 871.634 202.229 869.194 199.816 868.597C197.404 867.999 194.964 869.471 194.366 871.883L203.103 874.046ZM198.866 854.583C198.213 856.981 199.626 859.454 202.024 860.108C204.422 860.762 206.896 859.348 207.549 856.95L198.866 854.583ZM212.392 839.967C213.102 837.585 211.746 835.08 209.364 834.37C206.982 833.661 204.476 835.017 203.767 837.399L212.392 839.967ZM209.063 820.335C208.299 822.7 209.597 825.237 211.962 826.001C214.326 826.765 216.863 825.468 217.627 823.103L209.063 820.335ZM223.255 806.354C224.074 804.008 222.835 801.442 220.489 800.623C218.142 799.804 215.576 801.042 214.757 803.389L223.255 806.354ZM220.838 786.597C219.965 788.924 221.143 791.518 223.469 792.392C225.796 793.265 228.39 792.087 229.264 789.761L220.838 786.597ZM235.672 773.287C236.6 770.982 235.484 768.36 233.178 767.432C230.873 766.503 228.252 767.62 227.323 769.925L235.672 773.287ZM234.192 753.444C233.208 755.727 234.261 758.374 236.543 759.358C238.825 760.342 241.473 759.289 242.457 757.007L234.192 753.444ZM249.654 740.862C250.694 738.605 249.707 735.932 247.45 734.892C245.193 733.852 242.52 734.838 241.48 737.096L249.654 740.862ZM249.161 720.971C248.063 723.2 248.981 725.898 251.211 726.995C253.441 728.093 256.138 727.175 257.236 724.945L249.161 720.971ZM265.245 709.202C266.402 707.002 265.556 704.281 263.356 703.124C261.156 701.968 258.436 702.814 257.279 705.013L265.245 709.202ZM265.819 689.3C264.602 691.467 265.372 694.21 267.538 695.428C269.705 696.645 272.448 695.876 273.666 693.709L265.819 689.3ZM282.523 678.468C283.803 676.338 283.115 673.574 280.985 672.293C278.855 671.013 276.09 671.701 274.809 673.831L282.523 678.468ZM284.286 658.607C282.939 660.696 283.541 663.481 285.63 664.828C287.719 666.174 290.504 665.573 291.85 663.484L284.286 658.607ZM301.602 648.89C303.017 646.848 302.509 644.044 300.466 642.629C298.423 641.213 295.62 641.722 294.204 643.764L301.602 648.89ZM304.728 629.145C303.239 631.135 303.645 633.955 305.635 635.444C307.625 636.933 310.445 636.527 311.934 634.538L304.728 629.145ZM322.648 620.783C324.214 618.853 323.919 616.019 321.989 614.453C320.059 612.887 317.225 613.182 315.659 615.112L322.648 620.783ZM327.371 601.298C325.722 603.158 325.892 606.002 327.751 607.651C329.611 609.3 332.455 609.13 334.104 607.271L327.371 601.298ZM346.028 594.457C347.765 592.68 347.733 589.831 345.956 588.093C344.179 586.356 341.33 586.388 339.593 588.165L346.028 594.457ZM352.492 575.659C350.66 577.339 350.536 580.185 352.216 582.017C353.896 583.849 356.742 583.972 358.574 582.292L352.492 575.659ZM371.882 570.818C373.815 569.257 374.116 566.423 372.555 564.49C370.993 562.557 368.16 562.256 366.226 563.818L371.882 570.818ZM380.619 552.994C378.58 554.415 378.078 557.22 379.498 559.259C380.919 561.298 383.723 561.8 385.763 560.38L380.619 552.994ZM400.384 551.046C402.533 549.798 403.264 547.044 402.017 544.895C400.769 542.745 398.015 542.014 395.866 543.262L400.384 551.046ZM412.08 534.844C409.82 535.878 408.828 538.549 409.863 540.809C410.897 543.068 413.568 544.061 415.828 543.026L412.08 534.844ZM431.997 536.447C434.319 535.562 435.485 532.962 434.6 530.64C433.716 528.317 431.116 527.151 428.793 528.036L431.997 536.447ZM445.825 521.789C443.482 522.616 442.253 525.187 443.08 527.53C443.908 529.874 446.478 531.103 448.822 530.276L445.825 521.789ZM465.792 524.507C468.154 523.734 469.443 521.193 468.67 518.831C467.897 516.469 465.356 515.18 462.994 515.953L465.792 524.507ZM480.28 510.51C477.901 511.23 476.557 513.743 477.278 516.121C477.999 518.5 480.511 519.843 482.89 519.123L480.28 510.51ZM500.107 514.101C502.5 513.43 503.896 510.946 503.224 508.553C502.553 506.16 500.069 504.765 497.676 505.436L500.107 514.101ZM515.168 500.714C512.762 501.338 511.318 503.795 511.943 506.2C512.567 508.606 515.024 510.05 517.429 509.425L515.168 500.714ZM534.84 505.077C537.257 504.497 538.745 502.068 538.165 499.651C537.585 497.234 535.156 495.746 532.739 496.326L534.84 505.077ZM550.38 492.253C547.954 492.791 546.424 495.195 546.962 497.621C547.5 500.047 549.904 501.578 552.33 501.039L550.38 492.253ZM569.892 497.294C572.326 496.795 573.896 494.417 573.397 491.982C572.898 489.548 570.52 487.978 568.085 488.477L569.892 497.294ZM585.842 484.982C583.4 485.443 581.794 487.797 582.256 490.239C582.717 492.681 585.071 494.287 587.513 493.825L585.842 484.982ZM605.182 490.617C607.631 490.19 609.27 487.859 608.843 485.411C608.416 482.962 606.085 481.324 603.637 481.75L605.182 490.617ZM621.483 478.764C619.029 479.158 617.359 481.466 617.753 483.92C618.147 486.374 620.456 488.044 622.91 487.65L621.483 478.764ZM640.678 484.912C643.137 484.548 644.835 482.26 644.471 479.802C644.108 477.343 641.82 475.645 639.362 476.008L640.678 484.912ZM657.263 473.469C654.8 473.804 653.076 476.072 653.411 478.534C653.746 480.997 656.014 482.722 658.476 482.387L657.263 473.469ZM676.295 480.061C678.761 479.752 680.51 477.503 680.201 475.037C679.893 472.571 677.643 470.822 675.177 471.13L676.295 480.061ZM693.122 468.975C690.653 469.259 688.882 471.491 689.167 473.96C689.451 476.429 691.683 478.2 694.152 477.916L693.122 468.975ZM712.044 475.937C714.516 475.675 716.307 473.459 716.044 470.988C715.782 468.516 713.566 466.725 711.095 466.988L712.044 475.937ZM729.072 465.156C726.599 465.398 724.79 467.599 725.032 470.073C725.274 472.546 727.475 474.355 729.949 474.113L729.072 465.156ZM747.859 472.427C750.334 472.203 752.159 470.015 751.935 467.539C751.711 465.064 749.523 463.239 747.047 463.464L747.859 472.427ZM765.015 461.896C762.539 462.104 760.7 464.281 760.908 466.757C761.116 469.234 763.293 471.072 765.769 470.864L765.015 461.896ZM783.724 469.405C786.202 469.21 788.052 467.044 787.858 464.566C787.663 462.088 785.496 460.238 783.019 460.433L783.724 469.405ZM801.034 459.059C798.556 459.242 796.696 461.401 796.879 463.879C797.063 466.357 799.221 468.218 801.699 468.034L801.034 459.059ZM819.676 466.736C822.155 466.561 824.023 464.41 823.848 461.93C823.673 459.451 821.521 457.583 819.042 457.758L819.676 466.736ZM837.039 456.511C834.559 456.681 832.686 458.828 832.855 461.307C833.024 463.787 835.171 465.66 837.651 465.491L837.039 456.511ZM855.625 464.277C858.105 464.111 859.98 461.966 859.814 459.486C859.648 457.006 857.503 455.131 855.023 455.297L855.625 464.277ZM872.994 454.092C870.514 454.259 868.639 456.404 868.806 458.884C868.973 461.364 871.119 463.239 873.598 463.072L872.994 454.092ZM891.573 461.848C894.053 461.676 895.923 459.528 895.752 457.048C895.581 454.569 893.432 452.698 890.952 452.869L891.573 461.848ZM908.904 451.598C906.426 451.778 904.563 453.934 904.743 456.413C904.924 458.892 907.08 460.755 909.558 460.574L908.904 451.598ZM927.571 459.212C930.049 459.016 931.899 456.849 931.703 454.372C931.508 451.894 929.341 450.044 926.864 450.239L927.571 459.212ZM944.791 448.753C942.315 448.969 940.484 451.152 940.701 453.628C940.918 456.104 943.1 457.935 945.576 457.718L944.791 448.753ZM963.567 456.039C966.04 455.792 967.845 453.587 967.598 451.114C967.351 448.641 965.146 446.836 962.673 447.083L963.567 456.039ZM980.548 445.155C978.08 445.444 976.313 447.679 976.601 450.147C976.889 452.616 979.124 454.383 981.592 454.095L980.548 445.155ZM999.619 451.79C1002.08 451.445 1003.8 449.17 1003.45 446.709C1003.11 444.247 1000.83 442.532 998.37 442.877L999.619 451.79ZM1016.07 440.122C1013.62 440.546 1011.98 442.875 1012.4 445.324C1012.83 447.772 1015.16 449.414 1017.6 448.991L1016.07 440.122ZM1035.47 445.508C1037.9 444.974 1039.43 442.573 1038.9 440.146C1038.36 437.719 1035.96 436.184 1033.54 436.718L1035.47 445.508ZM1050.72 432.372C1048.33 433.067 1046.96 435.565 1047.66 437.951C1048.35 440.337 1050.85 441.707 1053.24 441.012L1050.72 432.372ZM442.499 1325C439.442 1325 436.417 1324.97 433.423 1324.9L433.214 1333.89C436.278 1333.96 439.373 1334 442.499 1334L442.499 1325ZM415.836 1324.07C409.95 1323.65 404.195 1323.08 398.568 1322.38L397.457 1331.31C403.243 1332.03 409.154 1332.61 415.192 1333.04L415.836 1324.07ZM381.133 1319.7C375.346 1318.64 369.706 1317.42 364.211 1316.05L362.039 1324.79C367.718 1326.2 373.539 1327.46 379.505 1328.56L381.133 1319.7ZM347.329 1311.25C341.729 1309.44 336.294 1307.47 331.021 1305.33L327.647 1313.68C333.124 1315.89 338.763 1317.94 344.566 1319.81L347.329 1311.25ZM315.144 1298.2C309.882 1295.58 304.799 1292.79 299.891 1289.84L295.248 1297.55C300.365 1300.63 305.66 1303.53 311.137 1306.26L315.144 1298.2ZM285.457 1280.31C280.71 1276.89 276.147 1273.29 271.763 1269.53L265.903 1276.36C270.478 1280.29 275.24 1284.04 280.193 1287.61L285.457 1280.31ZM259.089 1257.71C255.013 1253.57 251.116 1249.28 247.395 1244.83L240.493 1250.61C244.369 1255.24 248.43 1259.72 252.681 1264.03L259.089 1257.71ZM236.778 1231.08C233.416 1226.35 230.225 1221.49 227.199 1216.48L219.498 1221.14C222.636 1226.33 225.95 1231.39 229.445 1236.3L236.778 1231.08ZM218.733 1201.3C216.089 1196.15 213.601 1190.88 211.266 1185.49L203.009 1189.07C205.419 1194.63 207.991 1200.08 210.727 1205.41L218.733 1201.3ZM204.81 1169.25C202.834 1163.82 201 1158.28 199.303 1152.66L190.686 1155.26C192.43 1161.04 194.317 1166.73 196.352 1172.33L204.81 1169.25ZM194.669 1135.69C193.289 1130.08 192.036 1124.39 190.906 1118.63L182.074 1120.36C183.23 1126.26 184.514 1132.09 185.929 1137.84L194.669 1135.69ZM187.9 1101.23C187.041 1095.51 186.295 1089.73 185.661 1083.89L176.714 1084.86C177.361 1090.82 178.122 1096.72 179 1102.56L187.9 1101.23ZM184.095 1066.31C183.69 1060.51 183.388 1054.67 183.188 1048.79L174.193 1049.09C174.397 1055.08 174.704 1061.03 175.117 1066.93L184.095 1066.31ZM182.888 1031.14C182.886 1025.31 182.979 1019.44 183.164 1013.55L174.169 1013.27C173.981 1019.25 173.886 1025.21 173.888 1031.14L182.888 1031.14ZM183.988 995.918C184.349 990.083 184.796 984.227 185.328 978.356L176.364 977.544C175.825 983.499 175.371 989.441 175.005 995.363L183.988 995.918ZM187.165 960.792C187.854 954.975 188.623 949.147 189.471 943.314L180.564 942.02C179.706 947.93 178.926 953.836 178.227 959.734L187.165 960.792ZM192.236 925.867C193.228 920.083 194.295 914.298 195.435 908.519L186.605 906.778C185.451 912.629 184.371 918.487 183.365 924.346L192.236 925.867ZM199.064 891.229C200.341 885.49 201.688 879.761 203.103 874.046L194.366 871.883C192.935 877.666 191.571 883.465 190.279 889.274L199.064 891.229ZM207.549 856.95C209.099 851.268 210.714 845.605 212.392 839.967L203.767 837.399C202.068 843.103 200.434 848.833 198.866 854.583L207.549 856.95ZM217.627 823.103C219.442 817.488 221.318 811.904 223.255 806.354L214.757 803.389C212.798 809.004 210.899 814.655 209.063 820.335L217.627 823.103ZM229.264 789.761C231.341 784.227 233.478 778.734 235.672 773.287L227.323 769.925C225.103 775.438 222.94 780.997 220.838 786.597L229.264 789.761ZM242.457 757.007C244.8 751.571 247.2 746.188 249.654 740.862L241.48 737.096C238.994 742.489 236.564 747.941 234.192 753.444L242.457 757.007ZM257.236 724.945C259.852 719.629 262.523 714.379 265.245 709.202L257.279 705.013C254.519 710.263 251.812 715.584 249.161 720.971L257.236 724.945ZM273.666 693.709C276.567 688.544 279.521 683.462 282.523 678.468L274.809 673.831C271.761 678.902 268.763 684.061 265.819 689.3L273.666 693.709ZM291.85 663.484C295.053 658.516 298.304 653.649 301.602 648.89L294.204 643.764C290.848 648.608 287.541 653.558 284.286 658.607L291.85 663.484ZM311.934 634.538C315.46 629.825 319.033 625.238 322.648 620.783L315.659 615.112C311.967 619.662 308.323 624.342 304.728 629.145L311.934 634.538ZM334.104 607.271C338.036 602.838 342.012 598.564 346.028 594.457L339.593 588.165C335.471 592.38 331.396 596.761 327.371 601.298L334.104 607.271ZM358.574 582.292C362.972 578.26 367.41 574.431 371.882 570.818L366.226 563.818C361.601 567.554 357.021 571.506 352.492 575.659L358.574 582.292ZM385.763 560.38C390.607 557.006 395.483 553.89 400.384 551.046L395.866 543.262C390.739 546.237 385.655 549.487 380.619 552.994L385.763 560.38ZM415.828 543.026C418.432 541.833 421.042 540.719 423.655 539.685L420.345 531.316C417.58 532.41 414.825 533.586 412.08 534.844L415.828 543.026ZM423.655 539.685C426.427 538.588 429.208 537.509 431.997 536.447L428.793 528.036C425.969 529.112 423.152 530.205 420.345 531.316L423.655 539.685ZM448.822 530.276C454.449 528.289 460.107 526.367 465.792 524.507L462.994 515.953C457.244 517.834 451.52 519.778 445.825 521.789L448.822 530.276ZM482.89 519.123C488.606 517.391 494.346 515.718 500.107 514.101L497.676 505.436C491.857 507.068 486.057 508.759 480.28 510.51L482.89 519.123ZM517.429 509.425C523.217 507.923 529.021 506.474 534.84 505.077L532.739 496.326C526.868 497.735 521.01 499.197 515.168 500.714L517.429 509.425ZM552.33 501.039C558.174 499.743 564.029 498.495 569.892 497.294L568.085 488.477C562.177 489.688 556.274 490.945 550.38 492.253L552.33 501.039ZM587.513 493.825C593.4 492.712 599.291 491.643 605.182 490.617L603.637 481.75C597.705 482.784 591.772 483.861 585.842 484.982L587.513 493.825ZM622.91 487.65C628.836 486.698 634.76 485.786 640.678 484.912L639.362 476.008C633.408 476.888 627.447 477.806 621.483 478.764L622.91 487.65ZM658.476 482.387C664.426 481.577 670.367 480.803 676.295 480.061L675.177 471.13C669.219 471.876 663.246 472.655 657.263 473.469L658.476 482.387ZM694.152 477.916C700.134 477.227 706.099 476.568 712.044 475.937L711.095 466.988C705.124 467.621 699.132 468.283 693.122 468.975L694.152 477.916ZM729.949 474.113C735.945 473.526 741.916 472.965 747.859 472.427L747.047 463.464C741.084 464.003 735.091 464.566 729.072 465.156L729.949 474.113ZM765.769 470.864C771.789 470.358 777.775 469.872 783.724 469.405L783.019 460.433C777.055 460.901 771.053 461.388 765.015 461.896L765.769 470.864ZM801.699 468.034C807.737 467.587 813.73 467.156 819.676 466.736L819.042 457.758C813.088 458.178 807.084 458.611 801.034 459.059L801.699 468.034ZM837.651 465.491C843.701 465.078 849.693 464.675 855.625 464.277L855.023 455.297C849.09 455.695 843.094 456.099 837.039 456.511L837.651 465.491ZM873.598 463.072C879.664 462.664 885.658 462.257 891.573 461.848L890.952 452.869C885.045 453.278 879.057 453.684 872.994 454.092L873.598 463.072ZM909.558 460.574C915.659 460.129 921.665 459.677 927.571 459.212L926.864 450.239C920.979 450.703 914.991 451.154 908.904 451.598L909.558 460.574ZM945.576 457.718C951.7 457.182 957.7 456.624 963.567 456.039L962.673 447.083C956.847 447.665 950.884 448.219 944.791 448.753L945.576 457.718ZM981.592 454.095C987.777 453.372 993.79 452.607 999.619 451.79L998.37 442.877C992.617 443.684 986.673 444.44 980.548 445.155L981.592 454.095ZM1017.6 448.991C1023.82 447.916 1029.78 446.76 1035.47 445.508L1033.54 436.718C1027.99 437.937 1022.17 439.068 1016.07 440.122L1017.6 448.991ZM1053.24 441.012C1056.24 440.135 1059.15 439.218 1061.96 438.258L1059.04 429.743C1056.38 430.655 1053.6 431.53 1050.72 432.372L1053.24 441.012Z" fill="#F24822"/>
<path d="M1146.5 -3096C1353.5 -2786.5 1306.79 -2393.11 991.501 -2112C627.045 -1787.05 24.5014 -931 381.501 -527C586.595 -294.905 829.478 -254.234 987.002 -109.676C1533 -109.676 1372 263.5 1074.5 431" stroke="#F24822" stroke-width="9" stroke-linecap="round" stroke-dasharray="18 18"/>
</g>
<rect x="664" y="751" width="189" height="83" rx="27" fill="#EEEEEE"/>
<rect x="664" y="751" width="189" height="83" rx="27" stroke="#789DB2" stroke-width="6" stroke-linecap="round" stroke-linejoin="round" stroke-dasharray="30 30"/>
<path d="M707.362 800.625C707.362 800.023 707.273 799.486 707.094 799.014C706.915 798.525 706.589 798.078 706.117 797.671C705.645 797.264 704.978 796.857 704.115 796.45C703.253 796.027 702.121 795.596 700.722 795.156C699.127 794.635 697.605 794.049 696.156 793.398C694.724 792.731 693.446 791.958 692.323 791.079C691.2 790.2 690.313 789.175 689.662 788.003C689.027 786.831 688.71 785.464 688.71 783.901C688.71 782.388 689.044 781.021 689.711 779.8C690.378 778.579 691.314 777.537 692.519 776.675C693.723 775.796 695.139 775.129 696.767 774.673C698.394 774.201 700.185 773.965 702.138 773.965C704.742 773.965 707.029 774.429 708.998 775.356C710.984 776.268 712.53 777.554 713.637 779.214C714.743 780.858 715.297 782.77 715.297 784.951H707.387C707.387 783.991 707.183 783.145 706.776 782.412C706.386 781.663 705.784 781.077 704.97 780.654C704.172 780.231 703.171 780.02 701.967 780.02C700.795 780.02 699.81 780.199 699.013 780.557C698.231 780.898 697.637 781.37 697.23 781.973C696.84 782.575 696.645 783.234 696.645 783.95C696.645 784.52 696.791 785.041 697.084 785.513C697.393 785.968 697.833 786.4 698.402 786.807C698.988 787.197 699.704 787.572 700.551 787.93C701.397 788.288 702.366 788.63 703.456 788.955C705.36 789.557 707.045 790.225 708.51 790.957C709.991 791.689 711.236 792.52 712.245 793.447C713.254 794.375 714.011 795.425 714.516 796.597C715.036 797.769 715.297 799.095 715.297 800.576C715.297 802.155 714.988 803.555 714.369 804.775C713.767 805.996 712.888 807.038 711.732 807.9C710.593 808.747 709.226 809.39 707.631 809.829C706.036 810.269 704.254 810.488 702.284 810.488C700.494 810.488 698.728 810.26 696.986 809.805C695.245 809.333 693.666 808.617 692.25 807.656C690.85 806.696 689.727 805.475 688.881 803.994C688.051 802.497 687.636 800.723 687.636 798.672H695.595C695.595 799.746 695.749 800.658 696.059 801.406C696.368 802.139 696.807 802.733 697.377 803.188C697.963 803.644 698.671 803.97 699.501 804.165C700.331 804.36 701.259 804.458 702.284 804.458C703.472 804.458 704.433 804.295 705.165 803.97C705.914 803.628 706.467 803.164 706.825 802.578C707.183 801.992 707.362 801.341 707.362 800.625ZM733.021 783.584V788.931H717.348V783.584H733.021ZM720.937 777.041H728.578V801.724C728.578 802.456 728.668 803.018 728.847 803.408C729.026 803.799 729.319 804.076 729.726 804.238C730.132 804.385 730.653 804.458 731.288 804.458C731.744 804.458 732.134 804.442 732.46 804.409C732.785 804.377 733.087 804.336 733.363 804.287V809.805C732.712 810.016 732.021 810.179 731.288 810.293C730.556 810.423 729.758 810.488 728.896 810.488C727.252 810.488 725.827 810.22 724.623 809.683C723.435 809.146 722.523 808.299 721.889 807.144C721.254 805.972 720.937 804.45 720.937 802.578V777.041ZM749.135 810.488C747.035 810.488 745.155 810.155 743.495 809.487C741.835 808.82 740.427 807.9 739.271 806.729C738.132 805.54 737.261 804.173 736.659 802.627C736.057 801.081 735.756 799.429 735.756 797.671V796.743C735.756 794.774 736.033 792.959 736.586 791.299C737.139 789.639 737.945 788.198 739.003 786.978C740.077 785.741 741.396 784.788 742.958 784.121C744.521 783.438 746.303 783.096 748.305 783.096C750.176 783.096 751.845 783.405 753.31 784.023C754.774 784.626 756.011 785.496 757.021 786.636C758.03 787.759 758.795 789.118 759.315 790.713C759.853 792.292 760.121 794.066 760.121 796.035V799.16H738.832V794.253H752.65V793.667C752.65 792.739 752.479 791.925 752.138 791.226C751.812 790.526 751.324 789.989 750.673 789.614C750.038 789.224 749.232 789.028 748.256 789.028C747.328 789.028 746.555 789.224 745.937 789.614C745.318 790.005 744.822 790.558 744.447 791.274C744.089 791.974 743.829 792.796 743.666 793.74C743.503 794.668 743.422 795.669 743.422 796.743V797.671C743.422 798.696 743.56 799.632 743.837 800.479C744.114 801.325 744.521 802.049 745.058 802.651C745.595 803.254 746.246 803.726 747.011 804.067C747.776 804.409 748.646 804.58 749.623 804.58C750.827 804.58 751.975 804.352 753.065 803.896C754.156 803.424 755.1 802.692 755.897 801.699L759.462 805.776C758.925 806.558 758.168 807.314 757.191 808.047C756.231 808.763 755.076 809.349 753.725 809.805C752.374 810.26 750.844 810.488 749.135 810.488ZM771.474 788.662V820.156H763.856V783.584H770.961L771.474 788.662ZM787.953 796.499V797.012C787.953 798.932 787.733 800.715 787.294 802.358C786.854 803.986 786.195 805.41 785.316 806.631C784.454 807.852 783.388 808.804 782.118 809.487C780.849 810.155 779.376 810.488 777.699 810.488C776.104 810.488 774.721 810.155 773.549 809.487C772.393 808.804 771.417 807.86 770.619 806.655C769.838 805.435 769.203 804.043 768.715 802.48C768.243 800.902 767.877 799.217 767.616 797.427V796.426C767.877 794.521 768.251 792.756 768.739 791.128C769.228 789.5 769.862 788.092 770.644 786.904C771.425 785.7 772.393 784.764 773.549 784.097C774.704 783.429 776.08 783.096 777.675 783.096C779.335 783.096 780.808 783.413 782.094 784.048C783.38 784.683 784.454 785.594 785.316 786.782C786.195 787.954 786.854 789.362 787.294 791.006C787.733 792.65 787.953 794.481 787.953 796.499ZM780.312 797.012V796.499C780.312 795.425 780.23 794.44 780.067 793.545C779.905 792.633 779.644 791.844 779.286 791.177C778.928 790.493 778.456 789.964 777.87 789.59C777.284 789.215 776.568 789.028 775.722 789.028C774.81 789.028 774.037 789.175 773.402 789.468C772.768 789.761 772.255 790.192 771.864 790.762C771.474 791.315 771.189 791.999 771.01 792.812C770.847 793.626 770.757 794.554 770.741 795.596V798.281C770.757 799.502 770.928 800.592 771.254 801.553C771.596 802.497 772.125 803.237 772.841 803.774C773.573 804.295 774.55 804.556 775.771 804.556C776.633 804.556 777.349 804.368 777.919 803.994C778.505 803.604 778.969 803.058 779.311 802.358C779.669 801.659 779.921 800.853 780.067 799.941C780.23 799.03 780.312 798.053 780.312 797.012ZM829.335 796.426V802.334H803.749L803.334 797.695L817.885 774.453H823.915L817.372 785.293L810.756 796.426H829.335ZM825.526 774.453V810H817.909V774.453H825.526Z" fill="#223D4D"/>
<path fill-rule="evenodd" clip-rule="evenodd" d="M664.98 735.852C666.196 737.432 666.829 739.383 666.772 741.376C666.715 743.369 665.971 745.281 664.666 746.788L680.593 767.486C680.873 767.85 680.997 768.31 680.938 768.765C680.878 769.219 680.641 769.632 680.277 769.912C679.914 770.192 679.454 770.315 678.999 770.256C678.544 770.197 678.131 769.959 677.852 769.596L661.924 748.898C660.454 749.616 658.81 749.903 657.184 749.724C655.557 749.545 654.015 748.909 652.736 747.889C651.456 746.869 650.493 745.507 649.957 743.961C649.421 742.415 649.334 740.748 649.708 739.155C650.081 737.562 650.898 736.107 652.065 734.96C653.232 733.813 654.7 733.021 656.3 732.675C657.899 732.329 659.564 732.444 661.1 733.006C662.637 733.569 663.982 734.556 664.98 735.852Z" fill="#3E5C6D"/>
<path fill-rule="evenodd" clip-rule="evenodd" d="M853.151 735.852C851.934 737.432 851.301 739.383 851.359 741.376C851.416 743.369 852.16 745.281 853.465 746.788L837.538 767.486C837.258 767.85 837.134 768.31 837.193 768.765C837.253 769.219 837.49 769.632 837.854 769.912C838.217 770.192 838.677 770.315 839.132 770.256C839.587 770.197 839.999 769.959 840.279 769.596L856.207 748.898C857.677 749.616 859.32 749.903 860.947 749.724C862.573 749.545 864.116 748.909 865.395 747.889C866.674 746.869 867.638 745.507 868.174 743.961C868.71 742.415 868.796 740.748 868.423 739.155C868.05 737.562 867.233 736.107 866.066 734.96C864.899 733.813 863.43 733.021 861.831 732.675C860.232 732.329 858.567 732.444 857.031 733.006C855.494 733.569 854.149 734.556 853.151 735.852Z" fill="#3E5C6D"/>
<line x1="0.5" y1="778" x2="0.5" y2="793" stroke="black"/>
<line x1="1511.5" y1="776" x2="1511.5" y2="791" stroke="black"/>
<defs>
<clipPath id="clip0_182_184">
<rect width="1512" height="900" fill="white"/>
</clipPath>
</defs>
</svg>
