<svg width="1512" height="734" viewBox="0 0 1512 734" fill="none" xmlns="http://www.w3.org/2000/svg">
<g clip-path="url(#clip0_181_174)">
<path d="M1146.5 -355C1353.5 -45.5 1306.79 347.887 991.501 629C627.045 953.947 24.5014 1810 381.501 2214C586.595 2446.09 829.478 2486.77 987.002 2631.32C1533 2631.32 1372 3004.5 1074.5 3172" stroke="#F24822" stroke-width="9" stroke-linecap="round" stroke-dasharray="18 18"/>
</g>
<rect x="662.437" y="594" width="189.129" height="83" rx="27" fill="#EEEEEE"/>
<rect x="662.437" y="594" width="189.129" height="83" rx="27" stroke="#789DB2" stroke-width="6" stroke-linecap="round" stroke-linejoin="round" stroke-dasharray="30 30"/>
<path d="M705.863 643.625C705.863 643.023 705.774 642.486 705.595 642.014C705.416 641.525 705.09 641.078 704.618 640.671C704.146 640.264 703.479 639.857 702.616 639.45C701.754 639.027 700.622 638.596 699.223 638.156C697.628 637.635 696.106 637.049 694.657 636.398C693.225 635.731 691.947 634.958 690.824 634.079C689.701 633.2 688.814 632.175 688.163 631.003C687.528 629.831 687.211 628.464 687.211 626.901C687.211 625.388 687.545 624.021 688.212 622.8C688.879 621.579 689.815 620.537 691.02 619.675C692.224 618.796 693.64 618.129 695.268 617.673C696.895 617.201 698.686 616.965 700.639 616.965C703.243 616.965 705.53 617.429 707.499 618.356C709.485 619.268 711.031 620.554 712.138 622.214C713.244 623.858 713.798 625.77 713.798 627.951H705.888C705.888 626.991 705.684 626.145 705.277 625.412C704.887 624.663 704.285 624.077 703.471 623.654C702.673 623.231 701.672 623.02 700.468 623.02C699.296 623.02 698.311 623.199 697.514 623.557C696.732 623.898 696.138 624.37 695.731 624.973C695.341 625.575 695.146 626.234 695.146 626.95C695.146 627.52 695.292 628.041 695.585 628.513C695.894 628.968 696.334 629.4 696.903 629.807C697.489 630.197 698.205 630.572 699.052 630.93C699.898 631.288 700.867 631.63 701.957 631.955C703.861 632.557 705.546 633.225 707.011 633.957C708.492 634.689 709.737 635.52 710.746 636.447C711.755 637.375 712.512 638.425 713.017 639.597C713.537 640.769 713.798 642.095 713.798 643.576C713.798 645.155 713.489 646.555 712.87 647.775C712.268 648.996 711.389 650.038 710.233 650.9C709.094 651.747 707.727 652.39 706.132 652.829C704.537 653.269 702.755 653.488 700.785 653.488C698.995 653.488 697.229 653.26 695.487 652.805C693.746 652.333 692.167 651.617 690.751 650.656C689.351 649.696 688.228 648.475 687.382 646.994C686.552 645.497 686.137 643.723 686.137 641.672H694.096C694.096 642.746 694.25 643.658 694.56 644.406C694.869 645.139 695.308 645.733 695.878 646.188C696.464 646.644 697.172 646.97 698.002 647.165C698.832 647.36 699.76 647.458 700.785 647.458C701.973 647.458 702.934 647.295 703.666 646.97C704.415 646.628 704.968 646.164 705.326 645.578C705.684 644.992 705.863 644.341 705.863 643.625ZM731.522 626.584V631.931H715.849V626.584H731.522ZM719.438 620.041H727.079V644.724C727.079 645.456 727.169 646.018 727.348 646.408C727.527 646.799 727.82 647.076 728.227 647.238C728.633 647.385 729.154 647.458 729.789 647.458C730.245 647.458 730.635 647.442 730.961 647.409C731.286 647.377 731.588 647.336 731.864 647.287V652.805C731.213 653.016 730.521 653.179 729.789 653.293C729.057 653.423 728.259 653.488 727.396 653.488C725.753 653.488 724.328 653.22 723.124 652.683C721.936 652.146 721.024 651.299 720.39 650.144C719.755 648.972 719.438 647.45 719.438 645.578V620.041ZM747.636 653.488C745.536 653.488 743.656 653.155 741.996 652.487C740.336 651.82 738.928 650.9 737.772 649.729C736.633 648.54 735.762 647.173 735.16 645.627C734.558 644.081 734.257 642.429 734.257 640.671V639.743C734.257 637.774 734.534 635.959 735.087 634.299C735.64 632.639 736.446 631.198 737.504 629.978C738.578 628.741 739.896 627.788 741.459 627.121C743.021 626.438 744.804 626.096 746.806 626.096C748.677 626.096 750.346 626.405 751.811 627.023C753.275 627.626 754.512 628.496 755.521 629.636C756.531 630.759 757.296 632.118 757.816 633.713C758.354 635.292 758.622 637.066 758.622 639.035V642.16H737.333V637.253H751.151V636.667C751.151 635.739 750.98 634.925 750.639 634.226C750.313 633.526 749.825 632.989 749.174 632.614C748.539 632.224 747.733 632.028 746.757 632.028C745.829 632.028 745.056 632.224 744.438 632.614C743.819 633.005 743.323 633.558 742.948 634.274C742.59 634.974 742.33 635.796 742.167 636.74C742.004 637.668 741.923 638.669 741.923 639.743V640.671C741.923 641.696 742.061 642.632 742.338 643.479C742.615 644.325 743.021 645.049 743.559 645.651C744.096 646.254 744.747 646.726 745.512 647.067C746.277 647.409 747.147 647.58 748.124 647.58C749.328 647.58 750.476 647.352 751.566 646.896C752.657 646.424 753.601 645.692 754.398 644.699L757.963 648.776C757.426 649.558 756.669 650.314 755.692 651.047C754.732 651.763 753.576 652.349 752.226 652.805C750.875 653.26 749.345 653.488 747.636 653.488ZM769.975 631.662V663.156H762.357V626.584H769.462L769.975 631.662ZM786.454 639.499V640.012C786.454 641.932 786.234 643.715 785.795 645.358C785.355 646.986 784.696 648.41 783.817 649.631C782.955 650.852 781.889 651.804 780.619 652.487C779.35 653.155 777.877 653.488 776.2 653.488C774.605 653.488 773.222 653.155 772.05 652.487C770.894 651.804 769.918 650.86 769.12 649.655C768.339 648.435 767.704 647.043 767.216 645.48C766.744 643.902 766.378 642.217 766.117 640.427V639.426C766.378 637.521 766.752 635.756 767.24 634.128C767.729 632.5 768.363 631.092 769.145 629.904C769.926 628.7 770.894 627.764 772.05 627.097C773.205 626.429 774.581 626.096 776.176 626.096C777.836 626.096 779.309 626.413 780.595 627.048C781.881 627.683 782.955 628.594 783.817 629.782C784.696 630.954 785.355 632.362 785.795 634.006C786.234 635.65 786.454 637.481 786.454 639.499ZM778.812 640.012V639.499C778.812 638.425 778.731 637.44 778.568 636.545C778.406 635.633 778.145 634.844 777.787 634.177C777.429 633.493 776.957 632.964 776.371 632.59C775.785 632.215 775.069 632.028 774.223 632.028C773.311 632.028 772.538 632.175 771.903 632.468C771.269 632.761 770.756 633.192 770.365 633.762C769.975 634.315 769.69 634.999 769.511 635.812C769.348 636.626 769.258 637.554 769.242 638.596V641.281C769.258 642.502 769.429 643.592 769.755 644.553C770.097 645.497 770.626 646.237 771.342 646.774C772.074 647.295 773.051 647.556 774.271 647.556C775.134 647.556 775.85 647.368 776.42 646.994C777.006 646.604 777.47 646.058 777.812 645.358C778.17 644.659 778.422 643.853 778.568 642.941C778.731 642.03 778.812 641.053 778.812 640.012ZM827.299 647.067V653H802.738V647.971L814.213 635.812C815.287 634.576 816.142 633.485 816.776 632.541C817.427 631.597 817.899 630.743 818.192 629.978C818.485 629.196 818.632 628.48 818.632 627.829C818.632 626.771 818.461 625.876 818.119 625.144C817.794 624.411 817.313 623.85 816.679 623.459C816.044 623.068 815.271 622.873 814.359 622.873C813.383 622.873 812.545 623.125 811.845 623.63C811.145 624.134 810.608 624.834 810.233 625.729C809.859 626.608 809.672 627.609 809.672 628.732H802.006C802.006 626.568 802.527 624.598 803.568 622.824C804.61 621.034 806.067 619.61 807.938 618.552C809.81 617.478 811.999 616.94 814.506 616.94C817.077 616.94 819.234 617.347 820.976 618.161C822.717 618.975 824.035 620.139 824.931 621.652C825.826 623.166 826.273 624.989 826.273 627.121C826.273 628.326 826.078 629.489 825.688 630.612C825.313 631.735 824.768 632.85 824.052 633.957C823.336 635.064 822.473 636.195 821.464 637.351C820.455 638.49 819.315 639.694 818.046 640.964L812.675 647.067H827.299Z" fill="#223D4D"/>
<path fill-rule="evenodd" clip-rule="evenodd" d="M852.714 578.852C851.497 580.432 850.864 582.383 850.921 584.376C850.978 586.369 851.723 588.281 853.029 589.788L837.091 610.486C836.811 610.85 836.687 611.31 836.746 611.765C836.806 612.219 837.043 612.632 837.407 612.912C837.771 613.192 838.231 613.315 838.686 613.256C839.141 613.197 839.554 612.959 839.834 612.596L855.772 591.898C857.243 592.616 858.888 592.903 860.516 592.724C862.143 592.545 863.687 591.909 864.967 590.889C866.247 589.869 867.211 588.507 867.748 586.961C868.284 585.415 868.37 583.748 867.997 582.155C867.624 580.562 866.805 579.107 865.638 577.96C864.47 576.813 863.001 576.021 861.4 575.675C859.8 575.329 858.134 575.444 856.597 576.006C855.059 576.569 853.713 577.556 852.714 578.852Z" fill="#3E5C6D"/>
<path fill-rule="evenodd" clip-rule="evenodd" d="M662.419 578.852C663.636 580.432 664.269 582.383 664.212 584.376C664.154 586.369 663.41 588.281 662.104 589.788L678.042 610.486C678.322 610.85 678.446 611.31 678.386 611.765C678.327 612.219 678.09 612.632 677.726 612.912C677.362 613.192 676.902 613.315 676.447 613.256C675.992 613.197 675.579 612.959 675.299 612.596L659.361 591.898C657.89 592.616 656.245 592.903 654.617 592.724C652.99 592.545 651.446 591.909 650.166 590.889C648.886 589.869 647.922 588.507 647.385 586.961C646.849 585.415 646.762 583.748 647.136 582.155C647.509 580.562 648.327 579.107 649.495 577.96C650.663 576.813 652.132 576.021 653.732 575.675C655.333 575.329 656.998 575.444 658.536 576.006C660.074 576.569 661.42 577.556 662.419 578.852Z" fill="#3E5C6D"/>
<line x1="0.5" y1="635" x2="0.5" y2="650" stroke="black"/>
<defs>
<clipPath id="clip0_181_174">
<rect width="1511" height="734" fill="white" transform="translate(1.00098)"/>
</clipPath>
</defs>
</svg>
