<svg width="390" height="685" viewBox="0 0 390 685" fill="none" xmlns="http://www.w3.org/2000/svg">
<g clip-path="url(#clip0_221_468)">
<path d="M323.397 -1666C390.273 -1495.36 375.183 -1278.47 273.321 -1123.48C155.576 -944.324 -39.0887 -472.347 76.2478 -249.605C191.584 -26.8636 369.5 -18.5 362.5 330.5C345.5 459 267.2 641.5 77.9998 727.5C-111.2 813.5 85.1664 879.333 207 901.5" stroke="#F24822" stroke-width="3" stroke-linecap="round" stroke-dasharray="4.64 4.64"/>
</g>
<rect x="144.774" y="589.087" width="98.3492" height="41.1905" rx="6.96429" fill="#EEEEEE"/>
<rect x="144.774" y="589.087" width="98.3492" height="41.1905" rx="6.96429" stroke="#789DB2" stroke-width="1.54762" stroke-linecap="round" stroke-linejoin="round" stroke-dasharray="7.74 7.74"/>
<path d="M163.267 614.558C163.267 614.196 163.213 613.874 163.105 613.591C162.998 613.298 162.803 613.029 162.52 612.785C162.236 612.541 161.836 612.297 161.318 612.053C160.801 611.799 160.122 611.54 159.282 611.276C158.325 610.964 157.412 610.612 156.543 610.222C155.684 609.821 154.917 609.357 154.243 608.83C153.569 608.303 153.037 607.688 152.646 606.984C152.266 606.281 152.075 605.461 152.075 604.523C152.075 603.615 152.275 602.795 152.676 602.062C153.076 601.33 153.638 600.705 154.36 600.188C155.083 599.66 155.933 599.26 156.909 598.986C157.886 598.703 158.96 598.562 160.132 598.562C161.694 598.562 163.066 598.84 164.248 599.396C165.439 599.943 166.367 600.715 167.031 601.711C167.695 602.697 168.027 603.845 168.027 605.153H163.281C163.281 604.577 163.159 604.069 162.915 603.63C162.681 603.181 162.319 602.829 161.831 602.575C161.353 602.321 160.752 602.194 160.029 602.194C159.326 602.194 158.735 602.302 158.257 602.517C157.788 602.722 157.432 603.005 157.188 603.366C156.953 603.728 156.836 604.123 156.836 604.553C156.836 604.895 156.924 605.207 157.1 605.49C157.285 605.764 157.549 606.022 157.891 606.267C158.242 606.501 158.672 606.726 159.18 606.94C159.688 607.155 160.269 607.36 160.923 607.556C162.065 607.917 163.076 608.317 163.955 608.757C164.844 609.196 165.591 609.694 166.196 610.251C166.802 610.808 167.256 611.438 167.559 612.141C167.871 612.844 168.027 613.64 168.027 614.528C168.027 615.476 167.842 616.315 167.471 617.048C167.109 617.78 166.582 618.405 165.889 618.923C165.205 619.431 164.385 619.816 163.428 620.08C162.471 620.344 161.401 620.476 160.22 620.476C159.146 620.476 158.086 620.339 157.041 620.065C155.996 619.782 155.049 619.353 154.199 618.776C153.359 618.2 152.686 617.468 152.178 616.579C151.68 615.681 151.431 614.616 151.431 613.386H156.206C156.206 614.03 156.299 614.577 156.484 615.026C156.67 615.466 156.934 615.822 157.275 616.096C157.627 616.369 158.052 616.564 158.55 616.682C159.048 616.799 159.604 616.857 160.22 616.857C160.933 616.857 161.509 616.76 161.948 616.564C162.397 616.359 162.729 616.081 162.944 615.729C163.159 615.378 163.267 614.987 163.267 614.558ZM178.662 604.333V607.541H169.258V604.333H178.662ZM171.411 600.407H175.996V615.217C175.996 615.656 176.05 615.993 176.157 616.228C176.265 616.462 176.44 616.628 176.685 616.726C176.929 616.813 177.241 616.857 177.622 616.857C177.896 616.857 178.13 616.848 178.325 616.828C178.521 616.809 178.701 616.784 178.867 616.755V620.065C178.477 620.192 178.062 620.29 177.622 620.358C177.183 620.437 176.704 620.476 176.187 620.476C175.2 620.476 174.346 620.314 173.623 619.992C172.91 619.67 172.363 619.162 171.982 618.469C171.602 617.766 171.411 616.853 171.411 615.729V600.407ZM188.33 620.476C187.07 620.476 185.942 620.275 184.946 619.875C183.95 619.475 183.105 618.923 182.412 618.22C181.729 617.507 181.206 616.687 180.845 615.759C180.483 614.831 180.303 613.84 180.303 612.785V612.229C180.303 611.047 180.469 609.958 180.801 608.962C181.133 607.966 181.616 607.102 182.251 606.369C182.896 605.627 183.687 605.056 184.624 604.655C185.562 604.245 186.631 604.04 187.832 604.04C188.955 604.04 189.956 604.226 190.835 604.597C191.714 604.958 192.456 605.48 193.062 606.164C193.667 606.838 194.126 607.653 194.438 608.61C194.761 609.558 194.922 610.622 194.922 611.804V613.679H182.148V610.734H190.439V610.383C190.439 609.826 190.337 609.338 190.132 608.918C189.937 608.498 189.644 608.176 189.253 607.951C188.872 607.717 188.389 607.6 187.803 607.6C187.246 607.6 186.782 607.717 186.411 607.951C186.04 608.186 185.742 608.518 185.518 608.947C185.303 609.367 185.146 609.86 185.049 610.427C184.951 610.983 184.902 611.584 184.902 612.229V612.785C184.902 613.4 184.985 613.962 185.151 614.47C185.317 614.978 185.562 615.412 185.884 615.773C186.206 616.135 186.597 616.418 187.056 616.623C187.515 616.828 188.037 616.931 188.623 616.931C189.346 616.931 190.034 616.794 190.688 616.521C191.343 616.237 191.909 615.798 192.388 615.202L194.526 617.648C194.204 618.117 193.75 618.571 193.164 619.011C192.588 619.44 191.895 619.792 191.084 620.065C190.273 620.339 189.355 620.476 188.33 620.476ZM201.733 607.38V626.276H197.163V604.333H201.426L201.733 607.38ZM211.621 612.082V612.39C211.621 613.542 211.489 614.611 211.226 615.598C210.962 616.574 210.566 617.429 210.039 618.161C209.521 618.894 208.882 619.465 208.12 619.875C207.358 620.275 206.475 620.476 205.469 620.476C204.512 620.476 203.682 620.275 202.979 619.875C202.285 619.465 201.699 618.898 201.221 618.176C200.752 617.443 200.371 616.608 200.078 615.671C199.795 614.724 199.575 613.713 199.419 612.639V612.038C199.575 610.896 199.8 609.836 200.093 608.859C200.386 607.883 200.767 607.038 201.235 606.325C201.704 605.603 202.285 605.041 202.979 604.641C203.672 604.24 204.497 604.04 205.454 604.04C206.45 604.04 207.334 604.23 208.105 604.611C208.877 604.992 209.521 605.539 210.039 606.252C210.566 606.955 210.962 607.8 211.226 608.786C211.489 609.772 211.621 610.871 211.621 612.082ZM207.036 612.39V612.082C207.036 611.438 206.987 610.847 206.89 610.31C206.792 609.763 206.636 609.289 206.421 608.889C206.206 608.479 205.923 608.161 205.571 607.937C205.22 607.712 204.79 607.6 204.282 607.6C203.735 607.6 203.271 607.688 202.891 607.863C202.51 608.039 202.202 608.298 201.968 608.64C201.733 608.972 201.562 609.382 201.455 609.87C201.357 610.358 201.304 610.915 201.294 611.54V613.151C201.304 613.884 201.406 614.538 201.602 615.114C201.807 615.681 202.124 616.125 202.554 616.447C202.993 616.76 203.579 616.916 204.312 616.916C204.829 616.916 205.259 616.804 205.601 616.579C205.952 616.345 206.23 616.018 206.436 615.598C206.65 615.178 206.802 614.694 206.89 614.147C206.987 613.601 207.036 613.015 207.036 612.39ZM236.45 612.038V615.583H221.099L220.85 612.8L229.58 598.854H233.198L229.272 605.358L225.303 612.038H236.45ZM234.165 598.854V620.183H229.595V598.854H234.165Z" fill="#223D4D"/>
<path fill-rule="evenodd" clip-rule="evenodd" d="M144.625 581.114C145.178 581.832 145.466 582.719 145.44 583.624C145.414 584.53 145.075 585.399 144.482 586.084L151.721 595.49C151.848 595.655 151.904 595.864 151.877 596.071C151.85 596.277 151.742 596.465 151.577 596.592C151.412 596.719 151.203 596.775 150.996 596.749C150.789 596.722 150.602 596.614 150.475 596.448L143.237 587.042C142.569 587.369 141.822 587.499 141.082 587.418C140.343 587.337 139.642 587.048 139.061 586.584C138.48 586.12 138.042 585.501 137.798 584.799C137.555 584.096 137.515 583.339 137.685 582.615C137.854 581.891 138.226 581.23 138.756 580.709C139.287 580.187 139.954 579.827 140.681 579.67C141.407 579.513 142.164 579.565 142.862 579.821C143.56 580.076 144.172 580.525 144.625 581.114Z" fill="#3E5C6D"/>
<path fill-rule="evenodd" clip-rule="evenodd" d="M244.066 581.114C243.513 581.832 243.226 582.719 243.252 583.624C243.278 584.53 243.616 585.399 244.209 586.084L236.971 595.49C236.844 595.655 236.787 595.864 236.814 596.071C236.841 596.277 236.949 596.465 237.114 596.592C237.28 596.719 237.489 596.775 237.695 596.749C237.902 596.722 238.09 596.614 238.217 596.448L245.455 587.042C246.123 587.369 246.87 587.499 247.609 587.418C248.348 587.337 249.049 587.048 249.63 586.584C250.212 586.12 250.65 585.501 250.893 584.799C251.137 584.096 251.176 583.339 251.007 582.615C250.837 581.891 250.465 581.23 249.935 580.709C249.405 580.187 248.738 579.827 248.011 579.67C247.284 579.513 246.528 579.565 245.829 579.821C245.131 580.076 244.52 580.525 244.066 581.114Z" fill="#3E5C6D"/>
<line x1="388.5" y1="599" x2="388.5" y2="614" stroke="white"/>
<defs>
<clipPath id="clip0_221_468">
<rect width="390" height="685" fill="white"/>
</clipPath>
</defs>
</svg>
