<svg width="390" height="54" viewBox="0 0 390 54" fill="none" xmlns="http://www.w3.org/2000/svg">
<rect x="145.774" y="11.2457" width="98.3492" height="41.1905" rx="6.96429" fill="#EEEEEE"/>
<rect x="145.774" y="11.2457" width="98.3492" height="41.1905" rx="6.96429" stroke="#789DB2" stroke-width="1.54762" stroke-linecap="round" stroke-linejoin="round" stroke-dasharray="7.74 7.74"/>
<path d="M164.266 36.7159C164.266 36.3546 164.212 36.0323 164.104 35.7491C163.997 35.4562 163.802 35.1876 163.519 34.9435C163.235 34.6993 162.835 34.4552 162.317 34.2111C161.8 33.9572 161.121 33.6984 160.281 33.4347C159.324 33.1222 158.411 32.7706 157.542 32.38C156.683 31.9796 155.916 31.5157 155.242 30.9884C154.568 30.4611 154.036 29.8458 153.646 29.1427C153.265 28.4396 153.074 27.6193 153.074 26.6818C153.074 25.7736 153.274 24.9532 153.675 24.2208C154.075 23.4884 154.637 22.8634 155.359 22.3458C156.082 21.8185 156.932 21.4181 157.908 21.1447C158.885 20.8615 159.959 20.7198 161.131 20.7198C162.693 20.7198 164.065 20.9982 165.247 21.5548C166.438 22.1017 167.366 22.8732 168.03 23.8693C168.694 24.8556 169.026 26.0031 169.026 27.3116H164.28C164.28 26.7355 164.158 26.2277 163.914 25.7882C163.68 25.339 163.318 24.9874 162.83 24.7335C162.352 24.4796 161.751 24.3527 161.028 24.3527C160.325 24.3527 159.734 24.4601 159.256 24.6749C158.787 24.88 158.431 25.1632 158.187 25.5245C157.952 25.8859 157.835 26.2814 157.835 26.7111C157.835 27.0529 157.923 27.3654 158.099 27.6486C158.284 27.922 158.548 28.1808 158.89 28.4249C159.241 28.6593 159.671 28.8839 160.179 29.0988C160.687 29.3136 161.268 29.5187 161.922 29.714C163.064 30.0753 164.075 30.4757 164.954 30.9152C165.843 31.3546 166.59 31.8527 167.195 32.4093C167.801 32.9659 168.255 33.5958 168.558 34.299C168.87 35.0021 169.026 35.798 169.026 36.6866C169.026 37.6339 168.841 38.4738 168.47 39.2062C168.108 39.9386 167.581 40.5636 166.888 41.0812C166.204 41.589 165.384 41.9747 164.427 42.2384C163.47 42.5021 162.4 42.6339 161.219 42.6339C160.145 42.6339 159.085 42.4972 158.04 42.2238C156.995 41.9406 156.048 41.5109 155.198 40.9347C154.358 40.3585 153.685 39.6261 153.177 38.7374C152.679 37.839 152.43 36.7745 152.43 35.5441H157.205C157.205 36.1886 157.298 36.7355 157.483 37.1847C157.669 37.6241 157.933 37.9806 158.274 38.254C158.626 38.5275 159.051 38.7228 159.549 38.84C160.047 38.9572 160.604 39.0157 161.219 39.0157C161.932 39.0157 162.508 38.9181 162.947 38.7228C163.396 38.5177 163.729 38.2394 163.943 37.8878C164.158 37.5363 164.266 37.1456 164.266 36.7159ZM179.661 26.4913V29.6993H170.257V26.4913H179.661ZM172.41 22.5656H176.995V37.3751C176.995 37.8146 177.049 38.1515 177.156 38.3859C177.264 38.6202 177.439 38.7863 177.684 38.8839C177.928 38.9718 178.24 39.0157 178.621 39.0157C178.895 39.0157 179.129 39.006 179.324 38.9865C179.52 38.9669 179.7 38.9425 179.866 38.9132V42.2238C179.476 42.3507 179.061 42.4484 178.621 42.5167C178.182 42.5948 177.703 42.6339 177.186 42.6339C176.199 42.6339 175.345 42.4728 174.622 42.1505C173.909 41.8282 173.362 41.3204 172.981 40.6271C172.601 39.924 172.41 39.0109 172.41 37.8878V22.5656ZM189.329 42.6339C188.069 42.6339 186.941 42.4337 185.945 42.0333C184.949 41.6329 184.104 41.0812 183.411 40.3781C182.728 39.6652 182.205 38.8448 181.844 37.9171C181.482 36.9894 181.302 35.9982 181.302 34.9435V34.3868C181.302 33.2052 181.468 32.1163 181.8 31.1202C182.132 30.1241 182.615 29.2599 183.25 28.5275C183.895 27.7853 184.686 27.214 185.623 26.8136C186.561 26.4034 187.63 26.1984 188.831 26.1984C189.954 26.1984 190.955 26.3839 191.834 26.755C192.713 27.1163 193.455 27.6388 194.061 28.3224C194.666 28.9962 195.125 29.8116 195.438 30.7687C195.76 31.7159 195.921 32.7804 195.921 33.962V35.837H183.147V32.8927H191.438V32.5411C191.438 31.9845 191.336 31.4962 191.131 31.0763C190.936 30.6564 190.643 30.3341 190.252 30.1095C189.871 29.8751 189.388 29.7579 188.802 29.7579C188.245 29.7579 187.781 29.8751 187.41 30.1095C187.039 30.3439 186.741 30.6759 186.517 31.1056C186.302 31.5255 186.146 32.0187 186.048 32.5851C185.95 33.1417 185.901 33.7423 185.901 34.3868V34.9435C185.901 35.5587 185.984 36.1202 186.15 36.6281C186.316 37.1359 186.561 37.5704 186.883 37.9318C187.205 38.2931 187.596 38.5763 188.055 38.7814C188.514 38.9865 189.036 39.089 189.622 39.089C190.345 39.089 191.033 38.9523 191.688 38.6788C192.342 38.3956 192.908 37.9562 193.387 37.3605L195.525 39.8068C195.203 40.2755 194.749 40.7296 194.163 41.1691C193.587 41.5988 192.894 41.9503 192.083 42.2238C191.272 42.4972 190.354 42.6339 189.329 42.6339ZM202.732 29.5382V48.4347H198.162V26.4913H202.425L202.732 29.5382ZM212.62 34.2404V34.548C212.62 35.7003 212.488 36.7697 212.225 37.756C211.961 38.7325 211.565 39.587 211.038 40.3195C210.521 41.0519 209.881 41.6232 209.119 42.0333C208.357 42.4337 207.474 42.6339 206.468 42.6339C205.511 42.6339 204.681 42.4337 203.978 42.0333C203.284 41.6232 202.698 41.0568 202.22 40.3341C201.751 39.6017 201.37 38.7667 201.077 37.8292C200.794 36.882 200.574 35.8712 200.418 34.797V34.1964C200.574 33.0538 200.799 31.9943 201.092 31.0177C201.385 30.0411 201.766 29.1964 202.234 28.4835C202.703 27.7609 203.284 27.1993 203.978 26.799C204.671 26.3986 205.496 26.1984 206.453 26.1984C207.449 26.1984 208.333 26.3888 209.104 26.7697C209.876 27.1505 210.521 27.6974 211.038 28.4103C211.565 29.1134 211.961 29.9581 212.225 30.9445C212.488 31.9308 212.62 33.0294 212.62 34.2404ZM208.035 34.548V34.2404C208.035 33.5958 207.986 33.005 207.889 32.4679C207.791 31.921 207.635 31.4474 207.42 31.047C207.205 30.6368 206.922 30.3195 206.57 30.0948C206.219 29.8702 205.789 29.7579 205.281 29.7579C204.734 29.7579 204.271 29.8458 203.89 30.0216C203.509 30.1974 203.201 30.4562 202.967 30.798C202.732 31.13 202.562 31.5402 202.454 32.0284C202.356 32.5167 202.303 33.0734 202.293 33.6984V35.3097C202.303 36.0421 202.405 36.6964 202.601 37.2726C202.806 37.839 203.123 38.2833 203.553 38.6056C203.992 38.9181 204.578 39.0743 205.311 39.0743C205.828 39.0743 206.258 38.962 206.6 38.7374C206.951 38.5031 207.229 38.1759 207.435 37.756C207.649 37.3361 207.801 36.8527 207.889 36.3058C207.986 35.7589 208.035 35.173 208.035 34.548ZM232.996 20.9982V42.3409H228.411V26.213L223.46 27.7218V24.1769L232.542 20.9982H232.996Z" fill="#223D4D"/>
<line x1="0.5" y1="36" x2="0.5" y2="51" stroke="white"/>
<line x1="389.5" y1="34" x2="389.5" y2="49" stroke="white"/>
<path fill-rule="evenodd" clip-rule="evenodd" d="M144.625 3.11403C145.178 3.83193 145.466 4.71872 145.44 5.62433C145.414 6.52994 145.075 7.39874 144.482 8.0837L151.721 17.4898C151.848 17.655 151.904 17.8639 151.877 18.0707C151.85 18.2774 151.742 18.4649 151.577 18.592C151.412 18.7192 151.203 18.7755 150.996 18.7485C150.789 18.7216 150.602 18.6137 150.475 18.4485L143.237 9.04237C142.569 9.36882 141.822 9.49904 141.082 9.41789C140.343 9.33675 139.642 9.04758 139.061 8.58396C138.48 8.12035 138.042 7.50132 137.798 6.79877C137.555 6.09622 137.515 5.33898 137.685 4.615C137.854 3.89102 138.226 3.23001 138.756 2.70874C139.287 2.18747 139.954 1.82733 140.681 1.67016C141.407 1.51299 142.164 1.56522 142.862 1.8208C143.56 2.07638 144.172 2.52482 144.625 3.11403Z" fill="#3E5C6D"/>
<path fill-rule="evenodd" clip-rule="evenodd" d="M245.066 3.11403C244.513 3.83193 244.226 4.71872 244.252 5.62433C244.278 6.52994 244.616 7.39874 245.209 8.0837L237.971 17.4898C237.844 17.655 237.787 17.8639 237.814 18.0707C237.841 18.2774 237.949 18.4649 238.114 18.592C238.28 18.7192 238.489 18.7755 238.695 18.7485C238.902 18.7216 239.09 18.6137 239.217 18.4485L246.455 9.04237C247.123 9.36882 247.87 9.49904 248.609 9.41789C249.348 9.33675 250.049 9.04758 250.63 8.58396C251.212 8.12035 251.65 7.50132 251.893 6.79877C252.137 6.09622 252.176 5.33898 252.007 4.615C251.837 3.89102 251.465 3.23001 250.935 2.70874C250.405 2.18747 249.738 1.82733 249.011 1.67016C248.284 1.51299 247.528 1.56522 246.829 1.8208C246.131 2.07638 245.52 2.52482 245.066 3.11403Z" fill="#3E5C6D"/>
</svg>
