<svg width="390" height="466" viewBox="0 0 390 466" fill="none" xmlns="http://www.w3.org/2000/svg">
<g clip-path="url(#clip0_181_181)">
<path d="M402.71 107.674C442.88 145.689 504.496 176.669 517.005 216.819C529.028 257.147 491.791 306.978 449.232 337.773C406.673 368.568 358.792 380.326 322.107 421.118C285.755 462.064 260.931 532.197 225.854 544.231C190.445 556.111 145.114 510.047 95.3774 481.339C45.4619 452.145 -8.55188 439.642 -23.3501 405.302C-38.4809 370.808 -13.9093 314.299 -21.2985 258.74C-28.5092 203.668 -67.8348 149.878 -68.8305 99.7071C-70.1588 49.3818 -33.4898 2.52054 14.9348 -13.0276C63.0268 -28.7298 122.72 -12.7863 176.312 -8.96545C229.418 -4.9661 277.087 -12.7812 309.964 6.09221C343.328 24.7871 362.385 69.9919 402.71 107.674Z" fill="#EEEEEE"/>
<path d="M323.398 -135C390.273 35.64 375.184 252.531 273.322 407.519C155.576 586.676 -39.0885 1058.65 76.248 1281.39C191.584 1504.14 343.913 1407.1 323.398 1849" stroke="#F24822" stroke-width="3" stroke-linecap="round" stroke-dasharray="4.64 4.64"/>
</g>
<rect x="145.774" y="379.655" width="98.3492" height="41.1905" rx="6.96429" fill="#EEEEEE"/>
<rect x="145.774" y="379.655" width="98.3492" height="41.1905" rx="6.96429" stroke="#789DB2" stroke-width="1.54762" stroke-linecap="round" stroke-linejoin="round" stroke-dasharray="7.74 7.74"/>
<path d="M164.266 405.125C164.266 404.764 164.212 404.441 164.104 404.158C163.997 403.865 163.802 403.597 163.519 403.353C163.235 403.108 162.835 402.864 162.317 402.62C161.8 402.366 161.121 402.107 160.281 401.844C159.324 401.531 158.411 401.18 157.542 400.789C156.683 400.389 155.916 399.925 155.242 399.397C154.568 398.87 154.036 398.255 153.646 397.552C153.265 396.849 153.074 396.028 153.074 395.091C153.074 394.183 153.274 393.362 153.675 392.63C154.075 391.897 154.637 391.272 155.359 390.755C156.082 390.228 156.932 389.827 157.908 389.554C158.885 389.271 159.959 389.129 161.131 389.129C162.693 389.129 164.065 389.407 165.247 389.964C166.438 390.511 167.366 391.282 168.03 392.278C168.694 393.265 169.026 394.412 169.026 395.721H164.28C164.28 395.145 164.158 394.637 163.914 394.197C163.68 393.748 163.318 393.396 162.83 393.143C162.352 392.889 161.751 392.762 161.028 392.762C160.325 392.762 159.734 392.869 159.256 393.084C158.787 393.289 158.431 393.572 158.187 393.934C157.952 394.295 157.835 394.69 157.835 395.12C157.835 395.462 157.923 395.774 158.099 396.058C158.284 396.331 158.548 396.59 158.89 396.834C159.241 397.068 159.671 397.293 160.179 397.508C160.687 397.723 161.268 397.928 161.922 398.123C163.064 398.484 164.075 398.885 164.954 399.324C165.843 399.764 166.59 400.262 167.195 400.818C167.801 401.375 168.255 402.005 168.558 402.708C168.87 403.411 169.026 404.207 169.026 405.096C169.026 406.043 168.841 406.883 168.47 407.615C168.108 408.348 167.581 408.973 166.888 409.49C166.204 409.998 165.384 410.384 164.427 410.647C163.47 410.911 162.4 411.043 161.219 411.043C160.145 411.043 159.085 410.906 158.04 410.633C156.995 410.35 156.048 409.92 155.198 409.344C154.358 408.768 153.685 408.035 153.177 407.146C152.679 406.248 152.43 405.184 152.43 403.953H157.205C157.205 404.598 157.298 405.145 157.483 405.594C157.669 406.033 157.933 406.39 158.274 406.663C158.626 406.937 159.051 407.132 159.549 407.249C160.047 407.366 160.604 407.425 161.219 407.425C161.932 407.425 162.508 407.327 162.947 407.132C163.396 406.927 163.729 406.648 163.943 406.297C164.158 405.945 164.266 405.555 164.266 405.125ZM179.661 394.9V398.108H170.257V394.9H179.661ZM172.41 390.975H176.995V405.784C176.995 406.224 177.049 406.561 177.156 406.795C177.264 407.029 177.439 407.195 177.684 407.293C177.928 407.381 178.24 407.425 178.621 407.425C178.895 407.425 179.129 407.415 179.324 407.396C179.52 407.376 179.7 407.352 179.866 407.322V410.633C179.476 410.76 179.061 410.857 178.621 410.926C178.182 411.004 177.703 411.043 177.186 411.043C176.199 411.043 175.345 410.882 174.622 410.56C173.909 410.237 173.362 409.729 172.981 409.036C172.601 408.333 172.41 407.42 172.41 406.297V390.975ZM189.329 411.043C188.069 411.043 186.941 410.843 185.945 410.442C184.949 410.042 184.104 409.49 183.411 408.787C182.728 408.074 182.205 407.254 181.844 406.326C181.482 405.398 181.302 404.407 181.302 403.353V402.796C181.302 401.614 181.468 400.525 181.8 399.529C182.132 398.533 182.615 397.669 183.25 396.937C183.895 396.194 184.686 395.623 185.623 395.223C186.561 394.812 187.63 394.607 188.831 394.607C189.954 394.607 190.955 394.793 191.834 395.164C192.713 395.525 193.455 396.048 194.061 396.731C194.666 397.405 195.125 398.221 195.438 399.178C195.76 400.125 195.921 401.189 195.921 402.371V404.246H183.147V401.302H191.438V400.95C191.438 400.394 191.336 399.905 191.131 399.485C190.936 399.065 190.643 398.743 190.252 398.519C189.871 398.284 189.388 398.167 188.802 398.167C188.245 398.167 187.781 398.284 187.41 398.519C187.039 398.753 186.741 399.085 186.517 399.515C186.302 399.935 186.146 400.428 186.048 400.994C185.95 401.551 185.901 402.151 185.901 402.796V403.353C185.901 403.968 185.984 404.529 186.15 405.037C186.316 405.545 186.561 405.979 186.883 406.341C187.205 406.702 187.596 406.985 188.055 407.19C188.514 407.396 189.036 407.498 189.622 407.498C190.345 407.498 191.033 407.361 191.688 407.088C192.342 406.805 192.908 406.365 193.387 405.77L195.525 408.216C195.203 408.685 194.749 409.139 194.163 409.578C193.587 410.008 192.894 410.359 192.083 410.633C191.272 410.906 190.354 411.043 189.329 411.043ZM202.732 397.947V416.844H198.162V394.9H202.425L202.732 397.947ZM212.62 402.649V402.957C212.62 404.109 212.488 405.179 212.225 406.165C211.961 407.142 211.565 407.996 211.038 408.729C210.521 409.461 209.881 410.032 209.119 410.442C208.357 410.843 207.474 411.043 206.468 411.043C205.511 411.043 204.681 410.843 203.978 410.442C203.284 410.032 202.698 409.466 202.22 408.743C201.751 408.011 201.37 407.176 201.077 406.238C200.794 405.291 200.574 404.28 200.418 403.206V402.605C200.574 401.463 200.799 400.403 201.092 399.427C201.385 398.45 201.766 397.605 202.234 396.893C202.703 396.17 203.284 395.608 203.978 395.208C204.671 394.808 205.496 394.607 206.453 394.607C207.449 394.607 208.333 394.798 209.104 395.179C209.876 395.56 210.521 396.106 211.038 396.819C211.565 397.522 211.961 398.367 212.225 399.354C212.488 400.34 212.62 401.438 212.62 402.649ZM208.035 402.957V402.649C208.035 402.005 207.986 401.414 207.889 400.877C207.791 400.33 207.635 399.856 207.42 399.456C207.205 399.046 206.922 398.729 206.57 398.504C206.219 398.279 205.789 398.167 205.281 398.167C204.734 398.167 204.271 398.255 203.89 398.431C203.509 398.606 203.201 398.865 202.967 399.207C202.732 399.539 202.562 399.949 202.454 400.438C202.356 400.926 202.303 401.482 202.293 402.107V403.719C202.303 404.451 202.405 405.105 202.601 405.682C202.806 406.248 203.123 406.692 203.553 407.015C203.992 407.327 204.578 407.483 205.311 407.483C205.828 407.483 206.258 407.371 206.6 407.146C206.951 406.912 207.229 406.585 207.435 406.165C207.649 405.745 207.801 405.262 207.889 404.715C207.986 404.168 208.035 403.582 208.035 402.957ZM237.127 407.19V410.75H222.391V407.732L229.275 400.438C229.92 399.695 230.433 399.041 230.813 398.475C231.204 397.908 231.487 397.396 231.663 396.937C231.839 396.468 231.927 396.038 231.927 395.647C231.927 395.013 231.824 394.476 231.619 394.036C231.424 393.597 231.136 393.26 230.755 393.025C230.374 392.791 229.91 392.674 229.363 392.674C228.777 392.674 228.274 392.825 227.854 393.128C227.435 393.431 227.112 393.851 226.888 394.388C226.663 394.915 226.551 395.516 226.551 396.189H221.951C221.951 394.891 222.264 393.709 222.889 392.645C223.514 391.57 224.388 390.716 225.511 390.081C226.634 389.437 227.947 389.114 229.451 389.114C230.994 389.114 232.288 389.358 233.333 389.847C234.378 390.335 235.169 391.033 235.706 391.941C236.243 392.85 236.512 393.943 236.512 395.223C236.512 395.945 236.395 396.644 236.16 397.317C235.936 397.991 235.608 398.66 235.179 399.324C234.749 399.988 234.231 400.667 233.626 401.36C233.021 402.044 232.337 402.767 231.575 403.528L228.353 407.19H237.127Z" fill="#223D4D"/>
<path fill-rule="evenodd" clip-rule="evenodd" d="M145.625 372.114C146.178 372.832 146.466 373.719 146.44 374.624C146.414 375.53 146.075 376.399 145.482 377.084L152.721 386.49C152.848 386.655 152.904 386.864 152.877 387.071C152.85 387.277 152.742 387.465 152.577 387.592C152.412 387.719 152.203 387.775 151.996 387.749C151.789 387.722 151.602 387.614 151.475 387.448L144.237 378.042C143.569 378.369 142.822 378.499 142.082 378.418C141.343 378.337 140.642 378.048 140.061 377.584C139.48 377.12 139.042 376.501 138.798 375.799C138.555 375.096 138.515 374.339 138.685 373.615C138.854 372.891 139.226 372.23 139.756 371.709C140.287 371.187 140.954 370.827 141.681 370.67C142.407 370.513 143.164 370.565 143.862 370.821C144.56 371.076 145.172 371.525 145.625 372.114Z" fill="#3E5C6D"/>
<path fill-rule="evenodd" clip-rule="evenodd" d="M244.066 372.114C243.513 372.832 243.226 373.719 243.252 374.624C243.278 375.53 243.616 376.399 244.209 377.084L236.971 386.49C236.844 386.655 236.787 386.864 236.814 387.071C236.841 387.277 236.949 387.465 237.114 387.592C237.28 387.719 237.489 387.775 237.695 387.749C237.902 387.722 238.09 387.614 238.217 387.448L245.455 378.042C246.123 378.369 246.87 378.499 247.609 378.418C248.348 378.337 249.049 378.048 249.63 377.584C250.212 377.12 250.65 376.501 250.893 375.799C251.137 375.096 251.176 374.339 251.007 373.615C250.837 372.891 250.465 372.23 249.935 371.709C249.405 371.187 248.738 370.827 248.011 370.67C247.284 370.513 246.528 370.565 245.829 370.821C245.131 371.076 244.52 371.525 244.066 372.114Z" fill="#3E5C6D"/>
<line x1="0.5" y1="393" x2="0.5" y2="408" stroke="white"/>
<line x1="389.5" y1="391" x2="389.5" y2="406" stroke="white"/>
<defs>
<clipPath id="clip0_181_181">
<rect width="390" height="466" fill="white"/>
</clipPath>
</defs>
</svg>
