<svg width="390" height="54" viewBox="0 0 390 54" fill="none" xmlns="http://www.w3.org/2000/svg">
<rect x="145.774" y="11.0873" width="98.3492" height="41.1905" rx="6.96429" fill="#EEEEEE"/>
<rect x="145.774" y="11.0873" width="98.3492" height="41.1905" rx="6.96429" stroke="#789DB2" stroke-width="1.54762" stroke-linecap="round" stroke-linejoin="round" stroke-dasharray="7.74 7.74"/>
<path d="M164.266 36.5576C164.266 36.1963 164.212 35.874 164.104 35.5908C163.997 35.2979 163.802 35.0293 163.519 34.7852C163.235 34.541 162.835 34.2969 162.317 34.0527C161.8 33.7988 161.121 33.54 160.281 33.2764C159.324 32.9639 158.411 32.6123 157.542 32.2217C156.683 31.8213 155.916 31.3574 155.242 30.8301C154.568 30.3027 154.036 29.6875 153.646 28.9844C153.265 28.2812 153.074 27.4609 153.074 26.5234C153.074 25.6152 153.274 24.7949 153.675 24.0625C154.075 23.3301 154.637 22.7051 155.359 22.1875C156.082 21.6602 156.932 21.2598 157.908 20.9863C158.885 20.7031 159.959 20.5615 161.131 20.5615C162.693 20.5615 164.065 20.8398 165.247 21.3965C166.438 21.9434 167.366 22.7148 168.03 23.7109C168.694 24.6973 169.026 25.8447 169.026 27.1533H164.28C164.28 26.5771 164.158 26.0693 163.914 25.6299C163.68 25.1807 163.318 24.8291 162.83 24.5752C162.352 24.3213 161.751 24.1943 161.028 24.1943C160.325 24.1943 159.734 24.3018 159.256 24.5166C158.787 24.7217 158.431 25.0049 158.187 25.3662C157.952 25.7275 157.835 26.123 157.835 26.5527C157.835 26.8945 157.923 27.207 158.099 27.4902C158.284 27.7637 158.548 28.0225 158.89 28.2666C159.241 28.501 159.671 28.7256 160.179 28.9404C160.687 29.1553 161.268 29.3604 161.922 29.5557C163.064 29.917 164.075 30.3174 164.954 30.7568C165.843 31.1963 166.59 31.6943 167.195 32.251C167.801 32.8076 168.255 33.4375 168.558 34.1406C168.87 34.8438 169.026 35.6396 169.026 36.5283C169.026 37.4756 168.841 38.3154 168.47 39.0479C168.108 39.7803 167.581 40.4053 166.888 40.9229C166.204 41.4307 165.384 41.8164 164.427 42.0801C163.47 42.3438 162.4 42.4756 161.219 42.4756C160.145 42.4756 159.085 42.3389 158.04 42.0654C156.995 41.7822 156.048 41.3525 155.198 40.7764C154.358 40.2002 153.685 39.4678 153.177 38.5791C152.679 37.6807 152.43 36.6162 152.43 35.3857H157.205C157.205 36.0303 157.298 36.5771 157.483 37.0264C157.669 37.4658 157.933 37.8223 158.274 38.0957C158.626 38.3691 159.051 38.5645 159.549 38.6816C160.047 38.7988 160.604 38.8574 161.219 38.8574C161.932 38.8574 162.508 38.7598 162.947 38.5645C163.396 38.3594 163.729 38.0811 163.943 37.7295C164.158 37.3779 164.266 36.9873 164.266 36.5576ZM179.661 26.333V29.541H170.257V26.333H179.661ZM172.41 22.4072H176.995V37.2168C176.995 37.6562 177.049 37.9932 177.156 38.2275C177.264 38.4619 177.439 38.6279 177.684 38.7256C177.928 38.8135 178.24 38.8574 178.621 38.8574C178.895 38.8574 179.129 38.8477 179.324 38.8281C179.52 38.8086 179.7 38.7842 179.866 38.7549V42.0654C179.476 42.1924 179.061 42.29 178.621 42.3584C178.182 42.4365 177.703 42.4756 177.186 42.4756C176.199 42.4756 175.345 42.3145 174.622 41.9922C173.909 41.6699 173.362 41.1621 172.981 40.4688C172.601 39.7656 172.41 38.8525 172.41 37.7295V22.4072ZM189.329 42.4756C188.069 42.4756 186.941 42.2754 185.945 41.875C184.949 41.4746 184.104 40.9229 183.411 40.2197C182.728 39.5068 182.205 38.6865 181.844 37.7588C181.482 36.8311 181.302 35.8398 181.302 34.7852V34.2285C181.302 33.0469 181.468 31.958 181.8 30.9619C182.132 29.9658 182.615 29.1016 183.25 28.3691C183.895 27.627 184.686 27.0557 185.623 26.6553C186.561 26.2451 187.63 26.04 188.831 26.04C189.954 26.04 190.955 26.2256 191.834 26.5967C192.713 26.958 193.455 27.4805 194.061 28.1641C194.666 28.8379 195.125 29.6533 195.438 30.6104C195.76 31.5576 195.921 32.6221 195.921 33.8037V35.6787H183.147V32.7344H191.438V32.3828C191.438 31.8262 191.336 31.3379 191.131 30.918C190.936 30.498 190.643 30.1758 190.252 29.9512C189.871 29.7168 189.388 29.5996 188.802 29.5996C188.245 29.5996 187.781 29.7168 187.41 29.9512C187.039 30.1855 186.741 30.5176 186.517 30.9473C186.302 31.3672 186.146 31.8604 186.048 32.4268C185.95 32.9834 185.901 33.584 185.901 34.2285V34.7852C185.901 35.4004 185.984 35.9619 186.15 36.4697C186.316 36.9775 186.561 37.4121 186.883 37.7734C187.205 38.1348 187.596 38.418 188.055 38.623C188.514 38.8281 189.036 38.9307 189.622 38.9307C190.345 38.9307 191.033 38.7939 191.688 38.5205C192.342 38.2373 192.908 37.7979 193.387 37.2021L195.525 39.6484C195.203 40.1172 194.749 40.5713 194.163 41.0107C193.587 41.4404 192.894 41.792 192.083 42.0654C191.272 42.3389 190.354 42.4756 189.329 42.4756ZM202.732 29.3799V48.2764H198.162V26.333H202.425L202.732 29.3799ZM212.62 34.082V34.3896C212.62 35.542 212.488 36.6113 212.225 37.5977C211.961 38.5742 211.565 39.4287 211.038 40.1611C210.521 40.8936 209.881 41.4648 209.119 41.875C208.357 42.2754 207.474 42.4756 206.468 42.4756C205.511 42.4756 204.681 42.2754 203.978 41.875C203.284 41.4648 202.698 40.8984 202.22 40.1758C201.751 39.4434 201.37 38.6084 201.077 37.6709C200.794 36.7236 200.574 35.7129 200.418 34.6387V34.0381C200.574 32.8955 200.799 31.8359 201.092 30.8594C201.385 29.8828 201.766 29.0381 202.234 28.3252C202.703 27.6025 203.284 27.041 203.978 26.6406C204.671 26.2402 205.496 26.04 206.453 26.04C207.449 26.04 208.333 26.2305 209.104 26.6113C209.876 26.9922 210.521 27.5391 211.038 28.252C211.565 28.9551 211.961 29.7998 212.225 30.7861C212.488 31.7725 212.62 32.8711 212.62 34.082ZM208.035 34.3896V34.082C208.035 33.4375 207.986 32.8467 207.889 32.3096C207.791 31.7627 207.635 31.2891 207.42 30.8887C207.205 30.4785 206.922 30.1611 206.57 29.9365C206.219 29.7119 205.789 29.5996 205.281 29.5996C204.734 29.5996 204.271 29.6875 203.89 29.8633C203.509 30.0391 203.201 30.2979 202.967 30.6396C202.732 30.9717 202.562 31.3818 202.454 31.8701C202.356 32.3584 202.303 32.915 202.293 33.54V35.1514C202.303 35.8838 202.405 36.5381 202.601 37.1143C202.806 37.6807 203.123 38.125 203.553 38.4473C203.992 38.7598 204.578 38.916 205.311 38.916C205.828 38.916 206.258 38.8037 206.6 38.5791C206.951 38.3447 207.229 38.0176 207.435 37.5977C207.649 37.1777 207.801 36.6943 207.889 36.1475C207.986 35.6006 208.035 35.0146 208.035 34.3896ZM226.8 29.5703H229.129C229.793 29.5703 230.34 29.4531 230.77 29.2188C231.209 28.9844 231.531 28.6523 231.736 28.2227C231.951 27.793 232.059 27.29 232.059 26.7139C232.059 26.2158 231.961 25.7715 231.766 25.3809C231.57 24.9902 231.272 24.6826 230.872 24.458C230.481 24.2236 229.974 24.1064 229.349 24.1064C228.899 24.1064 228.47 24.1992 228.06 24.3848C227.659 24.5605 227.332 24.8193 227.078 25.1611C226.824 25.4932 226.697 25.8936 226.697 26.3623H222.112C222.112 25.1709 222.435 24.1406 223.079 23.2715C223.733 22.4023 224.598 21.7334 225.672 21.2646C226.756 20.7861 227.938 20.5469 229.217 20.5469C230.691 20.5469 231.985 20.7812 233.099 21.25C234.222 21.709 235.091 22.3926 235.706 23.3008C236.331 24.1992 236.644 25.3125 236.644 26.6406C236.644 27.334 236.478 28.0029 236.146 28.6475C235.823 29.2822 235.359 29.8486 234.754 30.3467C234.158 30.835 233.445 31.2256 232.615 31.5186C231.795 31.8018 230.882 31.9434 229.876 31.9434H226.8V29.5703ZM226.8 33.0127V30.6836H229.876C230.989 30.6836 231.985 30.8105 232.864 31.0645C233.743 31.3184 234.49 31.6846 235.105 32.1631C235.721 32.6416 236.189 33.2227 236.512 33.9062C236.834 34.5898 236.995 35.3516 236.995 36.1914C236.995 37.1875 236.8 38.0762 236.409 38.8574C236.019 39.6387 235.472 40.2979 234.769 40.835C234.065 41.3721 233.24 41.7822 232.293 42.0654C231.346 42.3389 230.32 42.4756 229.217 42.4756C228.328 42.4756 227.444 42.3535 226.565 42.1094C225.687 41.8652 224.891 41.4941 224.178 40.9961C223.465 40.4883 222.894 39.8486 222.464 39.0771C222.034 38.2959 221.819 37.3682 221.819 36.2939H226.404C226.404 36.792 226.531 37.2412 226.785 37.6416C227.049 38.0322 227.405 38.3447 227.854 38.5791C228.313 38.8037 228.812 38.916 229.349 38.916C229.993 38.916 230.54 38.7988 230.989 38.5645C231.448 38.3203 231.795 37.9883 232.029 37.5684C232.273 37.1484 232.396 36.665 232.396 36.1182C232.396 35.376 232.264 34.7803 232 34.3311C231.746 33.8721 231.375 33.54 230.887 33.335C230.398 33.1201 229.812 33.0127 229.129 33.0127H226.8Z" fill="#223D4D"/>
<path fill-rule="evenodd" clip-rule="evenodd" d="M145.625 3.11403C146.178 3.83193 146.466 4.71872 146.44 5.62433C146.414 6.52994 146.075 7.39874 145.482 8.0837L152.721 17.4898C152.848 17.655 152.904 17.8639 152.877 18.0707C152.85 18.2774 152.742 18.4649 152.577 18.592C152.412 18.7192 152.203 18.7755 151.996 18.7485C151.789 18.7216 151.602 18.6137 151.475 18.4485L144.237 9.04237C143.569 9.36882 142.822 9.49904 142.082 9.41789C141.343 9.33675 140.642 9.04758 140.061 8.58396C139.48 8.12035 139.042 7.50132 138.798 6.79877C138.555 6.09622 138.515 5.33898 138.685 4.615C138.854 3.89102 139.226 3.23001 139.756 2.70874C140.287 2.18747 140.954 1.82733 141.681 1.67016C142.407 1.51299 143.164 1.56522 143.862 1.8208C144.56 2.07638 145.172 2.52482 145.625 3.11403Z" fill="#3E5C6D"/>
<path fill-rule="evenodd" clip-rule="evenodd" d="M245.066 3.11403C244.513 3.83193 244.226 4.71872 244.252 5.62433C244.278 6.52994 244.616 7.39874 245.209 8.0837L237.971 17.4898C237.844 17.655 237.787 17.8639 237.814 18.0707C237.841 18.2774 237.949 18.4649 238.114 18.592C238.28 18.7192 238.489 18.7755 238.695 18.7485C238.902 18.7216 239.09 18.6137 239.217 18.4485L246.455 9.04237C247.123 9.36882 247.87 9.49904 248.609 9.41789C249.348 9.33675 250.049 9.04758 250.63 8.58396C251.212 8.12035 251.65 7.50132 251.893 6.79877C252.137 6.09622 252.176 5.33898 252.007 4.615C251.837 3.89102 251.465 3.23001 250.935 2.70874C250.405 2.18747 249.738 1.82733 249.011 1.67016C248.284 1.51299 247.528 1.56522 246.829 1.8208C246.131 2.07638 245.52 2.52482 245.066 3.11403Z" fill="#3E5C6D"/>
<line x1="0.5" y1="23" x2="0.5" y2="38" stroke="white"/>
<line x1="389.5" y1="21" x2="389.5" y2="36" stroke="white"/>
</svg>
