<svg width="390" height="541" viewBox="0 0 390 541" fill="none" xmlns="http://www.w3.org/2000/svg">
<g clip-path="url(#clip0_181_180)">
<path d="M323.398 -863C390.273 -692.36 375.184 -475.469 273.322 -320.481C155.576 -141.324 -39.0885 330.653 76.248 553.395C191.584 776.136 343.913 679.1 323.398 1121" stroke="#F24822" stroke-width="3" stroke-linecap="round" stroke-dasharray="4.64 4.64"/>
<rect x="145.774" y="445.087" width="98.3492" height="41.1905" rx="6.96429" fill="#EEEEEE"/>
<rect x="145.774" y="445.087" width="98.3492" height="41.1905" rx="6.96429" stroke="#789DB2" stroke-width="1.54762" stroke-linecap="round" stroke-linejoin="round" stroke-dasharray="7.74 7.74"/>
<path d="M164.266 470.558C164.266 470.196 164.212 469.874 164.104 469.591C163.997 469.298 163.802 469.029 163.519 468.785C163.235 468.541 162.835 468.297 162.317 468.053C161.8 467.799 161.121 467.54 160.281 467.276C159.324 466.964 158.411 466.612 157.542 466.222C156.683 465.821 155.916 465.357 155.242 464.83C154.568 464.303 154.036 463.688 153.646 462.984C153.265 462.281 153.074 461.461 153.074 460.523C153.074 459.615 153.274 458.795 153.675 458.062C154.075 457.33 154.637 456.705 155.359 456.188C156.082 455.66 156.932 455.26 157.908 454.986C158.885 454.703 159.959 454.562 161.131 454.562C162.693 454.562 164.065 454.84 165.247 455.396C166.438 455.943 167.366 456.715 168.03 457.711C168.694 458.697 169.026 459.845 169.026 461.153H164.28C164.28 460.577 164.158 460.069 163.914 459.63C163.68 459.181 163.318 458.829 162.83 458.575C162.352 458.321 161.751 458.194 161.028 458.194C160.325 458.194 159.734 458.302 159.256 458.517C158.787 458.722 158.431 459.005 158.187 459.366C157.952 459.728 157.835 460.123 157.835 460.553C157.835 460.895 157.923 461.207 158.099 461.49C158.284 461.764 158.548 462.022 158.89 462.267C159.241 462.501 159.671 462.726 160.179 462.94C160.687 463.155 161.268 463.36 161.922 463.556C163.064 463.917 164.075 464.317 164.954 464.757C165.843 465.196 166.59 465.694 167.195 466.251C167.801 466.808 168.255 467.438 168.558 468.141C168.87 468.844 169.026 469.64 169.026 470.528C169.026 471.476 168.841 472.315 168.47 473.048C168.108 473.78 167.581 474.405 166.888 474.923C166.204 475.431 165.384 475.816 164.427 476.08C163.47 476.344 162.4 476.476 161.219 476.476C160.145 476.476 159.085 476.339 158.04 476.065C156.995 475.782 156.048 475.353 155.198 474.776C154.358 474.2 153.685 473.468 153.177 472.579C152.679 471.681 152.43 470.616 152.43 469.386H157.205C157.205 470.03 157.298 470.577 157.483 471.026C157.669 471.466 157.933 471.822 158.274 472.096C158.626 472.369 159.051 472.564 159.549 472.682C160.047 472.799 160.604 472.857 161.219 472.857C161.932 472.857 162.508 472.76 162.947 472.564C163.396 472.359 163.729 472.081 163.943 471.729C164.158 471.378 164.266 470.987 164.266 470.558ZM179.661 460.333V463.541H170.257V460.333H179.661ZM172.41 456.407H176.995V471.217C176.995 471.656 177.049 471.993 177.156 472.228C177.264 472.462 177.439 472.628 177.684 472.726C177.928 472.813 178.24 472.857 178.621 472.857C178.895 472.857 179.129 472.848 179.324 472.828C179.52 472.809 179.7 472.784 179.866 472.755V476.065C179.476 476.192 179.061 476.29 178.621 476.358C178.182 476.437 177.703 476.476 177.186 476.476C176.199 476.476 175.345 476.314 174.622 475.992C173.909 475.67 173.362 475.162 172.981 474.469C172.601 473.766 172.41 472.853 172.41 471.729V456.407ZM189.329 476.476C188.069 476.476 186.941 476.275 185.945 475.875C184.949 475.475 184.104 474.923 183.411 474.22C182.728 473.507 182.205 472.687 181.844 471.759C181.482 470.831 181.302 469.84 181.302 468.785V468.229C181.302 467.047 181.468 465.958 181.8 464.962C182.132 463.966 182.615 463.102 183.25 462.369C183.895 461.627 184.686 461.056 185.623 460.655C186.561 460.245 187.63 460.04 188.831 460.04C189.954 460.04 190.955 460.226 191.834 460.597C192.713 460.958 193.455 461.48 194.061 462.164C194.666 462.838 195.125 463.653 195.438 464.61C195.76 465.558 195.921 466.622 195.921 467.804V469.679H183.147V466.734H191.438V466.383C191.438 465.826 191.336 465.338 191.131 464.918C190.936 464.498 190.643 464.176 190.252 463.951C189.871 463.717 189.388 463.6 188.802 463.6C188.245 463.6 187.781 463.717 187.41 463.951C187.039 464.186 186.741 464.518 186.517 464.947C186.302 465.367 186.146 465.86 186.048 466.427C185.95 466.983 185.901 467.584 185.901 468.229V468.785C185.901 469.4 185.984 469.962 186.15 470.47C186.316 470.978 186.561 471.412 186.883 471.773C187.205 472.135 187.596 472.418 188.055 472.623C188.514 472.828 189.036 472.931 189.622 472.931C190.345 472.931 191.033 472.794 191.688 472.521C192.342 472.237 192.908 471.798 193.387 471.202L195.525 473.648C195.203 474.117 194.749 474.571 194.163 475.011C193.587 475.44 192.894 475.792 192.083 476.065C191.272 476.339 190.354 476.476 189.329 476.476ZM202.732 463.38V482.276H198.162V460.333H202.425L202.732 463.38ZM212.62 468.082V468.39C212.62 469.542 212.488 470.611 212.225 471.598C211.961 472.574 211.565 473.429 211.038 474.161C210.521 474.894 209.881 475.465 209.119 475.875C208.357 476.275 207.474 476.476 206.468 476.476C205.511 476.476 204.681 476.275 203.978 475.875C203.284 475.465 202.698 474.898 202.22 474.176C201.751 473.443 201.37 472.608 201.077 471.671C200.794 470.724 200.574 469.713 200.418 468.639V468.038C200.574 466.896 200.799 465.836 201.092 464.859C201.385 463.883 201.766 463.038 202.234 462.325C202.703 461.603 203.284 461.041 203.978 460.641C204.671 460.24 205.496 460.04 206.453 460.04C207.449 460.04 208.333 460.23 209.104 460.611C209.876 460.992 210.521 461.539 211.038 462.252C211.565 462.955 211.961 463.8 212.225 464.786C212.488 465.772 212.62 466.871 212.62 468.082ZM208.035 468.39V468.082C208.035 467.438 207.986 466.847 207.889 466.31C207.791 465.763 207.635 465.289 207.42 464.889C207.205 464.479 206.922 464.161 206.57 463.937C206.219 463.712 205.789 463.6 205.281 463.6C204.734 463.6 204.271 463.688 203.89 463.863C203.509 464.039 203.201 464.298 202.967 464.64C202.732 464.972 202.562 465.382 202.454 465.87C202.356 466.358 202.303 466.915 202.293 467.54V469.151C202.303 469.884 202.405 470.538 202.601 471.114C202.806 471.681 203.123 472.125 203.553 472.447C203.992 472.76 204.578 472.916 205.311 472.916C205.828 472.916 206.258 472.804 206.6 472.579C206.951 472.345 207.229 472.018 207.435 471.598C207.649 471.178 207.801 470.694 207.889 470.147C207.986 469.601 208.035 469.015 208.035 468.39ZM226.8 463.57H229.129C229.793 463.57 230.34 463.453 230.77 463.219C231.209 462.984 231.531 462.652 231.736 462.223C231.951 461.793 232.059 461.29 232.059 460.714C232.059 460.216 231.961 459.771 231.766 459.381C231.57 458.99 231.272 458.683 230.872 458.458C230.481 458.224 229.974 458.106 229.349 458.106C228.899 458.106 228.47 458.199 228.06 458.385C227.659 458.561 227.332 458.819 227.078 459.161C226.824 459.493 226.697 459.894 226.697 460.362H222.112C222.112 459.171 222.435 458.141 223.079 457.271C223.733 456.402 224.598 455.733 225.672 455.265C226.756 454.786 227.938 454.547 229.217 454.547C230.691 454.547 231.985 454.781 233.099 455.25C234.222 455.709 235.091 456.393 235.706 457.301C236.331 458.199 236.644 459.312 236.644 460.641C236.644 461.334 236.478 462.003 236.146 462.647C235.823 463.282 235.359 463.849 234.754 464.347C234.158 464.835 233.445 465.226 232.615 465.519C231.795 465.802 230.882 465.943 229.876 465.943H226.8V463.57ZM226.8 467.013V464.684H229.876C230.989 464.684 231.985 464.811 232.864 465.064C233.743 465.318 234.49 465.685 235.105 466.163C235.721 466.642 236.189 467.223 236.512 467.906C236.834 468.59 236.995 469.352 236.995 470.191C236.995 471.188 236.8 472.076 236.409 472.857C236.019 473.639 235.472 474.298 234.769 474.835C234.065 475.372 233.24 475.782 232.293 476.065C231.346 476.339 230.32 476.476 229.217 476.476C228.328 476.476 227.444 476.354 226.565 476.109C225.687 475.865 224.891 475.494 224.178 474.996C223.465 474.488 222.894 473.849 222.464 473.077C222.034 472.296 221.819 471.368 221.819 470.294H226.404C226.404 470.792 226.531 471.241 226.785 471.642C227.049 472.032 227.405 472.345 227.854 472.579C228.313 472.804 228.812 472.916 229.349 472.916C229.993 472.916 230.54 472.799 230.989 472.564C231.448 472.32 231.795 471.988 232.029 471.568C232.273 471.148 232.396 470.665 232.396 470.118C232.396 469.376 232.264 468.78 232 468.331C231.746 467.872 231.375 467.54 230.887 467.335C230.398 467.12 229.812 467.013 229.129 467.013H226.8Z" fill="#223D4D"/>
<path fill-rule="evenodd" clip-rule="evenodd" d="M145.625 437.114C146.178 437.832 146.466 438.719 146.44 439.624C146.414 440.53 146.075 441.399 145.482 442.084L152.721 451.49C152.848 451.655 152.904 451.864 152.877 452.071C152.85 452.277 152.742 452.465 152.577 452.592C152.412 452.719 152.203 452.775 151.996 452.749C151.789 452.722 151.602 452.614 151.475 452.448L144.237 443.042C143.569 443.369 142.822 443.499 142.082 443.418C141.343 443.337 140.642 443.048 140.061 442.584C139.48 442.12 139.042 441.501 138.798 440.799C138.555 440.096 138.515 439.339 138.685 438.615C138.854 437.891 139.226 437.23 139.756 436.709C140.287 436.187 140.954 435.827 141.681 435.67C142.407 435.513 143.164 435.565 143.862 435.821C144.56 436.076 145.172 436.525 145.625 437.114Z" fill="#3E5C6D"/>
<path fill-rule="evenodd" clip-rule="evenodd" d="M245.066 437.114C244.513 437.832 244.226 438.719 244.252 439.624C244.278 440.53 244.616 441.399 245.209 442.084L237.971 451.49C237.844 451.655 237.787 451.864 237.814 452.071C237.841 452.277 237.949 452.465 238.114 452.592C238.28 452.719 238.489 452.775 238.695 452.749C238.902 452.722 239.09 452.614 239.217 452.448L246.455 443.042C247.123 443.369 247.87 443.499 248.609 443.418C249.348 443.337 250.049 443.048 250.63 442.584C251.212 442.12 251.65 441.501 251.893 440.799C252.137 440.096 252.176 439.339 252.007 438.615C251.837 437.891 251.465 437.23 250.935 436.709C250.405 436.187 249.738 435.827 249.011 435.67C248.284 435.513 247.528 435.565 246.829 435.821C246.131 436.076 245.52 436.525 245.066 437.114Z" fill="#3E5C6D"/>
<line x1="0.5" y1="457" x2="0.5" y2="472" stroke="white"/>
<line x1="389.5" y1="455" x2="389.5" y2="470" stroke="white"/>
</g>
<defs>
<clipPath id="clip0_181_180">
<rect width="390" height="541" fill="white"/>
</clipPath>
</defs>
</svg>
