<svg width="1512" height="234" viewBox="0 0 1512 234" fill="none" xmlns="http://www.w3.org/2000/svg">
<g clip-path="url(#clip0_138_285)">
<path d="M492.684 272C336.156 207.587 123.83 -130.782 496.676 -332" stroke="#F24822" stroke-width="9" stroke-linecap="round" stroke-dasharray="18 18"/>
</g>
<rect x="662" y="85" width="189" height="83" rx="27" fill="#EEEEEE"/>
<rect x="662" y="85" width="189" height="83" rx="27" stroke="#789DB2" stroke-width="6" stroke-linecap="round" stroke-linejoin="round" stroke-dasharray="30 30"/>
<path d="M705.362 134.625C705.362 134.023 705.273 133.486 705.094 133.014C704.915 132.525 704.589 132.078 704.117 131.671C703.645 131.264 702.978 130.857 702.115 130.45C701.253 130.027 700.121 129.596 698.722 129.156C697.127 128.635 695.605 128.049 694.156 127.398C692.724 126.731 691.446 125.958 690.323 125.079C689.2 124.2 688.313 123.175 687.662 122.003C687.027 120.831 686.71 119.464 686.71 117.901C686.71 116.388 687.044 115.021 687.711 113.8C688.378 112.579 689.314 111.537 690.519 110.675C691.723 109.796 693.139 109.129 694.767 108.673C696.394 108.201 698.185 107.965 700.138 107.965C702.742 107.965 705.029 108.429 706.998 109.356C708.984 110.268 710.53 111.554 711.637 113.214C712.743 114.858 713.297 116.77 713.297 118.951H705.387C705.387 117.991 705.183 117.145 704.776 116.412C704.386 115.663 703.784 115.077 702.97 114.654C702.172 114.231 701.171 114.02 699.967 114.02C698.795 114.02 697.81 114.199 697.013 114.557C696.231 114.898 695.637 115.37 695.23 115.973C694.84 116.575 694.645 117.234 694.645 117.95C694.645 118.52 694.791 119.041 695.084 119.513C695.393 119.968 695.833 120.4 696.402 120.807C696.988 121.197 697.704 121.572 698.551 121.93C699.397 122.288 700.366 122.63 701.456 122.955C703.36 123.557 705.045 124.225 706.51 124.957C707.991 125.689 709.236 126.52 710.245 127.447C711.254 128.375 712.011 129.425 712.516 130.597C713.036 131.769 713.297 133.095 713.297 134.576C713.297 136.155 712.988 137.555 712.369 138.775C711.767 139.996 710.888 141.038 709.732 141.9C708.593 142.747 707.226 143.39 705.631 143.829C704.036 144.269 702.254 144.488 700.284 144.488C698.494 144.488 696.728 144.26 694.986 143.805C693.245 143.333 691.666 142.617 690.25 141.656C688.85 140.696 687.727 139.475 686.881 137.994C686.051 136.497 685.636 134.723 685.636 132.672H693.595C693.595 133.746 693.749 134.658 694.059 135.406C694.368 136.139 694.807 136.733 695.377 137.188C695.963 137.644 696.671 137.97 697.501 138.165C698.331 138.36 699.259 138.458 700.284 138.458C701.472 138.458 702.433 138.295 703.165 137.97C703.914 137.628 704.467 137.164 704.825 136.578C705.183 135.992 705.362 135.341 705.362 134.625ZM731.021 117.584V122.931H715.348V117.584H731.021ZM718.937 111.041H726.578V135.724C726.578 136.456 726.668 137.018 726.847 137.408C727.026 137.799 727.319 138.076 727.726 138.238C728.132 138.385 728.653 138.458 729.288 138.458C729.744 138.458 730.134 138.442 730.46 138.409C730.785 138.377 731.087 138.336 731.363 138.287V143.805C730.712 144.016 730.021 144.179 729.288 144.293C728.556 144.423 727.758 144.488 726.896 144.488C725.252 144.488 723.827 144.22 722.623 143.683C721.435 143.146 720.523 142.299 719.889 141.144C719.254 139.972 718.937 138.45 718.937 136.578V111.041ZM747.135 144.488C745.035 144.488 743.155 144.155 741.495 143.487C739.835 142.82 738.427 141.9 737.271 140.729C736.132 139.54 735.261 138.173 734.659 136.627C734.057 135.081 733.756 133.429 733.756 131.671V130.743C733.756 128.774 734.033 126.959 734.586 125.299C735.139 123.639 735.945 122.198 737.003 120.978C738.077 119.741 739.396 118.788 740.958 118.121C742.521 117.438 744.303 117.096 746.305 117.096C748.176 117.096 749.845 117.405 751.31 118.023C752.774 118.626 754.011 119.496 755.021 120.636C756.03 121.759 756.795 123.118 757.315 124.713C757.853 126.292 758.121 128.066 758.121 130.035V133.16H736.832V128.253H750.65V127.667C750.65 126.739 750.479 125.925 750.138 125.226C749.812 124.526 749.324 123.989 748.673 123.614C748.038 123.224 747.232 123.028 746.256 123.028C745.328 123.028 744.555 123.224 743.937 123.614C743.318 124.005 742.822 124.558 742.447 125.274C742.089 125.974 741.829 126.796 741.666 127.74C741.503 128.668 741.422 129.669 741.422 130.743V131.671C741.422 132.696 741.56 133.632 741.837 134.479C742.114 135.325 742.521 136.049 743.058 136.651C743.595 137.254 744.246 137.726 745.011 138.067C745.776 138.409 746.646 138.58 747.623 138.58C748.827 138.58 749.975 138.352 751.065 137.896C752.156 137.424 753.1 136.692 753.897 135.699L757.462 139.776C756.925 140.558 756.168 141.314 755.191 142.047C754.231 142.763 753.076 143.349 751.725 143.805C750.374 144.26 748.844 144.488 747.135 144.488ZM769.474 122.662V154.156H761.856V117.584H768.961L769.474 122.662ZM785.953 130.499V131.012C785.953 132.932 785.733 134.715 785.294 136.358C784.854 137.986 784.195 139.41 783.316 140.631C782.454 141.852 781.388 142.804 780.118 143.487C778.849 144.155 777.376 144.488 775.699 144.488C774.104 144.488 772.721 144.155 771.549 143.487C770.393 142.804 769.417 141.86 768.619 140.655C767.838 139.435 767.203 138.043 766.715 136.48C766.243 134.902 765.877 133.217 765.616 131.427V130.426C765.877 128.521 766.251 126.756 766.739 125.128C767.228 123.5 767.862 122.092 768.644 120.904C769.425 119.7 770.393 118.764 771.549 118.097C772.704 117.429 774.08 117.096 775.675 117.096C777.335 117.096 778.808 117.413 780.094 118.048C781.38 118.683 782.454 119.594 783.316 120.782C784.195 121.954 784.854 123.362 785.294 125.006C785.733 126.65 785.953 128.481 785.953 130.499ZM778.312 131.012V130.499C778.312 129.425 778.23 128.44 778.067 127.545C777.905 126.633 777.644 125.844 777.286 125.177C776.928 124.493 776.456 123.964 775.87 123.59C775.284 123.215 774.568 123.028 773.722 123.028C772.81 123.028 772.037 123.175 771.402 123.468C770.768 123.761 770.255 124.192 769.864 124.762C769.474 125.315 769.189 125.999 769.01 126.812C768.847 127.626 768.757 128.554 768.741 129.596V132.281C768.757 133.502 768.928 134.592 769.254 135.553C769.596 136.497 770.125 137.237 770.841 137.774C771.573 138.295 772.55 138.556 773.771 138.556C774.633 138.556 775.349 138.368 775.919 137.994C776.505 137.604 776.969 137.058 777.311 136.358C777.669 135.659 777.921 134.853 778.067 133.941C778.23 133.03 778.312 132.053 778.312 131.012ZM819.913 108.429V144H812.271V117.12L804.02 119.635V113.727L819.156 108.429H819.913Z" fill="#223D4D"/>
<path fill-rule="evenodd" clip-rule="evenodd" d="M656.98 65.8522C658.196 67.432 658.829 69.3834 658.772 71.3762C658.715 73.369 657.971 75.2808 656.666 76.7881L672.593 97.4863C672.873 97.8498 672.997 98.3096 672.938 98.7645C672.878 99.2194 672.641 99.6321 672.277 99.9118C671.914 100.192 671.454 100.315 670.999 100.256C670.544 100.197 670.131 99.9594 669.852 99.5959L653.924 78.8977C652.454 79.616 650.81 79.9025 649.184 79.724C647.557 79.5454 646.015 78.9091 644.736 77.8889C643.456 76.8687 642.493 75.5065 641.957 73.9606C641.421 72.4146 641.334 70.7483 641.708 69.1551C642.081 67.562 642.898 66.1075 644.065 64.9604C645.232 63.8133 646.7 63.0209 648.3 62.675C649.899 62.3291 651.564 62.4441 653.1 63.0065C654.637 63.5689 655.982 64.5557 656.98 65.8522Z" fill="#3E5C6D"/>
<path fill-rule="evenodd" clip-rule="evenodd" d="M852.151 65.8522C850.934 67.432 850.301 69.3834 850.359 71.3762C850.416 73.369 851.16 75.2808 852.465 76.7881L836.538 97.4863C836.258 97.8498 836.134 98.3096 836.193 98.7645C836.253 99.2194 836.49 99.6321 836.854 99.9118C837.217 100.192 837.677 100.315 838.132 100.256C838.587 100.197 838.999 99.9594 839.279 99.5959L855.207 78.8977C856.677 79.616 858.32 79.9025 859.947 79.724C861.573 79.5454 863.116 78.9091 864.395 77.8889C865.674 76.8687 866.638 75.5065 867.174 73.9606C867.71 72.4146 867.796 70.7483 867.423 69.1551C867.05 67.562 866.233 66.1075 865.066 64.9604C863.899 63.8133 862.43 63.0209 860.831 62.675C859.232 62.3291 857.567 62.4441 856.031 63.0065C854.494 63.5689 853.149 64.5557 852.151 65.8522Z" fill="#3E5C6D"/>
<line x1="0.5" y1="120" x2="0.5" y2="135" stroke="white"/>
<line x1="1511.5" y1="118" x2="1511.5" y2="133" stroke="white"/>
<defs>
<clipPath id="clip0_138_285">
<rect width="1509" height="234" fill="white"/>
</clipPath>
</defs>
</svg>
