<svg width="1512" height="108" viewBox="0 0 1512 108" fill="none" xmlns="http://www.w3.org/2000/svg">
<rect x="662" y="22" width="189" height="83" rx="27" fill="#EEEEEE"/>
<rect x="662" y="22" width="189" height="83" rx="27" stroke="#789DB2" stroke-width="6" stroke-linecap="round" stroke-linejoin="round" stroke-dasharray="30 30"/>
<path d="M705.362 71.625C705.362 71.0228 705.273 70.4857 705.094 70.0137C704.915 69.5254 704.589 69.0778 704.117 68.6709C703.645 68.264 702.978 67.8571 702.115 67.4502C701.253 67.027 700.121 66.5957 698.722 66.1562C697.127 65.6354 695.605 65.0495 694.156 64.3984C692.724 63.7311 691.446 62.958 690.323 62.0791C689.2 61.2002 688.313 60.1748 687.662 59.0029C687.027 57.8311 686.71 56.4639 686.71 54.9014C686.71 53.3877 687.044 52.0205 687.711 50.7998C688.378 49.5791 689.314 48.5374 690.519 47.6748C691.723 46.7959 693.139 46.1286 694.767 45.6729C696.394 45.2008 698.185 44.9648 700.138 44.9648C702.742 44.9648 705.029 45.4287 706.998 46.3564C708.984 47.2679 710.53 48.5537 711.637 50.2139C712.743 51.8577 713.297 53.7702 713.297 55.9512H705.387C705.387 54.9909 705.183 54.1445 704.776 53.4121C704.386 52.6634 703.784 52.0775 702.97 51.6543C702.172 51.2311 701.171 51.0195 699.967 51.0195C698.795 51.0195 697.81 51.1986 697.013 51.5566C696.231 51.8984 695.637 52.3704 695.23 52.9727C694.84 53.5749 694.645 54.234 694.645 54.9502C694.645 55.5199 694.791 56.0407 695.084 56.5127C695.393 56.9684 695.833 57.3997 696.402 57.8066C696.988 58.1973 697.704 58.5716 698.551 58.9297C699.397 59.2878 700.366 59.6296 701.456 59.9551C703.36 60.5573 705.045 61.2246 706.51 61.957C707.991 62.6895 709.236 63.5195 710.245 64.4473C711.254 65.375 712.011 66.4248 712.516 67.5967C713.036 68.7686 713.297 70.0951 713.297 71.5762C713.297 73.1549 712.988 74.5547 712.369 75.7754C711.767 76.9961 710.888 78.0378 709.732 78.9004C708.593 79.7467 707.226 80.3896 705.631 80.8291C704.036 81.2686 702.254 81.4883 700.284 81.4883C698.494 81.4883 696.728 81.2604 694.986 80.8047C693.245 80.3327 691.666 79.6165 690.25 78.6562C688.85 77.696 687.727 76.4753 686.881 74.9941C686.051 73.4967 685.636 71.7227 685.636 69.6719H693.595C693.595 70.7461 693.749 71.6576 694.059 72.4062C694.368 73.1387 694.807 73.7327 695.377 74.1885C695.963 74.6442 696.671 74.9697 697.501 75.165C698.331 75.3604 699.259 75.458 700.284 75.458C701.472 75.458 702.433 75.2952 703.165 74.9697C703.914 74.6279 704.467 74.1641 704.825 73.5781C705.183 72.9922 705.362 72.3411 705.362 71.625ZM731.021 54.584V59.9307H715.348V54.584H731.021ZM718.937 48.041H726.578V72.7236C726.578 73.4561 726.668 74.0176 726.847 74.4082C727.026 74.7988 727.319 75.0755 727.726 75.2383C728.132 75.3848 728.653 75.458 729.288 75.458C729.744 75.458 730.134 75.4417 730.46 75.4092C730.785 75.3766 731.087 75.3359 731.363 75.2871V80.8047C730.712 81.0163 730.021 81.179 729.288 81.293C728.556 81.4232 727.758 81.4883 726.896 81.4883C725.252 81.4883 723.827 81.2197 722.623 80.6826C721.435 80.1455 720.523 79.2992 719.889 78.1436C719.254 76.9717 718.937 75.4499 718.937 73.5781V48.041ZM747.135 81.4883C745.035 81.4883 743.155 81.1546 741.495 80.4873C739.835 79.82 738.427 78.9004 737.271 77.7285C736.132 76.5404 735.261 75.1732 734.659 73.627C734.057 72.0807 733.756 70.4287 733.756 68.6709V67.7432C733.756 65.7738 734.033 63.959 734.586 62.2988C735.139 60.6387 735.945 59.1982 737.003 57.9775C738.077 56.7406 739.396 55.7884 740.958 55.1211C742.521 54.4375 744.303 54.0957 746.305 54.0957C748.176 54.0957 749.845 54.4049 751.31 55.0234C752.774 55.6257 754.011 56.4964 755.021 57.6357C756.03 58.7588 756.795 60.1178 757.315 61.7129C757.853 63.2917 758.121 65.0658 758.121 67.0352V70.1602H736.832V65.2529H750.65V64.667C750.65 63.7393 750.479 62.9255 750.138 62.2256C749.812 61.5257 749.324 60.9886 748.673 60.6143C748.038 60.2236 747.232 60.0283 746.256 60.0283C745.328 60.0283 744.555 60.2236 743.937 60.6143C743.318 61.0049 742.822 61.5583 742.447 62.2744C742.089 62.9743 741.829 63.7962 741.666 64.7402C741.503 65.668 741.422 66.6689 741.422 67.7432V68.6709C741.422 69.6963 741.56 70.6322 741.837 71.4785C742.114 72.3249 742.521 73.0492 743.058 73.6514C743.595 74.2536 744.246 74.7256 745.011 75.0674C745.776 75.4092 746.646 75.5801 747.623 75.5801C748.827 75.5801 749.975 75.3522 751.065 74.8965C752.156 74.4245 753.1 73.6921 753.897 72.6992L757.462 76.7764C756.925 77.5576 756.168 78.3145 755.191 79.0469C754.231 79.763 753.076 80.349 751.725 80.8047C750.374 81.2604 748.844 81.4883 747.135 81.4883ZM769.474 59.6621V91.1562H761.856V54.584H768.961L769.474 59.6621ZM785.953 67.499V68.0117C785.953 69.9323 785.733 71.7145 785.294 73.3584C784.854 74.986 784.195 76.4102 783.316 77.6309C782.454 78.8516 781.388 79.8037 780.118 80.4873C778.849 81.1546 777.376 81.4883 775.699 81.4883C774.104 81.4883 772.721 81.1546 771.549 80.4873C770.393 79.8037 769.417 78.8597 768.619 77.6553C767.838 76.4346 767.203 75.043 766.715 73.4805C766.243 71.9017 765.877 70.2171 765.616 68.4268V67.4258C765.877 65.5215 766.251 63.7555 766.739 62.1279C767.228 60.5003 767.862 59.0924 768.644 57.9043C769.425 56.6999 770.393 55.764 771.549 55.0967C772.704 54.4294 774.08 54.0957 775.675 54.0957C777.335 54.0957 778.808 54.4131 780.094 55.0479C781.38 55.6826 782.454 56.5941 783.316 57.7822C784.195 58.9541 784.854 60.362 785.294 62.0059C785.733 63.6497 785.953 65.4808 785.953 67.499ZM778.312 68.0117V67.499C778.312 66.4248 778.23 65.4401 778.067 64.5449C777.905 63.6335 777.644 62.8441 777.286 62.1768C776.928 61.4932 776.456 60.9642 775.87 60.5898C775.284 60.2155 774.568 60.0283 773.722 60.0283C772.81 60.0283 772.037 60.1748 771.402 60.4678C770.768 60.7607 770.255 61.1921 769.864 61.7617C769.474 62.3151 769.189 62.9987 769.01 63.8125C768.847 64.6263 768.757 65.554 768.741 66.5957V69.2812C768.757 70.502 768.928 71.5924 769.254 72.5527C769.596 73.4967 770.125 74.2373 770.841 74.7744C771.573 75.2952 772.55 75.5557 773.771 75.5557C774.633 75.5557 775.349 75.3685 775.919 74.9941C776.505 74.6035 776.969 74.0583 777.311 73.3584C777.669 72.6585 777.921 71.8529 778.067 70.9414C778.23 70.0299 778.312 69.0534 778.312 68.0117ZM809.586 59.9795H813.468C814.575 59.9795 815.486 59.7842 816.202 59.3936C816.935 59.0029 817.472 58.4495 817.813 57.7334C818.172 57.0173 818.351 56.179 818.351 55.2188C818.351 54.3887 818.188 53.6481 817.862 52.9971C817.537 52.346 817.04 51.8333 816.373 51.459C815.722 51.0684 814.876 50.873 813.834 50.873C813.085 50.873 812.369 51.0277 811.686 51.3369C811.018 51.6299 810.473 52.0612 810.05 52.6309C809.627 53.1842 809.415 53.8516 809.415 54.6328H801.773C801.773 52.6471 802.311 50.93 803.385 49.4814C804.475 48.0329 805.916 46.918 807.706 46.1367C809.513 45.3392 811.482 44.9404 813.614 44.9404C816.072 44.9404 818.229 45.3311 820.084 46.1123C821.956 46.8773 823.404 48.0166 824.43 49.5303C825.471 51.0277 825.992 52.8831 825.992 55.0967C825.992 56.2523 825.715 57.3672 825.162 58.4414C824.625 59.4993 823.852 60.4434 822.843 61.2734C821.85 62.0872 820.662 62.7383 819.278 63.2266C817.911 63.6986 816.389 63.9346 814.713 63.9346H809.586V59.9795ZM809.586 65.7168V61.835H814.713C816.568 61.835 818.229 62.0465 819.693 62.4697C821.158 62.8929 822.403 63.5033 823.429 64.3008C824.454 65.0983 825.235 66.0667 825.772 67.2061C826.31 68.3454 826.578 69.6149 826.578 71.0146C826.578 72.6748 826.253 74.1559 825.602 75.458C824.951 76.7601 824.039 77.8587 822.867 78.7539C821.695 79.6491 820.32 80.3327 818.741 80.8047C817.162 81.2604 815.453 81.4883 813.614 81.4883C812.133 81.4883 810.66 81.2848 809.195 80.8779C807.73 80.471 806.404 79.8525 805.216 79.0225C804.028 78.1761 803.076 77.11 802.359 75.8242C801.643 74.5221 801.285 72.9759 801.285 71.1855H808.927C808.927 72.0156 809.138 72.7643 809.562 73.4316C810.001 74.0827 810.595 74.6035 811.344 74.9941C812.109 75.3685 812.939 75.5557 813.834 75.5557C814.908 75.5557 815.82 75.3604 816.568 74.9697C817.333 74.5628 817.911 74.0094 818.302 73.3096C818.709 72.6097 818.912 71.804 818.912 70.8926C818.912 69.6556 818.692 68.6628 818.253 67.9141C817.83 67.1491 817.211 66.5957 816.397 66.2539C815.584 65.8958 814.607 65.7168 813.468 65.7168H809.586Z" fill="#223D4D"/>
<path fill-rule="evenodd" clip-rule="evenodd" d="M661.98 6.85224C663.196 8.43199 663.829 10.3834 663.772 12.3762C663.715 14.369 662.971 16.2808 661.666 17.7881L677.593 38.4863C677.873 38.8498 677.997 39.3096 677.938 39.7645C677.878 40.2194 677.641 40.6321 677.277 40.9118C676.914 41.1916 676.454 41.3155 675.999 41.2562C675.544 41.197 675.131 40.9594 674.852 40.5959L658.924 19.8977C657.454 20.616 655.81 20.9025 654.184 20.724C652.557 20.5454 651.015 19.9091 649.736 18.8889C648.456 17.8687 647.493 16.5065 646.957 14.9606C646.421 13.4146 646.334 11.7483 646.708 10.1551C647.081 8.56202 647.898 7.10746 649.065 5.9604C650.232 4.81334 651.7 4.02086 653.3 3.67499C654.899 3.32913 656.564 3.44408 658.1 4.00648C659.637 4.56889 660.982 5.55568 661.98 6.85224Z" fill="#3E5C6D"/>
<path fill-rule="evenodd" clip-rule="evenodd" d="M851.151 6.85224C849.934 8.43199 849.301 10.3834 849.359 12.3762C849.416 14.369 850.16 16.2808 851.465 17.7881L835.538 38.4863C835.258 38.8498 835.134 39.3096 835.193 39.7645C835.253 40.2194 835.49 40.6321 835.854 40.9118C836.217 41.1916 836.677 41.3155 837.132 41.2562C837.587 41.197 837.999 40.9594 838.279 40.5959L854.207 19.8977C855.677 20.616 857.32 20.9025 858.947 20.724C860.573 20.5454 862.116 19.9091 863.395 18.8889C864.674 17.8687 865.638 16.5065 866.174 14.9606C866.71 13.4146 866.796 11.7483 866.423 10.1551C866.05 8.56202 865.233 7.10746 864.066 5.9604C862.899 4.81334 861.43 4.02086 859.831 3.67499C858.232 3.32913 856.567 3.44408 855.031 4.00648C853.494 4.56889 852.149 5.55568 851.151 6.85224Z" fill="#3E5C6D"/>
<line x1="0.5" y1="44" x2="0.5" y2="59" stroke="black"/>
<line x1="1511.5" y1="42" x2="1511.5" y2="57" stroke="black"/>
</svg>
