<svg width="1512" height="112" viewBox="0 0 1512 112" fill="none" xmlns="http://www.w3.org/2000/svg">
<rect x="662" y="26" width="189" height="83" rx="27" fill="#EEEEEE"/>
<rect x="662" y="26" width="189" height="83" rx="27" stroke="#789DB2" stroke-width="6" stroke-linecap="round" stroke-linejoin="round" stroke-dasharray="30 30"/>
<path d="M705.362 75.625C705.362 75.0228 705.273 74.4857 705.094 74.0137C704.915 73.5254 704.589 73.0778 704.117 72.6709C703.645 72.264 702.978 71.8571 702.115 71.4502C701.253 71.027 700.121 70.5957 698.722 70.1562C697.127 69.6354 695.605 69.0495 694.156 68.3984C692.724 67.7311 691.446 66.958 690.323 66.0791C689.2 65.2002 688.313 64.1748 687.662 63.0029C687.027 61.8311 686.71 60.4639 686.71 58.9014C686.71 57.3877 687.044 56.0205 687.711 54.7998C688.378 53.5791 689.314 52.5374 690.519 51.6748C691.723 50.7959 693.139 50.1286 694.767 49.6729C696.394 49.2008 698.185 48.9648 700.138 48.9648C702.742 48.9648 705.029 49.4287 706.998 50.3564C708.984 51.2679 710.53 52.5537 711.637 54.2139C712.743 55.8577 713.297 57.7702 713.297 59.9512H705.387C705.387 58.9909 705.183 58.1445 704.776 57.4121C704.386 56.6634 703.784 56.0775 702.97 55.6543C702.172 55.2311 701.171 55.0195 699.967 55.0195C698.795 55.0195 697.81 55.1986 697.013 55.5566C696.231 55.8984 695.637 56.3704 695.23 56.9727C694.84 57.5749 694.645 58.234 694.645 58.9502C694.645 59.5199 694.791 60.0407 695.084 60.5127C695.393 60.9684 695.833 61.3997 696.402 61.8066C696.988 62.1973 697.704 62.5716 698.551 62.9297C699.397 63.2878 700.366 63.6296 701.456 63.9551C703.36 64.5573 705.045 65.2246 706.51 65.957C707.991 66.6895 709.236 67.5195 710.245 68.4473C711.254 69.375 712.011 70.4248 712.516 71.5967C713.036 72.7686 713.297 74.0951 713.297 75.5762C713.297 77.1549 712.988 78.5547 712.369 79.7754C711.767 80.9961 710.888 82.0378 709.732 82.9004C708.593 83.7467 707.226 84.3896 705.631 84.8291C704.036 85.2686 702.254 85.4883 700.284 85.4883C698.494 85.4883 696.728 85.2604 694.986 84.8047C693.245 84.3327 691.666 83.6165 690.25 82.6562C688.85 81.696 687.727 80.4753 686.881 78.9941C686.051 77.4967 685.636 75.7227 685.636 73.6719H693.595C693.595 74.7461 693.749 75.6576 694.059 76.4062C694.368 77.1387 694.807 77.7327 695.377 78.1885C695.963 78.6442 696.671 78.9697 697.501 79.165C698.331 79.3604 699.259 79.458 700.284 79.458C701.472 79.458 702.433 79.2952 703.165 78.9697C703.914 78.6279 704.467 78.1641 704.825 77.5781C705.183 76.9922 705.362 76.3411 705.362 75.625ZM731.021 58.584V63.9307H715.348V58.584H731.021ZM718.937 52.041H726.578V76.7236C726.578 77.4561 726.668 78.0176 726.847 78.4082C727.026 78.7988 727.319 79.0755 727.726 79.2383C728.132 79.3848 728.653 79.458 729.288 79.458C729.744 79.458 730.134 79.4417 730.46 79.4092C730.785 79.3766 731.087 79.3359 731.363 79.2871V84.8047C730.712 85.0163 730.021 85.179 729.288 85.293C728.556 85.4232 727.758 85.4883 726.896 85.4883C725.252 85.4883 723.827 85.2197 722.623 84.6826C721.435 84.1455 720.523 83.2992 719.889 82.1436C719.254 80.9717 718.937 79.4499 718.937 77.5781V52.041ZM747.135 85.4883C745.035 85.4883 743.155 85.1546 741.495 84.4873C739.835 83.82 738.427 82.9004 737.271 81.7285C736.132 80.5404 735.261 79.1732 734.659 77.627C734.057 76.0807 733.756 74.4287 733.756 72.6709V71.7432C733.756 69.7738 734.033 67.959 734.586 66.2988C735.139 64.6387 735.945 63.1982 737.003 61.9775C738.077 60.7406 739.396 59.7884 740.958 59.1211C742.521 58.4375 744.303 58.0957 746.305 58.0957C748.176 58.0957 749.845 58.4049 751.31 59.0234C752.774 59.6257 754.011 60.4964 755.021 61.6357C756.03 62.7588 756.795 64.1178 757.315 65.7129C757.853 67.2917 758.121 69.0658 758.121 71.0352V74.1602H736.832V69.2529H750.65V68.667C750.65 67.7393 750.479 66.9255 750.138 66.2256C749.812 65.5257 749.324 64.9886 748.673 64.6143C748.038 64.2236 747.232 64.0283 746.256 64.0283C745.328 64.0283 744.555 64.2236 743.937 64.6143C743.318 65.0049 742.822 65.5583 742.447 66.2744C742.089 66.9743 741.829 67.7962 741.666 68.7402C741.503 69.668 741.422 70.6689 741.422 71.7432V72.6709C741.422 73.6963 741.56 74.6322 741.837 75.4785C742.114 76.3249 742.521 77.0492 743.058 77.6514C743.595 78.2536 744.246 78.7256 745.011 79.0674C745.776 79.4092 746.646 79.5801 747.623 79.5801C748.827 79.5801 749.975 79.3522 751.065 78.8965C752.156 78.4245 753.1 77.6921 753.897 76.6992L757.462 80.7764C756.925 81.5576 756.168 82.3145 755.191 83.0469C754.231 83.763 753.076 84.349 751.725 84.8047C750.374 85.2604 748.844 85.4883 747.135 85.4883ZM769.474 63.6621V95.1562H761.856V58.584H768.961L769.474 63.6621ZM785.953 71.499V72.0117C785.953 73.9323 785.733 75.7145 785.294 77.3584C784.854 78.986 784.195 80.4102 783.316 81.6309C782.454 82.8516 781.388 83.8037 780.118 84.4873C778.849 85.1546 777.376 85.4883 775.699 85.4883C774.104 85.4883 772.721 85.1546 771.549 84.4873C770.393 83.8037 769.417 82.8597 768.619 81.6553C767.838 80.4346 767.203 79.043 766.715 77.4805C766.243 75.9017 765.877 74.2171 765.616 72.4268V71.4258C765.877 69.5215 766.251 67.7555 766.739 66.1279C767.228 64.5003 767.862 63.0924 768.644 61.9043C769.425 60.6999 770.393 59.764 771.549 59.0967C772.704 58.4294 774.08 58.0957 775.675 58.0957C777.335 58.0957 778.808 58.4131 780.094 59.0479C781.38 59.6826 782.454 60.5941 783.316 61.7822C784.195 62.9541 784.854 64.362 785.294 66.0059C785.733 67.6497 785.953 69.4808 785.953 71.499ZM778.312 72.0117V71.499C778.312 70.4248 778.23 69.4401 778.067 68.5449C777.905 67.6335 777.644 66.8441 777.286 66.1768C776.928 65.4932 776.456 64.9642 775.87 64.5898C775.284 64.2155 774.568 64.0283 773.722 64.0283C772.81 64.0283 772.037 64.1748 771.402 64.4678C770.768 64.7607 770.255 65.1921 769.864 65.7617C769.474 66.3151 769.189 66.9987 769.01 67.8125C768.847 68.6263 768.757 69.554 768.741 70.5957V73.2812C768.757 74.502 768.928 75.5924 769.254 76.5527C769.596 77.4967 770.125 78.2373 770.841 78.7744C771.573 79.2952 772.55 79.5557 773.771 79.5557C774.633 79.5557 775.349 79.3685 775.919 78.9941C776.505 78.6035 776.969 78.0583 777.311 77.3584C777.669 76.6585 777.921 75.8529 778.067 74.9414C778.23 74.0299 778.312 73.0534 778.312 72.0117ZM819.913 49.4287V85H812.271V58.1201L804.02 60.6348V54.7266L819.156 49.4287H819.913Z" fill="#223D4D"/>
<path fill-rule="evenodd" clip-rule="evenodd" d="M656.98 6.85224C658.196 8.43199 658.829 10.3834 658.772 12.3762C658.715 14.369 657.971 16.2808 656.666 17.7881L672.593 38.4863C672.873 38.8498 672.997 39.3096 672.938 39.7645C672.878 40.2194 672.641 40.6321 672.277 40.9118C671.914 41.1916 671.454 41.3155 670.999 41.2562C670.544 41.197 670.131 40.9594 669.852 40.5959L653.924 19.8977C652.454 20.616 650.81 20.9025 649.184 20.724C647.557 20.5454 646.015 19.9091 644.736 18.8889C643.456 17.8687 642.493 16.5065 641.957 14.9606C641.421 13.4146 641.334 11.7483 641.708 10.1551C642.081 8.56202 642.898 7.10746 644.065 5.9604C645.232 4.81334 646.7 4.02086 648.3 3.67499C649.899 3.32913 651.564 3.44408 653.1 4.00648C654.637 4.56889 655.982 5.55568 656.98 6.85224Z" fill="#3E5C6D"/>
<path fill-rule="evenodd" clip-rule="evenodd" d="M852.151 6.85224C850.934 8.43199 850.301 10.3834 850.359 12.3762C850.416 14.369 851.16 16.2808 852.465 17.7881L836.538 38.4863C836.258 38.8498 836.134 39.3096 836.193 39.7645C836.253 40.2194 836.49 40.6321 836.854 40.9118C837.217 41.1916 837.677 41.3155 838.132 41.2562C838.587 41.197 838.999 40.9594 839.279 40.5959L855.207 19.8977C856.677 20.616 858.32 20.9025 859.947 20.724C861.573 20.5454 863.116 19.9091 864.395 18.8889C865.674 17.8687 866.638 16.5065 867.174 14.9606C867.71 13.4146 867.796 11.7483 867.423 10.1551C867.05 8.56202 866.233 7.10746 865.066 5.9604C863.899 4.81334 862.43 4.02086 860.831 3.67499C859.232 3.32913 857.567 3.44408 856.031 4.00648C854.494 4.56889 853.149 5.55568 852.151 6.85224Z" fill="#3E5C6D"/>
<line x1="0.5" y1="61" x2="0.5" y2="76" stroke="white"/>
<line x1="1511.5" y1="59" x2="1511.5" y2="74" stroke="white"/>
</svg>
