<svg width="390" height="328" viewBox="0 0 390 328" fill="none" xmlns="http://www.w3.org/2000/svg">
<g clip-path="url(#clip0_221_197)">
<path d="M402.71 107.674C442.88 145.689 504.496 176.669 517.005 216.819C529.028 257.147 491.791 306.978 449.232 337.773C406.673 368.568 358.792 380.326 322.107 421.118C285.755 462.064 260.931 532.197 225.854 544.231C190.445 556.111 145.114 510.047 95.3774 481.339C45.4619 452.145 -8.55188 439.642 -23.3501 405.302C-38.4809 370.808 -13.9093 314.299 -21.2985 258.74C-28.5092 203.668 -67.8348 149.878 -68.8305 99.7071C-70.1588 49.3818 -33.4898 2.52054 14.9348 -13.0276C63.0268 -28.7298 122.72 -12.7863 176.312 -8.96545C229.418 -4.9661 277.087 -12.7812 309.964 6.09221C343.328 24.7871 362.385 69.9919 402.71 107.674Z" fill="#EEEEEE"/>
<path d="M323.398 -135C390.273 35.64 375.184 252.531 273.322 407.519C155.576 586.676 -39.0885 1058.65 76.248 1281.39C191.584 1504.14 343.913 1407.1 323.398 1849" stroke="#F24822" stroke-width="3" stroke-linecap="round" stroke-dasharray="4.64 4.64"/>
</g>
<defs>
<clipPath id="clip0_221_197">
<rect width="390" height="328" fill="white"/>
</clipPath>
</defs>
</svg>
