<svg width="390" height="53" viewBox="0 0 390 53" fill="none" xmlns="http://www.w3.org/2000/svg">
<rect x="145.774" y="10.6547" width="98.3492" height="41.1905" rx="6.96429" fill="#EEEEEE"/>
<rect x="145.774" y="10.6547" width="98.3492" height="41.1905" rx="6.96429" stroke="#789DB2" stroke-width="1.54762" stroke-linecap="round" stroke-linejoin="round" stroke-dasharray="7.74 7.74"/>
<path d="M164.266 36.125C164.266 35.7637 164.212 35.4414 164.104 35.1582C163.997 34.8652 163.802 34.5967 163.519 34.3525C163.235 34.1084 162.835 33.8643 162.317 33.6201C161.8 33.3662 161.121 33.1074 160.281 32.8438C159.324 32.5312 158.411 32.1797 157.542 31.7891C156.683 31.3887 155.916 30.9248 155.242 30.3975C154.568 29.8701 154.036 29.2549 153.646 28.5518C153.265 27.8486 153.074 27.0283 153.074 26.0908C153.074 25.1826 153.274 24.3623 153.675 23.6299C154.075 22.8975 154.637 22.2725 155.359 21.7549C156.082 21.2275 156.932 20.8271 157.908 20.5537C158.885 20.2705 159.959 20.1289 161.131 20.1289C162.693 20.1289 164.065 20.4072 165.247 20.9639C166.438 21.5107 167.366 22.2822 168.03 23.2783C168.694 24.2646 169.026 25.4121 169.026 26.7207H164.28C164.28 26.1445 164.158 25.6367 163.914 25.1973C163.68 24.748 163.318 24.3965 162.83 24.1426C162.352 23.8887 161.751 23.7617 161.028 23.7617C160.325 23.7617 159.734 23.8691 159.256 24.084C158.787 24.2891 158.431 24.5723 158.187 24.9336C157.952 25.2949 157.835 25.6904 157.835 26.1201C157.835 26.4619 157.923 26.7744 158.099 27.0576C158.284 27.3311 158.548 27.5898 158.89 27.834C159.241 28.0684 159.671 28.293 160.179 28.5078C160.687 28.7227 161.268 28.9277 161.922 29.123C163.064 29.4844 164.075 29.8848 164.954 30.3242C165.843 30.7637 166.59 31.2617 167.195 31.8184C167.801 32.375 168.255 33.0049 168.558 33.708C168.87 34.4111 169.026 35.207 169.026 36.0957C169.026 37.043 168.841 37.8828 168.47 38.6152C168.108 39.3477 167.581 39.9727 166.888 40.4902C166.204 40.998 165.384 41.3838 164.427 41.6475C163.47 41.9111 162.4 42.043 161.219 42.043C160.145 42.043 159.085 41.9062 158.04 41.6328C156.995 41.3496 156.048 40.9199 155.198 40.3438C154.358 39.7676 153.685 39.0352 153.177 38.1465C152.679 37.248 152.43 36.1836 152.43 34.9531H157.205C157.205 35.5977 157.298 36.1445 157.483 36.5938C157.669 37.0332 157.933 37.3896 158.274 37.6631C158.626 37.9365 159.051 38.1318 159.549 38.249C160.047 38.3662 160.604 38.4248 161.219 38.4248C161.932 38.4248 162.508 38.3271 162.947 38.1318C163.396 37.9268 163.729 37.6484 163.943 37.2969C164.158 36.9453 164.266 36.5547 164.266 36.125ZM179.661 25.9004V29.1084H170.257V25.9004H179.661ZM172.41 21.9746H176.995V36.7842C176.995 37.2236 177.049 37.5605 177.156 37.7949C177.264 38.0293 177.439 38.1953 177.684 38.293C177.928 38.3809 178.24 38.4248 178.621 38.4248C178.895 38.4248 179.129 38.415 179.324 38.3955C179.52 38.376 179.7 38.3516 179.866 38.3223V41.6328C179.476 41.7598 179.061 41.8574 178.621 41.9258C178.182 42.0039 177.703 42.043 177.186 42.043C176.199 42.043 175.345 41.8818 174.622 41.5596C173.909 41.2373 173.362 40.7295 172.981 40.0361C172.601 39.333 172.41 38.4199 172.41 37.2969V21.9746ZM189.329 42.043C188.069 42.043 186.941 41.8428 185.945 41.4424C184.949 41.042 184.104 40.4902 183.411 39.7871C182.728 39.0742 182.205 38.2539 181.844 37.3262C181.482 36.3984 181.302 35.4072 181.302 34.3525V33.7959C181.302 32.6143 181.468 31.5254 181.8 30.5293C182.132 29.5332 182.615 28.6689 183.25 27.9365C183.895 27.1943 184.686 26.623 185.623 26.2227C186.561 25.8125 187.63 25.6074 188.831 25.6074C189.954 25.6074 190.955 25.793 191.834 26.1641C192.713 26.5254 193.455 27.0479 194.061 27.7314C194.666 28.4053 195.125 29.2207 195.438 30.1777C195.76 31.125 195.921 32.1895 195.921 33.3711V35.2461H183.147V32.3018H191.438V31.9502C191.438 31.3936 191.336 30.9053 191.131 30.4854C190.936 30.0654 190.643 29.7432 190.252 29.5186C189.871 29.2842 189.388 29.167 188.802 29.167C188.245 29.167 187.781 29.2842 187.41 29.5186C187.039 29.7529 186.741 30.085 186.517 30.5146C186.302 30.9346 186.146 31.4277 186.048 31.9941C185.95 32.5508 185.901 33.1514 185.901 33.7959V34.3525C185.901 34.9678 185.984 35.5293 186.15 36.0371C186.316 36.5449 186.561 36.9795 186.883 37.3408C187.205 37.7021 187.596 37.9854 188.055 38.1904C188.514 38.3955 189.036 38.498 189.622 38.498C190.345 38.498 191.033 38.3613 191.688 38.0879C192.342 37.8047 192.908 37.3652 193.387 36.7695L195.525 39.2158C195.203 39.6846 194.749 40.1387 194.163 40.5781C193.587 41.0078 192.894 41.3594 192.083 41.6328C191.272 41.9062 190.354 42.043 189.329 42.043ZM202.732 28.9473V47.8438H198.162V25.9004H202.425L202.732 28.9473ZM212.62 33.6494V33.957C212.62 35.1094 212.488 36.1787 212.225 37.165C211.961 38.1416 211.565 38.9961 211.038 39.7285C210.521 40.4609 209.881 41.0322 209.119 41.4424C208.357 41.8428 207.474 42.043 206.468 42.043C205.511 42.043 204.681 41.8428 203.978 41.4424C203.284 41.0322 202.698 40.4658 202.22 39.7432C201.751 39.0107 201.37 38.1758 201.077 37.2383C200.794 36.291 200.574 35.2803 200.418 34.2061V33.6055C200.574 32.4629 200.799 31.4033 201.092 30.4268C201.385 29.4502 201.766 28.6055 202.234 27.8926C202.703 27.1699 203.284 26.6084 203.978 26.208C204.671 25.8076 205.496 25.6074 206.453 25.6074C207.449 25.6074 208.333 25.7979 209.104 26.1787C209.876 26.5596 210.521 27.1064 211.038 27.8193C211.565 28.5225 211.961 29.3672 212.225 30.3535C212.488 31.3398 212.62 32.4385 212.62 33.6494ZM208.035 33.957V33.6494C208.035 33.0049 207.986 32.4141 207.889 31.877C207.791 31.3301 207.635 30.8564 207.42 30.4561C207.205 30.0459 206.922 29.7285 206.57 29.5039C206.219 29.2793 205.789 29.167 205.281 29.167C204.734 29.167 204.271 29.2549 203.89 29.4307C203.509 29.6064 203.201 29.8652 202.967 30.207C202.732 30.5391 202.562 30.9492 202.454 31.4375C202.356 31.9258 202.303 32.4824 202.293 33.1074V34.7188C202.303 35.4512 202.405 36.1055 202.601 36.6816C202.806 37.248 203.123 37.6924 203.553 38.0146C203.992 38.3271 204.578 38.4834 205.311 38.4834C205.828 38.4834 206.258 38.3711 206.6 38.1465C206.951 37.9121 207.229 37.585 207.435 37.165C207.649 36.7451 207.801 36.2617 207.889 35.7148C207.986 35.168 208.035 34.582 208.035 33.957ZM237.127 38.1904V41.75H222.391V38.7324L229.275 31.4375C229.92 30.6953 230.433 30.041 230.813 29.4746C231.204 28.9082 231.487 28.3955 231.663 27.9365C231.839 27.4678 231.927 27.0381 231.927 26.6475C231.927 26.0127 231.824 25.4756 231.619 25.0361C231.424 24.5967 231.136 24.2598 230.755 24.0254C230.374 23.791 229.91 23.6738 229.363 23.6738C228.777 23.6738 228.274 23.8252 227.854 24.1279C227.435 24.4307 227.112 24.8506 226.888 25.3877C226.663 25.915 226.551 26.5156 226.551 27.1895H221.951C221.951 25.8906 222.264 24.709 222.889 23.6445C223.514 22.5703 224.388 21.7158 225.511 21.0811C226.634 20.4365 227.947 20.1143 229.451 20.1143C230.994 20.1143 232.288 20.3584 233.333 20.8467C234.378 21.335 235.169 22.0332 235.706 22.9414C236.243 23.8496 236.512 24.9434 236.512 26.2227C236.512 26.9453 236.395 27.6436 236.16 28.3174C235.936 28.9912 235.608 29.6602 235.179 30.3242C234.749 30.9883 234.231 31.667 233.626 32.3604C233.021 33.0439 232.337 33.7666 231.575 34.5283L228.353 38.1904H237.127Z" fill="#223D4D"/>
<path fill-rule="evenodd" clip-rule="evenodd" d="M145.625 3.11403C146.178 3.83193 146.466 4.71872 146.44 5.62433C146.414 6.52994 146.075 7.39874 145.482 8.0837L152.721 17.4898C152.848 17.655 152.904 17.8639 152.877 18.0707C152.85 18.2774 152.742 18.4649 152.577 18.592C152.412 18.7192 152.203 18.7755 151.996 18.7485C151.789 18.7216 151.602 18.6137 151.475 18.4485L144.237 9.04237C143.569 9.36882 142.822 9.49904 142.082 9.41789C141.343 9.33675 140.642 9.04758 140.061 8.58396C139.48 8.12035 139.042 7.50132 138.798 6.79877C138.555 6.09622 138.515 5.33898 138.685 4.615C138.854 3.89102 139.226 3.23001 139.756 2.70874C140.287 2.18747 140.954 1.82733 141.681 1.67016C142.407 1.51299 143.164 1.56522 143.862 1.8208C144.56 2.07638 145.172 2.52482 145.625 3.11403Z" fill="#3E5C6D"/>
<path fill-rule="evenodd" clip-rule="evenodd" d="M244.066 3.11403C243.513 3.83193 243.226 4.71872 243.252 5.62433C243.278 6.52994 243.616 7.39874 244.209 8.0837L236.971 17.4898C236.844 17.655 236.787 17.8639 236.814 18.0707C236.841 18.2774 236.949 18.4649 237.114 18.592C237.28 18.7192 237.489 18.7755 237.695 18.7485C237.902 18.7216 238.09 18.6137 238.217 18.4485L245.455 9.04237C246.123 9.36882 246.87 9.49904 247.609 9.41789C248.348 9.33675 249.049 9.04758 249.63 8.58396C250.212 8.12035 250.65 7.50132 250.893 6.79877C251.137 6.09622 251.176 5.33898 251.007 4.615C250.837 3.89102 250.465 3.23001 249.935 2.70874C249.405 2.18747 248.738 1.82733 248.011 1.67016C247.284 1.51299 246.528 1.56522 245.829 1.8208C245.131 2.07638 244.52 2.52482 244.066 3.11403Z" fill="#3E5C6D"/>
<line x1="0.5" y1="24" x2="0.5" y2="39" stroke="white"/>
<line x1="389.5" y1="22" x2="389.5" y2="37" stroke="white"/>
</svg>
