<svg width="390" height="161" viewBox="0 0 390 161" fill="none" xmlns="http://www.w3.org/2000/svg">
<rect x="145.774" y="63.2457" width="98.3492" height="41.1905" rx="6.96429" fill="#EEEEEE"/>
<rect x="145.774" y="63.2457" width="98.3492" height="41.1905" rx="6.96429" stroke="#789DB2" stroke-width="1.54762" stroke-linecap="round" stroke-linejoin="round" stroke-dasharray="7.74 7.74"/>
<path d="M164.266 88.7159C164.266 88.3546 164.212 88.0323 164.104 87.7491C163.997 87.4562 163.802 87.1876 163.519 86.9435C163.235 86.6993 162.835 86.4552 162.317 86.2111C161.8 85.9572 161.121 85.6984 160.281 85.4347C159.324 85.1222 158.411 84.7706 157.542 84.38C156.683 83.9796 155.916 83.5157 155.242 82.9884C154.568 82.4611 154.036 81.8458 153.646 81.1427C153.265 80.4396 153.074 79.6193 153.074 78.6818C153.074 77.7736 153.274 76.9532 153.675 76.2208C154.075 75.4884 154.637 74.8634 155.359 74.3458C156.082 73.8185 156.932 73.4181 157.908 73.1447C158.885 72.8615 159.959 72.7198 161.131 72.7198C162.693 72.7198 164.065 72.9982 165.247 73.5548C166.438 74.1017 167.366 74.8732 168.03 75.8693C168.694 76.8556 169.026 78.0031 169.026 79.3116H164.28C164.28 78.7355 164.158 78.2277 163.914 77.7882C163.68 77.339 163.318 76.9874 162.83 76.7335C162.352 76.4796 161.751 76.3527 161.028 76.3527C160.325 76.3527 159.734 76.4601 159.256 76.6749C158.787 76.88 158.431 77.1632 158.187 77.5245C157.952 77.8859 157.835 78.2814 157.835 78.7111C157.835 79.0529 157.923 79.3654 158.099 79.6486C158.284 79.922 158.548 80.1808 158.89 80.4249C159.241 80.6593 159.671 80.8839 160.179 81.0988C160.687 81.3136 161.268 81.5187 161.922 81.714C163.064 82.0753 164.075 82.4757 164.954 82.9152C165.843 83.3546 166.59 83.8527 167.195 84.4093C167.801 84.9659 168.255 85.5958 168.558 86.299C168.87 87.0021 169.026 87.798 169.026 88.6866C169.026 89.6339 168.841 90.4738 168.47 91.2062C168.108 91.9386 167.581 92.5636 166.888 93.0812C166.204 93.589 165.384 93.9747 164.427 94.2384C163.47 94.5021 162.4 94.6339 161.219 94.6339C160.145 94.6339 159.085 94.4972 158.04 94.2238C156.995 93.9406 156.048 93.5109 155.198 92.9347C154.358 92.3585 153.685 91.6261 153.177 90.7374C152.679 89.839 152.43 88.7745 152.43 87.5441H157.205C157.205 88.1886 157.298 88.7355 157.483 89.1847C157.669 89.6241 157.933 89.9806 158.274 90.254C158.626 90.5275 159.051 90.7228 159.549 90.84C160.047 90.9572 160.604 91.0157 161.219 91.0157C161.932 91.0157 162.508 90.9181 162.947 90.7228C163.396 90.5177 163.729 90.2394 163.943 89.8878C164.158 89.5363 164.266 89.1456 164.266 88.7159ZM179.661 78.4913V81.6993H170.257V78.4913H179.661ZM172.41 74.5656H176.995V89.3751C176.995 89.8146 177.049 90.1515 177.156 90.3859C177.264 90.6202 177.439 90.7863 177.684 90.8839C177.928 90.9718 178.24 91.0157 178.621 91.0157C178.895 91.0157 179.129 91.006 179.324 90.9865C179.52 90.9669 179.7 90.9425 179.866 90.9132V94.2238C179.476 94.3507 179.061 94.4484 178.621 94.5167C178.182 94.5948 177.703 94.6339 177.186 94.6339C176.199 94.6339 175.345 94.4728 174.622 94.1505C173.909 93.8282 173.362 93.3204 172.981 92.6271C172.601 91.924 172.41 91.0109 172.41 89.8878V74.5656ZM189.329 94.6339C188.069 94.6339 186.941 94.4337 185.945 94.0333C184.949 93.6329 184.104 93.0812 183.411 92.3781C182.728 91.6652 182.205 90.8448 181.844 89.9171C181.482 88.9894 181.302 87.9982 181.302 86.9435V86.3868C181.302 85.2052 181.468 84.1163 181.8 83.1202C182.132 82.1241 182.615 81.2599 183.25 80.5275C183.895 79.7853 184.686 79.214 185.623 78.8136C186.561 78.4034 187.63 78.1984 188.831 78.1984C189.954 78.1984 190.955 78.3839 191.834 78.755C192.713 79.1163 193.455 79.6388 194.061 80.3224C194.666 80.9962 195.125 81.8116 195.438 82.7687C195.76 83.7159 195.921 84.7804 195.921 85.962V87.837H183.147V84.8927H191.438V84.5411C191.438 83.9845 191.336 83.4962 191.131 83.0763C190.936 82.6564 190.643 82.3341 190.252 82.1095C189.871 81.8751 189.388 81.7579 188.802 81.7579C188.245 81.7579 187.781 81.8751 187.41 82.1095C187.039 82.3439 186.741 82.6759 186.517 83.1056C186.302 83.5255 186.146 84.0187 186.048 84.5851C185.95 85.1417 185.901 85.7423 185.901 86.3868V86.9435C185.901 87.5587 185.984 88.1202 186.15 88.6281C186.316 89.1359 186.561 89.5704 186.883 89.9318C187.205 90.2931 187.596 90.5763 188.055 90.7814C188.514 90.9865 189.036 91.089 189.622 91.089C190.345 91.089 191.033 90.9523 191.688 90.6788C192.342 90.3956 192.908 89.9562 193.387 89.3605L195.525 91.8068C195.203 92.2755 194.749 92.7296 194.163 93.1691C193.587 93.5988 192.894 93.9503 192.083 94.2238C191.272 94.4972 190.354 94.6339 189.329 94.6339ZM202.732 81.5382V100.435H198.162V78.4913H202.425L202.732 81.5382ZM212.62 86.2404V86.548C212.62 87.7003 212.488 88.7697 212.225 89.756C211.961 90.7325 211.565 91.587 211.038 92.3195C210.521 93.0519 209.881 93.6232 209.119 94.0333C208.357 94.4337 207.474 94.6339 206.468 94.6339C205.511 94.6339 204.681 94.4337 203.978 94.0333C203.284 93.6232 202.698 93.0568 202.22 92.3341C201.751 91.6017 201.37 90.7667 201.077 89.8292C200.794 88.882 200.574 87.8712 200.418 86.797V86.1964C200.574 85.0538 200.799 83.9943 201.092 83.0177C201.385 82.0411 201.766 81.1964 202.234 80.4835C202.703 79.7609 203.284 79.1993 203.978 78.799C204.671 78.3986 205.496 78.1984 206.453 78.1984C207.449 78.1984 208.333 78.3888 209.104 78.7697C209.876 79.1505 210.521 79.6974 211.038 80.4103C211.565 81.1134 211.961 81.9581 212.225 82.9445C212.488 83.9308 212.62 85.0294 212.62 86.2404ZM208.035 86.548V86.2404C208.035 85.5958 207.986 85.005 207.889 84.4679C207.791 83.921 207.635 83.4474 207.42 83.047C207.205 82.6368 206.922 82.3195 206.57 82.0948C206.219 81.8702 205.789 81.7579 205.281 81.7579C204.734 81.7579 204.271 81.8458 203.89 82.0216C203.509 82.1974 203.201 82.4562 202.967 82.798C202.732 83.13 202.562 83.5402 202.454 84.0284C202.356 84.5167 202.303 85.0734 202.293 85.6984V87.3097C202.303 88.0421 202.405 88.6964 202.601 89.2726C202.806 89.839 203.123 90.2833 203.553 90.6056C203.992 90.9181 204.578 91.0743 205.311 91.0743C205.828 91.0743 206.258 90.962 206.6 90.7374C206.951 90.5031 207.229 90.1759 207.435 89.756C207.649 89.3361 207.801 88.8527 207.889 88.3058C207.986 87.7589 208.035 87.173 208.035 86.548ZM232.996 72.9982V94.3409H228.411V78.213L223.46 79.7218V76.1769L232.542 72.9982H232.996Z" fill="#223D4D"/>
<line x1="0.5" y1="88" x2="0.5" y2="103" stroke="white"/>
<line x1="389.5" y1="86" x2="389.5" y2="101" stroke="white"/>
<path fill-rule="evenodd" clip-rule="evenodd" d="M144.625 55.114C145.178 55.8319 145.466 56.7187 145.44 57.6243C145.414 58.5299 145.075 59.3987 144.482 60.0837L151.721 69.4898C151.848 69.655 151.904 69.8639 151.877 70.0707C151.85 70.2774 151.742 70.4649 151.577 70.592C151.412 70.7192 151.203 70.7755 150.996 70.7485C150.789 70.7216 150.602 70.6137 150.475 70.4485L143.237 61.0424C142.569 61.3688 141.822 61.499 141.082 61.4179C140.343 61.3367 139.642 61.0476 139.061 60.584C138.48 60.1203 138.042 59.5013 137.798 58.7988C137.555 58.0962 137.515 57.339 137.685 56.615C137.854 55.891 138.226 55.23 138.756 54.7087C139.287 54.1875 139.954 53.8273 140.681 53.6702C141.407 53.513 142.164 53.5652 142.862 53.8208C143.56 54.0764 144.172 54.5248 144.625 55.114Z" fill="#3E5C6D"/>
<path fill-rule="evenodd" clip-rule="evenodd" d="M245.066 55.114C244.513 55.8319 244.226 56.7187 244.252 57.6243C244.278 58.5299 244.616 59.3987 245.209 60.0837L237.971 69.4898C237.844 69.655 237.787 69.8639 237.814 70.0707C237.841 70.2774 237.949 70.4649 238.114 70.592C238.28 70.7192 238.489 70.7755 238.695 70.7485C238.902 70.7216 239.09 70.6137 239.217 70.4485L246.455 61.0424C247.123 61.3688 247.87 61.499 248.609 61.4179C249.348 61.3367 250.049 61.0476 250.63 60.584C251.212 60.1203 251.65 59.5013 251.893 58.7988C252.137 58.0962 252.176 57.339 252.007 56.615C251.837 55.891 251.465 55.23 250.935 54.7087C250.405 54.1875 249.738 53.8273 249.011 53.6702C248.284 53.513 247.528 53.5652 246.829 53.8208C246.131 54.0764 245.52 54.5248 245.066 55.114Z" fill="#3E5C6D"/>
<path d="M122.5 158.5C95.5001 164.5 24.0009 69 110.001 2" stroke="#F24822" stroke-width="3" stroke-linecap="round" stroke-dasharray="4.64 4.64"/>
</svg>
