<svg width="1512" height="108" viewBox="0 0 1512 108" fill="none" xmlns="http://www.w3.org/2000/svg">
<rect x="662" y="22" width="189" height="83" rx="27" fill="#EEEEEE"/>
<rect x="662" y="22" width="189" height="83" rx="27" stroke="#789DB2" stroke-width="6" stroke-linecap="round" stroke-linejoin="round" stroke-dasharray="30 30"/>
<path d="M705.362 71.625C705.362 71.0228 705.273 70.4857 705.094 70.0137C704.915 69.5254 704.589 69.0778 704.117 68.6709C703.645 68.264 702.978 67.8571 702.115 67.4502C701.253 67.027 700.121 66.5957 698.722 66.1562C697.127 65.6354 695.605 65.0495 694.156 64.3984C692.724 63.7311 691.446 62.958 690.323 62.0791C689.2 61.2002 688.313 60.1748 687.662 59.0029C687.027 57.8311 686.71 56.4639 686.71 54.9014C686.71 53.3877 687.044 52.0205 687.711 50.7998C688.378 49.5791 689.314 48.5374 690.519 47.6748C691.723 46.7959 693.139 46.1286 694.767 45.6729C696.394 45.2008 698.185 44.9648 700.138 44.9648C702.742 44.9648 705.029 45.4287 706.998 46.3564C708.984 47.2679 710.53 48.5537 711.637 50.2139C712.743 51.8577 713.297 53.7702 713.297 55.9512H705.387C705.387 54.9909 705.183 54.1445 704.776 53.4121C704.386 52.6634 703.784 52.0775 702.97 51.6543C702.172 51.2311 701.171 51.0195 699.967 51.0195C698.795 51.0195 697.81 51.1986 697.013 51.5566C696.231 51.8984 695.637 52.3704 695.23 52.9727C694.84 53.5749 694.645 54.234 694.645 54.9502C694.645 55.5199 694.791 56.0407 695.084 56.5127C695.393 56.9684 695.833 57.3997 696.402 57.8066C696.988 58.1973 697.704 58.5716 698.551 58.9297C699.397 59.2878 700.366 59.6296 701.456 59.9551C703.36 60.5573 705.045 61.2246 706.51 61.957C707.991 62.6895 709.236 63.5195 710.245 64.4473C711.254 65.375 712.011 66.4248 712.516 67.5967C713.036 68.7686 713.297 70.0951 713.297 71.5762C713.297 73.1549 712.988 74.5547 712.369 75.7754C711.767 76.9961 710.888 78.0378 709.732 78.9004C708.593 79.7467 707.226 80.3896 705.631 80.8291C704.036 81.2686 702.254 81.4883 700.284 81.4883C698.494 81.4883 696.728 81.2604 694.986 80.8047C693.245 80.3327 691.666 79.6165 690.25 78.6562C688.85 77.696 687.727 76.4753 686.881 74.9941C686.051 73.4967 685.636 71.7227 685.636 69.6719H693.595C693.595 70.7461 693.749 71.6576 694.059 72.4062C694.368 73.1387 694.807 73.7327 695.377 74.1885C695.963 74.6442 696.671 74.9697 697.501 75.165C698.331 75.3604 699.259 75.458 700.284 75.458C701.472 75.458 702.433 75.2952 703.165 74.9697C703.914 74.6279 704.467 74.1641 704.825 73.5781C705.183 72.9922 705.362 72.3411 705.362 71.625ZM731.021 54.584V59.9307H715.348V54.584H731.021ZM718.937 48.041H726.578V72.7236C726.578 73.4561 726.668 74.0176 726.847 74.4082C727.026 74.7988 727.319 75.0755 727.726 75.2383C728.132 75.3848 728.653 75.458 729.288 75.458C729.744 75.458 730.134 75.4417 730.46 75.4092C730.785 75.3766 731.087 75.3359 731.363 75.2871V80.8047C730.712 81.0163 730.021 81.179 729.288 81.293C728.556 81.4232 727.758 81.4883 726.896 81.4883C725.252 81.4883 723.827 81.2197 722.623 80.6826C721.435 80.1455 720.523 79.2992 719.889 78.1436C719.254 76.9717 718.937 75.4499 718.937 73.5781V48.041ZM747.135 81.4883C745.035 81.4883 743.155 81.1546 741.495 80.4873C739.835 79.82 738.427 78.9004 737.271 77.7285C736.132 76.5404 735.261 75.1732 734.659 73.627C734.057 72.0807 733.756 70.4287 733.756 68.6709V67.7432C733.756 65.7738 734.033 63.959 734.586 62.2988C735.139 60.6387 735.945 59.1982 737.003 57.9775C738.077 56.7406 739.396 55.7884 740.958 55.1211C742.521 54.4375 744.303 54.0957 746.305 54.0957C748.176 54.0957 749.845 54.4049 751.31 55.0234C752.774 55.6257 754.011 56.4964 755.021 57.6357C756.03 58.7588 756.795 60.1178 757.315 61.7129C757.853 63.2917 758.121 65.0658 758.121 67.0352V70.1602H736.832V65.2529H750.65V64.667C750.65 63.7393 750.479 62.9255 750.138 62.2256C749.812 61.5257 749.324 60.9886 748.673 60.6143C748.038 60.2236 747.232 60.0283 746.256 60.0283C745.328 60.0283 744.555 60.2236 743.937 60.6143C743.318 61.0049 742.822 61.5583 742.447 62.2744C742.089 62.9743 741.829 63.7962 741.666 64.7402C741.503 65.668 741.422 66.6689 741.422 67.7432V68.6709C741.422 69.6963 741.56 70.6322 741.837 71.4785C742.114 72.3249 742.521 73.0492 743.058 73.6514C743.595 74.2536 744.246 74.7256 745.011 75.0674C745.776 75.4092 746.646 75.5801 747.623 75.5801C748.827 75.5801 749.975 75.3522 751.065 74.8965C752.156 74.4245 753.1 73.6921 753.897 72.6992L757.462 76.7764C756.925 77.5576 756.168 78.3145 755.191 79.0469C754.231 79.763 753.076 80.349 751.725 80.8047C750.374 81.2604 748.844 81.4883 747.135 81.4883ZM769.474 59.6621V91.1562H761.856V54.584H768.961L769.474 59.6621ZM785.953 67.499V68.0117C785.953 69.9323 785.733 71.7145 785.294 73.3584C784.854 74.986 784.195 76.4102 783.316 77.6309C782.454 78.8516 781.388 79.8037 780.118 80.4873C778.849 81.1546 777.376 81.4883 775.699 81.4883C774.104 81.4883 772.721 81.1546 771.549 80.4873C770.393 79.8037 769.417 78.8597 768.619 77.6553C767.838 76.4346 767.203 75.043 766.715 73.4805C766.243 71.9017 765.877 70.2171 765.616 68.4268V67.4258C765.877 65.5215 766.251 63.7555 766.739 62.1279C767.228 60.5003 767.862 59.0924 768.644 57.9043C769.425 56.6999 770.393 55.764 771.549 55.0967C772.704 54.4294 774.08 54.0957 775.675 54.0957C777.335 54.0957 778.808 54.4131 780.094 55.0479C781.38 55.6826 782.454 56.5941 783.316 57.7822C784.195 58.9541 784.854 60.362 785.294 62.0059C785.733 63.6497 785.953 65.4808 785.953 67.499ZM778.312 68.0117V67.499C778.312 66.4248 778.23 65.4401 778.067 64.5449C777.905 63.6335 777.644 62.8441 777.286 62.1768C776.928 61.4932 776.456 60.9642 775.87 60.5898C775.284 60.2155 774.568 60.0283 773.722 60.0283C772.81 60.0283 772.037 60.1748 771.402 60.4678C770.768 60.7607 770.255 61.1921 769.864 61.7617C769.474 62.3151 769.189 62.9987 769.01 63.8125C768.847 64.6263 768.757 65.554 768.741 66.5957V69.2812C768.757 70.502 768.928 71.5924 769.254 72.5527C769.596 73.4967 770.125 74.2373 770.841 74.7744C771.573 75.2952 772.55 75.5557 773.771 75.5557C774.633 75.5557 775.349 75.3685 775.919 74.9941C776.505 74.6035 776.969 74.0583 777.311 73.3584C777.669 72.6585 777.921 71.8529 778.067 70.9414C778.23 70.0299 778.312 69.0534 778.312 68.0117ZM826.798 75.0674V81H802.237V75.9707L813.712 63.8125C814.786 62.5755 815.641 61.485 816.275 60.541C816.926 59.597 817.398 58.7425 817.691 57.9775C817.984 57.1963 818.131 56.4801 818.131 55.8291C818.131 54.7712 817.96 53.876 817.618 53.1436C817.293 52.4111 816.812 51.8496 816.178 51.459C815.543 51.0684 814.77 50.873 813.858 50.873C812.882 50.873 812.044 51.1253 811.344 51.6299C810.644 52.1344 810.107 52.8343 809.732 53.7295C809.358 54.6084 809.171 55.6094 809.171 56.7324H801.505C801.505 54.5677 802.026 52.5983 803.067 50.8242C804.109 49.0339 805.566 47.6097 807.438 46.5518C809.309 45.4775 811.498 44.9404 814.005 44.9404C816.576 44.9404 818.733 45.3473 820.475 46.1611C822.216 46.9749 823.535 48.1387 824.43 49.6523C825.325 51.166 825.772 52.9889 825.772 55.1211C825.772 56.3255 825.577 57.4893 825.187 58.6123C824.812 59.7354 824.267 60.8503 823.551 61.957C822.835 63.0638 821.972 64.195 820.963 65.3506C819.954 66.4899 818.814 67.6943 817.545 68.9639L812.174 75.0674H826.798Z" fill="#223D4D"/>
<path fill-rule="evenodd" clip-rule="evenodd" d="M852.151 6.85224C850.934 8.43199 850.301 10.3834 850.359 12.3762C850.416 14.369 851.16 16.2808 852.465 17.7881L836.538 38.4863C836.258 38.8498 836.134 39.3096 836.193 39.7645C836.253 40.2194 836.49 40.6321 836.854 40.9118C837.217 41.1916 837.677 41.3155 838.132 41.2562C838.587 41.197 838.999 40.9594 839.279 40.5959L855.207 19.8977C856.677 20.616 858.32 20.9025 859.947 20.724C861.573 20.5454 863.116 19.9091 864.395 18.8889C865.674 17.8687 866.638 16.5065 867.174 14.9606C867.71 13.4146 867.796 11.7483 867.423 10.1551C867.05 8.56202 866.233 7.10746 865.066 5.9604C863.899 4.81334 862.43 4.02086 860.831 3.67499C859.232 3.32913 857.567 3.44408 856.031 4.00648C854.494 4.56889 853.149 5.55568 852.151 6.85224Z" fill="#3E5C6D"/>
<path fill-rule="evenodd" clip-rule="evenodd" d="M661.98 6.85224C663.196 8.43199 663.829 10.3834 663.772 12.3762C663.715 14.369 662.971 16.2808 661.666 17.7881L677.593 38.4863C677.873 38.8498 677.997 39.3096 677.938 39.7645C677.878 40.2194 677.641 40.6321 677.277 40.9118C676.914 41.1916 676.454 41.3155 675.999 41.2562C675.544 41.197 675.131 40.9594 674.852 40.5959L658.924 19.8977C657.454 20.616 655.81 20.9025 654.184 20.724C652.557 20.5454 651.015 19.9091 649.736 18.8889C648.456 17.8687 647.493 16.5065 646.957 14.9606C646.421 13.4146 646.334 11.7483 646.708 10.1551C647.081 8.56202 647.898 7.10746 649.065 5.9604C650.232 4.81334 651.7 4.02086 653.3 3.67499C654.899 3.32913 656.564 3.44408 658.1 4.00648C659.637 4.56889 660.982 5.55568 661.98 6.85224Z" fill="#3E5C6D"/>
<line x1="0.5" y1="63" x2="0.5" y2="78" stroke="black"/>
<line x1="1511.5" y1="61" x2="1511.5" y2="76" stroke="black"/>
</svg>
