<svg width="1512" height="108" viewBox="0 0 1512 108" fill="none" xmlns="http://www.w3.org/2000/svg">
<rect x="664" y="22" width="189" height="83" rx="27" fill="#EEEEEE"/>
<rect x="664" y="22" width="189" height="83" rx="27" stroke="#789DB2" stroke-width="6" stroke-linecap="round" stroke-linejoin="round" stroke-dasharray="30 30"/>
<path d="M707.362 71.625C707.362 71.0228 707.273 70.4857 707.094 70.0137C706.915 69.5254 706.589 69.0778 706.117 68.6709C705.645 68.264 704.978 67.8571 704.115 67.4502C703.253 67.027 702.121 66.5957 700.722 66.1562C699.127 65.6354 697.605 65.0495 696.156 64.3984C694.724 63.7311 693.446 62.958 692.323 62.0791C691.2 61.2002 690.313 60.1748 689.662 59.0029C689.027 57.8311 688.71 56.4639 688.71 54.9014C688.71 53.3877 689.044 52.0205 689.711 50.7998C690.378 49.5791 691.314 48.5374 692.519 47.6748C693.723 46.7959 695.139 46.1286 696.767 45.6729C698.394 45.2008 700.185 44.9648 702.138 44.9648C704.742 44.9648 707.029 45.4287 708.998 46.3564C710.984 47.2679 712.53 48.5537 713.637 50.2139C714.743 51.8577 715.297 53.7702 715.297 55.9512H707.387C707.387 54.9909 707.183 54.1445 706.776 53.4121C706.386 52.6634 705.784 52.0775 704.97 51.6543C704.172 51.2311 703.171 51.0195 701.967 51.0195C700.795 51.0195 699.81 51.1986 699.013 51.5566C698.231 51.8984 697.637 52.3704 697.23 52.9727C696.84 53.5749 696.645 54.234 696.645 54.9502C696.645 55.5199 696.791 56.0407 697.084 56.5127C697.393 56.9684 697.833 57.3997 698.402 57.8066C698.988 58.1973 699.704 58.5716 700.551 58.9297C701.397 59.2878 702.366 59.6296 703.456 59.9551C705.36 60.5573 707.045 61.2246 708.51 61.957C709.991 62.6895 711.236 63.5195 712.245 64.4473C713.254 65.375 714.011 66.4248 714.516 67.5967C715.036 68.7686 715.297 70.0951 715.297 71.5762C715.297 73.1549 714.988 74.5547 714.369 75.7754C713.767 76.9961 712.888 78.0378 711.732 78.9004C710.593 79.7467 709.226 80.3896 707.631 80.8291C706.036 81.2686 704.254 81.4883 702.284 81.4883C700.494 81.4883 698.728 81.2604 696.986 80.8047C695.245 80.3327 693.666 79.6165 692.25 78.6562C690.85 77.696 689.727 76.4753 688.881 74.9941C688.051 73.4967 687.636 71.7227 687.636 69.6719H695.595C695.595 70.7461 695.749 71.6576 696.059 72.4062C696.368 73.1387 696.807 73.7327 697.377 74.1885C697.963 74.6442 698.671 74.9697 699.501 75.165C700.331 75.3604 701.259 75.458 702.284 75.458C703.472 75.458 704.433 75.2952 705.165 74.9697C705.914 74.6279 706.467 74.1641 706.825 73.5781C707.183 72.9922 707.362 72.3411 707.362 71.625ZM733.021 54.584V59.9307H717.348V54.584H733.021ZM720.937 48.041H728.578V72.7236C728.578 73.4561 728.668 74.0176 728.847 74.4082C729.026 74.7988 729.319 75.0755 729.726 75.2383C730.132 75.3848 730.653 75.458 731.288 75.458C731.744 75.458 732.134 75.4417 732.46 75.4092C732.785 75.3766 733.087 75.3359 733.363 75.2871V80.8047C732.712 81.0163 732.021 81.179 731.288 81.293C730.556 81.4232 729.758 81.4883 728.896 81.4883C727.252 81.4883 725.827 81.2197 724.623 80.6826C723.435 80.1455 722.523 79.2992 721.889 78.1436C721.254 76.9717 720.937 75.4499 720.937 73.5781V48.041ZM749.135 81.4883C747.035 81.4883 745.155 81.1546 743.495 80.4873C741.835 79.82 740.427 78.9004 739.271 77.7285C738.132 76.5404 737.261 75.1732 736.659 73.627C736.057 72.0807 735.756 70.4287 735.756 68.6709V67.7432C735.756 65.7738 736.033 63.959 736.586 62.2988C737.139 60.6387 737.945 59.1982 739.003 57.9775C740.077 56.7406 741.396 55.7884 742.958 55.1211C744.521 54.4375 746.303 54.0957 748.305 54.0957C750.176 54.0957 751.845 54.4049 753.31 55.0234C754.774 55.6257 756.011 56.4964 757.021 57.6357C758.03 58.7588 758.795 60.1178 759.315 61.7129C759.853 63.2917 760.121 65.0658 760.121 67.0352V70.1602H738.832V65.2529H752.65V64.667C752.65 63.7393 752.479 62.9255 752.138 62.2256C751.812 61.5257 751.324 60.9886 750.673 60.6143C750.038 60.2236 749.232 60.0283 748.256 60.0283C747.328 60.0283 746.555 60.2236 745.937 60.6143C745.318 61.0049 744.822 61.5583 744.447 62.2744C744.089 62.9743 743.829 63.7962 743.666 64.7402C743.503 65.668 743.422 66.6689 743.422 67.7432V68.6709C743.422 69.6963 743.56 70.6322 743.837 71.4785C744.114 72.3249 744.521 73.0492 745.058 73.6514C745.595 74.2536 746.246 74.7256 747.011 75.0674C747.776 75.4092 748.646 75.5801 749.623 75.5801C750.827 75.5801 751.975 75.3522 753.065 74.8965C754.156 74.4245 755.1 73.6921 755.897 72.6992L759.462 76.7764C758.925 77.5576 758.168 78.3145 757.191 79.0469C756.231 79.763 755.076 80.349 753.725 80.8047C752.374 81.2604 750.844 81.4883 749.135 81.4883ZM771.474 59.6621V91.1562H763.856V54.584H770.961L771.474 59.6621ZM787.953 67.499V68.0117C787.953 69.9323 787.733 71.7145 787.294 73.3584C786.854 74.986 786.195 76.4102 785.316 77.6309C784.454 78.8516 783.388 79.8037 782.118 80.4873C780.849 81.1546 779.376 81.4883 777.699 81.4883C776.104 81.4883 774.721 81.1546 773.549 80.4873C772.393 79.8037 771.417 78.8597 770.619 77.6553C769.838 76.4346 769.203 75.043 768.715 73.4805C768.243 71.9017 767.877 70.2171 767.616 68.4268V67.4258C767.877 65.5215 768.251 63.7555 768.739 62.1279C769.228 60.5003 769.862 59.0924 770.644 57.9043C771.425 56.6999 772.393 55.764 773.549 55.0967C774.704 54.4294 776.08 54.0957 777.675 54.0957C779.335 54.0957 780.808 54.4131 782.094 55.0479C783.38 55.6826 784.454 56.5941 785.316 57.7822C786.195 58.9541 786.854 60.362 787.294 62.0059C787.733 63.6497 787.953 65.4808 787.953 67.499ZM780.312 68.0117V67.499C780.312 66.4248 780.23 65.4401 780.067 64.5449C779.905 63.6335 779.644 62.8441 779.286 62.1768C778.928 61.4932 778.456 60.9642 777.87 60.5898C777.284 60.2155 776.568 60.0283 775.722 60.0283C774.81 60.0283 774.037 60.1748 773.402 60.4678C772.768 60.7607 772.255 61.1921 771.864 61.7617C771.474 62.3151 771.189 62.9987 771.01 63.8125C770.847 64.6263 770.757 65.554 770.741 66.5957V69.2812C770.757 70.502 770.928 71.5924 771.254 72.5527C771.596 73.4967 772.125 74.2373 772.841 74.7744C773.573 75.2952 774.55 75.5557 775.771 75.5557C776.633 75.5557 777.349 75.3685 777.919 74.9941C778.505 74.6035 778.969 74.0583 779.311 73.3584C779.669 72.6585 779.921 71.8529 780.067 70.9414C780.23 70.0299 780.312 69.0534 780.312 68.0117ZM829.335 67.4258V73.334H803.749L803.334 68.6953L817.885 45.4531H823.915L817.372 56.293L810.756 67.4258H829.335ZM825.526 45.4531V81H817.909V45.4531H825.526Z" fill="#223D4D"/>
<path fill-rule="evenodd" clip-rule="evenodd" d="M664.98 6.85224C666.196 8.43199 666.829 10.3834 666.772 12.3762C666.715 14.369 665.971 16.2808 664.666 17.7881L680.593 38.4863C680.873 38.8498 680.997 39.3096 680.938 39.7645C680.878 40.2194 680.641 40.6321 680.277 40.9118C679.914 41.1916 679.454 41.3155 678.999 41.2562C678.544 41.197 678.131 40.9594 677.852 40.5959L661.924 19.8977C660.454 20.616 658.81 20.9025 657.184 20.724C655.557 20.5454 654.015 19.9091 652.736 18.8889C651.456 17.8687 650.493 16.5065 649.957 14.9606C649.421 13.4146 649.334 11.7483 649.708 10.1551C650.081 8.56202 650.898 7.10746 652.065 5.9604C653.232 4.81334 654.7 4.02086 656.3 3.67499C657.899 3.32913 659.564 3.44408 661.1 4.00648C662.637 4.56889 663.982 5.55568 664.98 6.85224Z" fill="#3E5C6D"/>
<path fill-rule="evenodd" clip-rule="evenodd" d="M853.151 6.85224C851.934 8.43199 851.301 10.3834 851.359 12.3762C851.416 14.369 852.16 16.2808 853.465 17.7881L837.538 38.4863C837.258 38.8498 837.134 39.3096 837.193 39.7645C837.253 40.2194 837.49 40.6321 837.854 40.9118C838.217 41.1916 838.677 41.3155 839.132 41.2562C839.587 41.197 839.999 40.9594 840.279 40.5959L856.207 19.8977C857.677 20.616 859.32 20.9025 860.947 20.724C862.573 20.5454 864.116 19.9091 865.395 18.8889C866.674 17.8687 867.638 16.5065 868.174 14.9606C868.71 13.4146 868.796 11.7483 868.423 10.1551C868.05 8.56202 867.233 7.10746 866.066 5.9604C864.899 4.81334 863.43 4.02086 861.831 3.67499C860.232 3.32913 858.567 3.44408 857.031 4.00648C855.494 4.56889 854.149 5.55568 853.151 6.85224Z" fill="#3E5C6D"/>
<line x1="0.5" y1="49" x2="0.5" y2="64" stroke="black"/>
<line x1="1511.5" y1="47" x2="1511.5" y2="62" stroke="black"/>
</svg>
