<svg width="1512" height="807" viewBox="0 0 1512 807" fill="none" xmlns="http://www.w3.org/2000/svg">
<g clip-path="url(#clip0_181_175)">
<path d="M1311.44 -17.4525C1436.32 100.73 1627.87 197.041 1666.76 321.86C1704.14 447.234 1588.38 602.151 1456.07 697.887C1323.76 793.624 1174.9 830.18 1060.86 956.995C947.843 1084.29 870.669 1302.32 761.62 1339.73C651.537 1376.67 510.612 1233.46 355.988 1144.21C200.809 1053.45 32.8882 1014.58 -13.117 907.825C-60.1564 800.588 16.2328 624.911 -6.73895 452.187C-29.1559 280.976 -151.413 113.753 -154.508 -42.2212C-158.638 -198.675 -44.6398 -344.359 105.905 -392.696C255.415 -441.511 440.992 -391.945 607.602 -380.067C772.698 -367.634 920.896 -391.93 1023.1 -333.255C1126.83 -275.136 1186.07 -134.601 1311.44 -17.4525Z" fill="#EEEEEE"/>
<path d="M1146.5 -1689C1353.5 -1379.5 1306.79 -986.113 991.501 -705C627.045 -380.053 24.5014 476 381.501 880C586.595 1112.09 829.478 1152.77 987.002 1297.32C1533 1297.32 1372 1670.5 1074.5 1838" stroke="#F24822" stroke-width="9" stroke-linecap="round" stroke-dasharray="18 18"/>
</g>
<rect x="662" y="669" width="189" height="83" rx="27" fill="#EEEEEE"/>
<rect x="662" y="669" width="189" height="83" rx="27" stroke="#789DB2" stroke-width="6" stroke-linecap="round" stroke-linejoin="round" stroke-dasharray="30 30"/>
<path d="M705.362 718.625C705.362 718.023 705.273 717.486 705.094 717.014C704.915 716.525 704.589 716.078 704.117 715.671C703.645 715.264 702.978 714.857 702.115 714.45C701.253 714.027 700.121 713.596 698.722 713.156C697.127 712.635 695.605 712.049 694.156 711.398C692.724 710.731 691.446 709.958 690.323 709.079C689.2 708.2 688.313 707.175 687.662 706.003C687.027 704.831 686.71 703.464 686.71 701.901C686.71 700.388 687.044 699.021 687.711 697.8C688.378 696.579 689.314 695.537 690.519 694.675C691.723 693.796 693.139 693.129 694.767 692.673C696.394 692.201 698.185 691.965 700.138 691.965C702.742 691.965 705.029 692.429 706.998 693.356C708.984 694.268 710.53 695.554 711.637 697.214C712.743 698.858 713.297 700.77 713.297 702.951H705.387C705.387 701.991 705.183 701.145 704.776 700.412C704.386 699.663 703.784 699.077 702.97 698.654C702.172 698.231 701.171 698.02 699.967 698.02C698.795 698.02 697.81 698.199 697.013 698.557C696.231 698.898 695.637 699.37 695.23 699.973C694.84 700.575 694.645 701.234 694.645 701.95C694.645 702.52 694.791 703.041 695.084 703.513C695.393 703.968 695.833 704.4 696.402 704.807C696.988 705.197 697.704 705.572 698.551 705.93C699.397 706.288 700.366 706.63 701.456 706.955C703.36 707.557 705.045 708.225 706.51 708.957C707.991 709.689 709.236 710.52 710.245 711.447C711.254 712.375 712.011 713.425 712.516 714.597C713.036 715.769 713.297 717.095 713.297 718.576C713.297 720.155 712.988 721.555 712.369 722.775C711.767 723.996 710.888 725.038 709.732 725.9C708.593 726.747 707.226 727.39 705.631 727.829C704.036 728.269 702.254 728.488 700.284 728.488C698.494 728.488 696.728 728.26 694.986 727.805C693.245 727.333 691.666 726.617 690.25 725.656C688.85 724.696 687.727 723.475 686.881 721.994C686.051 720.497 685.636 718.723 685.636 716.672H693.595C693.595 717.746 693.749 718.658 694.059 719.406C694.368 720.139 694.807 720.733 695.377 721.188C695.963 721.644 696.671 721.97 697.501 722.165C698.331 722.36 699.259 722.458 700.284 722.458C701.472 722.458 702.433 722.295 703.165 721.97C703.914 721.628 704.467 721.164 704.825 720.578C705.183 719.992 705.362 719.341 705.362 718.625ZM731.021 701.584V706.931H715.348V701.584H731.021ZM718.937 695.041H726.578V719.724C726.578 720.456 726.668 721.018 726.847 721.408C727.026 721.799 727.319 722.076 727.726 722.238C728.132 722.385 728.653 722.458 729.288 722.458C729.744 722.458 730.134 722.442 730.46 722.409C730.785 722.377 731.087 722.336 731.363 722.287V727.805C730.712 728.016 730.021 728.179 729.288 728.293C728.556 728.423 727.758 728.488 726.896 728.488C725.252 728.488 723.827 728.22 722.623 727.683C721.435 727.146 720.523 726.299 719.889 725.144C719.254 723.972 718.937 722.45 718.937 720.578V695.041ZM747.135 728.488C745.035 728.488 743.155 728.155 741.495 727.487C739.835 726.82 738.427 725.9 737.271 724.729C736.132 723.54 735.261 722.173 734.659 720.627C734.057 719.081 733.756 717.429 733.756 715.671V714.743C733.756 712.774 734.033 710.959 734.586 709.299C735.139 707.639 735.945 706.198 737.003 704.978C738.077 703.741 739.396 702.788 740.958 702.121C742.521 701.438 744.303 701.096 746.305 701.096C748.176 701.096 749.845 701.405 751.31 702.023C752.774 702.626 754.011 703.496 755.021 704.636C756.03 705.759 756.795 707.118 757.315 708.713C757.853 710.292 758.121 712.066 758.121 714.035V717.16H736.832V712.253H750.65V711.667C750.65 710.739 750.479 709.925 750.138 709.226C749.812 708.526 749.324 707.989 748.673 707.614C748.038 707.224 747.232 707.028 746.256 707.028C745.328 707.028 744.555 707.224 743.937 707.614C743.318 708.005 742.822 708.558 742.447 709.274C742.089 709.974 741.829 710.796 741.666 711.74C741.503 712.668 741.422 713.669 741.422 714.743V715.671C741.422 716.696 741.56 717.632 741.837 718.479C742.114 719.325 742.521 720.049 743.058 720.651C743.595 721.254 744.246 721.726 745.011 722.067C745.776 722.409 746.646 722.58 747.623 722.58C748.827 722.58 749.975 722.352 751.065 721.896C752.156 721.424 753.1 720.692 753.897 719.699L757.462 723.776C756.925 724.558 756.168 725.314 755.191 726.047C754.231 726.763 753.076 727.349 751.725 727.805C750.374 728.26 748.844 728.488 747.135 728.488ZM769.474 706.662V738.156H761.856V701.584H768.961L769.474 706.662ZM785.953 714.499V715.012C785.953 716.932 785.733 718.715 785.294 720.358C784.854 721.986 784.195 723.41 783.316 724.631C782.454 725.852 781.388 726.804 780.118 727.487C778.849 728.155 777.376 728.488 775.699 728.488C774.104 728.488 772.721 728.155 771.549 727.487C770.393 726.804 769.417 725.86 768.619 724.655C767.838 723.435 767.203 722.043 766.715 720.48C766.243 718.902 765.877 717.217 765.616 715.427V714.426C765.877 712.521 766.251 710.756 766.739 709.128C767.228 707.5 767.862 706.092 768.644 704.904C769.425 703.7 770.393 702.764 771.549 702.097C772.704 701.429 774.08 701.096 775.675 701.096C777.335 701.096 778.808 701.413 780.094 702.048C781.38 702.683 782.454 703.594 783.316 704.782C784.195 705.954 784.854 707.362 785.294 709.006C785.733 710.65 785.953 712.481 785.953 714.499ZM778.312 715.012V714.499C778.312 713.425 778.23 712.44 778.067 711.545C777.905 710.633 777.644 709.844 777.286 709.177C776.928 708.493 776.456 707.964 775.87 707.59C775.284 707.215 774.568 707.028 773.722 707.028C772.81 707.028 772.037 707.175 771.402 707.468C770.768 707.761 770.255 708.192 769.864 708.762C769.474 709.315 769.189 709.999 769.01 710.812C768.847 711.626 768.757 712.554 768.741 713.596V716.281C768.757 717.502 768.928 718.592 769.254 719.553C769.596 720.497 770.125 721.237 770.841 721.774C771.573 722.295 772.55 722.556 773.771 722.556C774.633 722.556 775.349 722.368 775.919 721.994C776.505 721.604 776.969 721.058 777.311 720.358C777.669 719.659 777.921 718.853 778.067 717.941C778.23 717.03 778.312 716.053 778.312 715.012ZM809.586 706.979H813.468C814.575 706.979 815.486 706.784 816.202 706.394C816.935 706.003 817.472 705.45 817.813 704.733C818.172 704.017 818.351 703.179 818.351 702.219C818.351 701.389 818.188 700.648 817.862 699.997C817.537 699.346 817.04 698.833 816.373 698.459C815.722 698.068 814.876 697.873 813.834 697.873C813.085 697.873 812.369 698.028 811.686 698.337C811.018 698.63 810.473 699.061 810.05 699.631C809.627 700.184 809.415 700.852 809.415 701.633H801.773C801.773 699.647 802.311 697.93 803.385 696.481C804.475 695.033 805.916 693.918 807.706 693.137C809.513 692.339 811.482 691.94 813.614 691.94C816.072 691.94 818.229 692.331 820.084 693.112C821.956 693.877 823.404 695.017 824.43 696.53C825.471 698.028 825.992 699.883 825.992 702.097C825.992 703.252 825.715 704.367 825.162 705.441C824.625 706.499 823.852 707.443 822.843 708.273C821.85 709.087 820.662 709.738 819.278 710.227C817.911 710.699 816.389 710.935 814.713 710.935H809.586V706.979ZM809.586 712.717V708.835H814.713C816.568 708.835 818.229 709.047 819.693 709.47C821.158 709.893 822.403 710.503 823.429 711.301C824.454 712.098 825.235 713.067 825.772 714.206C826.31 715.345 826.578 716.615 826.578 718.015C826.578 719.675 826.253 721.156 825.602 722.458C824.951 723.76 824.039 724.859 822.867 725.754C821.695 726.649 820.32 727.333 818.741 727.805C817.162 728.26 815.453 728.488 813.614 728.488C812.133 728.488 810.66 728.285 809.195 727.878C807.73 727.471 806.404 726.853 805.216 726.022C804.028 725.176 803.076 724.11 802.359 722.824C801.643 721.522 801.285 719.976 801.285 718.186H808.927C808.927 719.016 809.138 719.764 809.562 720.432C810.001 721.083 810.595 721.604 811.344 721.994C812.109 722.368 812.939 722.556 813.834 722.556C814.908 722.556 815.82 722.36 816.568 721.97C817.333 721.563 817.911 721.009 818.302 720.31C818.709 719.61 818.912 718.804 818.912 717.893C818.912 716.656 818.692 715.663 818.253 714.914C817.83 714.149 817.211 713.596 816.397 713.254C815.584 712.896 814.607 712.717 813.468 712.717H809.586Z" fill="#223D4D"/>
<path fill-rule="evenodd" clip-rule="evenodd" d="M661.98 653.852C663.196 655.432 663.829 657.383 663.772 659.376C663.715 661.369 662.971 663.281 661.666 664.788L677.593 685.486C677.873 685.85 677.997 686.31 677.938 686.765C677.878 687.219 677.641 687.632 677.277 687.912C676.914 688.192 676.454 688.315 675.999 688.256C675.544 688.197 675.131 687.959 674.852 687.596L658.924 666.898C657.454 667.616 655.81 667.903 654.184 667.724C652.557 667.545 651.015 666.909 649.736 665.889C648.456 664.869 647.493 663.507 646.957 661.961C646.421 660.415 646.334 658.748 646.708 657.155C647.081 655.562 647.898 654.107 649.065 652.96C650.232 651.813 651.7 651.021 653.3 650.675C654.899 650.329 656.564 650.444 658.1 651.006C659.637 651.569 660.982 652.556 661.98 653.852Z" fill="#3E5C6D"/>
<path fill-rule="evenodd" clip-rule="evenodd" d="M851.151 653.852C849.934 655.432 849.301 657.383 849.359 659.376C849.416 661.369 850.16 663.281 851.465 664.788L835.538 685.486C835.258 685.85 835.134 686.31 835.193 686.765C835.253 687.219 835.49 687.632 835.854 687.912C836.217 688.192 836.677 688.315 837.132 688.256C837.587 688.197 837.999 687.959 838.279 687.596L854.207 666.898C855.677 667.616 857.32 667.903 858.947 667.724C860.573 667.545 862.116 666.909 863.395 665.889C864.674 664.869 865.638 663.507 866.174 661.961C866.71 660.415 866.796 658.748 866.423 657.155C866.05 655.562 865.233 654.107 864.066 652.96C862.899 651.813 861.43 651.021 859.831 650.675C858.232 650.329 856.567 650.444 855.031 651.006C853.494 651.569 852.149 652.556 851.151 653.852Z" fill="#3E5C6D"/>
<line x1="0.5" y1="691" x2="0.5" y2="706" stroke="black"/>
<line x1="1511.5" y1="689" x2="1511.5" y2="704" stroke="black"/>
<defs>
<clipPath id="clip0_181_175">
<rect width="1512" height="807" fill="white"/>
</clipPath>
</defs>
</svg>
