<svg width="390" height="55" viewBox="0 0 390 55" fill="none" xmlns="http://www.w3.org/2000/svg">
<rect x="145.774" y="12.7738" width="98.3492" height="41.1905" rx="6.96429" fill="#EEEEEE"/>
<rect x="145.774" y="12.7738" width="98.3492" height="41.1905" rx="6.96429" stroke="#789DB2" stroke-width="1.54762" stroke-linecap="round" stroke-linejoin="round" stroke-dasharray="7.74 7.74"/>
<path d="M164.266 38.2441C164.266 37.8828 164.212 37.5605 164.104 37.2773C163.997 36.9844 163.802 36.7158 163.519 36.4717C163.235 36.2275 162.835 35.9834 162.317 35.7393C161.8 35.4854 161.121 35.2266 160.281 34.9629C159.324 34.6504 158.411 34.2988 157.542 33.9082C156.683 33.5078 155.916 33.0439 155.242 32.5166C154.568 31.9893 154.036 31.374 153.646 30.6709C153.265 29.9678 153.074 29.1475 153.074 28.21C153.074 27.3018 153.274 26.4814 153.675 25.749C154.075 25.0166 154.637 24.3916 155.359 23.874C156.082 23.3467 156.932 22.9463 157.908 22.6729C158.885 22.3896 159.959 22.248 161.131 22.248C162.693 22.248 164.065 22.5264 165.247 23.083C166.438 23.6299 167.366 24.4014 168.03 25.3975C168.694 26.3838 169.026 27.5312 169.026 28.8398H164.28C164.28 28.2637 164.158 27.7559 163.914 27.3164C163.68 26.8672 163.318 26.5156 162.83 26.2617C162.352 26.0078 161.751 25.8809 161.028 25.8809C160.325 25.8809 159.734 25.9883 159.256 26.2031C158.787 26.4082 158.431 26.6914 158.187 27.0527C157.952 27.4141 157.835 27.8096 157.835 28.2393C157.835 28.5811 157.923 28.8936 158.099 29.1768C158.284 29.4502 158.548 29.709 158.89 29.9531C159.241 30.1875 159.671 30.4121 160.179 30.627C160.687 30.8418 161.268 31.0469 161.922 31.2422C163.064 31.6035 164.075 32.0039 164.954 32.4434C165.843 32.8828 166.59 33.3809 167.195 33.9375C167.801 34.4941 168.255 35.124 168.558 35.8271C168.87 36.5303 169.026 37.3262 169.026 38.2148C169.026 39.1621 168.841 40.002 168.47 40.7344C168.108 41.4668 167.581 42.0918 166.888 42.6094C166.204 43.1172 165.384 43.5029 164.427 43.7666C163.47 44.0303 162.4 44.1621 161.219 44.1621C160.145 44.1621 159.085 44.0254 158.04 43.752C156.995 43.4688 156.048 43.0391 155.198 42.4629C154.358 41.8867 153.685 41.1543 153.177 40.2656C152.679 39.3672 152.43 38.3027 152.43 37.0723H157.205C157.205 37.7168 157.298 38.2637 157.483 38.7129C157.669 39.1523 157.933 39.5088 158.274 39.7822C158.626 40.0557 159.051 40.251 159.549 40.3682C160.047 40.4854 160.604 40.5439 161.219 40.5439C161.932 40.5439 162.508 40.4463 162.947 40.251C163.396 40.0459 163.729 39.7676 163.943 39.416C164.158 39.0645 164.266 38.6738 164.266 38.2441ZM179.661 28.0195V31.2275H170.257V28.0195H179.661ZM172.41 24.0938H176.995V38.9033C176.995 39.3428 177.049 39.6797 177.156 39.9141C177.264 40.1484 177.439 40.3145 177.684 40.4121C177.928 40.5 178.24 40.5439 178.621 40.5439C178.895 40.5439 179.129 40.5342 179.324 40.5146C179.52 40.4951 179.7 40.4707 179.866 40.4414V43.752C179.476 43.8789 179.061 43.9766 178.621 44.0449C178.182 44.123 177.703 44.1621 177.186 44.1621C176.199 44.1621 175.345 44.001 174.622 43.6787C173.909 43.3564 173.362 42.8486 172.981 42.1553C172.601 41.4521 172.41 40.5391 172.41 39.416V24.0938ZM189.329 44.1621C188.069 44.1621 186.941 43.9619 185.945 43.5615C184.949 43.1611 184.104 42.6094 183.411 41.9062C182.728 41.1934 182.205 40.373 181.844 39.4453C181.482 38.5176 181.302 37.5264 181.302 36.4717V35.915C181.302 34.7334 181.468 33.6445 181.8 32.6484C182.132 31.6523 182.615 30.7881 183.25 30.0557C183.895 29.3135 184.686 28.7422 185.623 28.3418C186.561 27.9316 187.63 27.7266 188.831 27.7266C189.954 27.7266 190.955 27.9121 191.834 28.2832C192.713 28.6445 193.455 29.167 194.061 29.8506C194.666 30.5244 195.125 31.3398 195.438 32.2969C195.76 33.2441 195.921 34.3086 195.921 35.4902V37.3652H183.147V34.4209H191.438V34.0693C191.438 33.5127 191.336 33.0244 191.131 32.6045C190.936 32.1846 190.643 31.8623 190.252 31.6377C189.871 31.4033 189.388 31.2861 188.802 31.2861C188.245 31.2861 187.781 31.4033 187.41 31.6377C187.039 31.8721 186.741 32.2041 186.517 32.6338C186.302 33.0537 186.146 33.5469 186.048 34.1133C185.95 34.6699 185.901 35.2705 185.901 35.915V36.4717C185.901 37.0869 185.984 37.6484 186.15 38.1562C186.316 38.6641 186.561 39.0986 186.883 39.46C187.205 39.8213 187.596 40.1045 188.055 40.3096C188.514 40.5146 189.036 40.6172 189.622 40.6172C190.345 40.6172 191.033 40.4805 191.688 40.207C192.342 39.9238 192.908 39.4844 193.387 38.8887L195.525 41.335C195.203 41.8037 194.749 42.2578 194.163 42.6973C193.587 43.127 192.894 43.4785 192.083 43.752C191.272 44.0254 190.354 44.1621 189.329 44.1621ZM202.732 31.0664V49.9629H198.162V28.0195H202.425L202.732 31.0664ZM212.62 35.7686V36.0762C212.62 37.2285 212.488 38.2979 212.225 39.2842C211.961 40.2607 211.565 41.1152 211.038 41.8477C210.521 42.5801 209.881 43.1514 209.119 43.5615C208.357 43.9619 207.474 44.1621 206.468 44.1621C205.511 44.1621 204.681 43.9619 203.978 43.5615C203.284 43.1514 202.698 42.585 202.22 41.8623C201.751 41.1299 201.37 40.2949 201.077 39.3574C200.794 38.4102 200.574 37.3994 200.418 36.3252V35.7246C200.574 34.582 200.799 33.5225 201.092 32.5459C201.385 31.5693 201.766 30.7246 202.234 30.0117C202.703 29.2891 203.284 28.7275 203.978 28.3271C204.671 27.9268 205.496 27.7266 206.453 27.7266C207.449 27.7266 208.333 27.917 209.104 28.2979C209.876 28.6787 210.521 29.2256 211.038 29.9385C211.565 30.6416 211.961 31.4863 212.225 32.4727C212.488 33.459 212.62 34.5576 212.62 35.7686ZM208.035 36.0762V35.7686C208.035 35.124 207.986 34.5332 207.889 33.9961C207.791 33.4492 207.635 32.9756 207.42 32.5752C207.205 32.165 206.922 31.8477 206.57 31.623C206.219 31.3984 205.789 31.2861 205.281 31.2861C204.734 31.2861 204.271 31.374 203.89 31.5498C203.509 31.7256 203.201 31.9844 202.967 32.3262C202.732 32.6582 202.562 33.0684 202.454 33.5566C202.356 34.0449 202.303 34.6016 202.293 35.2266V36.8379C202.303 37.5703 202.405 38.2246 202.601 38.8008C202.806 39.3672 203.123 39.8115 203.553 40.1338C203.992 40.4463 204.578 40.6025 205.311 40.6025C205.828 40.6025 206.258 40.4902 206.6 40.2656C206.951 40.0312 207.229 39.7041 207.435 39.2842C207.649 38.8643 207.801 38.3809 207.889 37.834C207.986 37.2871 208.035 36.7012 208.035 36.0762ZM237.449 35.7246V39.2695H222.098L221.849 36.4863L230.579 22.541H234.197L230.271 29.0449L226.302 35.7246H237.449ZM235.164 22.541V43.8691H230.594V22.541H235.164Z" fill="#223D4D"/>
<path fill-rule="evenodd" clip-rule="evenodd" d="M144.625 3.11403C145.178 3.83193 145.466 4.71872 145.44 5.62433C145.414 6.52994 145.075 7.39874 144.482 8.0837L151.721 17.4898C151.848 17.655 151.904 17.8639 151.877 18.0707C151.85 18.2774 151.742 18.4649 151.577 18.592C151.412 18.7192 151.203 18.7755 150.996 18.7485C150.789 18.7216 150.602 18.6137 150.475 18.4485L143.237 9.04237C142.569 9.36882 141.822 9.49904 141.082 9.41789C140.343 9.33675 139.642 9.04758 139.061 8.58396C138.48 8.12035 138.042 7.50132 137.798 6.79877C137.555 6.09622 137.515 5.33898 137.685 4.615C137.854 3.89102 138.226 3.23001 138.756 2.70874C139.287 2.18747 139.954 1.82733 140.681 1.67016C141.407 1.51299 142.164 1.56522 142.862 1.8208C143.56 2.07638 144.172 2.52482 144.625 3.11403Z" fill="#3E5C6D"/>
<path fill-rule="evenodd" clip-rule="evenodd" d="M246.066 3.11403C245.513 3.83193 245.226 4.71872 245.252 5.62433C245.278 6.52994 245.616 7.39874 246.209 8.0837L238.971 17.4898C238.844 17.655 238.787 17.8639 238.814 18.0707C238.841 18.2774 238.949 18.4649 239.114 18.592C239.28 18.7192 239.489 18.7755 239.695 18.7485C239.902 18.7216 240.09 18.6137 240.217 18.4485L247.455 9.04237C248.123 9.36882 248.87 9.49904 249.609 9.41789C250.348 9.33675 251.049 9.04758 251.63 8.58396C252.212 8.12035 252.65 7.50132 252.893 6.79877C253.137 6.09622 253.176 5.33898 253.007 4.615C252.837 3.89102 252.465 3.23001 251.935 2.70874C251.405 2.18747 250.738 1.82733 250.011 1.67016C249.284 1.51299 248.528 1.56522 247.829 1.8208C247.131 2.07638 246.52 2.52482 246.066 3.11403Z" fill="#3E5C6D"/>
<line x1="0.5" y1="29" x2="0.5" y2="44" stroke="white"/>
<line x1="389.5" y1="27" x2="389.5" y2="42" stroke="white"/>
</svg>
