<?xml version="1.0" standalone="no"?>
<!DOCTYPE svg PUBLIC "-//W3C//DTD SVG 20010904//EN"
 "http://www.w3.org/TR/2001/REC-SVG-20010904/DTD/svg10.dtd">
<svg version="1.0" xmlns="http://www.w3.org/2000/svg"
 width="3536.000000pt" height="776.000000pt" viewBox="0 0 3536.000000 776.000000"
 preserveAspectRatio="xMidYMid meet">

<g transform="translate(0.000000,776.000000) scale(0.100000,-0.100000)"
fill="#000000" stroke="none">
<path d="M12518 4830 c-15 -4 -40 -17 -55 -28 -15 -10 -45 -22 -65 -26 -21 -4
-51 -18 -68 -33 -31 -26 -70 -91 -70 -116 0 -8 -12 -36 -26 -61 -22 -40 -26
-56 -22 -105 2 -35 12 -70 23 -87 22 -33 45 -112 38 -130 -3 -9 -18 -5 -51 12
-51 25 -211 57 -266 52 l-34 -3 28 -111 c15 -61 36 -126 45 -145 48 -94 115
-123 216 -93 11 3 24 -7 38 -31 34 -59 131 -174 151 -180 31 -10 60 12 60 44
0 20 -17 49 -55 96 -31 37 -63 82 -72 99 -35 65 -8 204 38 192 10 -4 29 -9 42
-12 12 -3 44 -17 70 -31 40 -21 59 -24 103 -21 33 3 65 13 82 25 15 11 48 24
72 28 59 10 123 72 140 135 6 25 23 69 37 97 30 63 26 121 -13 178 -13 20 -24
45 -24 56 0 31 -37 95 -67 117 -16 10 -46 25 -68 32 -22 6 -62 23 -89 36 -51
25 -90 29 -138 14z m104 -113 c19 -13 51 -27 72 -30 54 -9 86 -41 86 -88 0
-21 7 -42 16 -50 26 -21 45 -67 38 -93 -3 -13 -17 -34 -30 -47 -18 -17 -24
-33 -24 -64 0 -52 -22 -75 -82 -82 -24 -3 -56 -17 -71 -29 -37 -31 -78 -30
-115 1 -18 15 -42 25 -62 25 -43 0 -90 47 -90 90 0 20 -10 44 -25 62 -15 18
-25 42 -25 62 0 22 8 40 25 56 18 17 25 34 25 62 0 52 35 88 86 88 26 0 46 8
71 30 41 36 59 37 105 7z m-472 -539 c83 -31 79 -128 -6 -128 -29 0 -36 6 -53
38 -10 20 -23 54 -29 75 l-11 38 37 -7 c20 -4 48 -11 62 -16z"/>
<path d="M12543 4573 c-12 -2 -34 -18 -48 -34 -43 -51 -29 -123 30 -154 81
-44 169 28 144 118 -14 51 -69 82 -126 70z"/>
<path d="M17220 4825 c-19 -23 -8 -368 13 -415 42 -95 120 -164 212 -190 l45
-13 0 -69 c0 -38 -3 -68 -7 -66 -115 58 -128 62 -238 66 -131 5 -160 -4 -181
-54 -12 -29 -13 -49 -5 -99 12 -78 39 -132 87 -175 77 -67 90 -70 384 -70 290
0 305 3 378 65 71 60 116 189 93 267 -18 59 -51 71 -185 66 -111 -4 -124 -8
-238 -66 -5 -2 -8 27 -8 65 l0 69 54 17 c103 33 178 110 210 217 20 68 23 369
4 388 -22 22 -52 12 -175 -58 -68 -38 -128 -70 -134 -70 -7 0 -67 32 -134 70
-126 72 -154 81 -175 55z m195 -165 c57 -33 109 -60 116 -60 6 0 59 27 116 60
58 33 107 60 109 60 2 0 4 -55 4 -122 0 -101 -4 -131 -20 -167 -80 -176 -328
-182 -414 -10 -24 49 -26 63 -26 176 0 68 2 123 6 123 3 0 52 -27 109 -60z
m-39 -629 c64 -29 114 -109 114 -184 l0 -29 -107 3 c-92 4 -114 8 -146 28 -53
32 -89 90 -95 151 l-5 50 99 0 c75 0 109 -5 140 -19z m541 -33 c-8 -65 -47
-123 -102 -152 -31 -16 -63 -22 -142 -24 l-103 -4 0 30 c0 74 50 154 114 183
31 14 65 19 140 19 l99 0 -6 -52z"/>
<path d="M22525 4825 c-53 -19 -111 -82 -125 -136 -15 -56 0 -129 36 -176 l25
-33 -24 -32 c-66 -89 -60 -188 17 -264 64 -65 140 -77 239 -39 15 7 17 -2 17
-90 0 -53 -3 -95 -7 -93 -5 2 -32 15 -60 31 -98 51 -266 75 -293 42 -18 -22
-6 -109 23 -165 31 -60 105 -115 192 -143 100 -31 270 -31 372 1 128 40 206
125 220 241 9 75 -3 85 -97 78 -87 -7 -185 -35 -228 -66 -17 -11 -33 -21 -36
-21 -3 0 -6 43 -6 95 0 52 2 95 4 95 2 0 23 -7 46 -15 79 -28 146 -12 206 49
73 73 81 181 18 263 l-25 33 24 33 c66 88 60 187 -17 263 -73 73 -181 81 -263
18 l-33 -25 -32 24 c-64 47 -123 57 -193 32z m124 -90 c27 -14 61 -68 61 -97
-1 -7 -15 -22 -33 -33 -17 -11 -41 -35 -52 -52 -23 -37 -34 -39 -81 -17 -41
20 -64 59 -64 110 0 28 8 44 34 70 38 38 86 45 135 19z m337 -19 c26 -26 34
-42 34 -70 0 -51 -23 -90 -64 -110 -47 -22 -58 -20 -81 17 -11 17 -35 41 -52
52 -37 23 -39 34 -17 81 20 42 56 63 108 64 30 0 45 -7 72 -34z m-194 -193
c22 -20 23 -61 1 -85 -34 -38 -103 -11 -103 40 0 54 62 81 102 45z m-167 -116
c11 -17 35 -41 52 -52 37 -23 39 -34 17 -81 -20 -41 -59 -64 -110 -64 -51 0
-104 53 -104 104 0 50 23 90 62 109 47 23 60 21 83 -16z m331 17 c41 -20 64
-59 64 -110 0 -51 -53 -104 -104 -104 -51 0 -90 23 -110 64 -22 47 -20 58 17
81 17 11 41 35 52 52 23 37 34 39 81 17z m-379 -494 c68 -30 123 -88 123 -131
0 -19 -88 -1 -157 32 -49 23 -68 40 -88 73 -14 24 -25 46 -25 51 0 13 98 -3
147 -25z m493 23 c0 -3 -11 -25 -25 -49 -20 -33 -39 -50 -88 -73 -75 -36 -157
-51 -157 -29 0 21 40 78 71 101 51 37 199 75 199 50z"/>
<path d="M27979 4766 c-26 -18 -88 -93 -94 -113 0 -1 -25 7 -55 17 -145 50
-200 12 -200 -139 0 -44 5 -104 11 -133 34 -159 152 -282 309 -323 l45 -11 3
-82 3 -83 -63 32 c-85 44 -197 79 -222 70 -24 -9 -36 -39 -26 -66 5 -14 30
-27 81 -44 92 -29 152 -59 212 -105 50 -38 87 -45 107 -21 24 29 133 88 222
120 50 17 94 39 99 48 13 22 -5 63 -30 70 -25 6 -181 -45 -238 -79 l-43 -25 0
84 0 84 41 7 c107 17 224 107 277 212 37 75 52 144 52 245 0 111 -28 159 -92
159 -22 0 -114 -21 -148 -34 -10 -4 -22 7 -38 34 -13 22 -41 54 -64 70 -51 37
-100 39 -149 6z m115 -118 c20 -23 36 -46 36 -52 0 -5 -17 -35 -37 -65 -48
-71 -45 -68 -50 -53 -3 7 -20 36 -39 63 -19 28 -34 54 -34 58 0 11 70 91 80
91 5 0 25 -19 44 -42z m-266 -86 c78 -35 142 -141 161 -262 16 -98 14 -130 -6
-130 -33 1 -101 38 -147 80 -68 63 -98 134 -104 249 l-5 93 34 -7 c19 -4 49
-14 67 -23z m540 -71 c-6 -103 -28 -160 -88 -225 -40 -43 -130 -96 -164 -96
-20 0 -21 43 -2 143 27 138 90 224 188 258 29 9 57 15 62 12 5 -3 6 -45 4 -92z"/>
<path d="M6999 4719 c-20 -20 -21 -29 -17 -207 3 -167 6 -192 25 -235 40 -87
101 -144 181 -168 l42 -12 0 -104 c0 -104 0 -104 -22 -97 -82 25 -158 83 -193
148 -21 38 -48 50 -77 35 -32 -17 -22 -62 30 -130 54 -71 131 -123 210 -141
34 -8 54 -19 58 -30 14 -44 75 -42 89 2 3 11 15 20 26 20 69 0 202 85 255 164
39 58 44 100 14 116 -30 16 -53 5 -74 -35 -36 -66 -111 -124 -193 -149 -23 -7
-23 -7 -23 97 l0 104 38 11 c95 29 171 109 197 208 17 67 21 363 5 393 -24 46
-60 35 -104 -30 l-32 -48 -49 49 c-79 80 -133 78 -215 -5 l-44 -44 -32 48
c-28 41 -51 61 -70 61 -2 0 -13 -9 -25 -21z m329 -122 l42 -43 -33 -32 c-18
-18 -43 -32 -57 -32 -14 0 -39 14 -57 32 l-33 32 42 43 c23 24 45 43 48 43 3
0 25 -19 48 -43z m-94 -192 c44 -17 48 -17 92 0 27 10 68 40 100 71 l54 54 0
-95 c0 -75 -4 -104 -19 -133 -77 -151 -285 -151 -362 0 -15 29 -19 58 -19 133
l0 95 54 -54 c32 -31 73 -61 100 -71z"/>
<path d="M7198 3507 c-26 -8 -66 -27 -89 -43 -41 -28 -109 -117 -109 -141 0
-10 -322 -13 -1620 -13 l-1620 0 0 -45 0 -45 1609 0 1608 0 12 -59 c40 -204
282 -304 456 -189 61 40 112 117 126 190 l12 58 2267 0 2267 0 12 -59 c40
-204 282 -304 456 -189 61 40 112 117 126 190 l12 58 2257 0 2257 0 12 -59
c40 -204 282 -304 456 -189 61 40 112 117 126 190 l12 58 2307 0 2307 0 12
-59 c40 -204 282 -304 456 -189 61 40 112 117 126 190 l12 58 2347 0 2347 0
12 -59 c40 -204 282 -304 456 -189 61 40 112 117 126 190 l12 58 1618 0 1619
0 0 45 0 45 -1628 0 -1628 0 -12 35 c-18 47 -87 116 -147 145 -67 33 -178 34
-246 3 -58 -26 -120 -86 -145 -141 l-19 -41 -2365 -1 -2366 0 -12 35 c-18 47
-87 116 -147 145 -67 33 -178 34 -246 3 -58 -26 -120 -86 -145 -141 l-19 -41
-2325 -1 -2326 0 -12 35 c-18 47 -87 116 -147 145 -67 33 -178 34 -246 3 -58
-26 -120 -86 -145 -141 l-19 -41 -2275 -1 -2276 0 -12 35 c-18 47 -87 116
-147 145 -67 33 -178 34 -246 3 -58 -26 -120 -86 -145 -141 l-19 -41 -2285 -1
-2286 0 -12 35 c-17 46 -87 116 -143 143 -57 28 -149 36 -211 19z m5300 -93
c78 -32 132 -111 132 -194 0 -113 -97 -210 -210 -210 -146 0 -250 155 -194
288 44 107 168 160 272 116z m5120 0 c78 -32 132 -111 132 -194 0 -113 -97
-210 -210 -210 -146 0 -250 155 -194 288 44 107 168 160 272 116z m5220 0 c78
-32 132 -111 132 -194 0 -113 -97 -210 -210 -210 -146 0 -250 155 -194 288 44
107 168 160 272 116z m5300 0 c78 -32 132 -111 132 -194 0 -113 -97 -210 -210
-210 -146 0 -250 155 -194 288 44 107 168 160 272 116z"/>
</g>
</svg>
